<?xml version="1.0" encoding="utf-8"?>
<!-- Generator: Adobe Illustrator 25.2.1, SVG Export Plug-In . SVG Version: 6.00 Build 0)  -->
<svg version="1.1" id="Слой_1" xmlns="http://www.w3.org/2000/svg" xmlns:xlink="http://www.w3.org/1999/xlink" x="0px" y="0px"
	 viewBox="0 0 595.3 841.9" style="enable-background:new 0 0 595.3 841.9;" xml:space="preserve">
<style type="text/css">
	.st0{fill:#FFFCF2;}
	.st1{fill:#5895A2;}
	.st2{fill:#FFFFFF;}
	.st3{fill:#5996A2;}
</style>
<circle class="st0" cx="297.6" cy="420.9" r="243.5"/>
<path class="st1" d="M541,420.9L541,420.9c0,134.5-109,243.6-243.5,243.6S54,555.5,54,421v-0.1H541z"/>
<path class="st1" d="M383,332.7c-1.9,2.5-3.5,4.6-5.2,6.6c-3.3,3.7-7.5,5.2-12.4,5.2c-2.3,0-4.6,0-7.3,0c0,1.3,0,2.5,0,3.7
	c0.1,4.2,0.6,8.4,0.3,12.6c-0.7,9-1.9,18-2.8,27c-0.8,7.3-3.3,14.2-6.3,20.8c-2,4.4-4.2,8.8-7.9,12.3c-1.5,1.4-1.8,4.1-2.7,6.1
	c-2.9,6.4-3.6,13.2-4.3,20.2c-0.5,4.4-1.9,8.6-3,12.9c-1.2,4.4-2,8.5,0.8,12.9c2.2,3.3,3.3,7.4,4.8,11.1c0.6,1.4,0.8,2.9,1.3,4.3
	c1.1,3-0.8,4.8-2.5,6.7c-1.3,1.5-2.9,2.7-4.2,4.2c-0.4,0.5-0.6,1.3-0.6,2c0.2,2.5,0.6,4.9,0.9,7.4c0.1,0.8,0,1.7,0,2.5
	c0.2,4.7-0.1,9.3,1.4,14c1.2,3.8,0.6,8.2,0.6,12.3c0,2.2-0.1,4.5,1.2,6.5c1,1.6,0.4,3.1-1,4.2c-1.8,1.5-3.6,2.9-3.3,5.6
	c0.1,0.6,0.1,1.3,0.3,1.9c0.8,1.7,1.1,3.3-0.1,4.9c-0.9,1.2-1,2.5-0.6,4.1c0.6,2.4,0.3,5.1,1.1,7.4c1.8,5.1,1.6,10.3,1.6,15.5
	c0,0.8,0.6,1.5,0.8,2.3c0.5,3.1-0.5,4.8-4,5.4c-5.5,0.9-11.1,2-16.7,2.1c-4.8,0-9.6-0.2-14.4-1.8c-2.9-1-6.1-1-9.2-1.4
	c-0.5-0.1-1.2-0.2-1.5-0.5c-1.3-1.6-2.9-1.5-4.7-1.6c-3.7-0.3-7.6-0.4-11.1-1.4c-2.8-0.8-5.5-2.5-7.9-4.2c-2.3-1.6-2.5-4.5-0.8-7.1
	c2.6-4,6.1-5.8,10.9-5.4c3.4,0.3,6.8,0.2,9.8-1.8c0.6-0.4,1.1-1,1.6-1.5c2.3-2.4,4.6-4.7,6.7-7.2c1.8-2.2,2.6-4.8,2.3-7.7
	c-0.1-0.7-0.1-1.4-0.4-2c-0.2-0.5-0.6-1.1-1.1-1.2c-1.7-0.4-3.4-0.6-5.1-0.9c-3.3-0.7-4.9-4-3.7-7.3c0.6-1.7,0.9-3.6,1.4-5.4
	c0.3-1.1,0.7-2.2,1.2-3.3c0.7-1.5,0.7-2.6-0.5-3.9c-1.9-2.2-3.6-4.6-5-7.1c-2.1-3.7-4.2-7.5-5.9-11.4c-1-2.3-1.1-4.9-1.6-7.4
	c-0.5-2.6-1-5.1-1.4-7.7c-0.3-1.8-0.6-3.7-0.7-5.6c-0.2-3.8,0-7.7-0.5-11.5c-0.5-3.7-1.8-7.3-2.4-11.1c-0.6-3.8-0.8-7.7-1.1-11.6
	c-0.3-4.5,0.5-8.9-1.2-13.4c-1.1-3-1.7-6.2-1.6-9.6c0.1-4.1-0.5-8.2-0.7-12.3c-0.1-1.4,0.1-2.8,0.4-4.1c0.5-2.1,0.4-4-0.7-6
	c-0.6-1.2-0.7-2.9-0.6-4.3c0.2-2.5,0.6-5.1,1.3-7.5c0.5-1.7,0-3.1-1-4.2c-1.4-1.5-1.4-3.2-1.1-4.9c0.6-3.3,1.5-6.6,2.1-9.9
	c0.2-0.9,0.2-1.9,0.3-2.9c0.1-0.9,0.3-1.8,0.6-3.2c-1.3-1.5-3.2-2.9-5.7-3.4c-2.4-0.4-3.9-1.8-4.9-4c-0.7-1.5-1.8-2.8-2.7-4.2
	c-1.2,1.1-2,2.5-3,2.6c-2.3,0.2-3.8,1.5-5.5,2.8c-1.4,1.1-3.4,0.2-4.2-1.2c-1.5-2.6-3.4-1.8-5.3-1.1c-4,1.6-7.9,3.3-12,4.8
	c-1.9,0.7-4.1,0.8-6,1.6c-3.7,1.4-7.7,1.7-11,4.3c-2.6,2-4.9,0.7-6.5-2.9c-0.6-1.4-1.3-2.7-1.6-4.2c-0.5-2.4-2.6-2.8-4.3-3.5
	c-0.4-0.2-1.8,1-2.1,1.8c-1.3,3.8-2.6,7.7-3.6,11.6c-1.1,4.3-1.1,8.6-0.9,13.1c0.3,5.8,2.1,11.1,3.9,16.4c1.9,5.6,4.8,10.6,8.4,15.3
	c2.8,3.7,5.6,7.4,8.5,11.1c1.4,1.8,2.9,3.5,4.5,5.1c1.2,1.2,1.6,2.2,0.5,3.6c-1.6,1.9-3.7,2.4-5,1.2c-0.8-0.7-1.5-1.6-2.2-2.5
	c-4-5.4-8.2-10.6-11.9-16.2c-3.2-5-6.1-10.3-8.6-15.7c-2.1-4.8-4-9.8-3.8-15.3c0.1-5.1-0.2-10.2,0.6-15.2c0.6-3.9,2.5-7.6,3.8-11.3
	c0.7-1.9,1.6-3.8,2.3-5.7c0.4-1.3,0.2-2.5-0.2-3.9c-0.6-2.7-0.6-5.6-0.2-8.4c0.4-2.8,1.9-5.2,4.1-7.1c0.3-0.3,0.6-0.8,0.7-1.2
	c0.2-1.8,1.5-2.6,2.5-3.8c1-1.2,1-3.2,1.4-4.8c0.2-0.9,0.2-2,0.7-2.6c1.5-1.5,3.5-2.6,4.8-4.2c1.5-1.9,3.1-4.3,3.2-6.5
	c0.2-3.7,1.5-6.2,4.9-7.6c1-0.4,1.5-0.9,1.3-2c-0.1-0.4-0.1-0.9,0.1-1.2c2.2-2.9,3.3-6.7,6.7-8.6c1.1-0.6,2.4-0.8,3.6-1.2
	c3-1,6.1-2.1,9.1-3.2c0.4-0.2,0.9-0.6,1.1-1c2-4.1,5.1-7,9.4-8.5c1.9-0.7,3.1-2,3-4.2c0-0.4,0.2-1,0.5-1.3c3.6-3.2,6.5-7.2,11-9.4
	c0.6-0.3,1.1-1.2,1.1-1.9c0-1.7,0.9-2.9,2.3-3.1c1.6-0.2,2.3-1.1,3-2.3c2.2-4,6-4.8,10.1-4.7c1.8,0,3.6,0.2,5.4,0.4
	c1.2,0.1,2.4,0.4,3.6,0.7c1.2,0.2,2.1,0.3,2.4-1.3c0.4-1.8,0.8-3.8,2.7-4.9c0.3-0.2,0.6-1.1,0.4-1.6c-1.7-4.2-3.4-8.5-5.4-12.6
	c-0.4-0.8-1.9-1-3-1.3c-2.9-0.9-5.9-1.5-8.7-2.6c-3.2-1.3-3.5-3.7-0.8-5.7c1.6-1.2,3.4-2.1,5.1-3.1c1.2-0.7,2.1-1.6,2.3-3.2
	c0.3-3.3,1.2-6.5,3-9.4c2.4-3.9,5.3-7.1,9.5-8.9c2.7-1.1,5.4-2.7,8.3-3.1c10.1-1.5,19,0.9,25.7,9c2.3,2.7,4.2,6,4.3,9.9
	c0,0.5,0.8,1.3,1.4,1.5c2.2,0.7,4.5,1.3,6.8,1.7c1.8,0.4,3.4,1.2,3.9,3s-1,3.1-2.4,3.7c-2.4,1.1-4.9,1.7-7.3,2.6
	c-0.7,0.3-1.6,0.8-1.8,1.5c-1.3,3.7-3.1,6.9-6.1,9.4c-2.4,2-0.9,6.8,2.3,8c0.8,0.3,1.6,0.8,2.5,1c1,0.2,2.1,0.3,3.1,0.4
	c2.4,0.2,4.7,0.2,7.1,0.5c2.7,0.4,5.7,0.5,8.1,1.6c4.1,1.8,8.1,4.1,11.7,6.7c1.7,1.3,2.6,3.9,3.5,6c0.4,0.9,0.2,2.1,0,3.1
	s-0.2,1.3,0.8,2c1.5,1.2,2.6,3,3.8,4.6c0.6,0.8,1.1,1.6,1.5,2.5c1.3,2.7,1.6,2.8,4.2,1.8c8.9-3.3,17.9-6.6,26.9-10
	c1.9-0.7,3.9-1.3,5.8-2.2c0.6-0.3,1.2-1.4,1.2-2.1c0-1.8,0.8-2.8,2.3-3.3s2.2,0.4,2.8,1.6c0.2,0.4,1.3,0.7,2,0.6
	c2.2-0.4,3.1,0,3.8,2.1c0.7,2.1,1.4,4.1,2,6.2c0.8,2.5,1.6,3.1,4.1,2.4c2.6-0.8,5.2-1.7,7.7-2.8c5.7-2.5,10.3,0.1,12.8,4.6
	c0.5,0.9-0.1,2.7-0.6,4c-1.2,3.7-4,5.6-7.7,6.7c-2.8,0.8-5.5,2.2-8.2,3.5c-0.6,0.3-1.3,1.4-1.2,2.1c0.5,3,1.3,5.9,2,8.8
	c0.6,2.8,1.6,5.7,1.7,8.5c0.1,4.4,0.9,8.8-1.2,13c-0.9,1.8-1.5,3.8-2.8,5.2c-3,3.4-6.1,6.7-9.6,9.5c-3,2.5-6.7,4.2-10.7,4.4
	c-5,0.3-9.2-1.8-12.6-5.2c-2.5-2.5-4.6-5.5-6.7-8.4C383.2,335.1,383.3,334,383,332.7z M404.1,344.1c1.2-0.5,3.3-1.1,5.3-2.1
	c4.1-2,6.9-5.5,9.6-9c3.3-4.5,4.9-9.6,3.7-15.2c-1-4.8-2.3-9.4-5.1-13.5c-1.3-1.8-4.4-3.8-5.8-3.4c-4,1.2-8,2.2-12,3.5
	c-5.5,1.8-10.9,3.8-16.3,5.8c-1.3,0.5-1.3,1.3-0.9,2.5c1.4,4.3,2.9,8.6,3.9,13c1.1,4.6,2.6,9,5.6,12.7
	C394.9,341.6,398.5,343.8,404.1,344.1z M251.4,327c0-2.7-0.4-3.2-1.8-2.5c-5.2,2.5-10.5,5-15.7,7.6c-1.1,0.5-1.9,1.5-2.9,2.3
	c1.3,0.2,2.6,0.5,3.9,0.7c0.1,0,0.3-0.1,0.4-0.1c4.7-1.7,9.3-3.5,14-5.2C251,329.3,251.8,328.5,251.4,327z M232.6,341.2
	c1.1-0.3,2-0.4,2.8-0.8c0.5-0.3,0.8-1,1.2-1.5c-0.7-0.4-1.4-1.1-2-1c-0.8,0.1-1.7,0.6-2.4,1.1c-0.4,0.3-0.9,1.1-0.8,1.4
	S232.2,341,232.6,341.2z M207.4,365.6c-0.3,0.1-0.6,0.3-0.8,0.4c0.6,1.9,1.2,3.9,1.9,5.8c0.1,0.4,1,0.4,1.5,0.6
	c0.2-0.5,0.6-1.1,0.5-1.4C209.5,369.2,208.4,367.4,207.4,365.6z M209.9,364.9c0.3-0.2,0.7-0.4,1-0.6c-0.8-1.7-1.5-3.4-2.4-5.1
	c-0.1-0.2-0.8-0.4-1.1-0.3s-0.7,0.8-0.6,0.9C207.8,361.5,208.9,363.2,209.9,364.9z M223.2,339.3c2.5-0.4,3.4-1.1,3.7-2.7
	C225,336.4,223.7,337.3,223.2,339.3z"/>
<circle class="st0" cx="381.7" cy="550.1" r="47.3"/>
<g>
	<path class="st0" d="M252.5,523.2c0-2.2-1.7-4-3.9-4.2c-18-1.7-32.7-11.3-37.5-14.8c-1-0.7-2.4-0.7-3.4,0
		c-4.8,3.5-19.5,13.1-37.5,14.8c-2.2,0.2-3.8,2-3.9,4.2c-0.2,14.2,2.1,62.4,42,73.1c0.7,0.2,1.5,0.2,2.2,0
		C250.4,585.6,252.7,537.4,252.5,523.2z"/>
</g>
<g>
	<path class="st1" d="M211.6,523.4v9.8l0.2-0.3l-0.1,2.1c-0.1,1-0.1,1.8-0.1,2.5v9.4h0.2v-23.6H211.6z"/>
	<polygon class="st1" points="230.6,555.4 230.6,564.6 223.3,564.6 223.3,576.7 211,576.7 211,564.6 188.1,564.6 188.1,555.4 
		206.7,527.4 206.7,540.9 197.4,555.4 211.6,555.4 211.6,547 211.8,547 211.8,523.4 223.3,523.4 223.3,555.4 	"/>
	<polygon class="st1" points="206.9,527 206.9,540.6 206.7,540.9 206.7,527.4 	"/>
</g>
<g>
	<polygon class="st2" points="162,448.8 157.6,463.1 153.5,463.1 149.2,448.8 149.5,448.8 149.5,437.8 151.5,437.8 156,452.9 
		160.7,437.8 161.8,437.8 161.8,448.8 	"/>
	<polygon class="st2" points="169.9,437.8 169.9,463.1 163.9,463.1 163.9,442.5 163.9,442.6 163.9,437.8 	"/>
	<polygon class="st2" points="147.3,437.8 147.3,442.7 147.3,442.5 147.3,463.1 142.3,463.1 142.3,437.8 	"/>
	<path class="st2" d="M187.4,437.8h-6.9l-8.1,25.3h5.2l1.6-5.2h8.2l1.6,5.2h6.4L187.4,437.8z M180.6,453.2l2.7-8.9l2.7,8.9H180.6z"
		/>
	<path class="st2" d="M217.7,454.2c-0.4,3-1.5,5.3-3.4,6.9c-1.7,1.4-3.7,2.2-6.1,2.3v-4.9c2-0.3,3.3-1.9,3.8-4.7L217.7,454.2z"/>
	<path class="st2" d="M202.6,450.5c0,3.2,0.4,5.3,1.3,6.5c0.6,0.8,1.3,1.3,2.1,1.5v5c-2.8-0.3-5-1.4-6.9-3.4
		c-2.1-2.3-3.1-5.5-3.1-9.6c0-3.8,1-7,3.1-9.4c1.8-2.1,4.1-3.3,6.9-3.6v5C203.7,443.1,202.6,445.8,202.6,450.5z"/>
	<path class="st2" d="M217.7,447.2l-6.2,0.4c-0.1-3.2-1.2-4.9-3.3-5.3v-4.9C213.8,437.7,216.9,440.9,217.7,447.2z"/>
	<path class="st2" d="M234.8,437.8v9.9h-7.9v-9.9h-5.8v25.3h5.8v-10.5h7.9v10.5h5.8v-25.3H234.8z"/>
	<path class="st2" d="M245.7,437.8v25.3h5.9v-25.3H245.7z"/>
	<path class="st2" d="M261.3,446.9v9.7h0.1V448C261.3,447.7,261.3,447.3,261.3,446.9z"/>
	<path class="st2" d="M276.2,437.8v25.3h-4.7v-10.7l0.2,0.3c-0.1-0.7-0.1-1.3-0.1-1.7v-13.2L276.2,437.8L276.2,437.8z"/>
	<path class="st2" d="M261.3,456.6v6.5h-4.6v-25.3h4.5v8.3l0,0c0,0.4,0,0.7,0,0.8L261.3,456.6L261.3,456.6z"/>
	<polygon class="st2" points="269.5,448.8 269.5,460.2 263.4,449.7 263.4,438.2 	"/>
	<rect x="289.3" y="437.8" class="st2" width="10.1" height="4.8"/>
	<rect x="289.3" y="447.8" class="st2" width="7.5" height="4.8"/>
	<rect x="289.3" y="458.1" class="st2" width="10.1" height="5"/>
	<rect x="281.3" y="437.8" class="st2" width="5.9" height="25.3"/>
	<path class="st2" d="M318.5,444.4c-0.8,1.5-1.2,3.5-1.2,6.2c0,2.6,0.5,4.6,1.3,6c0.5,0.8,1.2,1.4,2,1.7v5.1c-2.8-0.2-5-1.4-6.7-3.5
		c-1.8-2.4-2.8-5.4-2.8-9.2c0-4,1-7.3,2.9-9.7c1.7-2.1,3.8-3.3,6.5-3.6v5C319.8,442.8,319.1,443.5,318.5,444.4z"/>
	<path class="st2" d="M332.2,446.1l-5.6,0.7c-0.4-2.8-1.7-4.3-3.8-4.6v-4.8c2.5,0.1,4.6,0.9,6.2,2.3
		C330.7,441.4,331.8,443.5,332.2,446.1z"/>
	<path class="st2" d="M332.2,449.6v13.5h-2.7c-0.2-1-0.5-1.9-0.8-2.9c-1.6,1.9-3.5,3-5.9,3.3v-4.8c0.9,0,1.8-0.4,2.5-1
		c0.8-0.7,1.2-1.8,1.2-3.3h-4.8v-4.7L332.2,449.6L332.2,449.6z"/>
	<path class="st2" d="M346.3,458.6v4.9c-2.2,0-4-0.4-5.4-1.1c-1.4-0.7-2.5-1.7-3.2-3.1c-0.7-1.3-1.1-3.3-1.1-5.8v-15.8h6.4v15.8
		c0,1.4,0.1,2.4,0.3,3c0.2,0.6,0.7,1.2,1.4,1.5C345.2,458.3,345.7,458.5,346.3,458.6z"/>
	<path class="st2" d="M356.8,437.8v15.8c0,2.5-0.3,4.4-0.9,5.7c-0.6,1.2-1.7,2.3-3.2,3.1c-1.2,0.6-2.6,1-4.4,1.1v-4.9
		c0.6-0.1,1.2-0.2,1.6-0.5c0.7-0.4,1.2-0.9,1.4-1.5s0.4-1.6,0.4-3.1v-15.8L356.8,437.8L356.8,437.8z"/>
	<path class="st2" d="M366.1,447.1v6.6l0,0V448C366.1,447.7,366.1,447.4,366.1,447.1z M376.4,446.2v4.8c0,0.1,0,0.2,0,0.3V446.2
		L376.4,446.2z"/>
	<polygon class="st2" points="374.3,448.9 374.3,460.3 368.2,449.7 368.2,438.2 	"/>
	<path class="st2" d="M381,437.8v25.3h-4.6v-10.6l0.1,0.2c0-0.6-0.1-1-0.1-1.4v-5.1l0,0v-8.4H381z"/>
	<path class="st2" d="M366.1,453.6v9.5h-4.6v-25.3h4.6v8.3L366,446c0,0.4,0,0.7,0,0.8s0,0.1,0,0.2L366.1,453.6L366.1,453.6z"/>
	<path class="st2" d="M390.7,447.7v5.6l0,0V448C390.7,447.9,390.7,447.8,390.7,447.7z M401,445.8v5.3c0,0.2,0,0.4,0,0.7V445.8
		L401,445.8z"/>
	<path class="st2" d="M390.7,453.3v9.8h-4.6v-25.3h4.6v8.4l-0.1-0.2c0,0.4,0,0.7,0,0.8c0,0.3,0.1,0.6,0.1,0.9V453.3L390.7,453.3z"/>
	<path class="st2" d="M405.6,437.8v25.3h-4.5v-10.5l0.1,0.1c0-0.4-0.1-0.7-0.1-1v-6l0,0v-8L405.6,437.8L405.6,437.8z"/>
	<polygon class="st2" points="398.9,448.9 398.9,460.4 392.8,449.8 392.8,438.3 	"/>
	<polygon class="st2" points="416.7,442.6 416.7,447.8 416.7,447.8 416.7,452.6 416.7,452.6 416.7,458.1 416.7,458.1 416.7,463.1 
		410.6,463.1 410.6,437.8 416.7,437.8 	"/>
	<rect x="418.8" y="447.8" class="st2" width="7.4" height="4.8"/>
	<rect x="418.8" y="437.8" class="st2" width="10" height="4.8"/>
	<rect x="418.8" y="458.1" class="st2" width="10" height="5"/>
	<path class="st2" d="M448.3,451.9c2.9-1.3,4.4-3.5,4.4-6.5c0-1.6-0.4-3-1.2-4.2c-0.8-1.3-1.9-2.2-3.1-2.6c-1.2-0.5-2.9-0.7-5-0.7
		h-3.1v4.5h1.4c1.4,0,2.3,0.1,2.8,0.2c0.5,0.1,1,0.5,1.4,1c0.4,0.6,0.6,1.2,0.6,1.9c0,0.8-0.2,1.4-0.6,2s-0.9,1-1.4,1.1
		c-0.5,0.2-1.4,0.2-2.6,0.2h-3.6v-11h-6v25.3h6v-10h4.2l3.9,10h6.6L448.3,451.9z"/>
</g>
<g>
	<path class="st3" d="M362,526.3h22.1c4,0,6.9,0.5,8.9,1.5c2,0.9,3.6,2.4,4.9,4.1s2,4,2,6.7c0,5.2-2.8,8.8-8.5,10.5
		c3.3,0.8,5.7,2.3,7.5,4.4c1.6,2.3,2.5,4.7,2.5,7.2c0,3.6-1.3,6.7-4,9.2c-2.7,2.5-7.1,3.9-13.1,3.9h-22.1L362,526.3L362,526.3z
		 M373.1,534.7v10.4h8.4c3.1,0,5.1-0.7,5.9-1.9s1.2-2.4,1.2-3.5c0-1.2-0.3-2.3-0.9-3.1c-0.7-0.9-1.3-1.5-2.1-1.6
		c-0.8-0.3-2.4-0.3-4.7-0.3L373.1,534.7L373.1,534.7z M373.1,553.7v11.5h8.5c2.9,0,4.9-0.5,6.1-1.6c1.2-1.1,1.9-2.4,1.9-4.3
		c0-1.6-0.5-2.8-1.7-4c-1.2-1.1-3.1-1.6-5.7-1.6L373.1,553.7L373.1,553.7z"/>
</g>
</svg>
