<?xml version="1.0" encoding="utf-8"?>
<!-- Generator: Adobe Illustrator 25.2.1, SVG Export Plug-In . SVG Version: 6.00 Build 0)  -->
<svg version="1.1" id="Слой_1" xmlns="http://www.w3.org/2000/svg" xmlns:xlink="http://www.w3.org/1999/xlink" x="0px" y="0px"
	 viewBox="0 0 595.3 841.9" style="enable-background:new 0 0 595.3 841.9;" xml:space="preserve">
<style type="text/css">
	.st0{fill:#FFFCF2;}
	.st1{fill:#5895A2;}
	.st2{fill:#FFFFFF;}
</style>
<circle class="st0" cx="297.6" cy="420.9" r="243.5"/>
<path class="st1" d="M541,420.9L541,420.9c0,134.5-109,243.6-243.5,243.6S54,555.5,54,421v-0.1H541z"/>
<ellipse class="st0" cx="277.9" cy="289" rx="9.9" ry="12.4"/>
<ellipse transform="matrix(0.9903 -0.1387 0.1387 0.9903 -37.9021 36.1039)" class="st0" cx="240.1" cy="290" rx="9.9" ry="12.4"/>
<path class="st1" d="M251.1,439.4c-2.2,1.5-4.1,2.6-5.7,4.1c-1.8,1.9-4,1.6-6.2,1.5c-2.7-0.2-5.5-0.6-8.1-0.9
	c-6.2-0.5-12.4-1-18.5-1.5c-0.4-0.1-1.3-0.6-1.3-0.7c0.1-0.6,0.3-1.5,0.8-1.8c2.7-1.8,5.5-3.5,8.4-5c6.4-3.4,12.8-6.7,19.1-10.2
	c1.2-0.6,2-2.1,2.8-3.3c1.6-2.3,3.7-4.4,4.4-7c1-3.4,2.9-6.6,1.7-10.5c-0.6-2.3-0.4-5,0.7-7.6c0.7-1.6,0.1-3.9-0.3-5.8
	c-0.9-4.3-2.3-8.4-3-12.6c-0.8-4.8-1-9.7-1.5-14.5c-0.1-0.8-0.1-1.5-0.2-2.4c-2.6,0.7-4.9,1.5-7.2,1.9c-1,0.2-2.6,0.1-3-0.4
	c-0.7-0.9-0.6-2.4-0.9-3.8c-0.1,0-0.8-0.1-1-0.1c-0.2-1.3-0.6-2.5-0.4-3.4c0.3-1.1,0.9-2.7,1.8-3c2.6-1,5.4-1.3,8.1-2
	c0.9-0.3,2.3-1,2.3-1.4c-0.1-1-0.7-2.5-1.5-2.8c-4.1-1.8-8.2-3.4-12.3-4.8c-2.3-0.8-2.5-1.2-1.8-3.6c1.3-4,2.3-8.1,3.3-12.1
	c0.1-0.5-0.4-1.2-0.3-1.8c0.1-1,0.1-2.3,0.6-3c1.1-1.1,1.3-2.1,0.7-3.6c-0.7-1.8-1.3-3.7-1.7-5.6c-0.3-1.4-0.2-3,0.3-4.3
	c1.1-2.9,0.8-5.7,0.9-8.6c0.1-6.5,0.8-13.1,0.8-19.6c0.1-4-0.6-8-0.9-11.9c-0.1-0.6-0.2-1.2,0.1-1.7c1.1-2.5,1.8-5.4,3.6-7.6
	c3.5-4.4,7-8.8,12-11.7c0.3-0.1,0.5-0.6,0.7-0.6c4.9,0.8,4.4-4.2,6.7-6.2c2-1.8,2-3.9,0.4-5.9c-0.6-0.7-1.3-1.5-2-1.8
	c-2-0.9-4-1.5-6-2.5c-0.5-0.3-1-1-1-1.6c0-0.7,0.3-2,0.7-2c4.1-0.7,5.5-3.9,6.8-7.2c2-5.3,6-8.1,11.4-9.3c6-1.4,11.6-0.9,16.8,2.6
	c3.3,2.3,5.7,5.5,7.1,9.1c0.9,2.2,2.4,3.3,4.4,4.2c1,0.4,2,1.4,2.2,2.3c0.1,0.6-1.1,1.8-1.9,2.2c-1.5,0.8-3.2,1.1-4.8,1.7
	c-0.9,0.3-1.8,0.9-2.7,1.4c0.7,1,1.4,1.7,1.8,2.5c0.7,1.4,1.7,3-1.2,3.4c-0.6,0.1-1.1,1-1.4,1.7c-0.4,1-0.4,2.2-1,3
	c-2.4,3.9,1,5.9,2.8,8.1c1.9,2.3,3.5,4.6,3.4,7.7c0,0.6,0.4,1.1,0.6,1.7c0.8,2.1,1.4,4.3,2.3,6.3c0.6,1.4,1.8,2.6,2.3,4
	c0.8,2.7,2.9,4.3,4.7,6.2c2.3,2.3,5.2,3.2,8.4,3.6c0.9,0.1,1.9,0.1,2.7,0.5c3.8,1.8,7.9,1.5,11.9,2c3.5,0.4,6.7,0.1,10.1-1
	c2.2-0.7,4,0.5,5.5,2.2c2,2.3,4.1,4.7,6.2,6.9c1.3,1.3,1.5,2.3,0.2,3.9c-3.6,4.4-7.1,8.9-10.6,13.4c-3.7,4.7-7.3,9.5-10.9,14.3
	c-2.2,2.9-4.3,5.7-6.2,8.6c-0.4,0.5-0.3,1.9,0.1,2.2c0.8,0.6,2,1,3.1,1.2c0.3,0.1,0.7-1,1.1-1.5c0.4-0.6,0.8-1.1,1.1-1.7
	c0.4,0.6,1,1.1,1.2,1.7c0.8,2.7,1.5,5.5,2.2,8.3c0.1,0.6-0.1,1.4-0.4,1.8c-0.8,1-1.9,1.9-2.9,2.9c-1.4,1.4-1.7,2.7,0,4.3
	c2.7-1.6,4.6,0.4,6.9,1.8c0,0.4,0.2,1,0,1.5c-0.5,1.2-0.1,1.4,1,2.2c2.6,1.8,4.9,4.1,7,6.4c1.1,1.1,1.3,3.1,3.8,2.3
	c1.3-0.4,2.4,1.8,1.7,3.2c-0.5,1-1.3,1.8-2.2,3.1c2.3,3.8,4.9,7.9,7.4,11.9c2.6,4.1,5.3,8.2,8.1,12.2c2.4,3.6,5,7.1,7.2,10.8
	c1.9,3,3.6,6.2,5.5,9.1c2.5,3.9,5.1,7.6,7.8,11.4c0.5,0.7,1.6,1,2.4,1.5c0.2,0.1,0.5-0.1,0.7,0.1c1,0.7,2,1.4,3,2.2
	c-1.1,0.7-2.1,1.8-3.3,2c-2.1,0.3-4.3,0.1-6.5,0.1c-2-0.1-3.4-1.4-2.5-2.7c1.8-2.9-0.6-3.8-1.8-5.5c-1.6,1.1-3,2.2-4.6,3.4
	c1.2,1.5,2.3,2.8,3.5,4.2c1.1,1.3,1.7,2.5-0.5,3.4c-0.7,0.3-1.3,0.8-2,1.1c-2.4,1.1-3.8,0.6-5-1.7c-0.5-1-1-2.1-1.7-3.2
	c-0.9,0.5-1.7,1-2.3,1.4c-0.6,0.4-1.2,1-1.9,1.7c1,1.8,1.9,3.6,3,5.1c0.4,0.6,1.3,0.8,2.1,1c1.7,0.4,3.5,0.5,5.2,1
	c0.9,0.3,1.6,1.1,2.5,1.8c-2.6,2.5-5.1,3.9-8.3,3.9c-3,0-6,0.1-9.1-0.1c-0.7,0-1.5-0.5-2-1.1c-1-1.2-1.2-2.4,0.6-3.2
	c1-0.4,2-0.8,3-1.3c-2.9-5.9-5.5-11.6-8.4-17.3c-3.9-7.9-7.8-15.8-11.8-23.7c-2-4-4.4-7.9-6.5-11.9c-0.9-1.7-1.4-3.6-2.3-5.3
	c-0.4-0.7-1.5-1.5-2.1-1.4c-2.2,0.4-2.2-1.4-2.7-2.5c-0.2-0.5,0.4-1.5,1-2.1c1.5-1.5,3.2-2.9,4.8-4.4c0.4-0.4,0.6-1.4,0.4-1.9
	c-0.8-1.9-1.7-3.8-2.8-5.5c-0.6-0.8-1.8-1.5-2.8-1.8c-2.5-0.6-4.6-4.8-3.3-7.2c0.7-1.3,1.3-2.7,2-4c1-1.7-0.1-2.3-1.4-2.6
	c-0.8-0.2-1.6-0.1-2.3-0.1c-2.7,0.1-5.7,0.6-6.2-3.8c-1.3,0.9-2.2,1.3-2.8,2c-2.1,2.7-4,5.5-6,8.3c-0.2,0.3-0.4,0.7-0.4,1.1
	c-0.1,4.5-0.3,9.1,2,13.3c0.4,0.7,0,1.7,0.3,2.5c0.9,2.9,1.9,5.7,2.8,8.5c0.2,0.6,0.2,1.3,0.2,1.8c-0.1,5.9,0.6,11.7,2.2,17.4
	c0.3,0.9,0.1,1.9,0.2,2.9c0.6,4.6,1.2,9.1,1.7,13.7c0.2,1.7,0.3,3.3,0,5c-0.1,1-0.1,2.5-1.9,2.3c-0.4,0-1.2,1.1-1.1,1.5
	c0.7,3.7,1,7.7,2.7,10.9c1.4,2.7,4.3,4.8,7,6.6c1.5,1,3.9,0.7,5.8,1.3c2.2,0.7,4.4,1.5,6.3,2.6c2.2,1.3,2.1,3.7,0.1,5.2
	c-5.8,4.1-12,4.4-18.7,2.3c-2.7-0.8-5.7-0.9-8.6-1.2c-2.3-0.3-4.6-0.1-6.8-0.5c-3.1-0.5-4-2.2-3.6-5.2c0.8-5.6,0.9-11.1,0.2-16.8
	c-0.3-2.8-1.1-4.6-3.3-6.2c-3.1-2.2-4.1-5.7-4.9-9.3c-1.3-5.7-2.6-11.3-3.9-17c-0.4-1.8-0.8-3.6-1.3-5.9c-1.5,1.9-2.8,3.7-4.3,5.3
	c-2.7,2.7-0.7,5.6-0.3,8.3c0.3,2.1,1.3,4.1,2.2,6.1c0.9,2.2,1,4.3,0.5,6.6c-0.9,4.6-2.2,9-5.5,12.6c-0.5,0.5-0.5,1.7-0.4,2.5
	c0.1,0.9,0.7,1.8,0.6,2.7c-0.8,4.1,1.3,7,3.8,9.8c0.1,0.1,0.3,0.2,0.3,0.4c1.7,4.7,5.9,6,10,7.5c2.3,0.8,3.6,2.5,4.4,4.6
	c0.8,1.9-0.7,3-2,3.9c-2.5,1.7-5.2,3-8.5,2.6c-3.1-0.4-6.4,0-9.4-0.6c-2.4-0.5-4.6-2.1-6.9-3.2c-2.7-1.3-5.3-2.5-7.9-3.9
	c-0.5-0.3-0.9-1.3-0.9-1.9c0.1-3.6,0.4-7.2,0.4-10.9C251.7,443.6,251.4,441.7,251.1,439.4z M319.8,307.6c3-4.2,6.1-8.3,9.5-12.9
	c-3.8,0.7-7,1.5-10.4,1.9c-2.4,0.3-5,0.1-7.4,0.1c-2.2,0-4.6-0.4-6.6,0.2c-1,0.3-1.3,2.6-1.9,3.9c-0.1,0.1-0.3,0.2-0.3,0.4
	c-1.3,4.1-2.7,8.2-3.7,12.4c-0.7,3.3-3.6,6.5-6.9,6.9c-0.8,0.1-2.1,1.1-2.2,1.8c-0.1,1.8,0.1,3.6,0.6,5.3c1,3.4,2.3,6.6,3.7,10.7
	c1.9-2.9,3.5-5.4,5.1-7.9c0.6-0.9,1-1.9,1.7-2.7c0.8-1,1.8-1.7,3-2.9c2.7,0.3,3.4-0.1,2.8-2.3c-1.3-5.3,0-8.1,5-10.2
	c0.5-0.2,1-0.5,1.3-0.9c1.3-1.4,2.5-2.9,3.8-4.4c-0.8-2-3.9,1.8-4.4-1.5c2.2-1.3,4.4-2,6.7-0.8C319.8,305,319.6,306.5,319.8,307.6z
	 M353.1,431c1.4-0.8,2-1.5,2.9-1.7c1.8-0.6,1.8-1.6,1.1-3c-1.2-2.2-2.3-4.4-3.6-6.5c-5.5-9.7-11-19.2-16.5-28.9
	c-2-3.4-3.9-6.8-5.8-10.2c-0.6-1.1-1.3-2.1-2.4-1c-0.5,0.5-0.6,1.8-0.3,2.5c1,2.3,2.2,4.4,3.4,6.7c2.8,5.5,5.6,11.1,8.3,16.6
	c3,5.9,5.8,11.9,8.8,17.8C350.2,425.8,351.6,428.3,353.1,431z M336.6,377.3c9,15.9,17.9,31.6,26.9,47.3c1.3-0.8,2.3-1.5,3.4-2.1
	c1.2-0.8,1.4-1.8,0.6-3c-2-3.2-4-6.4-6-9.5c-3.6-5.5-7.4-10.8-11.1-16.3c-3.9-5.8-7.6-11.7-11.4-17.6
	C338.1,376.6,337.4,376.9,336.6,377.3z M311.9,341.9c0.7,3.3,1.5,3.6,4.6,2c1-0.5,2.2-0.6,3.2-0.8c0.6-0.1,1.3,0.1,1.7-0.2
	c0.3-0.4,0.4-1.3,0.1-1.7c-0.4-0.4-1.2-0.8-1.8-0.6C317.1,340.9,314.5,341.4,311.9,341.9z"/>
<path class="st0" d="M340.7,523.2c0-2.2-1.7-4-3.9-4.2c-18-1.7-32.7-11.3-37.5-14.8c-1-0.7-2.4-0.7-3.4,0
	c-4.8,3.5-19.5,13.1-37.5,14.8c-2.2,0.2-3.8,2-3.9,4.2c-0.2,14.2,2.1,62.4,42,73.1c0.7,0.2,1.5,0.2,2.2,0
	C338.6,585.6,340.9,537.4,340.7,523.2z"/>
<g>
	<path class="st1" d="M299.8,523.5v9.8l0.2-0.3l-0.1,2.1c-0.1,1-0.1,1.8-0.1,2.5v9.4h0.2v-23.6L299.8,523.5L299.8,523.5z"/>
	<polygon class="st1" points="319,555.5 319,564.7 311.5,564.7 311.5,576.8 299.3,576.8 299.3,564.7 276.4,564.7 276.4,555.5 
		295,527.5 295,541 285.6,555.5 299.8,555.5 299.8,547.1 300.1,547.1 300.1,523.5 311.5,523.5 311.5,555.5 	"/>
	<polygon class="st1" points="295.1,527.1 295.1,540.7 295,541 295,527.5 	"/>
</g>
<g>
	<polygon class="st2" points="200.2,438.5 200.2,445.5 200.1,445.2 200.1,475.7 192.8,475.7 192.8,438.5 	"/>
	<polygon class="st2" points="233.5,438.5 233.5,475.7 224.7,475.7 224.7,445.2 224.3,446.2 224.3,438.5 	"/>
	<polygon class="st2" points="221.7,438.5 221.7,455.2 215.3,475.7 209.3,475.7 203,454.7 203,438.5 206.4,438.5 213,460.7 
		219.8,438.5 	"/>
	<path class="st2" d="M248.3,457c0,7.1,1.7,11,5.3,12v7.2c-4.4-0.3-7.9-2.1-10.4-5.6c-2.8-3.7-4.1-8.4-4.1-13.7
		c0-5.5,1.3-10,4.1-13.6c2.5-3.3,6-5.1,10.4-5.3v7.2C250,445.9,248.3,449.9,248.3,457z"/>
	<path class="st2" d="M270.9,457c0,5.5-1.3,10-4.1,13.7c-2.5,3.3-6,5.2-10.4,5.5v-7.2c3.6-0.7,5.3-4.7,5.3-12c0-7.3-1.7-11.2-5.3-12
		v-7.2c4.7,0.3,8.1,2.3,10.5,5.7C269.6,447.5,270.9,452,270.9,457z"/>
	<path class="st2" d="M300.2,459.2c4.3-2,6.5-5.2,6.5-9.6c0-2.3-0.7-4.4-1.9-6.3c-1.2-1.9-2.7-3.2-4.5-3.9c-1.9-0.7-4.3-1.1-7.3-1.1
		h-7.6v6.7h5.2c2,0,3.3,0.1,4.1,0.3c0.7,0.1,1.5,0.7,2,1.5c0.7,0.8,0.9,1.7,0.9,2.8s-0.3,2-0.9,2.9c-0.7,0.8-1.3,1.3-2.1,1.6
		c-0.8,0.3-2,0.4-3.9,0.4h-5.3v6.4h6.3l5.7,14.8h9.6L300.2,459.2z"/>
	<rect x="276.6" y="438.5" class="st2" width="6" height="37.3"/>
	<path class="st2" d="M309.6,438.5v7.3h9.3v29.9h8.8v-29.9h9.2v-7.3H309.6z"/>
	<path class="st2" d="M356.3,438.5h-10.1l-12,37.3h7.7l2.4-7.7h12l2.3,7.7h9.3L356.3,438.5z M346.4,461.1l4-13l3.9,13H346.4z"/>
	<path class="st2" d="M402.5,475.7h-9.6l-5.7-14.8H381v-6.4h5.3c1.7,0,3.1-0.1,3.9-0.4c0.8-0.3,1.5-0.8,2.1-1.6
		c0.7-0.8,0.9-1.9,0.9-2.9s-0.3-2-0.9-2.8c-0.7-0.8-1.3-1.3-2-1.5c-0.7-0.3-2.1-0.3-4.1-0.3H381v-6.7h7.6c3.1,0,5.5,0.4,7.3,1.1
		c1.9,0.7,3.3,2,4.5,3.9c1.2,1.9,1.9,4,1.9,6.3c0,4.5-2.1,7.7-6.5,9.6L402.5,475.7z"/>
	<rect x="372" y="438.5" class="st2" width="6" height="37.3"/>
</g>
</svg>
