<?xml version="1.0" encoding="utf-8"?>
<!-- Generator: Adobe Illustrator 25.2.1, SVG Export Plug-In . SVG Version: 6.00 Build 0)  -->
<svg version="1.1" id="Слой_1" xmlns="http://www.w3.org/2000/svg" xmlns:xlink="http://www.w3.org/1999/xlink" x="0px" y="0px"
	 viewBox="0 0 595.3 841.9" style="enable-background:new 0 0 595.3 841.9;" xml:space="preserve">
<style type="text/css">
	.st0{fill:#FFFCF2;}
	.st1{fill:#5895A2;}
	.st2{fill:#5996A2;}
	.st3{fill:#FFFFFF;}
</style>
<circle class="st0" cx="297.6" cy="420.9" r="243.5"/>
<path class="st1" d="M541,420.9L541,420.9c0,134.5-109,243.6-243.5,243.6S54,555.5,54,421v-0.1H541z"/>
<g>
	<path class="st2" d="M445.8,395c-0.1-2.6-0.7-5-1.7-7.4c-1.2-2.6-1.7-5.5-3.5-7.8c-0.2-0.2-0.3-0.4-0.4-0.6c-2-1.4-1.9-3.3-1.3-5.4
		c0.5-1.9-0.5-4-2.4-5.3c-1.3-1-2.9-1.2-4.5-0.8c-2,0.4-3.9,0.3-5.6-0.9c-0.3-0.2-0.5-0.5-0.5-0.8c-0.2-1.3-0.2-2.4-0.3-3.7
		c-0.1-0.4-0.3-1.1-0.8-1.3c-2.5-1.4-5-2.8-7.6-4.2c-0.4-0.3-0.9-0.3-1.3-0.3c-2.4,0.1-3.4-2-4.9-3.1c-2.8-2.1-5.3-4.6-8.2-6.6
		c-2.6-1.8-5.6-2.9-8.3-4.5c-1.1-0.6-2-1.4-3-2.1c-0.3-0.3-0.7-0.7-1-0.7c-2.2-0.3-2-2.1-2.4-3.5c-0.8-2.8-1.2-5.7-3-8.2
		c-1.7-2.1-3.5-3.8-5.9-5.1c-1.1-0.6-2.1-1.2-3.4-1.9c1.7-2.6-0.5-3.9-1.7-5.6c-1.3-2-2.7-4-4.2-5.9c-1.3-1.7-2.7-3.3-4-4.9
		c-0.3-0.3-0.8-0.8-0.8-1.2c0.1-2.4,0.2-4.8,0.6-7.1c0.8-4.2,1.9-8.4,2.5-12.6c0.4-3.4,0.3-7,0.3-10.5c0-1.2-0.2-2.3-0.3-3.4
		c-0.1-2.2-0.1-4.2,1.5-6s0.7-4,0.8-6.1c0-0.3-0.2-0.7-0.2-1c-0.4-4.4-0.8-8.7-1.2-13c0-0.3-0.3-0.6-0.3-0.9
		c-0.2-1.3-1.3-2.6-0.1-3.9c0.1-0.1,0-0.3-0.1-0.5c-0.8-2.2-1.3-4.5-2.9-6.2c-0.5-0.5-0.8-1.2-1-1.9c-1.1-2.9-3.2-5-5.8-6.6
		c-4.1-2.4-8.2-4.9-12.5-7c-4.1-2-8.4-3.5-13.1-3.7c-3.2-0.1-6.3-0.7-9.5-1.1c-0.6-0.1-1.3-0.3-1.9-0.3h-11.6
		c-2.6,0.7-5.2,1.3-7.8,2c-1.4,0.3-2.8,0.8-4.2,1.3c-4.3,1.3-7.6,4.1-10.3,7.5c-2.7,3.2-4,7.1-4.2,11.4c-0.2,3.9-0.2,7.8-0.3,11.7
		c-0.2,4-1.9,7.3-5.7,9.1c-3.8,1.8-7.6,3.6-11.4,5.3c-1.1,0.5-2.4,0.4-3.6,0.8c-0.9,0.3-1.9,0.6-2.8,0.8c-1.3,0.3-2.5,0.7-3.8,0.9
		c-4.5,0.8-8.9,1.6-12.7,4.4c-1.6,1.2-3.7,2.1-4.9,3.6c-2.4,3.1-5.7,5.1-8.7,7.4c-3.4,2.4-5.2,5.8-5.6,9.9c-0.1,0.9-0.2,1.8-0.4,2.7
		c-0.3,1-0.8,1.9-1.6,2.6c-2.1,2.2-4,4.6-6.1,6.8c-1.9,1.9-3.9,3.8-5.9,5.6c-1.5,1.4-3.1,2.9-4.7,4.1c-0.4,0.3-1.2,0.5-1.8,0.5
		c-1.9,0.2-3.7,0-5.5,0.3c-2.7,0.5-5.4,1.3-8.1,2.1c-4.3,1.3-8.3,3.2-12.3,5.5c-7.5,4.4-11.5,11.2-14.4,18.9c-1,2.6-1.1,5.6-1.5,8.3
		c-0.4,2.7-0.3,5.6-1.5,8.1c-0.4,0.8-0.9,1.5-1.5,2.2c-1.6,1.8-3.6,3.2-4.6,5.2c-1.2,2.3-1.6,5-2.2,7.6c-0.6,2.8-1,5.6-1.5,8.5
		c-0.4,2.4-0.8,5-1.1,7.4c-0.1,0.3-0.2,0.6-0.3,0.8v7c0.3,1.1,0.5,2.3,0.7,3.4c0.6,4,3.2,7.1,5.4,10.3c1.9,2.8,4.2,5.4,6.5,8
		c3.4,4,7.6,7.3,11.9,10.3c1.5,1,3.3,1.6,5,2.4c2.7,1.3,5.5,2.5,8.2,4c4,2.1,8,4.2,11.9,6.5c4.7,2.7,9.3,5.5,14,8.2
		c2,1.2,4,2.3,6.1,3.3c2.6,1.3,5.2,1,7.6-0.8c1.2-0.8,2.5-1.4,3.8-2.2c1.3-0.8,2.6-0.7,3.9,0c1.6,0.8,3.3,1.4,4.8,2.4
		c2.5,1.6,4,4,4.2,6.9c0.3,3.8,0.3,7.7,0.3,11.5c0,1.4-0.1,2.9-0.1,4.3c0,0.4-0.3,0.8,0,1.3c0.2-0.3,0.3-0.6,0.5-0.9
		c0.3,0.3,0.6,0.4,0.8,0.7c0.5,0.8,1,1.5,1.5,2.4c-0.5,0.3-0.8,0.6-1.3,0.8c0,0.1,0,0.2,0.1,0.3h131.7c0.3-1.5,0.4-3.1,0.9-4.6
		c0-0.1,0.1-0.4,0.2-0.6c0-2.4,0-4.7,0-7.1c0.1-2.4,0.3-4.9,0.4-7.6c1.2,0.5,2.4,0.9,3.4,1.5c2.5,1.3,4.8,3.3,7.7,3.6
		c0.9,0.1,1.7,0.4,2.4,0.8c1.7,0.7,3.1,1.7,5.2,2c2.7,0.4,5.5,0.5,8.2,0.5c4.1,0,7.7-0.8,11.4-2c0.6-0.5,1.1-0.9,1.7-1.4
		c2.9-2.6,5.6-5.5,8.4-8.2c0.4-0.4,1.3-0.5,1.9-0.6s1.2-0.1,1.8,0c2.9,0.6,4.9-1.1,6.8-2.9c0.5-0.4,1-0.9,1.4-1.4
		c0.8-0.8,1.6-1.4,1.5-3c-0.1-2.1,0.2-4.2-0.3-6.3c-0.3-1.2,0.9-1.3,1.7-1.4c0.8-0.1,1.1-0.4,1.2-1.3c0.4-4.8,0.8-9.7,1.4-14.5
		C445.2,412.1,446.2,403.6,445.8,395z M268.5,284.5c0.6-2.5,1.9-4.9,3.9-6.4c1.3-1,3.3-1.1,4.9-1.6c1.3-0.1,2.3,0.7,3.2,1.4
		c2.1,1.6,3.9,3.4,4.9,5.8c0.6,1.3,1,2.6,1.3,4c0.4,2.5,0.3,4.9-0.5,7.4c-0.9,2.9-2.9,4.1-5.5,4.7c-3.7,0.8-7,0.3-9.8-2.8
		c-1.8-1.9-3.1-4-3-6.7C267.9,288.5,268.1,286.4,268.5,284.5z M230.7,285.6c0.3-1.3,1.2-2.6,1.9-3.8c1-1.8,2.8-2.1,4.6-2.1
		c0.3,0,0.7,0.1,1,0c2.5-0.9,3.6,0.8,5,2.4c2.3,2.5,3.4,5.5,3.8,8.8c0.3,3.4-0.2,7-2.6,9.6c-0.9,0.9-2.7,1.2-4.1,1.4
		c-1.3,0.2-2.8,0.4-4-0.7c-0.4-0.3-0.8-0.7-1.1-1.1c-0.5-0.7-0.8-1.5-1.3-2.2c-1.9-2.7-3.3-5.6-3-9.1
		C230.8,287.9,230.4,286.6,230.7,285.6z M292.7,328.3c-0.9,0.5-1.6,1.4-2.2,2.4c-0.8,1.1-1.3,2.3-1.9,3.4c-0.2,0.3-0.5,0.7-0.8,0.8
		c-2.5,0.9-5.1,1.9-7.7,2.7c-1.9,0.6-3.4,0.1-5.2-0.8c-1-0.5-2.7-0.2-4,0.1c-3.7,0.6-6,3.3-8.4,5.8c-1.5,1.5-2.9,3-5.4,2.9
		c-0.8-0.1-1.7,0.4-2.5,0.8c-1.5,0.6-3,1.2-4.3,2.1c-1.8,1.3-3.6,1.3-5.6,1c-1.2-0.2-2.4,0.3-3.7,0.4s-2.5,0.3-3.9,0.3
		c-1.8,0-3,0.8-4.4,1.6c-0.3,0.3-0.8,0.3-1.2,0.4l-0.2-0.4c1.1-2.1,2.1-4.2,3.4-6.2c1.5-2.6,2.8-5.2,2.4-8.3c-0.2-1.3,0.3-2.1,1.3-3
		c1.5-1.4,2.9-3,4.3-4.5c1.6-1.8,3.2-3.5,4.8-5.3c2.2-2.4,4.5-4.9,6.5-7.4c1.2-1.5,1.9-3.4,3.5-4.6c2.3-1.5,4.6-3.1,6.8-4.7
		c0.9-0.7,1.8-1.4,2.6-2.2c1.7-1.5,3.5-1.5,5.6-0.8c3.2,1.1,6.3,0.8,9.4-0.3c1.8-0.7,3.4,0.2,4.1,1.9c0.5,1.5,1.2,2.9,1.8,4.5
		c2,5,4,10,6.1,15C294.2,326.7,294,327.6,292.7,328.3z"/>
	<path class="st2" d="M376.8,474.5c0.3-1.5,0.4-3.1,0.9-4.7c0.1-0.2,0.1-0.5,0.2-0.7c-4.7-7.3-32.8-12.9-66.7-12.9
		c-37.2,0-67.4,6.7-67.4,15.1c0,8.3,30.2,15.1,67.4,15.1c31.7,0,58.3-4.9,65.4-11.4c0-0.1,0.1-0.1,0.1-0.2
		C376.7,474.6,376.7,474.6,376.8,474.5z"/>
	<ellipse class="st0" cx="277.9" cy="289" rx="9.9" ry="12.4"/>
	<ellipse transform="matrix(0.9903 -0.1387 0.1387 0.9903 -37.9021 36.1039)" class="st0" cx="240.1" cy="290" rx="9.9" ry="12.4"/>
</g>
<g>
	<path class="st3" d="M226,445.4c0,0.9,0.3,1.6,0.9,2.2c0.4,0.4,1.3,0.8,2.5,1.2v9.3c-4.1-0.9-7.1-2.2-8.9-3.7c-2-1.7-3-4.1-3-7.3
		c0-3.3,1.2-6,3.5-8.2c2.1-2,4.8-3,8.2-3.3v6.8C227.1,442.5,226,443.6,226,445.4z"/>
	<path class="st3" d="M245.6,460.9c0,3.3-1.3,6.1-3.8,8.6c-2.1,2-5,3.1-8.6,3.5v-6.9c0.9-0.1,1.7-0.5,2.4-0.9
		c0.9-0.8,1.4-1.7,1.4-2.7s-0.4-2-1.3-2.5c-0.5-0.4-1.3-0.7-2.5-1v-9.3c2.7,0.7,4.8,1.3,6.3,1.8c1.7,0.8,3.1,2,4.3,3.7
		C244.9,456.9,245.6,458.8,245.6,460.9z"/>
	<path class="st3" d="M244.5,444l-7.3,2.5c-0.8-2.2-2.1-3.5-4.2-4.1v-6.9C238.9,436,242.7,438.9,244.5,444z"/>
	<path class="st3" d="M229.4,466.1v6.9c-3.3-0.1-6.1-1-8.5-2.5c-2.6-1.7-4.3-4.2-5.2-7.6l8-1.8C224.4,464,226.2,465.7,229.4,466.1z"
		/>
	<path class="st3" d="M280.8,449.6l-9,0.5c-0.1-4.6-1.7-7.1-4.7-7.6v-7.1C275,435.7,279.7,440.4,280.8,449.6z"/>
	<path class="st3" d="M280.8,459.7c-0.5,4.3-2.2,7.7-5,9.9c-2.5,2.1-5.4,3.1-8.9,3.4v-7c2.9-0.4,4.7-2.7,5.5-6.8L280.8,459.7z"/>
	<path class="st3" d="M258.9,454.3c0,4.6,0.7,7.7,1.8,9.3c0.7,0.9,1.4,1.6,2.4,2v7.3c-3.7-0.5-6.7-2.1-9.2-4.8
		c-3-3.4-4.6-8-4.6-13.9c0-5.5,1.4-10.1,4.4-13.6c2.4-2.9,5.5-4.6,9.3-5.1v7.3C260.4,444.2,258.9,448,258.9,454.3z"/>
	<path class="st3" d="M315.2,454.2c0,5.4-1.3,9.8-4.1,13.5c-2.4,3.1-5.5,5-9.7,5.4v-7.2c3.1-1,4.7-4.8,4.7-11.5
		c0-6.8-1.6-10.6-4.7-11.6v-7.2c4.2,0.4,7.6,2.2,9.8,5.6C313.9,444.9,315.2,449.2,315.2,454.2z"/>
	<path class="st3" d="M292.9,454.2c0,6.7,1.6,10.5,4.7,11.5v7.2c-4.1-0.4-7.3-2.2-9.7-5.5c-2.7-3.7-4.1-8.2-4.1-13.5
		c0-5.4,1.3-9.8,4.1-13.3c2.4-3,5.5-4.8,9.7-5.2v7.2C294.5,443.7,292.9,447.6,292.9,454.2z"/>
	<path class="st3" d="M349.6,435.9v22.8c0,3.7-0.4,6.4-1.3,8.2c-0.8,1.8-2.4,3.3-4.7,4.4c-1.6,0.8-3.5,1.3-5.8,1.6v-7.1
		c0.7-0.1,1.3-0.4,1.8-0.7c1-0.5,1.7-1.3,2-2.1c0.4-0.9,0.5-2.4,0.5-4.4v-22.8h7.5V435.9z"/>
	<path class="st3" d="M334.1,466v7.2c-3.1-0.1-5.6-0.7-7.6-1.6c-2.1-1-3.7-2.5-4.7-4.4c-1-2-1.6-4.7-1.6-8.4V436h9.3v22.8
		c0,2,0.1,3.4,0.5,4.3s1,1.7,2,2.2C332.8,465.6,333.5,465.8,334.1,466z"/>
	<path class="st3" d="M352.7,435.9v7.2h9.2v29.4h8.8v-29.4h9v-7.2H352.7z"/>
</g>
<path class="st0" d="M252.5,523.2c0-2.2-1.7-4-3.9-4.2c-18-1.7-32.7-11.3-37.5-14.8c-1-0.7-2.4-0.7-3.4,0
	c-4.8,3.5-19.5,13.1-37.5,14.8c-2.2,0.2-3.8,2-3.9,4.2c-0.2,14.2,2.1,62.4,42,73.1c0.7,0.2,1.5,0.2,2.2,0
	C250.4,585.6,252.7,537.4,252.5,523.2z"/>
<circle class="st0" cx="381.7" cy="550.1" r="47.3"/>
<path class="st1" d="M388.8,523.3h-14.5l-17.1,53.4h11.1l3.5-11.1h17.4l3.2,11.1H406L388.8,523.3z M374.8,556l5.7-18.8l5.6,18.8
	H374.8z"/>
<g>
	<path class="st1" d="M206.1,543.5v7.8c0.9-0.4,2-0.5,3.1-0.5c1.2,0,2.4,0.2,3.4,0.8v-9.3h0C210.2,542.1,208,542.6,206.1,543.5z
		 M206.1,525.7v9.8h6.5v-9.8H206.1z"/>
	<path class="st1" d="M228.2,557.4c0,5-1.6,9.1-4.9,12.2c-3.3,3.2-7.8,4.8-13.7,4.8c-10.2,0-16.5-4.5-19-13.6l10.5-1.6
		c1.1,4.2,3.8,6.3,8,6.3c2.3,0,4.2-0.7,5.6-2.2c1.4-1.5,2.1-3.2,2.1-5.1c0-2.1-0.7-3.8-2.2-5.3c-0.6-0.6-1.3-1.1-2-1.5v-9.3
		c4.3,0,8,1.4,11,4.3C226.7,549.2,228.2,552.9,228.2,557.4z"/>
	<path class="st1" d="M202.4,554.4l-9.2-1.5l1.9-27.2h11v9.8h-3l-0.8,10.7c1.1-1.2,2.4-2.1,3.8-2.8v7.8
		C204.6,551.8,203.4,552.9,202.4,554.4z"/>
	<polygon class="st1" points="224.1,535.5 212.6,535.5 212.6,525.7 225.3,525.7 	"/>
</g>
</svg>
