<?xml version="1.0" encoding="utf-8"?>
<!-- Generator: Adobe Illustrator 25.2.1, SVG Export Plug-In . SVG Version: 6.00 Build 0)  -->
<svg version="1.1" id="Layer_1" xmlns="http://www.w3.org/2000/svg" xmlns:xlink="http://www.w3.org/1999/xlink" x="0px" y="0px"
	 viewBox="0 0 595.3 841.9" style="enable-background:new 0 0 595.3 841.9;" xml:space="preserve">
<style type="text/css">
	.st0{fill:#C7C6C6;}
	.st1{fill:#FFFCF2;}
	.st2{fill:#4AAA75;}
	.st3{fill:none;}
	.st4{fill:#FFFFFF;}
</style>
<rect x="275.6" y="581.3" class="st0" width="4.2" height="7.2"/>
<path class="st1" d="M513.8,781.7h-433c-21.1,0-38.1-17.1-38.1-38.1V98.2C42.6,77.1,59.7,60,80.8,60h433c21.1,0,38.1,17.1,38.1,38.1
	v645.4C551.9,764.6,534.8,781.7,513.8,781.7z"/>
<rect x="42.6" y="551" class="st2" width="509.3" height="54.6"/>
<polygon class="st2" points="171.4,60 171.4,125.6 128.4,153.2 85.5,125.6 85.5,60 "/>
<polygon class="st0" points="85.8,125.3 86.4,125.3 86.4,125.6 "/>
<rect x="231.4" y="560.7" class="st3" width="153.5" height="33.1"/>
<polygon class="st3" points="464.1,446.6 459.8,446.6 459.8,446.6 "/>
<rect x="126.3" y="68" class="st2" width="4.3" height="20.4"/>
<g>
	<path class="st4" d="M111.7,92.4v-9.9c8.3-2.4,13.7-5.7,16.2-9.8h8.2v39.9h13.3v8.8h-38.9v-8.8h14.6V85.2
		C119.3,88.7,114.9,91.1,111.7,92.4z"/>
</g>
<rect x="98.9" y="109.6" class="st2" width="63.4" height="3.4"/>
<g>
	<polygon class="st4" points="188.9,569.4 188.9,575.7 189,575.7 189,580.9 188.9,580.9 188.9,591.9 182.1,591.9 182.1,563.9 
		189,563.9 189,569.4 	"/>
	<rect x="191.4" y="575.7" class="st4" width="7.9" height="5.2"/>
	<rect x="191.4" y="563.9" class="st4" width="10.7" height="5.5"/>
	<path class="st4" d="M227.6,577.9c0,4.1-1,7.5-3.1,10.3c-1.8,2.5-4.4,3.9-7.8,4.1v-5.4c2.7-0.5,4-3.5,4-9c0-5.4-1.3-8.4-4-9v-5.4
		c3.5,0.2,6.1,1.7,7.9,4.3C226.6,570.8,227.6,574.1,227.6,577.9z"/>
	<path class="st4" d="M210.6,577.9c0,5.3,1.3,8.3,4,9v5.4c-3.3-0.2-5.9-1.6-7.8-4.2c-2.1-2.8-3.1-6.3-3.1-10.3
		c0-4.1,1.1-7.5,3.1-10.2c1.9-2.5,4.5-3.8,7.8-4v5.4C211.9,569.6,210.6,572.5,210.6,577.9z"/>
	<path class="st4" d="M238.6,571.2c-0.9,1.6-1.4,3.9-1.4,6.9c0,2.9,0.5,5.1,1.5,6.6c0.1,0.2,0.3,0.4,0.4,0.6v6.7
		c-2.3-0.5-4.1-1.7-5.6-3.6c-2-2.6-3.1-6-3.1-10.1c0-4.5,1.1-8,3.3-10.7c1.4-1.8,3.2-3,5.4-3.6v6.5
		C238.9,570.7,238.7,570.9,238.6,571.2z"/>
	<path class="st4" d="M253.7,573.1l-6.2,0.8c-0.5-3.4-2.1-5.1-4.8-5.1c-0.5,0-0.9,0.1-1.4,0.2v-5.5c0.4,0,0.9-0.1,1.4-0.1
		c3.1,0,5.6,0.9,7.6,2.6S253.2,570.2,253.7,573.1z"/>
	<path class="st4" d="M253.7,576.9v15h-3c-0.2-1-0.5-2.1-0.9-3.2c-2,2.4-4.5,3.7-7.6,3.7c-0.3,0-0.6,0-0.9,0v-5.6
		c0.5,0.2,1.1,0.2,1.6,0.2c1.2,0,2.2-0.4,3.1-1.2c0.9-0.8,1.4-2,1.4-3.7h-5.3v-5.2H253.7z"/>
	<path class="st4" d="M274.9,577.9c0,5.3,1.3,8.3,4,9v5.4c-3.3-0.2-5.9-1.6-7.8-4.2c-2.1-2.8-3.1-6.3-3.1-10.3c0-4.1,1-7.5,3.1-10.2
		c1.9-2.5,4.5-3.8,7.8-4v5.4C276.2,569.6,274.9,572.5,274.9,577.9z"/>
	<path class="st4" d="M291.9,577.9c0,4.1-1,7.5-3.1,10.3c-1.9,2.5-4.5,3.9-7.8,4.1v-5.4c2.7-0.5,4-3.5,4-9c0-5.4-1.3-8.4-4-9v-5.4
		c3.5,0.2,6.1,1.7,7.9,4.3C290.9,570.8,291.9,574.1,291.9,577.9z"/>
	<rect x="296.2" y="563.9" class="st4" width="6.8" height="28"/>
	<rect x="305.1" y="575.7" class="st4" width="8.3" height="5.2"/>
	<rect x="305.1" y="563.9" class="st4" width="11" height="5.5"/>
	<path class="st4" d="M358.1,563.9l-4,17.1c-0.2,0.8-0.3,1.4-0.4,1.8l-4.7-18.8h-6l-4.6,18.8c-0.1-0.4-0.2-0.7-0.2-0.9
		c-0.1-0.5-0.2-0.8-0.2-0.9l-3.9-17.1h-6.7l7.2,28h6.4l4.4-18.5l4.6,18.5h6.5l7-28H358.1z"/>
	<path class="st4" d="M379.2,563.9h-7.6l-9,28h5.8l1.8-5.8h9l1.7,5.8h7L379.2,563.9z M371.7,581l3-9.8l2.9,9.8H371.7z"/>
	<rect x="390.9" y="563.9" class="st4" width="6.6" height="28"/>
	<path class="st4" d="M413.8,591.9h-7.2l-4.3-11.1h-2.6V576h1.9c1.3,0,2.3-0.1,2.9-0.3c0.6-0.2,1.1-0.6,1.6-1.2
		c0.5-0.6,0.7-1.4,0.7-2.2c0-0.8-0.2-1.5-0.7-2.1c-0.5-0.6-1-1-1.5-1.1c-0.5-0.2-1.6-0.2-3.1-0.2h-1.8v-5h3.6c2.3,0,4.1,0.3,5.5,0.8
		c1.4,0.5,2.5,1.5,3.4,2.9c0.9,1.4,1.4,3,1.4,4.7c0,3.4-1.6,5.8-4.9,7.2L413.8,591.9z"/>
</g>
<path class="st2" d="M365.1,358.3c6.1,0,12.2,0,18.3,0c6.7,0,13.5,0.1,20.2,0c4.5-0.1,9-0.4,13.5-0.4c1.4,0,2.9,0.6,4.3,0.9
	c1.5,0.3,2.9,0.3,3.8-1.3c0.4-0.7,0.7-1.5,1.3-2.1c1.3-1.3,3.1-2.3,4.7-1.5c1.2,0.5,1.7,2.3,2.7,3.2c2.6,2.1,1.1,6.2,4.3,8.1
	c0.8,0.5,0.3,3,0.3,4.4c6.2,0,13.1,0,20,0c2.9,0,5.8,0,8.7,0c10.4-0.2,20.8-0.4,31.1-0.5c7.4-0.1,14.7,0,22.4,0
	c-1.1,0.7-2.1,1.5-3.2,2c-7.6,3.6-15.6,4.8-24,4.7c-9.4-0.1-18.9,0.2-28.3,0.4c-6.3,0.1-12.6,0.3-18.8,0.5c-3.2,0.1-6.3,0.7-9.5,0.9
	c-1.4,0.1-2.8-0.4-4.2-0.4c-6.3,0-12.6-0.1-18.9,0c-1.7,0-3.4,0.8-5.1,1c-0.8,0.1-1.7-0.2-2.6-0.4c-0.1,0-0.1-0.1-0.2-0.2
	c-1.2-1.5-3.7-2.4-2.5-5c1.1-2.4,3.3-1.5,5.2-1.5c6.7-0.2,13.4-0.3,20.1-0.6c1.9-0.1,3.8-0.5,5.7-1.2c-4.1,0.2-8.2,0.6-12.4,0.7
	c-5.6,0.1-11.3,0-16.9,0c-1.8,0-3.6-0.2-4.8,1.5c-0.3,0.4-1.2,0.5-1.8,0.5c-11.4,0.2-22.8,0.4-34.2,0.5c-2,0-4.1,0-6.1,0
	c-1.5,0-3.3-0.2-3.8,1.9c-0.1,0.2-0.6,0.6-0.8,0.5c-2-0.6-3,1-4.4,1.9c-1.1,0.7-2.5,1.2-3.8,1.1c-2.5-0.1-4.2,1-6,2.6
	c-1.5,1.3-3.6,1.8-5.4,2.7c-0.7,0.3-1.5,0.7-1.8,1.3c-1,2.1-1.6,4.5-2.7,6.6c-1.9,3.6-3.6,7.3-6.1,10.4c-3.6,4.4-5.9,9.3-8.1,14.3
	c-0.8,1.9-1.2,4-1.5,6c-0.3,2.5-0.3,5-0.6,7.6c-0.4,4.4,2.4,7.5,4.6,10.9c1.1,1.6,2.4,3,3.5,4.6c3.5,4.7,8.7,7.3,13.3,10.6
	c1.5,1.1,3.2,1.9,4.5,3.2c3,2.7,1.3,8.2-2.3,9.8c-3.5,1.5-6.8,0.6-10.1,0.2c-1.8-0.2-3.6-0.8-5.5-0.8c-5.9,0-10.9-2.1-14.9-6.3
	c-4.6-4.8-10.4-8-16-11.4c-2.9-1.7-4.7-5.7-4-9c0.5-2.1,1-4.2,1.2-6.3c0.1-0.9-0.5-1.9-1.1-2.7c-1.3-1.9-1.4-3.6,0-5.5
	c0.3-0.5,0.3-1.3,0.2-2c-0.1-2.9-1-6,2.2-8c0.3-0.2,0.6-0.6,0.7-1c0.7-3,1.8-6,2-9c0.3-5.2,0.1-10.4-0.4-16.1
	c-1.7,2-3.6,3.9-5.1,6.1c-3.9,5.9-7.5,11.9-11.5,17.8c-4.9,7.1-10.9,13.3-18,18c-5.8,3.9-12.1,7-18.2,10.5c-1.7,1-3.2,2.2-4.8,3.2
	c-3.5,2.2-6.9,4.4-10.4,6.3c-5.1,2.8-10.7,4-16.6,4c-1.2,0-2.3,0.3-3.5,0.5c-6.6,0.9-11.4-2.8-16.2-6.3c-1.4-1-2.7-1.2-3.9-0.3
	c-1.9,1.4-3.9,2.9-5.4,4.7c-2.8,3.6-5.2,7.6-8,11.2c-1.9,2.5-3.9,5.2-6.4,6.8c-3.7,2.4-5.1,6-7.1,9.4c-3.3,5.6-7.9,9.8-14.4,11.4
	c-3.1,0.8-5.7,0.4-8.2-1.7c-2.1-1.8-4.4-3.3-6.7-4.8c-4.1-2.7-5.3-4.9-2.4-9.6c2.3-3.7,6-5.9,9.3-8.7c3.8-3.2,7.4-6.7,10.7-10.4
	c1.6-1.8,2-4.6,3.3-6.6c1.9-2.8,4.3-5.3,6.3-8c2.7-3.5,5.2-7.2,7.7-10.8c1.3-1.9,2.2-4,3.6-6.5c-1.3-2.9-0.8-6.4,1-9.8
	c0.4-0.7,0.4-1.7,0.3-2.5c-0.4-2.6-0.9-5.3-1.4-8.1c-1.3,0.7-3,1.3-4.3,2.4c-4.9,4.1-7,1.1-8.2-3.9c-1.4-6.1-0.2-12.1-0.4-18.1
	c-0.1-1.6,0-3.3-0.1-4.9c-0.1-2.4,1.7-2.7,3.3-2.8c4.5-0.3,9-0.3,13.5-0.6c5.1-0.3,10.3-0.8,15.7-1.2c-0.4-0.7-0.4-0.8-0.5-0.8
	c-5.9-0.5-7.6-6-10.8-9.6c-6-6.8-11.4-14-17.1-21c-0.3-0.4-0.9-0.8-0.9-1.2c-0.2-3-0.4-6.1-0.5-9.1c-0.2-3.1,0.7-5.5,3.1-8
	c7.4-7.4,14.2-15.3,21.3-22.9c5.7-6.1,11.8-11.8,17.3-18c3.5-3.9,6.8-8.2,9.1-12.9c1.8-3.5,2-7.9,2.9-11.8c0.3-1.5,0.7-2.9,0.8-4.4
	c0.1-1.6-0.1-3.2-0.3-5.3c-4.9,2.5-9.2,4.4-13.3,6.8c-1.6,0.9-2.5,0.6-3.2-0.8c-0.6-1.3-1.2-2.8-1.3-4.2c0-0.8,1-2.4,1.6-2.4
	c3.6-0.1,5.8-2.9,8.7-4.2c0.5-0.2,1-0.7,1.5-0.9c1.8-0.8,2.4-1.6,0.4-3.1c-0.8-0.6-1-2.1-1.1-2.5c3.1-2.9,5.7-5.4,8.2-7.9
	c0.4-0.4,0.5-1.2,0.5-1.9c0.2-4.1,0.5-8.1,0.5-12.2c0-1.7,0.8-2.3,2.2-2.3c2.2,0,4.5,0,6.7,0c3.4,0,6.8,0,10.2,0
	c5.1,0,10.2,0.4,15.2,1.9c3.9,1.1,8.2,1.1,12.3,1.2c4.2,0.1,8.3,0.4,12.3,2c1.8,0.7,4.1,0.5,6.1,0.6c5.3,0.2,9.8,1.9,13.4,5.9
	c2.6,2.9,6,5,7.3,8.9c0.8,2.5,1.4,5.1,1.8,7.7c0.4,2.5,0.3,5.1,0.6,7.6c0.1,0.6,0.8,1.2,1.4,1.7c2.4,1.9,5,3.6,7.4,5.6
	c0.7,0.6,1.3,2.3,1,3c-0.4,0.8-1.8,1.5-2.9,1.6c-2.5,0.2-5.1,0.1-7.6,0.1c-0.1,0.2-0.2,0.4-0.3,0.6c4,2.4,8.1,4.6,12,7.3
	c3.3,2.2,6.4,4.8,9.5,7.4c0.6,0.5,0.7,1.6,0.9,2.4c1.4,4.5,2.1,9.4,5.8,13c0.8,0.7,1.2,2.1,1.3,3.2c0.5,3.3,2.7,5.4,4.9,7.5
	c1.7,1.5,3.6,2.8,5.2,4.4c0.7,0.7,0.8,2.1,1.2,3.2c0.5,1.2,0.7,3.1,1.6,3.4c2.7,1.2,3.2,3.8,4.5,5.9c3.5,5.8,7.4,11.1,12.1,16.1
	C363,344.4,366.6,350.6,365.1,358.3z M189.4,444.9c2,1.7,3.5,3.6,5.4,4.4c3.4,1.5,7.1,2.6,10.8,3.6c1.3,0.3,3,0.1,4.1-0.6
	c3.7-2.3,7.4-4.6,10.7-7.4c6-5.1,13.2-8,20.1-11.6c5.5-2.9,11.4-5.1,17.1-7.5c7.8-3.4,11.6-10.2,14.5-17.5
	c3.9-9.9,9.3-18.7,17.4-25.6c1.2-1.1,2.5-2.1,3.7-3.2c-0.1-0.2-0.1-0.5-0.2-0.7c-8.9-1.5-17.9-1-26.1-0.3c-1.1,1.8-1.6,3.7-2.8,4.2
	c-5.5,2.6-11.2,4.8-16.7,7.3c-2,0.9-4,2.4-4.4-1.5c-1.2,1-2.6,1.6-3,2.7c-2.1,5.9-4.3,11.7-5.6,17.7c-0.9,4.4-2.2,8.5-5.1,12
	c-1.6,1.9-3.7,3.5-5.9,2.3c-2.7-1.4-3.8-0.2-4.5,1.8c-1.1,3.6-3.8,3.7-6.8,3.5c-3.3-0.2-6.1,0.7-7.8,3.9c-0.3,0.5-0.8,0.8-1.3,1.2
	C198.5,437.3,194.1,441,189.4,444.9z M332.6,346.5c-1.3-0.7-2.7-1.2-4-2.1c-3.3-2.4-6.5-4.7-9-8.2c-2.1-2.9-4.2-5.6-5.4-8.9
	c-0.9-2.4-2.1-4.5-4.8-5.4c-0.6-0.2-1.1-0.9-1.4-1.4c-0.9-2.1-2.5-2.5-3.9-2c-1,2-1.8,3.5-2.7,5.1c-0.5,0.8-1.1,1.5-1.6,2.3
	c0.8,0.5,1.5,1.3,2.4,1.4c4.2,0.8,7.4,3.1,10,6.6c-0.4,0.7-1.2,1.4-1.4,2.2c-0.2,0.9-0.4,2.2,0.1,2.8c2.4,2.8,5.2,5.3,7.5,8.3
	c1.9,2.3,4,3.8,6.9,4.7c2,0.6,3,0.1,4.1-1.3C330.3,349.1,331.5,347.9,332.6,346.5z M182.4,400.1c-3.2,1.2-6.2,2.4-8.9,3.5
	c-0.8,5.9-1.7,11.7-2.5,17.2C175.5,414.5,180.6,408.2,182.4,400.1z"/>
</svg>
