<?xml version="1.0" encoding="utf-8"?>
<!-- Generator: Adobe Illustrator 25.2.1, SVG Export Plug-In . SVG Version: 6.00 Build 0)  -->
<svg version="1.1" id="Layer_1" xmlns="http://www.w3.org/2000/svg" xmlns:xlink="http://www.w3.org/1999/xlink" x="0px" y="0px"
	 viewBox="0 0 595.3 841.9" style="enable-background:new 0 0 595.3 841.9;" xml:space="preserve">
<style type="text/css">
	.st0{fill:#C6C6C6;}
	.st1{fill:#FFFCF1;}
	.st2{fill:#4BA974;}
	.st3{fill:#3C3C3B;}
	.st4{fill:#FFFFFF;}
	.st5{fill:#FFFCF1;stroke:#4BA974;stroke-width:4;stroke-miterlimit:10;}
</style>
<rect x="278.4" y="581.3" class="st0" width="4.2" height="7.2"/>
<path class="st1" d="M516.5,781.7h-433c-21.1,0-38.1-17.1-38.1-38.1V98.2C45.3,77.1,62.4,60,83.5,60h433c21.1,0,38.1,17.1,38.1,38.1
	v645.4C554.6,764.6,537.5,781.7,516.5,781.7z"/>
<rect x="45.3" y="551" class="st2" width="509.3" height="54.6"/>
<polygon class="st2" points="174.1,60 174.1,125.6 131.2,153.2 88.2,125.6 88.2,60 "/>
<polygon class="st0" points="88.5,125.3 89.1,125.3 89.1,125.6 "/>
<rect x="128.9" y="108.6" class="st2" width="4.6" height="24.1"/>
<rect x="171.8" y="680.9" class="st2" width="256.4" height="7.1"/>
<g>
	<path d="M215.9,637.3H228c2.4,0,4.2,0.5,5.4,1.6c1.2,1,1.9,2.3,1.9,3.9c0,1.3-0.4,2.4-1.3,3.3c-0.9,0.9-2.2,1.6-3.9,2.2
		c2.2,0.5,3.8,1.2,4.9,2.2s1.6,2.2,1.6,3.7c0,1.2-0.3,2.2-0.9,3s-1.6,1.6-3.1,2.2c-1.4,0.6-3.1,0.9-4.9,0.9H216v-1.2h1.9
		c0.6,0,1-0.1,1.3-0.3s0.4-0.4,0.4-0.6v-18.5c0-0.4-0.1-0.8-0.4-1s-0.6-0.3-1.1-0.3h-2L215.9,637.3L215.9,637.3z M222.8,647.9h4.4
		c1.3,0,2.4-0.4,3.2-1.2s1.2-2.1,1.2-3.9c0-1.1-0.2-2-0.6-2.6s-0.9-1.1-1.7-1.4c-0.7-0.3-2-0.4-3.8-0.4c-1.3,0-2,0.1-2.3,0.3
		s-0.4,0.5-0.4,1L222.8,647.9L222.8,647.9z M222.8,649.1v8.9c0,0.4,0.1,0.7,0.4,0.9c0.2,0.2,0.7,0.3,1.3,0.3h2.8
		c1.9,0,3.2-0.4,4.1-1.2c0.9-0.8,1.3-2.1,1.3-3.8c0-1.6-0.5-2.8-1.4-3.7s-2.2-1.4-3.8-1.4H222.8z"/>
	<path d="M245.5,645.4c2,0,3.6,0.7,5,2.1c1.3,1.4,2,3.3,2,5.6c0,1.6-0.3,3-0.9,4.1c-0.6,1.1-1.4,2-2.6,2.7s-2.3,1-3.6,1
		c-1.9,0-3.5-0.7-4.8-2.2s-2-3.3-2-5.6s0.7-4.2,2-5.6C241.9,646.1,243.5,645.4,245.5,645.4z M245.5,646.5c-1.2,0-2.1,0.5-2.9,1.6
		s-1.1,2.7-1.1,5s0.4,4,1.1,5.1c0.7,1.1,1.7,1.6,2.9,1.6s2.2-0.5,3-1.6s1.1-2.8,1.1-5.3c0-2.3-0.4-3.9-1.1-4.9
		C247.7,647,246.7,646.5,245.5,646.5z"/>
	<path d="M260.1,637.1v21.2c0,0.3,0.1,0.5,0.3,0.7c0.3,0.2,0.6,0.3,1,0.3h1.5v1.2h-8.3v-1.2h1.5c0.5,0,0.8-0.1,1.1-0.3
		c0.2-0.2,0.4-0.5,0.4-1v-17.8c0-0.5-0.1-0.9-0.4-1.1c-0.4-0.3-0.9-0.5-1.4-0.5h-1.3v-1.2L260.1,637.1z"/>
	<path d="M266.4,654.9c0.6,1.8,1.4,3,2.2,3.7s1.9,1,3.1,1c1.1,0,2-0.2,2.6-0.7s0.9-1.1,0.9-1.9c0-0.4-0.1-0.8-0.3-1.2
		c-0.2-0.3-0.5-0.6-0.9-0.7s-1.4-0.4-3.1-0.7c-1.6-0.3-2.7-0.6-3.3-1c-0.6-0.3-1.1-0.8-1.5-1.4s-0.5-1.3-0.5-2c0-1.1,0.4-2,1.1-2.9
		c0.9-1.1,2.2-1.7,3.9-1.7c1.3,0,2.5,0.4,3.5,1.2l1-1.1h0.6l0.4,5.2h-1c-0.5-1.5-1.1-2.5-1.9-3.2s-1.8-1-2.9-1c-1,0-1.8,0.2-2.3,0.7
		c-0.6,0.5-0.9,1.1-0.9,1.8c0,0.6,0.3,1.1,0.8,1.5s1.5,0.8,3,1c1.7,0.3,2.9,0.5,3.4,0.7c0.9,0.3,1.5,0.8,2,1.4s0.7,1.4,0.7,2.4
		c0,1.3-0.5,2.4-1.5,3.3s-2.3,1.3-3.9,1.3c-1.5,0-2.8-0.5-4-1.4l-1.1,1.3h-0.8l-0.3-5.8L266.4,654.9L266.4,654.9z"/>
	<path d="M283.3,639.8h1v6h4.7v1.4h-4.7v9.4c0,0.8,0.2,1.4,0.6,1.9c0.4,0.4,0.9,0.7,1.5,0.7c0.7,0,1.3-0.3,1.8-1s0.8-1.7,0.9-3.2h1
		c-0.1,2-0.5,3.4-1.3,4.3c-0.8,0.9-1.9,1.4-3.2,1.4c-1.2,0-2.1-0.3-2.8-1c-0.7-0.7-1-1.5-1-2.6v-9.8h-2.5v-1.1
		c1.2-0.2,2-0.7,2.6-1.5C282.8,643.5,283.2,641.9,283.3,639.8z"/>
	<path d="M305.6,653.2h-10.5c0,2.2,0.5,3.8,1.2,4.7c0.9,1,2,1.5,3.4,1.5c2,0,3.7-1.2,4.9-3.5l1,0.4c-1.5,3-3.7,4.4-6.6,4.4
		c-2,0-3.6-0.7-5-2.1c-1.3-1.4-2-3.2-2-5.4c0-2.4,0.7-4.3,2-5.8s2.9-2.2,4.9-2.2c1.4,0,2.6,0.4,3.7,1.1c1,0.7,1.8,1.8,2.3,3.1
		C305.4,650.5,305.6,651.8,305.6,653.2z M295.2,652.1h6.3c0.4,0,0.7-0.1,0.9-0.4s0.3-0.7,0.3-1.3c0-1.2-0.4-2.1-1.1-2.9
		c-0.7-0.8-1.5-1.2-2.5-1.2c-1.1,0-2,0.5-2.8,1.5C295.6,648.7,295.2,650.2,295.2,652.1z"/>
	<path d="M307.7,645.8l5.3-0.3v5.9c0.6-2,1.2-3.4,2-4.4s1.8-1.5,2.9-1.5c0.8,0,1.4,0.2,1.9,0.7s0.7,1.1,0.7,2c0,0.7-0.2,1.2-0.5,1.5
		c-0.3,0.4-0.7,0.5-1.2,0.5s-0.9-0.2-1.1-0.5c-0.3-0.3-0.4-0.7-0.4-1.3c0-0.3,0.1-0.7,0.2-1c0.2-0.3,0.2-0.4,0.2-0.5
		c0-0.2-0.1-0.2-0.3-0.2c-0.4,0-0.9,0.2-1.5,0.8c-0.8,0.7-1.3,1.7-1.7,2.9c-0.6,1.9-0.9,3.4-0.9,4.5v3.1c0,0.3,0.1,0.6,0.4,0.8
		s0.7,0.3,1.3,0.3h1.9v1.2h-9.1v-1.2h1.5c0.5,0,0.9-0.1,1.1-0.3s0.4-0.4,0.4-0.7V649c0-0.7-0.1-1.2-0.5-1.5
		c-0.3-0.3-0.7-0.5-1.3-0.5h-1.3V645.8L307.7,645.8z"/>
</g>
<circle class="st3" cx="362.1" cy="648.8" r="21.9"/>
<g>
	<path class="st4" d="M371.6,655.8l-0.4,5h-19V656c0.6-0.5,1.6-1.2,3.1-2.2c3.5-2.5,6-4.5,7.6-6.1s2.4-3.1,2.4-4.4
		c0-1-0.3-1.8-1-2.4c-0.6-0.6-1.5-1-2.5-1c-2.5,0-3.9,1.6-4.3,4.8l-5.2-1.2c1.2-5.6,4.4-8.4,9.8-8.4c3,0,5.3,0.8,6.9,2.4
		s2.4,3.5,2.4,5.6c0,2.2-0.8,4.3-2.5,6c-1.7,1.8-4.8,4-9.2,6.7L371.6,655.8L371.6,655.8z"/>
</g>
<polygon class="st2" points="123.5,708.7 107.9,700.3 92.1,708.3 95.4,690.8 82.9,678.3 100.4,676 108.5,660.2 116.1,676.2 
	133.6,679 120.8,691.2 "/>
<polygon class="st2" points="514.9,708.7 499.3,700.3 483.5,708.3 486.8,690.8 474.2,678.3 491.8,676 499.9,660.2 507.5,676.2 
	525,679 512.1,691.2 "/>
<polygon class="st2" points="174.1,130.5 174.1,157.7 131.2,185 88.2,157.7 88.2,130.5 131.2,157.7 "/>
<path class="st2" d="M319.9,163.3c0.5,0,1,0,1.5,0c2.2,0.5,4.4,1.3,6.4,2.5c2.4,1.4,4.6,3.1,6,5.6c1,1.7,1.6,3.5,1.4,5.5
	c-0.1,1.8-0.2,3.6-0.2,5.3c0.1,1.4,0.3,2.8-0.2,4.2c0,0.1,0,0.2,0,0.3c0.1,0,0.2,0,0.3,0c1.2-0.2,1.5,0.1,1.8,1.3
	c0.1,0.3,0.1,0.6,0.1,0.9c-0.2,2.1-0.3,4.3-0.6,6.4c-0.3,1.9-1.3,3.6-3,4.5c-0.8,0.5-1.2,1.1-1.3,1.9c-0.1,0.3-0.1,0.6-0.2,0.8
	c-0.5,1.3-0.9,2.7-1.4,4c-0.2,0.5-0.2,0.9,0.4,1c0.5,0.1,1,0.4,1.5,0.5c1.9,0.6,3.5,1.7,4.8,3.1c0.1,0.1,0.2,0.3,0.3,0.4
	c0.7,1.6,1.4,3.1,2.2,4.6c0.1,0.3,0.5,0.6,0.8,0.7c3.2,1.4,6.4,2.8,9.7,4c2.6,1,4.8,2.5,6.4,4.8c1.5,2.2,3,4.4,4.3,6.7
	s2.8,4.6,3.4,7.3c0.3,1.4,0.7,2.8,0.6,4.3c-0.1,1.7-0.1,3.5,0,5.2c0.2,2.5,1,4.7,3,6.3c0.8,0.6,1,1.5,1.1,2.5c0.1,1.7,0.2,3.5,0.8,5
	c1,2.8,1.4,5.7,1.6,8.7c0.3,4,0.6,8,0.8,12c0.1,1.8,0.3,3.6-0.5,5.3c-0.1,0.3-0.1,0.7,0,1c0.5,2.1,1,4.3,1.5,6.4
	c0.1,0.4,0.4,0.9,0.7,1.2c0.3,0.3,0.4,0.6,0.4,1.1c-0.1,1.9-0.1,3.7-0.1,5.6c0,2.7,0,5.3-0.8,8c-0.5,1.4-0.4,3-0.5,4.5
	c0,0.2,0.2,0.5,0.4,0.8c0.1,0.1,0.4,0.2,0.5,0.3c0.9,0.4,1,0.6,0.6,1.5c-0.4,1-0.8,2-1.3,3c-2.2,4.4-4.4,8.9-6.6,13.3
	c-0.2,0.4-0.2,0.7,0.2,1c0.4,0.3,0.5,0.6,0.4,1.1c-0.4,1.1-0.8,2.2-1.2,3.2c-0.1,0.3-0.5,0.5-0.7,0.8c-0.1,0.1-0.3,0.2-0.3,0.4
	c0,1.2,0,2.4,0.1,3.6c0,0.9,0.1,1.9-0.1,2.8c-0.1,0.5-0.4,0.9-0.7,1.3c-0.3,0.3-0.8,0.5-1.1,0.7c-1,0.8-2.1,1.5-3.1,2.3
	c-0.3,0.2-0.7,0.4-1.1,0.5c-0.7,0.2-1.4,0.2-2,0.3c-0.8,0.2-1.6,0.5-2.5,0.8c-0.4,0.1-0.8,0.2-1.1,0.5c-0.9,0.7-1.9,1.3-3.1,1.4
	c0,0,0,0-0.1,0.1c0,0.3,0,0.7,0.1,1.1c0.4,2.2,0.8,4.4,0.9,6.6c0.1,1.6-0.2,3-0.8,4.4c-0.3,0.6-0.5,1.2-0.5,1.9
	c-0.2,3.7-0.2,7.4-0.6,11.1c-0.5,4.7-1.2,9.3-1.8,14c-0.2,1.4-0.4,2.8-0.8,4.2c-0.3,1.1-0.4,1.1-1.4,0.5c0,0-0.1,0-0.2,0
	c-0.2,0.9-0.5,1.8-0.7,2.7c-0.7,3.9-1.2,7.9-1.2,11.9c0,2.4-0.2,4.8-0.9,7.1c-0.4,1.4-0.8,2.9-1.1,4.3c-0.1,0.6-0.2,1.3-0.1,1.9
	c0.2,1.4,0.7,2.8,0.8,4.2c0.1,2,0.1,4,0.1,6c0,0.9-0.2,1.7-0.1,2.6c0.5,3.2,1.1,6.4,1.6,9.6c0.4,2.4,0.8,4.8,0.8,7.2
	c0.1,4.1-0.2,8.1-0.3,12.2c0,0.6,0.2,1,0.6,1.4c0.3,0.2,0.6,0.5,0.9,0.8c0.5,0.4,0.6,0.9,0.3,1.4c-0.3,0.7-0.6,1.3-1.1,1.9
	c-0.8,1-1.6,1.9-2.4,2.9c-0.2,0.2-0.3,0.5-0.3,0.8c0,0.8,0.1,1.5,0.2,2.3c0.1,1.6,0.2,3.1,0.3,4.7c0.1,1.3,0,2.6-1,3.6
	c-0.1,0.1-0.1,0.3,0,0.4c1,2.1,1.9,4.2,3.1,6.3c1.4,2.5,2.9,4.9,3.9,7.5c0.5,1.2,0.7,2.3,0.5,3.6c-0.2,1.5-0.6,3.1-0.7,4.6
	c-0.2,1.7-0.9,3.2-1.8,4.6c-0.4,0.7-1,1.2-1.8,1.5c-0.9,0.3-1.8,0.8-2.7,1c-0.8,0.2-1.7,0.3-2.4,0.1c-2-0.6-4.1-1.3-6-2.2
	c-1.4-0.6-2.4-1.7-3.1-3c-0.8-1.5-1.5-3.1-1.5-4.9c0-0.9-0.1-1.9-0.2-2.8c-0.2-1.6-0.7-3-2.2-3.7c-1.8-0.8-3.1-2.2-4.1-3.9
	c-0.6-1-0.7-2-0.6-3.1c0.1-0.8,0.1-1.6,0-2.3c-0.2-1.4-0.2-2.8,0.1-4.2c0.2-0.8,0-1-1-0.9c-0.1,1.6-0.2,3.2-0.2,4.8
	c0,0.5,0.2,1.1,0.4,1.6c0.1,0.5,0.3,1,0.4,1.5c0.2,1.9-0.3,3.7-0.6,5.6c0,0.2-0.2,0.4-0.3,0.5c-1.4,0.9-2.9,1.8-4.3,2.6
	c-1.4,0.8-3,1.4-4.4,2.2c-2.4,1.4-4.6,3-7,4.5c-1.6,1-3.3,1.7-5.2,2c-1.5,0.2-3,0.5-4.5,0.7c-1.1,0.1-2.2,0.5-3.2,0.2
	c-1.8-0.4-3.5-1.1-5.2-1.7c-0.6-0.2-0.9-0.7-1.1-1.4c-0.2-0.8-0.4-1.5-0.7-2.2c-0.2-0.5-0.6-0.9-0.6-1.4c-0.2-1.6-0.2-3.3,0.8-4.7
	c2.2-3.1,4.9-5.9,7.7-8.5c0.3-0.3,0.6-0.6,0.8-1c0.5-0.8,0.9-1.5,1.4-2.3c0.1-0.2,0.3-0.4,0.4-0.6c0.4-0.7,0.7-1.5,1-2.2
	c0.1-0.2,0.2-0.4,0.2-0.6c-0.2-1-0.5-1.9-0.7-2.9c-0.4-2-0.8-3.9,0-5.9c0.3-0.8,0.1-1.4-0.4-2c-1.1-1.5-2.2-3.1-3.3-4.7
	c-0.2-0.3-0.4-0.6-0.5-1c-1.7-4.2-2.8-8.5-3.9-12.9c-0.2-0.9-0.3-2-0.2-2.9c0.2-1.9,0.5-3.7,0.8-5.6c0.4-2.3,1.2-4.6,0.8-7
	c-0.1-0.6-0.1-1.2-0.1-1.8c0.1-4.1,0.1-8.2,0.2-12.3c0.1-2.8-0.1-5.6-0.9-8.2c-1.5-4.7-2.3-9.5-3-14.3c-0.2-1.4-0.5-2.8-0.7-4.2
	c-1.2-0.1-1.2-0.1-1.2-1.3c0-1.6,0-3.2-0.1-4.8c-0.1-1.3-0.4-2.6-0.7-3.8c-0.5-2.4-0.5-4.9-1.5-7.2c-0.2-0.5-0.3-1.1-0.5-1.6
	c-1.1-3.4-1.6-7-3.4-10.1c-0.1-0.3-0.2-0.6-0.3-0.9c-0.3-1.7-0.6-3.4-0.8-5.1c-0.2-3.2-0.2-6.4,0.1-9.6c0.2-1.6,0.5-3.2,0.4-4.9
	c-0.1-1.6,0.1-3,0.5-4.5c0.2-0.5,0.3-1,0.5-1.5s0-0.8-0.4-1.1c-1.5-0.8-3-1.6-4.3-2.7c-1.8-1.6-3.2-3.5-4.8-5.3
	c-0.8-0.9-0.8-2-0.1-3c0.6-0.9,1-1.9,1.3-3c0.5-2.3,1.3-4.5,1.7-6.8c0.4-2.1,0.8-4.2,1.6-6.2c0.5-1,0.6-2.2,0.5-3.3
	c0-0.7,0-1.4,0-2.2c0-1.3,0-2.5,0-3.8c-0.2-5.7-0.6-11.5-0.8-17.2c-0.1-4.3,0.3-8.6,0.8-12.9c0.5-4,0.9-7.9,1.4-11.9
	c0.2-1.7,0-3.2-0.9-4.7c-1-1.6-1.8-3.4-2.6-5.1c-1.1-2.4-2-4.9-3-7.4c-0.2-0.6-0.6-1.1-1.2-1.5c-1.6-1.2-3.3-2.3-4.8-3.6
	c-4.5-3.9-9-7.7-13.8-11.3c-3.1-2.3-6-4.8-8.9-7.2c-4.8-4.1-8.9-8.7-11.7-14.3c-0.9-1.7-1-3.4-0.4-5.2c0.7-2,1.8-3.8,3.2-5.3
	c2.9-3.1,5.9-6.2,8.9-9.2c1.3-1.3,2.8-2.5,4.1-3.8c0.9-1,2-1.6,3.4-1.8c1.1-0.1,2.2-0.3,3.3-0.4c1.7-0.1,3.4-0.4,5-1.3
	c0.7-0.4,1.6-0.8,2.4-1.1c3-1.2,6-2.5,9.3-2.6c1.1,0,2.1-0.5,2.9-1.2s1.7-1.3,2.6-1.8c1.3-0.7,2.7-1.2,4.1-1.8
	c0.2-0.1,0.5-0.1,0.7-0.1c0.4-0.1,0.8-0.2,1-0.4c2.7-1.9,5.6-3.3,8.9-3.9c2.8-0.5,5.5-0.8,8.3-1.1c1.6-0.2,3.1-0.3,4.7,0.1
	c1.3,0.4,1.4,0.5,1.4,1.8c0,0,0,0.1,0.1,0.1c0.8,0.1,1.7,0.3,2.5,0.4c0.5,0.1,0.7-0.2,0.9-0.5c2.9-4.9,7.2-8,12.8-9.3
	C317.9,163.7,318.9,163.5,319.9,163.3z M261.7,204.9c0.5,0.4,1.1,0.8,1.5,1.3c0.5,0.6,0.9,1.3,1.3,2c0.3,0.5,0.7,0.9,1.2,0.9
	c1.1,0.1,2.2,0.3,3.4,0.4c0.3,0,0.7-0.1,1-0.1c0.4,0,0.8-0.2,1.2-0.1c0.7,0.2,1.3,0.6,2,0.9c0.3,0.1,0.8,0.2,1.1,0.1
	c1-0.3,2-0.4,3-0.1c1.8,0.6,3.6,0.8,5.5,0.7c0.7-0.1,1.4,0,2,0.1c2.7,0.4,5.4,0.9,7.9,2.1c0.4,0.2,0.8,0.2,1.2,0c1-0.5,1.7-0.1,2,1
	c0.1,0.5,0.4,0.6,0.8,0.3c0.3-0.2,0.5-0.5,0.9-0.6c0.9-0.3,1.5-0.9,2-1.6c0.6-0.8,1.3-0.9,2.2-0.4c0.9,0.5,1.4,0.4,2-0.4
	c0.7-0.9,1.5-1.9,2.1-2.9c0.2-0.4,0.4-0.9,0.4-1.4c0-0.9,0-1.7-0.1-2.6c-0.1-2-0.3-4.1-0.5-6.1c0-0.4-0.2-0.7-0.7-0.8
	c-1.5-0.5-2.4-1.5-2.6-3.1c-0.4-2.8-0.5-5.7-0.1-8.5c0.1-0.4-0.1-0.5-0.4-0.5c-0.2,0-0.4,0.1-0.5,0.1c-2,0.7-4.1,1.4-6.1,2.1
	c-0.6,0.2-0.8,0.5-0.8,1.2c0,1.4-0.5,2-1.8,2.5c-1.5,0.6-3.1,1.1-4.6,1.7c-0.9,0.4-1.7,0.4-2.6,0.2c-0.8-0.2-1.7-0.3-2.6-0.5
	c0,1.3-0.8,1.6-1.7,1.9c-2.9,1-5.9,2.1-8.8,3.2c-0.4,0.1-0.9,0.3-1.3,0.4c-1.1,0.1-2,0.5-2.8,1.4c-1.6,1.7-3.4,3.1-5.6,3.8
	C262.2,203.8,261.8,204.3,261.7,204.9z M349.1,283.5c-0.6,0.8-0.7,0.9-0.5,1.7c0.4,1.5,0.8,3.1,0.4,4.6c-0.6,2.1-0.5,4.3-0.6,6.5
	c0,0.8,0,1.6-0.2,2.3c-0.4,1.8-0.9,3.5-1.4,5.2c-0.2,0.7-0.2,1.3,0,2c0.6,2.1,1.3,4.3,1.9,6.4c0.5,1.7,0.9,3.4,0.7,5.1
	c0,0.1,0,0.2,0.1,0.3c0.1,0,0.1,0.1,0.2,0.1c1.1-1.3,2.1-2.6,3.2-3.9c-0.1-0.2-0.2-0.4-0.3-0.6c-0.8-1-1-2.2-0.9-3.5
	c0.1-0.7,0.1-1.4,0-2c-0.4-2.7-0.3-5.4,0.3-8.1c0.2-0.9,0.2-1.8,0-2.7c-0.2-0.9-0.4-1.9-0.5-2.9
	C351.1,290.5,349.9,287.1,349.1,283.5z M349.4,331.4c0,0,0.1,0,0.2,0c0.2-0.2,0.4-0.5,0.5-0.7c0.3-0.9,0.9-1.5,1.7-1.8
	c0.7-0.3,0.9-1.7,0.4-2.1c-1.5-1.2-2.5-2.7-3.1-4.4c-0.2-0.5-0.4-0.9-0.6-1.4c-0.6,0.7-0.7,1.4-0.4,2.2c0.4,0.8,0.8,1.5,1,2.3
	c0.3,1.7,0.6,3.4,0.4,5.2C349.3,330.9,349.4,331.1,349.4,331.4z M319.6,461.1c-0.2,0.9-0.4,1.6-0.5,2.4c-0.1,0.5-0.1,1.1,0.1,1.6
	c0.4,1.2,0.8,2.4,1.2,3.5c0.1,0.2,0.2,0.3,0.3,0.6c0.7-1.3,1.3-2.5,1.8-3.7c0.3-0.6,0-1.1-0.4-1.6c-0.5-0.5-1-0.9-1.4-1.4
	C320.4,462.1,320,461.6,319.6,461.1z M318.9,428c-0.1,0-0.2,0-0.3,0c0,1.2,0,2.5,0,3.7c0,1,0.1,2.1,0.2,3.1c0.4,2.1,0.6,4.2,0.4,6.4
	c-0.1,0.9-0.1,1.9-0.2,2.8c0.1,0,0.1,0,0.2,0c0.2-0.9,0.5-1.8,0.7-2.8c0.3-1.6,0-3.1-0.2-4.7c-0.3-2.4-0.4-4.9-0.7-7.3
	C319.1,428.8,319,428.4,318.9,428z M317.4,415.8c-1.1,2.2-0.5,6.4,0.9,7C318,420.4,318.8,418,317.4,415.8z"/>
<path class="st4" d="M261.7,204.9c0.1-0.6,0.5-1.1,1.1-1.3c2.2-0.7,4.1-2.1,5.6-3.8c0.8-0.9,1.6-1.3,2.8-1.4c0.4,0,0.9-0.2,1.3-0.4
	c2.9-1.1,5.9-2.1,8.8-3.2c0.9-0.3,1.8-0.6,1.7-1.9c0.9,0.2,1.8,0.3,2.6,0.5c0.9,0.2,1.7,0.1,2.6-0.2c1.5-0.6,3-1.2,4.6-1.7
	c1.3-0.5,1.8-1.1,1.8-2.5c0-0.6,0.2-0.9,0.8-1.2c2-0.7,4.1-1.4,6.1-2.1c0.2-0.1,0.4-0.1,0.5-0.1c0.3,0,0.5,0.1,0.4,0.5
	c-0.4,2.8-0.4,5.7,0.1,8.5c0.2,1.5,1.2,2.6,2.6,3.1c0.5,0.1,0.6,0.4,0.7,0.8c0.2,2,0.3,4.1,0.5,6.1c0.1,0.9,0.1,1.7,0.1,2.6
	c0,0.5-0.2,1-0.4,1.4c-0.7,1-1.4,1.9-2.1,2.9c-0.6,0.8-1.1,0.9-2,0.4s-1.6-0.4-2.2,0.4c-0.5,0.7-1.1,1.3-2,1.6
	c-0.3,0.1-0.6,0.4-0.9,0.6c-0.5,0.3-0.7,0.2-0.8-0.3c-0.3-1.1-1-1.5-2-1c-0.4,0.2-0.8,0.2-1.2,0c-2.5-1.2-5.2-1.8-7.9-2.1
	c-0.7-0.1-1.4-0.1-2-0.1c-1.9,0.1-3.7-0.1-5.5-0.7c-1-0.3-2-0.3-3,0.1c-0.3,0.1-0.7,0-1.1-0.1c-0.7-0.3-1.3-0.7-2-0.9
	c-0.4-0.1-0.8,0-1.2,0.1c-0.3,0-0.7,0.1-1,0.1c-1.1-0.1-2.2-0.2-3.4-0.4c-0.6-0.1-1-0.4-1.2-0.9c-0.4-0.7-0.8-1.4-1.3-2
	C262.9,205.7,262.3,205.4,261.7,204.9z"/>
<path class="st4" d="M349.1,283.5c0.8,3.6,2,7,2.4,10.7c0.1,1,0.3,1.9,0.5,2.9c0.2,0.9,0.2,1.8,0,2.7c-0.5,2.7-0.6,5.4-0.3,8.1
	c0.1,0.7,0.1,1.4,0,2c-0.2,1.3,0.1,2.5,0.9,3.5c0.1,0.2,0.2,0.4,0.3,0.6c-1.1,1.3-2.1,2.6-3.2,3.9c-0.1,0-0.1-0.1-0.2-0.1
	c0-0.1-0.1-0.2-0.1-0.3c0.2-1.8-0.2-3.4-0.7-5.1c-0.6-2.1-1.2-4.3-1.9-6.4c-0.2-0.7-0.2-1.3,0-2c0.5-1.7,1-3.5,1.4-5.2
	c0.2-0.8,0.2-1.6,0.2-2.3c0.1-2.2,0-4.4,0.6-6.5c0.4-1.6,0-3.1-0.4-4.6C348.4,284.3,348.4,284.2,349.1,283.5z"/>
<path class="st4" d="M349.4,331.4c0-0.3,0-0.6,0-0.8c0.2-1.8-0.1-3.5-0.4-5.2c-0.1-0.8-0.6-1.5-1-2.3s-0.2-1.5,0.4-2.2
	c0.2,0.5,0.5,0.9,0.6,1.4c0.7,1.7,1.6,3.2,3.1,4.4c0.5,0.4,0.3,1.9-0.4,2.1c-0.9,0.4-1.4,1-1.7,1.8c-0.1,0.3-0.3,0.5-0.5,0.7
	C349.5,331.4,349.4,331.4,349.4,331.4z"/>
<path class="st4" d="M319.6,461.1c0.4,0.5,0.7,1.1,1.1,1.5c0.4,0.5,1,1,1.4,1.4c0.5,0.4,0.7,1,0.4,1.6c-0.6,1.2-1.2,2.3-1.8,3.7
	c-0.2-0.3-0.3-0.5-0.3-0.6c-0.4-1.2-0.9-2.4-1.2-3.5c-0.1-0.5-0.1-1-0.1-1.6C319.2,462.7,319.5,461.9,319.6,461.1z"/>
<path class="st4" d="M318.9,428c0.1,0.4,0.1,0.8,0.2,1.2c0.2,2.4,0.3,4.9,0.7,7.3c0.2,1.6,0.5,3.1,0.2,4.7c-0.2,0.9-0.5,1.9-0.7,2.8
	c-0.1,0-0.1,0-0.2,0c0.1-0.9,0.1-1.9,0.2-2.8c0.2-2.1-0.1-4.3-0.4-6.4c-0.2-1-0.2-2.1-0.2-3.1c0-1.2,0-2.5,0-3.7
	C318.7,428,318.8,428,318.9,428z"/>
<path class="st4" d="M317.4,415.8c1.5,2.2,0.6,4.7,0.9,7C316.8,422.1,316.3,417.9,317.4,415.8z"/>
<g>
	<path class="st4" d="M148.4,76.5V85c-2.2,2.3-4.6,5.9-7.1,10.7s-4.3,9.6-5.2,14.2s-1.3,8.3-1.3,11c0,0.8,0.1,2,0.1,3.6H122
		c0.1-3.8,0.4-7.2,1.1-10.3c0.6-3.1,1.8-6.7,3.7-10.7c1.8-4,3.6-7.3,5.5-9.9s3.9-5,6.1-7.2H114l0.8-9.9L148.4,76.5L148.4,76.5z"/>
</g>
<g>
	<g>
		<path d="M216.1,702h10.7v1.2H225c-0.8,0-1.3,0.1-1.5,0.3s-0.3,0.6-0.3,1.3v17.5c0,0.7,0.1,1.1,0.3,1.3s0.7,0.4,1.4,0.4h2.1v1.2
			h-10.7V724h2c0.7,0,1.2-0.1,1.4-0.3s0.3-0.7,0.3-1.4v-17.5c0-0.7-0.1-1.1-0.3-1.2c-0.3-0.2-0.8-0.4-1.6-0.4h-1.8L216.1,702
			L216.1,702z"/>
		<path d="M229,710.5l4.9-0.3c0.2,0.9,0.3,2,0.4,3.2c0.7-1.1,1.4-1.9,2.3-2.4s1.9-0.8,3-0.8c1,0,1.8,0.2,2.4,0.6s1.2,1,1.6,1.8
			c0.4,0.8,0.6,1.8,0.6,2.8v7.1c0,0.5,0.1,0.9,0.4,1.1c0.2,0.2,0.6,0.3,1.2,0.3h1v1.2h-7.7V724h0.7c0.7,0,1.2-0.1,1.4-0.3
			c0.3-0.2,0.4-0.5,0.4-1v-6.3c0-1.4-0.2-2.4-0.6-3c-0.6-0.9-1.5-1.4-2.7-1.4s-2.2,0.5-2.9,1.4s-1.2,2.2-1.2,3.7v5.4
			c0,0.5,0.1,0.9,0.4,1.1c0.2,0.2,0.6,0.3,1.2,0.3h1v1.2H229V724h1c0.5,0,0.9-0.1,1.2-0.3s0.4-0.5,0.4-0.8v-9.5
			c0-0.6-0.2-1.1-0.5-1.4s-0.8-0.5-1.5-0.5H229V710.5z"/>
		<path d="M250.3,719.6c0.6,1.8,1.4,3,2.2,3.7s1.9,1,3.1,1c1.1,0,2-0.2,2.6-0.7s0.9-1.1,0.9-1.9c0-0.4-0.1-0.8-0.3-1.2
			c-0.2-0.3-0.5-0.6-0.9-0.7s-1.4-0.4-3.1-0.7c-1.6-0.3-2.7-0.6-3.3-1c-0.6-0.3-1.1-0.8-1.5-1.4s-0.5-1.3-0.5-2c0-1.1,0.4-2,1.1-2.9
			c0.9-1.1,2.2-1.7,3.9-1.7c1.3,0,2.5,0.4,3.5,1.2l1-1.1h0.6l0.4,5.2h-1c-0.5-1.5-1.1-2.5-1.9-3.2s-1.8-1-2.9-1
			c-1,0-1.8,0.2-2.3,0.7c-0.6,0.5-0.9,1.1-0.9,1.8c0,0.6,0.3,1.1,0.8,1.5s1.5,0.8,3,1c1.7,0.3,2.9,0.5,3.4,0.7
			c0.9,0.3,1.5,0.8,2,1.4s0.7,1.4,0.7,2.4c0,1.3-0.5,2.4-1.5,3.3s-2.3,1.3-3.9,1.3c-1.4,0-2.8-0.5-4-1.4l-1.1,1.3h-0.8l-0.3-5.8
			L250.3,719.6L250.3,719.6z"/>
		<path d="M268,710.2c0.2,1.1,0.4,2.2,0.4,3.2c0.7-1.2,1.5-2,2.3-2.4s1.6-0.7,2.6-0.7s2,0.3,2.9,0.9c0.9,0.6,1.6,1.5,2.2,2.7
			s0.9,2.5,0.9,4c0,2.4-0.7,4.3-2.1,5.8c-1.1,1.2-2.5,1.9-4.1,1.9c-0.9,0-1.7-0.2-2.5-0.7s-1.4-1.2-2-2.1v5.9c0,0.5,0.1,0.8,0.3,1
			c0.3,0.2,0.7,0.4,1.2,0.4h1.1v1.1h-7.8v-1.1h1.1c0.5,0,0.9-0.1,1.1-0.3s0.4-0.5,0.4-0.8v-15.4c0-0.7-0.2-1.2-0.5-1.5
			s-1-0.5-2.1-0.5v-1L268,710.2z M272.5,711.7c-1.1,0-2.1,0.5-2.9,1.6s-1.2,2.7-1.2,4.8s0.4,3.6,1.1,4.6s1.7,1.5,2.9,1.5
			c1.1,0,2-0.4,2.5-1.3c0.8-1.1,1.1-2.8,1.1-4.9c0-2.3-0.3-3.9-1-4.9S273.6,711.7,272.5,711.7z"/>
		<path d="M281.5,710.5l5.8-0.2v12.6c0,0.3,0.1,0.6,0.2,0.7c0.2,0.2,0.5,0.3,0.9,0.3h1.7v1.2h-8.3V724h1.5c0.5,0,0.8-0.1,1-0.3
			s0.3-0.5,0.3-1v-9.2c0-0.6-0.2-1-0.5-1.3s-0.8-0.5-1.5-0.5h-1.2L281.5,710.5L281.5,710.5z M285.5,701.8c0.5,0,0.9,0.2,1.2,0.5
			c0.4,0.3,0.5,0.8,0.5,1.2c0,0.5-0.2,0.9-0.5,1.2s-0.8,0.5-1.2,0.5c-0.5,0-0.9-0.2-1.2-0.5c-0.4-0.3-0.5-0.8-0.5-1.2
			s0.2-0.9,0.5-1.2C284.6,702,285,701.8,285.5,701.8z"/>
		<path d="M291.6,710.5l5.3-0.3v5.9c0.6-2,1.2-3.4,2-4.4s1.8-1.5,2.9-1.5c0.8,0,1.4,0.2,1.9,0.7s0.7,1.1,0.7,2
			c0,0.7-0.2,1.2-0.5,1.5c-0.3,0.4-0.7,0.5-1.2,0.5s-0.9-0.2-1.1-0.5c-0.3-0.3-0.4-0.7-0.4-1.3c0-0.3,0.1-0.7,0.2-1
			c0.2-0.3,0.2-0.4,0.2-0.5c0-0.2-0.1-0.2-0.3-0.2c-0.4,0-0.9,0.2-1.5,0.8c-0.8,0.7-1.3,1.7-1.7,2.9c-0.6,1.9-0.9,3.4-0.9,4.5v3.1
			c0,0.3,0.1,0.6,0.4,0.8s0.7,0.3,1.3,0.3h1.9v1.2h-9.1v-1h1.5c0.5,0,0.9-0.1,1.1-0.3s0.4-0.4,0.4-0.7v-9.3c0-0.7-0.1-1.2-0.5-1.5
			c-0.3-0.3-0.7-0.5-1.3-0.5h-1.3V710.5L291.6,710.5z"/>
		<path d="M319.8,717.9h-10.5c0,2.2,0.5,3.8,1.2,4.7c0.9,1,2,1.5,3.4,1.5c2,0,3.7-1.2,4.9-3.5l1,0.4c-1.5,3-3.7,4.4-6.6,4.4
			c-2,0-3.6-0.7-5-2.1c-1.3-1.4-2-3.2-2-5.4c0-2.4,0.7-4.3,2-5.8s2.9-2.2,4.9-2.2c1.4,0,2.6,0.4,3.7,1.1c1,0.7,1.8,1.8,2.3,3.1
			C319.5,715.3,319.7,716.5,319.8,717.9z M309.3,716.8h6.3c0.4,0,0.7-0.1,0.9-0.4s0.3-0.7,0.3-1.3c0-1.2-0.4-2.1-1.1-2.9
			c-0.7-0.8-1.5-1.2-2.5-1.2c-1.1,0-2,0.5-2.8,1.5C309.7,713.4,309.3,714.9,309.3,716.8z"/>
	</g>
	<circle class="st3" cx="362.7" cy="713.9" r="21.9"/>
	<g>
		<path class="st4" d="M353.8,710.7v-5.2c4.4-1.3,7.2-3,8.6-5.2h4.3v21.1h7v4.6h-20.5v-4.6h7.7v-14.5
			C357.8,708.7,355.5,710,353.8,710.7z"/>
	</g>
</g>
<rect x="121" y="93.6" class="st2" width="24.2" height="3.8"/>
<path class="st4" d="M215.6,570.1c0,0.7,0.2,1.2,0.7,1.7c0.3,0.3,0.9,0.6,1.8,0.8v7.1c-3.1-0.7-5.3-1.7-6.7-2.8
	c-1.5-1.3-2.3-3.1-2.3-5.6s0.9-4.6,2.7-6.3c1.6-1.5,3.6-2.3,6.2-2.5v5.2C216.5,567.9,215.6,568.7,215.6,570.1z"/>
<path class="st4" d="M218.1,585.9v5.3c-2.5-0.1-4.6-0.8-6.4-1.9c-2-1.3-3.3-3.2-4-5.8l6.1-1.4C214.4,584.3,215.8,585.6,218.1,585.9z
	"/>
<path class="st4" d="M229.9,569l-5.6,1.9c-0.7-2-2-3.1-4.1-3.3v-5.1C225.2,562.7,228.4,564.9,229.9,569z"/>
<path class="st4" d="M230.6,581.9c0,2.5-1,4.7-2.9,6.6c-1.7,1.7-4.2,2.6-7.5,2.7V586c1.1-0.1,2-0.4,2.6-0.8c0.7-0.6,1.1-1.3,1.1-2.1
	s-0.3-1.5-1-1.9c-0.5-0.3-1.4-0.7-2.7-1v-7.1c2.6,0.5,4.4,1.1,5.7,1.6c1.3,0.6,2.4,1.5,3.4,2.8C230.2,578.9,230.6,580.3,230.6,581.9
	z"/>
<path class="st4" d="M254.2,591.6c0.5,0,1.3-0.1,2.5-0.2v5c-0.8,0.2-1.6,0.3-2.3,0.3c-2.5,0-4.2-0.5-5-1.6c-0.9-1.1-1.3-2.4-1.5-4
	c-0.4,0-0.8,0.1-1.2,0.1V586c2.8-0.6,4.1-3.5,4.1-8.9c0-5.5-1.4-8.5-4.1-9.1v-5.4c3.4,0.2,6.1,1.6,7.9,4.2c2.1,2.8,3.1,6.2,3.1,10.2
	c0,3.2-0.6,5.9-1.8,8s-2.6,3.7-4.1,4.6C251.8,590.9,252.6,591.6,254.2,591.6z"/>
<path class="st4" d="M240.4,576.8c0,5.4,1.4,8.4,4.1,9v5.3c-3.2-0.2-5.8-1.5-7.8-4.1c-2.1-2.8-3.2-6.2-3.2-10.2
	c0-3.9,1-7.3,3.1-10.1c1.9-2.6,4.5-4,7.9-4.2v5.4C241.8,568.4,240.4,571.4,240.4,576.8z"/>
<path class="st4" d="M284,562.8v17.4c0,2.8-0.3,4.9-1,6.3c-0.6,1.4-1.8,2.5-3.6,3.4c-1.3,0.7-3,1.1-4.9,1.2v-5.3
	c0.7-0.1,1.3-0.3,1.9-0.5c0.8-0.4,1.3-1,1.5-1.6c0.2-0.7,0.4-1.8,0.4-3.4v-17.4h5.7V562.8z"/>
<path class="st4" d="M272.5,585.8v5.4c-2.5,0-4.6-0.4-6.1-1.2c-1.6-0.8-2.8-1.9-3.6-3.4c-0.8-1.5-1.2-3.6-1.2-6.4v-17.4h7.1v17.4
	c0,1.5,0.1,2.6,0.4,3.3s0.8,1.3,1.5,1.7C271.2,585.6,271.8,585.7,272.5,585.8z"/>
<path class="st4" d="M302.3,562.8h-7.6l-9,28h5.8l1.8-5.8h9.1l1.7,5.8h7.1L302.3,562.8z M294.9,579.9l3-9.8l2.9,9.8H294.9z"/>
<rect x="314.1" y="562.8" class="st4" width="6.4" height="28"/>
<path class="st4" d="M337.1,576.7c0,4-1.2,7.3-3.5,10c-2.4,2.7-5.6,4-9.8,4h-1.1v-5.3h0.6c2.4,0,4.2-0.9,5.3-2.7
	c1.2-1.8,1.7-3.9,1.7-6.3c0-1.7-0.3-3.3-1-4.7s-1.5-2.5-2.5-3c-1-0.6-2.2-0.9-3.5-0.9h-0.7v-5.2l0,0c3.5,0,6.1,0.5,7.8,1.4
	c1.7,1,3.2,2.5,4.6,4.6C336.4,570.9,337.1,573.6,337.1,576.7z"/>
<rect x="360.5" y="585.3" class="st4" width="9.1" height="5.5"/>
<polygon class="st4" points="358.5,562.8 358.5,570.9 358.4,570.9 358.4,590.8 351.9,590.8 351.9,562.8 "/>
<rect x="381.7" y="562.8" class="st4" width="11.3" height="5.3"/>
<rect x="381.7" y="573.9" class="st4" width="8.4" height="5.3"/>
<rect x="381.7" y="585.3" class="st4" width="11.3" height="5.5"/>
<rect x="373" y="562.8" class="st4" width="6.6" height="28"/>
<path class="st4" d="M410.7,562.8h-7.6l-9,28h5.8l1.8-5.8h9l1.7,5.8h7L410.7,562.8z M403.2,579.9l3-9.8l2.9,9.8H403.2z"/>
<rect x="422.5" y="562.8" class="st4" width="6.4" height="28"/>
<path class="st4" d="M445.4,576.7c0,4-1.2,7.3-3.5,10c-2.4,2.7-5.6,4-9.8,4H431v-5.3h0.6c2.4,0,4.2-0.9,5.3-2.7
	c1.2-1.8,1.7-3.9,1.7-6.3c0-1.7-0.3-3.3-1-4.7s-1.5-2.5-2.5-3c-1-0.6-2.2-0.9-3.5-0.9H431v-5.2c3.5,0,6.1,0.5,7.8,1.4
	c1.7,1,3.2,2.5,4.6,4.6C444.7,570.9,445.4,573.6,445.4,576.7z"/>
<rect x="458.5" y="562.8" class="st4" width="11.2" height="5.3"/>
<rect x="458.5" y="585.3" class="st4" width="11.2" height="5.5"/>
<polygon class="st4" points="456.4,568.2 456.4,573.9 456.4,573.9 456.4,579.2 456.4,579.2 456.4,585.3 456.4,585.3 456.4,590.8 
	449.7,590.8 449.7,562.8 456.4,562.8 "/>
<rect x="458.5" y="573.9" class="st4" width="8.4" height="5.3"/>
<path class="st4" d="M496.5,590.8h-7.2l-4.3-11.1h-2.6v-4.8h1.9c1.3,0,2.3-0.1,2.9-0.3s1.1-0.6,1.6-1.2c0.5-0.6,0.7-1.4,0.7-2.2
	s-0.2-1.5-0.7-2.1s-1-1-1.5-1.1c-0.5-0.2-1.6-0.2-3.1-0.2h-1.8v-5h3.6c2.3,0,4.1,0.3,5.5,0.8s2.5,1.5,3.4,2.9s1.4,3,1.4,4.7
	c0,3.4-1.6,5.8-4.9,7.2L496.5,590.8z"/>
<polygon class="st4" points="480.2,579.7 480.2,590.8 473.6,590.8 473.6,562.8 480.2,562.8 "/>
<circle class="st5" cx="139.4" cy="578.3" r="36"/>
<g>
	<path class="st2" d="M155.4,573.5l-9.2,0.6c-0.1-5.3-2.2-7.9-6.2-7.9c-4.6,0-6.9,4.1-6.9,12.2c0,4.7,0.6,7.9,1.9,9.5
		c1.2,1.7,3,2.5,5.2,2.5c3.6,0,5.8-2.3,6.6-7.1l8.5,0.5c-0.6,4.5-2.2,7.9-5,10.2c-2.8,2.3-6.2,3.5-10.2,3.5c-4.9,0-9-1.7-12.1-5.1
		s-4.6-8.1-4.6-14.1c0-5.6,1.5-10.2,4.5-13.8c3-3.6,7.1-5.4,12.3-5.4C149.2,559.1,154.2,563.9,155.4,573.5z"/>
</g>
</svg>
