<?xml version="1.0" encoding="utf-8"?>
<!-- Generator: Adobe Illustrator 25.2.1, SVG Export Plug-In . SVG Version: 6.00 Build 0)  -->
<svg version="1.1" id="Layer_1" xmlns="http://www.w3.org/2000/svg" xmlns:xlink="http://www.w3.org/1999/xlink" x="0px" y="0px"
	 viewBox="0 0 595.3 841.9" style="enable-background:new 0 0 595.3 841.9;" xml:space="preserve">
<style type="text/css">
	.st0{fill:#C6C6C6;}
	.st1{fill:#FFFCF1;}
	.st2{fill:#4BA974;}
	.st3{fill:#3C3C3B;}
	.st4{fill:none;}
	.st5{enable-background:new    ;}
	.st6{fill:#FFFFFF;}
</style>
<rect x="275.1" y="581.4" class="st0" width="4.2" height="7.2"/>
<path class="st1" d="M513.2,781.8h-433c-21.1,0-38.1-17.1-38.1-38.1V98.3c0-21.1,17.1-38.1,38.1-38.1h433
	c21.1,0,38.1,17.1,38.1,38.1v645.4C551.4,764.7,534.3,781.8,513.2,781.8z"/>
<rect x="42.1" y="549.7" class="st2" width="509.3" height="54.6"/>
<rect x="293.2" y="618.2" class="st2" width="7.1" height="143"/>
<rect x="65.2" y="686.1" class="st2" width="463.1" height="7.2"/>
<g>
	<path d="M113.4,633.7h7.7L128,652l6.4-18.2h7.9v1.2h-1.9c-0.7,0-1.1,0.1-1.4,0.3c-0.2,0.2-0.4,0.5-0.4,1v18.3
		c0,0.4,0.1,0.7,0.4,0.8c0.3,0.2,0.8,0.3,1.4,0.3h1.8v1.2h-10.6v-1.2h2c0.6,0,1-0.1,1.2-0.3s0.4-0.5,0.4-0.8V635l-7.6,21.9h-1.1
		l-8.2-21.8v16.8c0,1,0.1,1.8,0.4,2.2c0.2,0.5,0.6,0.9,1.1,1.1c0.5,0.3,1.2,0.4,2.3,0.5v1.2h-8.7v-1.2c1.4-0.1,2.4-0.4,2.9-0.9
		s0.8-1.4,0.8-2.8v-16c0-0.4-0.1-0.7-0.4-0.9c-0.2-0.2-0.7-0.3-1.3-0.3h-2L113.4,633.7L113.4,633.7L113.4,633.7z"/>
	<path d="M151,641.8c2,0,3.6,0.7,5,2.1c1.3,1.4,2,3.3,2,5.6c0,1.6-0.3,3-0.9,4.1c-0.6,1.1-1.4,2-2.6,2.7s-2.3,1-3.6,1
		c-1.9,0-3.5-0.7-4.8-2.2s-2-3.3-2-5.6s0.7-4.2,2-5.6S149,641.8,151,641.8z M151,642.9c-1.2,0-2.1,0.5-2.9,1.6s-1.1,2.7-1.1,5
		s0.4,4,1.1,5.1c0.7,1.1,1.7,1.6,2.9,1.6s2.2-0.5,3-1.6s1.1-2.8,1.1-5.3c0-2.3-0.4-3.9-1.1-4.9C153.2,643.4,152.2,642.9,151,642.9z"
		/>
	<path d="M159.4,642.2h7.2v1.1c-1,0-1.6,0.1-1.8,0.3c-0.3,0.2-0.4,0.4-0.4,0.7c0,0.2,0.1,0.5,0.2,0.7l3.9,8.6l3.5-8.4
		c0.1-0.2,0.1-0.3,0.1-0.4c0-0.8-0.8-1.2-2.2-1.4v-1.1h6.1v1.1c-0.6,0.1-1.1,0.2-1.5,0.5s-0.6,0.6-0.8,1.1l-5.4,12.4h-0.8l-5.8-12.8
		c-0.2-0.5-0.5-0.8-0.8-1s-0.8-0.3-1.4-0.3L159.4,642.2L159.4,642.2z"/>
	<path d="M191,649.6h-10.5c0.1,2.2,0.5,3.8,1.2,4.7c0.9,1,2,1.5,3.4,1.5c2,0,3.7-1.2,4.9-3.5l1,0.4c-1.5,3-3.7,4.4-6.6,4.4
		c-2,0-3.6-0.7-4.9-2.1s-2-3.2-2-5.4c0-2.4,0.7-4.3,2-5.8s2.9-2.2,4.9-2.2c1.4,0,2.6,0.4,3.7,1.1c1,0.7,1.8,1.8,2.3,3.1
		C190.8,646.9,191,648.2,191,649.6z M180.5,648.5h6.3c0.4,0,0.7-0.1,0.9-0.4s0.3-0.7,0.3-1.3c0-1.2-0.4-2.1-1.1-2.9
		s-1.6-1.2-2.5-1.2c-1.1,0-2,0.5-2.8,1.5C180.9,645.1,180.5,646.6,180.5,648.5z"/>
</g>
<circle class="st3" cx="488.1" cy="645.6" r="21.9"/>
<rect x="476.9" y="632.3" class="st4" width="22.4" height="26.5"/>
<g class="st5">
	<path class="st6" d="M497.5,652.7l-0.4,5h-19v-4.9c0.6-0.5,1.6-1.2,3.1-2.2c3.5-2.5,6-4.5,7.6-6.1s2.4-3.1,2.4-4.4
		c0-1-0.3-1.8-1-2.4c-0.6-0.6-1.5-1-2.5-1c-2.5,0-3.9,1.6-4.3,4.8l-5.2-1.2c1.2-5.6,4.4-8.4,9.8-8.4c3,0,5.3,0.8,6.9,2.4
		s2.4,3.5,2.4,5.6c0,2.2-0.8,4.3-2.5,6c-1.7,1.8-4.8,4-9.2,6.7L497.5,652.7L497.5,652.7z"/>
</g>
<circle class="st3" cx="232.1" cy="644" r="21.9"/>
<rect x="221" y="630.8" class="st4" width="22.4" height="26.5"/>
<g class="st5">
	<path class="st6" d="M223.3,640.8v-5.2c4.4-1.3,7.2-3,8.6-5.2h4.3v21.1h7v4.6h-20.5v-4.6h7.7V637
		C227.3,638.8,224.9,640.1,223.3,640.8z"/>
</g>
<g>
	<path d="M360.8,635h1l8.3,21.1c0.3,0.8,1,1.3,2,1.3h0.7v1.2h-9.2v-1.2h0.7c1,0,1.6-0.1,2-0.3c0.3-0.2,0.4-0.4,0.4-0.7
		c0-0.2,0-0.4-0.1-0.6l-1.9-4.9h-9.1l-1.1,2.8c-0.3,0.8-0.4,1.3-0.4,1.8s0.2,1,0.7,1.3c0.5,0.4,1.2,0.5,2.1,0.5h0.8v1.2h-8.4v-1.2
		c0.9,0,1.6-0.2,2.1-0.6c0.5-0.4,1-1.1,1.4-2.2L360.8,635z M360.4,639.4l-4.1,10.3h8.2L360.4,639.4z"/>
	<path d="M377.7,637.9h1v6h4.7v1.4h-4.7v9.4c0,0.8,0.2,1.4,0.6,1.9c0.4,0.4,0.9,0.7,1.5,0.7c0.7,0,1.3-0.3,1.8-1s0.8-1.7,0.9-3.2h1
		c-0.1,2-0.5,3.4-1.3,4.3c-0.8,0.9-1.9,1.4-3.2,1.4c-1.2,0-2.1-0.3-2.8-1c-0.7-0.7-1-1.5-1-2.6v-9.8h-2.5v-1.1
		c1.2-0.2,2-0.7,2.6-1.5C377.1,641.7,377.6,640,377.7,637.9z"/>
	<path d="M390.1,637.9h1v6h4.7v1.4h-4.7v9.4c0,0.8,0.2,1.4,0.6,1.9c0.4,0.4,0.9,0.7,1.5,0.7c0.7,0,1.3-0.3,1.8-1s0.8-1.7,0.9-3.2h1
		c-0.1,2-0.5,3.4-1.3,4.3c-0.8,0.9-1.9,1.4-3.2,1.4c-1.2,0-2.1-0.3-2.8-1c-0.7-0.7-1-1.5-1-2.6v-9.8H386v-1.1c1.2-0.2,2-0.7,2.6-1.5
		C389.6,641.7,390,640,390.1,637.9z"/>
	<path d="M414.2,656.9l0.6,0.9c-0.8,0.8-1.6,1.2-2.5,1.2c-0.7,0-1.3-0.2-1.8-0.6s-0.9-1.1-1.3-2c-1,1-1.9,1.7-2.6,2.1
		s-1.6,0.5-2.7,0.5c-1.5,0-2.6-0.3-3.4-1s-1.2-1.5-1.2-2.5c0-1.5,0.9-2.8,2.7-3.8c1.8-1,4.2-1.7,7.1-2v-2.2c0-0.8-0.3-1.5-1-2
		c-0.6-0.6-1.4-0.8-2.4-0.8c-0.9,0-1.7,0.2-2.3,0.6c-0.5,0.3-0.7,0.6-0.7,0.8s0.1,0.4,0.4,0.7c0.3,0.4,0.5,0.8,0.5,1.1
		c0,0.5-0.1,0.8-0.5,1.2c-0.3,0.3-0.7,0.5-1.2,0.5s-1-0.2-1.3-0.5c-0.4-0.3-0.5-0.8-0.5-1.4c0-1,0.6-2,1.7-2.8
		c1.2-0.8,2.7-1.3,4.6-1.3c1.7,0,3.1,0.4,4,1.1c0.9,0.8,1.4,1.7,1.4,2.8v8c0,0.7,0.1,1.2,0.3,1.6c0.2,0.3,0.5,0.5,0.9,0.5
		C413.3,657.4,413.7,657.3,414.2,656.9z M409.1,650.8c-2.6,0.4-4.5,1-5.6,1.8c-0.8,0.6-1.2,1.5-1.2,2.7c0,0.8,0.2,1.4,0.6,1.9
		s1,0.7,1.7,0.7c1.2,0,2.3-0.5,3.2-1.4c0.9-0.9,1.4-2.1,1.4-3.5L409.1,650.8L409.1,650.8z"/>
	<path d="M427.7,654.2l1,0.3c-0.8,3-2.6,4.5-5.4,4.5c-2,0-3.7-0.7-5-2s-1.9-3.1-1.9-5.4c0-2.6,0.7-4.6,2.1-6s3.1-2.1,5-2.1
		c1.4,0,2.6,0.4,3.6,1.2c0.9,0.8,1.4,1.7,1.4,2.6c0,0.6-0.2,1.1-0.5,1.5c-0.4,0.4-0.8,0.6-1.2,0.6c-0.5,0-0.9-0.2-1.2-0.5
		s-0.5-0.7-0.5-1.2s0.2-0.9,0.5-1.3c0.2-0.2,0.2-0.3,0.2-0.5c0-0.3-0.2-0.6-0.6-0.9c-0.4-0.3-1-0.4-1.7-0.4c-1.3,0-2.2,0.5-2.9,1.4
		c-0.9,1.3-1.4,3.1-1.4,5.3c0,2.1,0.4,3.7,1.2,4.8c0.8,1.1,1.9,1.6,3.2,1.6C425.5,657.7,426.8,656.5,427.7,654.2z"/>
	<path d="M430.5,635.4l5.6-0.3v16l4.8-4.2c0.5-0.4,0.7-0.8,0.7-1.1s-0.1-0.5-0.4-0.6c-0.4-0.2-1.1-0.3-2-0.3v-1.1h7.8v1.1
		c-1.5,0.1-2.7,0.5-3.5,1.2l-3.4,3l5.5,7.5c0.3,0.5,0.9,0.7,1.7,0.7h0.8v1.2h-8v-1.2h0.8c0.6,0,1,0,1.2-0.2c0.2-0.1,0.3-0.2,0.3-0.4
		s0-0.3-0.2-0.4l-4-5.6l-2.1,1.9v3.7c0,0.3,0.1,0.5,0.3,0.7c0.3,0.2,0.7,0.3,1.2,0.3h1v1.2h-7.9v-1.2h1.3c0.5,0,0.9-0.1,1.2-0.3
		s0.4-0.5,0.4-0.9V638c0-0.5-0.1-0.8-0.5-1c-0.4-0.3-1-0.5-1.8-0.5h-0.8V635.4z"/>
</g>
<polygon class="st2" points="170.9,60.1 170.9,125.7 127.9,153.3 85,125.7 85,60.1 "/>
<polygon class="st0" points="85.3,125.4 85.8,125.4 85.8,125.7 "/>
<polygon class="st0" points="172.3,125.4 171.8,125.7 171.8,125.4 "/>
<g>
	<polygon class="st6" points="162.8,575.5 158.3,589.8 154.3,589.8 149.9,575.5 150.2,575.5 150.2,564.5 152.3,564.5 156.8,579.7 
		161.4,564.5 162.6,564.5 162.6,575.5 	"/>
	<polygon class="st6" points="170.7,564.5 170.7,589.8 164.7,589.8 164.7,569.2 164.7,569.3 164.7,564.5 	"/>
	<polygon class="st6" points="148.1,564.5 148.1,569.4 148,569.2 148,589.8 143.1,589.8 143.1,564.5 	"/>
	<path class="st6" d="M188.2,564.5h-6.9l-8.1,25.3h5.2l1.6-5.2h8.2l1.6,5.2h6.4L188.2,564.5z M181.4,579.9l2.7-8.9l2.7,8.9H181.4z"
		/>
	<path class="st6" d="M218.4,580.9c-0.4,3-1.5,5.3-3.4,6.9c-1.7,1.4-3.7,2.2-6.1,2.3v-4.9c2-0.3,3.3-1.9,3.8-4.7L218.4,580.9z"/>
	<path class="st6" d="M203.4,577.2c0,3.2,0.4,5.3,1.3,6.5c0.6,0.8,1.3,1.3,2.1,1.5v5c-2.8-0.3-5-1.4-6.9-3.4
		c-2.1-2.3-3.1-5.5-3.1-9.6c0-3.8,1-7,3.1-9.4c1.8-2.1,4.1-3.3,6.9-3.6v5C204.5,569.8,203.4,572.5,203.4,577.2z"/>
	<path class="st6" d="M218.4,573.9l-6.2,0.4c-0.1-3.2-1.2-4.9-3.3-5.3v-4.9C214.5,564.4,217.7,567.7,218.4,573.9z"/>
	<path class="st6" d="M235.6,564.5v9.9h-7.9v-9.9h-5.8v25.3h5.8v-10.5h7.9v10.5h5.8v-25.3H235.6z"/>
	<path class="st6" d="M246.5,564.5v25.3h5.9v-25.3H246.5z"/>
	<path class="st6" d="M262,573.6v9.7h0.1v-8.6C262.1,574.4,262.1,574,262,573.6z"/>
	<path class="st6" d="M277,564.5v25.3h-4.7v-10.7l0.2,0.3c-0.1-0.7-0.1-1.3-0.1-1.7v-13.2L277,564.5L277,564.5z"/>
	<path class="st6" d="M262.1,583.3v6.5h-4.6v-25.3h4.5v8.3l0,0c0,0.4,0,0.7,0,0.8L262.1,583.3L262.1,583.3z"/>
	<polygon class="st6" points="270.2,575.5 270.2,586.9 264.1,576.4 264.1,564.9 	"/>
	<rect x="290.1" y="564.5" class="st6" width="10.1" height="4.8"/>
	<rect x="290.1" y="574.5" class="st6" width="7.5" height="4.8"/>
	<rect x="290.1" y="584.8" class="st6" width="10.1" height="5"/>
	<rect x="282" y="564.5" class="st6" width="5.9" height="25.3"/>
	<path class="st6" d="M319.3,571.1c-0.8,1.5-1.2,3.5-1.2,6.2c0,2.6,0.5,4.6,1.3,6c0.5,0.8,1.2,1.4,2,1.7v5.1c-2.8-0.2-5-1.4-6.7-3.5
		c-1.8-2.4-2.8-5.4-2.8-9.2c0-4,1-7.3,2.9-9.7c1.7-2.1,3.8-3.3,6.5-3.6v5C320.5,569.5,319.8,570.2,319.3,571.1z"/>
	<path class="st6" d="M332.9,572.8l-5.6,0.7c-0.4-2.8-1.7-4.3-3.8-4.6V564c2.5,0.1,4.6,0.9,6.2,2.3
		C331.5,568.1,332.5,570.2,332.9,572.8z"/>
	<path class="st6" d="M332.9,576.3v13.5h-2.7c-0.2-1-0.5-1.9-0.8-2.9c-1.6,1.9-3.5,3-5.9,3.3v-4.8c0.9,0,1.8-0.4,2.5-1
		c0.8-0.7,1.2-1.8,1.2-3.3h-4.8v-4.7L332.9,576.3L332.9,576.3L332.9,576.3z"/>
	<path class="st6" d="M347,585.3v4.9c-2.2,0-4-0.4-5.4-1.1c-1.4-0.7-2.5-1.7-3.2-3.1c-0.7-1.3-1.1-3.3-1.1-5.8v-15.8h6.4v15.8
		c0,1.4,0.1,2.4,0.3,3c0.2,0.6,0.7,1.2,1.4,1.5C346,585,346.5,585.2,347,585.3z"/>
	<path class="st6" d="M357.6,564.5v15.8c0,2.5-0.3,4.4-0.9,5.7c-0.6,1.2-1.7,2.3-3.2,3.1c-1.2,0.6-2.6,1-4.4,1.1v-4.9
		c0.6-0.1,1.2-0.2,1.6-0.5c0.7-0.4,1.2-0.9,1.4-1.5s0.4-1.6,0.4-3.1v-15.8L357.6,564.5L357.6,564.5z"/>
	<path class="st6" d="M366.9,573.8v6.6l0,0v-5.7C366.9,574.4,366.9,574.1,366.9,573.8z M377.2,572.9v4.8c0,0.1,0,0.2,0,0.3V572.9
		L377.2,572.9z"/>
	<polygon class="st6" points="375.1,575.6 375.1,587 368.9,576.4 368.9,564.9 	"/>
	<path class="st6" d="M381.8,564.5v25.3h-4.6v-10.6l0.1,0.2c0-0.6-0.1-1-0.1-1.4v-5.1l0,0v-8.4H381.8z"/>
	<path class="st6" d="M366.9,580.3v9.5h-4.6v-25.3h4.6v8.3l-0.1-0.1c0,0.4,0,0.7,0,0.8s0,0.1,0,0.2L366.9,580.3L366.9,580.3z"/>
	<path class="st6" d="M391.5,574.4v5.6l0,0v-5.3C391.5,574.6,391.5,574.5,391.5,574.4z M401.8,572.5v5.3c0,0.2,0,0.4,0,0.7V572.5
		L401.8,572.5z"/>
	<path class="st6" d="M391.5,580v9.8h-4.6v-25.3h4.6v8.4l-0.1-0.2c0,0.4,0,0.7,0,0.8c0,0.3,0.1,0.6,0.1,0.9V580L391.5,580z"/>
	<path class="st6" d="M406.3,564.5v25.3h-4.5v-10.5l0.1,0.1c0-0.4-0.1-0.7-0.1-1v-6l0,0v-8L406.3,564.5L406.3,564.5z"/>
	<polygon class="st6" points="399.7,575.6 399.7,587.1 393.5,576.5 393.5,565 	"/>
	<polygon class="st6" points="417.5,569.3 417.5,574.5 417.5,574.5 417.5,579.3 417.5,579.3 417.5,584.8 417.5,584.8 417.5,589.8 
		411.4,589.8 411.4,564.5 417.5,564.5 	"/>
	<rect x="419.6" y="574.5" class="st6" width="7.4" height="4.8"/>
	<rect x="419.6" y="564.5" class="st6" width="10" height="4.8"/>
	<rect x="419.6" y="584.8" class="st6" width="10" height="5"/>
	<path class="st6" d="M449.1,578.6c2.9-1.3,4.4-3.5,4.4-6.5c0-1.6-0.4-3-1.2-4.2c-0.8-1.3-1.9-2.2-3.1-2.6c-1.2-0.5-2.9-0.7-5-0.7
		h-3.1v4.5h1.4c1.4,0,2.3,0.1,2.8,0.2c0.5,0.1,1,0.5,1.4,1c0.4,0.6,0.6,1.2,0.6,1.9c0,0.8-0.2,1.4-0.6,2s-0.9,1-1.4,1.1
		c-0.5,0.2-1.4,0.2-2.6,0.2H439v-11h-6v25.3h6v-10h4.2l3.9,10h6.6L449.1,578.6z"/>
</g>
<rect x="114.4" y="711.4" class="st4" width="69.4" height="24.4"/>
<g>
	<path d="M99.6,713.4l1.4-2h1.1l0.1,8.4h-1c-0.7-2.6-1.6-4.5-2.9-5.7s-2.7-1.8-4.4-1.8c-1.4,0-2.5,0.4-3.4,1.2s-1.3,1.8-1.3,3
		c0,0.7,0.2,1.4,0.5,2s0.8,1,1.5,1.4c0.7,0.3,1.9,0.7,3.7,1.1c2.6,0.6,4.4,1.1,5.4,1.7s1.8,1.3,2.3,2.2s0.8,1.9,0.8,3
		c0,2.1-0.7,3.8-2.1,5.2s-3.2,2-5.4,2c-2.4,0-4.5-0.8-6.2-2.3l-1.8,2.2h-1.1v-9H88c0.4,2.5,1.4,4.4,2.9,5.8c1.5,1.4,3.2,2.1,5.1,2.1
		c1.5,0,2.8-0.5,3.8-1.4s1.5-2,1.5-3.3c0-0.7-0.2-1.4-0.6-2s-0.9-1-1.7-1.4c-0.8-0.4-2.3-0.8-4.7-1.4c-2.6-0.6-4.3-1.3-5.2-2
		c-1.3-1.1-1.9-2.6-1.9-4.5c0-2,0.7-3.7,1.9-5s3-2,5-2c1,0,1.9,0.2,2.8,0.5S98.6,712.6,99.6,713.4z"/>
	<path d="M111,719.9v9.7c0,1.2,0.3,2.1,0.9,2.8s1.4,1,2.3,1c1.2,0,2.2-0.5,3-1.4s1.2-2.1,1.2-3.5V723c0-0.5-0.2-0.9-0.5-1.2
		c-0.4-0.3-1.1-0.4-2.1-0.5v-1.1l5.1-0.3v12c0,0.5,0.2,1,0.5,1.3s0.8,0.5,1.3,0.5h0.9v1l-4.9,0.1l-0.3-2.9c-0.9,1-1.8,1.8-2.6,2.3
		c-0.9,0.5-1.8,0.8-2.7,0.8c-1.3,0-2.4-0.4-3.3-1.3c-0.9-0.9-1.4-2.4-1.4-4.5v-6.4c0-0.6-0.2-1-0.7-1.3c-0.3-0.2-0.9-0.3-1.9-0.3
		v-1.1L111,719.9z"/>
	<path d="M130.1,719.9c0.2,1.1,0.4,2.2,0.4,3.2c0.7-1.2,1.5-2,2.3-2.4s1.6-0.7,2.6-0.7s1.9,0.3,2.9,0.9c0.9,0.6,1.6,1.5,2.2,2.7
		c0.6,1.2,0.9,2.5,0.9,4c0,2.4-0.7,4.3-2.1,5.8c-1.1,1.2-2.5,1.9-4.1,1.9c-0.9,0-1.7-0.2-2.5-0.7s-1.4-1.2-2-2.1v5.9
		c0,0.5,0.1,0.8,0.3,1c0.3,0.2,0.7,0.4,1.2,0.4h1.1v1.1h-7.8v-1.1h1.1c0.5,0,0.9-0.1,1.1-0.3s0.4-0.5,0.4-0.8v-15.4
		c0-0.7-0.2-1.2-0.5-1.5s-1-0.5-2.1-0.5v-1L130.1,719.9z M134.7,721.3c-1.1,0-2.1,0.5-2.9,1.6c-0.8,1.1-1.2,2.7-1.2,4.8
		s0.4,3.6,1.1,4.6s1.7,1.5,2.9,1.5c1.1,0,1.9-0.4,2.5-1.3c0.8-1.1,1.1-2.8,1.1-4.9c0-2.3-0.3-3.9-1-4.9S135.8,721.3,134.7,721.3z"/>
	<path d="M148.5,719.9c0.2,1.1,0.4,2.2,0.4,3.2c0.7-1.2,1.5-2,2.3-2.4s1.6-0.7,2.6-0.7s1.9,0.3,2.9,0.9c0.9,0.6,1.6,1.5,2.2,2.7
		c0.6,1.2,0.9,2.5,0.9,4c0,2.4-0.7,4.3-2.1,5.8c-1.1,1.2-2.5,1.9-4.1,1.9c-0.9,0-1.7-0.2-2.5-0.7s-1.4-1.2-2-2.1v5.9
		c0,0.5,0.1,0.8,0.3,1c0.3,0.2,0.7,0.4,1.2,0.4h1.1v1.1h-7.8v-1.1h1.1c0.5,0,0.9-0.1,1.1-0.3s0.4-0.5,0.4-0.8v-15.4
		c0-0.7-0.2-1.2-0.5-1.5s-1-0.5-2.1-0.5v-1L148.5,719.9z M153.1,721.3c-1.1,0-2.1,0.5-2.9,1.6c-0.8,1.1-1.2,2.7-1.2,4.8
		s0.4,3.6,1.1,4.6s1.7,1.5,2.9,1.5c1.1,0,1.9-0.4,2.5-1.3c0.8-1.1,1.1-2.8,1.1-4.9c0-2.3-0.3-3.9-1-4.9S154.1,721.3,153.1,721.3z"/>
	<path d="M162,720.2l5.3-0.3v5.9c0.6-2,1.2-3.4,2-4.4s1.8-1.5,2.9-1.5c0.8,0,1.4,0.2,1.9,0.7s0.7,1.1,0.7,2c0,0.7-0.2,1.2-0.5,1.5
		c-0.3,0.4-0.7,0.5-1.2,0.5s-0.9-0.2-1.1-0.5c-0.3-0.3-0.4-0.7-0.4-1.3c0-0.3,0.1-0.7,0.2-1c0.2-0.3,0.2-0.4,0.2-0.5
		c0-0.2-0.1-0.2-0.3-0.2c-0.4,0-0.9,0.2-1.4,0.8c-0.8,0.7-1.3,1.7-1.7,2.9c-0.6,1.9-0.9,3.4-0.9,4.5v3.1c0,0.3,0.1,0.6,0.4,0.8
		s0.7,0.3,1.3,0.3h1.9v1.2h-9.1v-1.2h1.4c0.5,0,0.9-0.1,1.1-0.3s0.4-0.4,0.4-0.7v-9.3c0-0.7-0.1-1.2-0.4-1.5
		c-0.3-0.3-0.7-0.5-1.3-0.5H162V720.2L162,720.2L162,720.2z"/>
	<path d="M190.2,727.6h-10.5c0.1,2.2,0.5,3.8,1.2,4.7c0.9,1,2,1.5,3.4,1.5c2,0,3.7-1.2,4.9-3.5l1,0.4c-1.5,3-3.7,4.4-6.6,4.4
		c-2,0-3.6-0.7-4.9-2.1s-2-3.2-2-5.4c0-2.4,0.7-4.3,2-5.8s2.9-2.2,4.9-2.2c1.4,0,2.6,0.4,3.7,1.1c1,0.7,1.8,1.8,2.3,3.1
		C190,724.9,190.2,726.1,190.2,727.6z M179.7,726.5h6.3c0.4,0,0.7-0.1,0.9-0.4s0.3-0.7,0.3-1.3c0-1.2-0.4-2.1-1.1-2.9
		s-1.6-1.2-2.5-1.2c-1.1,0-2,0.5-2.8,1.5C180.1,723.1,179.8,724.5,179.7,726.5z"/>
	<path d="M194.2,729.3c0.6,1.8,1.4,3,2.2,3.7s1.9,1,3.1,1c1.1,0,2-0.2,2.6-0.7s0.9-1.1,0.9-1.9c0-0.4-0.1-0.8-0.3-1.2
		c-0.2-0.3-0.5-0.6-0.9-0.7s-1.4-0.4-3.1-0.7c-1.6-0.3-2.7-0.6-3.3-1c-0.6-0.3-1.1-0.8-1.5-1.4s-0.5-1.3-0.5-2c0-1.1,0.4-2,1.1-2.9
		c0.9-1.1,2.2-1.7,3.9-1.7c1.3,0,2.4,0.4,3.5,1.2l1-1.1h0.6l0.4,5.2H203c-0.5-1.5-1.1-2.5-1.9-3.2c-0.8-0.7-1.8-1-2.9-1
		c-1,0-1.8,0.2-2.3,0.7c-0.6,0.5-0.9,1.1-0.9,1.8c0,0.6,0.3,1.1,0.8,1.5s1.5,0.8,3,1c1.7,0.3,2.9,0.5,3.4,0.7c0.9,0.3,1.5,0.8,2,1.4
		s0.7,1.4,0.7,2.4c0,1.3-0.5,2.4-1.5,3.3s-2.3,1.3-3.9,1.3c-1.4,0-2.8-0.5-4-1.4l-1.1,1.3h-0.8l-0.3-5.8L194.2,729.3L194.2,729.3z"
		/>
	<path d="M209,729.3c0.6,1.8,1.4,3,2.2,3.7s1.9,1,3.1,1c1.1,0,2-0.2,2.6-0.7s0.9-1.1,0.9-1.9c0-0.4-0.1-0.8-0.3-1.2
		c-0.2-0.3-0.5-0.6-0.9-0.7s-1.4-0.4-3.1-0.7c-1.6-0.3-2.7-0.6-3.3-1c-0.6-0.3-1.1-0.8-1.5-1.4s-0.5-1.3-0.5-2c0-1.1,0.4-2,1.1-2.9
		c0.9-1.1,2.2-1.7,3.9-1.7c1.3,0,2.4,0.4,3.5,1.2l1-1.1h0.6l0.4,5.2h-1.1c-0.5-1.5-1.1-2.5-1.9-3.2c-0.8-0.7-1.8-1-2.9-1
		c-1,0-1.8,0.2-2.3,0.7c-0.6,0.5-0.9,1.1-0.9,1.8c0,0.6,0.3,1.1,0.8,1.5s1.5,0.8,3,1c1.7,0.3,2.9,0.5,3.4,0.7c0.9,0.3,1.5,0.8,2,1.4
		s0.7,1.4,0.7,2.4c0,1.3-0.5,2.4-1.5,3.3s-2.3,1.3-3.9,1.3c-1.4,0-2.8-0.5-4-1.4l-1.1,1.3h-0.8l-0.3-5.8L209,729.3L209,729.3z"/>
</g>
<ellipse transform="matrix(0.9231 -0.3846 0.3846 0.9231 -258.7352 153.3978)" class="st3" cx="254.1" cy="723.5" rx="21.9" ry="21.9"/>
<rect x="242.9" y="710.3" class="st4" width="22.4" height="26.5"/>
<g class="st5">
	<path class="st6" d="M260,710.3v15.4h3.5v4.4H260v5.8h-6v-5.8h-11v-4.4l10.2-15.4H260z M247.4,725.8h6.9v-8.6c0-0.3,0-0.7,0-1.2v-1
		L247.4,725.8z"/>
</g>
<g>
	<path class="st6" d="M120.2,92.6h5.2c3,0,5-0.6,6-1.8c1.1-1.2,1.6-2.5,1.6-3.9c0-1.6-0.6-3-1.8-4.2s-2.8-1.8-4.9-1.8
		c-4,0-6.5,2.1-7.6,6.3l-10.2-1.6c0.8-3.8,2.9-7,6.1-9.4c3.2-2.5,7.2-3.7,12-3.7c5,0,9.1,1.2,12.5,3.5s5.1,5.6,5.1,9.7
		c0,5.4-2.8,9.1-8.5,11c6.6,1.8,9.9,5.7,9.9,11.7c0,4.3-1.7,7.9-5.1,10.7c-3.4,2.8-8.1,4.2-14,4.2c-5.7,0-10.2-1.4-13.6-4.3
		c-3.3-2.9-5.3-6.4-6-10.7l10.5-1.5c1,5.1,3.9,7.6,8.8,7.6c2.3,0,4.1-0.6,5.5-1.8c1.4-1.2,2.1-2.8,2.1-4.8c0-2.1-0.6-3.7-1.9-4.8
		c-1.3-1.1-3.8-1.6-7.4-1.6H120L120.2,92.6L120.2,92.6L120.2,92.6z"/>
</g>
<rect x="126" y="67.9" class="st2" width="5.4" height="20.2"/>
<rect x="126.1" y="108.6" class="st2" width="5.4" height="20.2"/>
<path class="st0" d="M252.1,223.5c0,1.1,0.2,1.5,0.4,1s0.2-1.4,0-2C252.2,222,252.1,222.4,252.1,223.5z"/>
<path class="st6" d="M277,237.8c0.4,1.5-0.4,2.3-2,2.9c-4.7,1.7-9.4,3.4-14,5.2c-0.1,0-0.3,0.1-0.4,0.1c-1.3-0.2-2.6-0.5-3.9-0.7
	c0.9-0.8,1.8-1.8,2.9-2.3c5.2-2.6,10.4-5.1,15.7-7.6C276.6,234.6,277.1,235.2,277,237.8z"/>
<path class="st6" d="M258.3,252.1c-0.4-0.3-1.2-0.5-1.3-0.9c-0.1-0.3,0.4-1.1,0.8-1.4c0.7-0.5,1.6-1.1,2.4-1.1c0.7,0,1.4,0.7,2,1
	c-0.4,0.5-0.7,1.2-1.2,1.5C260.2,251.6,259.3,251.8,258.3,252.1z"/>
<path class="st6" d="M233,276.4c1,1.8,2.1,3.6,3,5.4c0.2,0.3-0.3,0.9-0.5,1.4c-0.5-0.2-1.4-0.3-1.5-0.6c-0.7-1.9-1.3-3.9-1.9-5.8
	C232.4,276.7,232.7,276.6,233,276.4z"/>
<path class="st6" d="M235.5,275.7c-1-1.7-2.1-3.3-3.1-5.1c-0.1-0.2,0.3-0.8,0.6-0.9s0.9,0.1,1.1,0.3c0.9,1.7,1.6,3.4,2.4,5.1
	C236.2,275.3,235.9,275.5,235.5,275.7z"/>
<path class="st6" d="M248.8,250.1c0.5-2,1.8-2.9,3.7-2.7C252.2,249,251.2,249.7,248.8,250.1z"/>
<path class="st2" d="M369.2,250.4c-1.9,2.5-3.5,4.6-5.2,6.6c-3.3,3.7-7.5,5.2-12.4,5.2c-2.3,0-4.6,0-7.3,0c0,1.3,0,2.5,0,3.7
	c0.1,4.2,0.6,8.4,0.3,12.6c-0.7,9-1.9,18-2.8,27c-0.8,7.3-3.3,14.2-6.3,20.8c-2,4.4-4.2,8.8-7.9,12.3c-1.5,1.4-1.8,4.1-2.7,6.1
	c-2.9,6.4-3.6,13.2-4.3,20.2c-0.5,4.4-1.9,8.6-3,12.9c-1.2,4.4-2,8.5,0.8,12.9c2.2,3.3,3.3,7.4,4.8,11.1c0.6,1.4,0.8,2.9,1.3,4.3
	c1.1,3-0.8,4.8-2.5,6.7c-1.3,1.5-2.9,2.7-4.2,4.2c-0.4,0.5-0.6,1.3-0.6,2c0.2,2.5,0.6,4.9,0.9,7.4c0.1,0.8,0,1.7,0,2.5
	c0.2,4.7-0.1,9.3,1.4,14c1.2,3.8,0.6,8.2,0.6,12.3c0,2.2-0.1,4.5,1.2,6.5c1,1.6,0.4,3.1-1,4.2c-1.8,1.5-3.6,2.9-3.3,5.6
	c0.1,0.6,0.1,1.3,0.3,1.9c0.8,1.7,1.1,3.3-0.1,4.9c-0.9,1.2-1,2.5-0.6,4.1c0.6,2.4,0.3,5.1,1.1,7.4c1.8,5.1,1.6,10.3,1.6,15.5
	c0,0.8,0.6,1.5,0.8,2.3c0.5,3.1-0.5,4.8-4,5.4c-5.5,0.9-11.1,2-16.7,2.1c-4.8,0-9.6-0.2-14.4-1.8c-2.9-1-6.1-1-9.2-1.4
	c-0.5-0.1-1.2-0.2-1.5-0.5c-1.3-1.6-2.9-1.5-4.7-1.6c-3.7-0.3-7.6-0.4-11.1-1.4c-2.8-0.8-5.5-2.5-7.9-4.2c-2.3-1.6-2.5-4.5-0.8-7.1
	c2.6-4,6.1-5.8,10.9-5.4c3.4,0.3,6.8,0.2,9.8-1.8c0.6-0.4,1.1-1,1.6-1.5c2.3-2.4,4.6-4.7,6.7-7.2c1.8-2.2,2.6-4.8,2.3-7.7
	c-0.1-0.7-0.1-1.4-0.4-2c-0.2-0.5-0.6-1.1-1.1-1.2c-1.7-0.4-3.4-0.6-5.1-0.9c-3.3-0.7-4.9-4-3.7-7.3c0.6-1.7,0.9-3.6,1.4-5.4
	c0.3-1.1,0.7-2.2,1.2-3.3c0.7-1.5,0.7-2.6-0.5-3.9c-1.9-2.2-3.6-4.6-5-7.1c-2.1-3.7-4.2-7.5-5.9-11.4c-1-2.3-1.1-4.9-1.6-7.4
	c-0.5-2.6-1-5.1-1.4-7.7c-0.3-1.8-0.6-3.7-0.7-5.6c-0.2-3.8,0-7.7-0.5-11.5c-0.5-3.7-1.8-7.3-2.4-11.1c-0.6-3.8-0.8-7.7-1.1-11.6
	c-0.3-4.5,0.5-8.9-1.2-13.4c-1.1-3-1.7-6.2-1.6-9.6c0.1-4.1-0.5-8.2-0.7-12.3c-0.1-1.4,0.1-2.8,0.4-4.1c0.5-2.1,0.4-4-0.7-6
	c-0.6-1.2-0.7-2.9-0.6-4.3c0.2-2.5,0.6-5.1,1.3-7.5c0.5-1.7,0-3.1-1-4.2c-1.4-1.5-1.4-3.2-1.1-4.9c0.6-3.3,1.5-6.6,2.1-9.9
	c0.2-0.9,0.2-1.9,0.3-2.9c0.1-0.9,0.3-1.8,0.6-3.2c-1.3-1.5-3.2-2.9-5.7-3.4c-2.4-0.4-3.9-1.8-4.9-4c-0.7-1.5-1.8-2.8-2.7-4.2
	c-1.2,1.1-2,2.5-3,2.6c-2.3,0.2-3.8,1.5-5.5,2.8c-1.4,1.1-3.4,0.2-4.2-1.2c-1.5-2.6-3.4-1.8-5.3-1.1c-4,1.6-7.9,3.3-12,4.8
	c-1.9,0.7-4.1,0.8-6,1.6c-3.7,1.4-7.7,1.7-11,4.3c-2.6,2-4.9,0.7-6.5-2.9c-0.6-1.4-1.3-2.7-1.6-4.2c-0.5-2.4-2.6-2.8-4.3-3.5
	c-0.4-0.2-1.8,1-2.1,1.8c-1.3,3.8-2.6,7.7-3.6,11.6c-1.1,4.3-1.1,8.6-0.9,13.1c0.3,5.8,2.1,11.1,3.9,16.4c1.9,5.6,4.8,10.6,8.4,15.3
	c2.8,3.7,5.6,7.4,8.5,11.1c1.4,1.8,2.9,3.5,4.5,5.1c1.2,1.2,1.6,2.2,0.5,3.6c-1.6,1.9-3.7,2.4-5,1.2c-0.8-0.7-1.5-1.6-2.2-2.5
	c-4-5.4-8.2-10.6-11.9-16.2c-3.2-5-6.1-10.3-8.6-15.7c-2.1-4.8-4-9.8-3.8-15.3c0.1-5.1-0.2-10.2,0.6-15.2c0.6-3.9,2.5-7.6,3.8-11.3
	c0.7-1.9,1.6-3.8,2.3-5.7c0.4-1.3,0.2-2.5-0.2-3.9c-0.6-2.7-0.6-5.6-0.2-8.4c0.4-2.8,1.9-5.2,4.1-7.1c0.3-0.3,0.6-0.8,0.7-1.2
	c0.2-1.8,1.5-2.6,2.5-3.8c1-1.2,1-3.2,1.4-4.8c0.2-0.9,0.2-2,0.7-2.6c1.5-1.5,3.5-2.6,4.8-4.2c1.5-1.9,3.1-4.3,3.2-6.5
	c0.2-3.7,1.5-6.2,4.9-7.6c1-0.4,1.5-0.9,1.3-2c-0.1-0.4-0.1-0.9,0.1-1.2c2.2-2.9,3.3-6.7,6.7-8.6c1.1-0.6,2.4-0.8,3.6-1.2
	c3-1,6.1-2.1,9.1-3.2c0.4-0.2,0.9-0.6,1.1-1c2-4.1,5.1-7,9.4-8.5c1.9-0.7,3.1-2,3-4.2c0-0.4,0.2-1,0.5-1.3c3.6-3.2,6.5-7.2,11-9.4
	c0.6-0.3,1.1-1.2,1.1-1.9c0-1.7,0.9-2.9,2.3-3.1c1.6-0.2,2.3-1.1,3-2.3c2.2-4,6-4.8,10.1-4.7c1.8,0,3.6,0.2,5.4,0.4
	c1.2,0.1,2.4,0.4,3.6,0.7c1.2,0.2,2.1,0.3,2.4-1.3c0.4-1.8,0.8-3.8,2.7-4.9c0.3-0.2,0.6-1.1,0.4-1.6c-1.7-4.2-3.4-8.5-5.4-12.6
	c-0.4-0.8-1.9-1-3-1.3c-2.9-0.9-5.9-1.5-8.7-2.6c-3.2-1.3-3.5-3.7-0.8-5.7c1.6-1.2,3.4-2.1,5.1-3.1c1.2-0.7,2.1-1.6,2.3-3.2
	c0.3-3.3,1.2-6.5,3-9.4c2.4-3.9,5.3-7.1,9.5-8.9c2.7-1.1,5.4-2.7,8.3-3.1c10.1-1.5,19,0.9,25.7,9c2.3,2.7,4.2,6,4.3,9.9
	c0,0.5,0.8,1.3,1.4,1.5c2.2,0.7,4.5,1.3,6.8,1.7c1.8,0.4,3.4,1.2,3.9,3s-1,3.1-2.4,3.7c-2.4,1.1-4.9,1.7-7.3,2.6
	c-0.7,0.3-1.6,0.8-1.8,1.5c-1.3,3.7-3.1,6.9-6.1,9.4c-2.4,2-0.9,6.8,2.3,8c0.8,0.3,1.6,0.8,2.5,1c1,0.2,2.1,0.3,3.1,0.4
	c2.4,0.2,4.7,0.2,7.1,0.5c2.7,0.4,5.7,0.5,8.1,1.6c4.1,1.8,8.1,4.1,11.7,6.7c1.7,1.3,2.6,3.9,3.5,6c0.4,0.9,0.2,2.1,0,3.1
	s-0.2,1.3,0.8,2c1.5,1.2,2.6,3,3.8,4.6c0.6,0.8,1.1,1.6,1.5,2.5c1.3,2.7,1.6,2.8,4.2,1.8c8.9-3.3,17.9-6.6,26.9-10
	c1.9-0.7,3.9-1.3,5.8-2.2c0.6-0.3,1.2-1.4,1.2-2.1c0-1.8,0.8-2.8,2.3-3.3s2.2,0.4,2.8,1.6c0.2,0.4,1.3,0.7,2,0.6
	c2.2-0.4,3.1,0,3.8,2.1c0.7,2.1,1.4,4.1,2,6.2c0.8,2.5,1.6,3.1,4.1,2.4c2.6-0.8,5.2-1.7,7.7-2.8c5.7-2.5,10.3,0.1,12.8,4.6
	c0.5,0.9-0.1,2.7-0.6,4c-1.2,3.7-4,5.6-7.7,6.7c-2.8,0.8-5.5,2.2-8.2,3.5c-0.6,0.3-1.3,1.4-1.2,2.1c0.5,3,1.3,5.9,2,8.8
	c0.6,2.8,1.6,5.7,1.7,8.5c0.1,4.4,0.9,8.8-1.2,13c-0.9,1.8-1.5,3.8-2.8,5.2c-3,3.4-6.1,6.7-9.6,9.5c-3,2.5-6.7,4.2-10.7,4.4
	c-5,0.3-9.2-1.8-12.6-5.2c-2.5-2.5-4.6-5.5-6.7-8.4C369.4,252.8,369.5,251.7,369.2,250.4z M390.3,261.8c1.2-0.5,3.3-1.1,5.3-2.1
	c4.1-2,6.9-5.5,9.6-9c3.3-4.5,4.9-9.6,3.7-15.2c-1-4.8-2.3-9.4-5.1-13.5c-1.3-1.8-4.4-3.8-5.8-3.4c-4,1.2-8,2.2-12,3.5
	c-5.5,1.8-10.9,3.8-16.3,5.8c-1.3,0.5-1.3,1.3-0.9,2.5c1.4,4.3,2.9,8.6,3.9,13c1.1,4.6,2.6,9,5.6,12.7
	C381.1,259.3,384.7,261.5,390.3,261.8z M237.6,244.7c0-2.7-0.4-3.2-1.8-2.5c-5.2,2.5-10.5,5-15.7,7.6c-1.1,0.5-1.9,1.5-2.9,2.3
	c1.3,0.2,2.6,0.5,3.9,0.7c0.1,0,0.3-0.1,0.4-0.1c4.7-1.7,9.3-3.5,14-5.2C237.2,247,238,246.2,237.6,244.7z M218.8,258.9
	c1.1-0.3,2-0.4,2.8-0.8c0.5-0.3,0.8-1,1.2-1.5c-0.7-0.4-1.4-1.1-2-1c-0.8,0.1-1.7,0.6-2.4,1.1c-0.4,0.3-0.9,1.1-0.8,1.4
	S218.4,258.7,218.8,258.9z M193.6,283.3c-0.3,0.1-0.6,0.3-0.8,0.4c0.6,1.9,1.2,3.9,1.9,5.8c0.1,0.4,1,0.4,1.5,0.6
	c0.2-0.5,0.6-1.1,0.5-1.4C195.7,286.9,194.6,285.1,193.6,283.3z M196.1,282.6c0.3-0.2,0.7-0.4,1-0.6c-0.8-1.7-1.5-3.4-2.4-5.1
	c-0.1-0.2-0.8-0.4-1.1-0.3s-0.7,0.8-0.6,0.9C194,279.2,195.1,280.9,196.1,282.6z M209.4,257c2.5-0.4,3.4-1.1,3.7-2.7
	C211.2,254.1,209.9,255,209.4,257z"/>
</svg>
