<?xml version="1.0" encoding="utf-8"?>
<!-- Generator: Adobe Illustrator 25.2.1, SVG Export Plug-In . SVG Version: 6.00 Build 0)  -->
<svg version="1.1" id="Layer_1" xmlns="http://www.w3.org/2000/svg" xmlns:xlink="http://www.w3.org/1999/xlink" x="0px" y="0px"
	 viewBox="0 0 595.3 841.9" style="enable-background:new 0 0 595.3 841.9;" xml:space="preserve">
<style type="text/css">
	.st0{fill:#C6C6C6;}
	.st1{fill:#FFFCF1;}
	.st2{fill:#4AA974;}
	.st3{fill:#3C3C3B;}
	.st4{fill:#FFFFFF;}
	.st5{fill:none;}
</style>
<g>
	<rect x="276" y="581.4" class="st0" width="4.2" height="7.2"/>
	<path class="st1" d="M514.1,781.8h-433c-21.1,0-38.1-17.1-38.1-38.1V98.3c0-21.1,17.1-38.1,38.1-38.1h433
		c21.1,0,38.1,17.1,38.1,38.1v645.4C552.3,764.7,535.2,781.8,514.1,781.8z"/>
	<rect x="43" y="551" class="st2" width="509.3" height="54.6"/>
	<rect x="294.1" y="618.2" class="st2" width="7.1" height="143"/>
	<rect x="66.1" y="686.1" class="st2" width="463.1" height="7.2"/>
	<g>
		<path d="M114.2,633.7h7.7l6.9,18.2l6.4-18.2h7.9v1.2h-1.9c-0.7,0-1.1,0.1-1.4,0.3c-0.2,0.2-0.4,0.5-0.4,1v18.3
			c0,0.4,0.1,0.7,0.4,0.8c0.3,0.2,0.8,0.3,1.4,0.3h1.8v1.2h-10.6v-1.2h2c0.6,0,1-0.1,1.2-0.3s0.4-0.5,0.4-0.8v-19.6l-7.6,21.9h-1.1
			l-8.2-21.8v16.8c0,1,0.1,1.8,0.4,2.2c0.2,0.5,0.6,0.9,1.1,1.1c0.5,0.3,1.2,0.4,2.3,0.5v1.2h-8.7v-1.2c1.4-0.1,2.4-0.4,2.9-0.9
			c0.5-0.5,0.8-1.4,0.8-2.8V636c0-0.4-0.1-0.7-0.4-0.9c-0.2-0.2-0.7-0.3-1.3-0.3h-2L114.2,633.7L114.2,633.7L114.2,633.7z"/>
		<path d="M151.9,641.8c2,0,3.6,0.7,5,2.1c1.3,1.4,2,3.3,2,5.6c0,1.6-0.3,3-0.9,4.1c-0.6,1.1-1.4,2-2.6,2.7s-2.3,1-3.6,1
			c-1.9,0-3.5-0.7-4.8-2.2s-2-3.3-2-5.6c0-2.3,0.7-4.2,2-5.6C148.3,642.5,149.9,641.8,151.9,641.8z M151.9,642.9
			c-1.2,0-2.1,0.5-2.9,1.6s-1.1,2.7-1.1,5c0,2.3,0.4,4,1.1,5.1c0.7,1.1,1.7,1.6,2.9,1.6c1.2,0,2.2-0.5,3-1.6s1.1-2.8,1.1-5.3
			c0-2.3-0.4-3.9-1.1-4.9C154.1,643.4,153.1,642.9,151.9,642.9z"/>
		<path d="M160.3,642.2h7.2v1.1c-1,0-1.6,0.1-1.8,0.3c-0.3,0.2-0.4,0.4-0.4,0.7c0,0.2,0.1,0.5,0.2,0.7l3.9,8.6l3.5-8.4
			c0.1-0.2,0.1-0.3,0.1-0.4c0-0.8-0.8-1.2-2.2-1.4v-1.1h6.1v1.1c-0.6,0.1-1.1,0.2-1.5,0.5c-0.4,0.3-0.6,0.6-0.8,1.1l-5.4,12.4h-0.8
			l-5.8-12.8c-0.2-0.5-0.5-0.8-0.8-1c-0.3-0.2-0.8-0.3-1.4-0.3L160.3,642.2L160.3,642.2z"/>
		<path d="M191.9,649.6h-10.5c0.1,2.2,0.5,3.8,1.2,4.7c0.9,1,2,1.5,3.4,1.5c2,0,3.7-1.2,4.9-3.5l1,0.4c-1.5,3-3.7,4.4-6.6,4.4
			c-2,0-3.6-0.7-4.9-2.1s-2-3.2-2-5.4c0-2.4,0.7-4.3,2-5.8c1.3-1.5,2.9-2.2,4.9-2.2c1.4,0,2.6,0.4,3.7,1.1c1,0.7,1.8,1.8,2.3,3.1
			C191.7,646.9,191.9,648.2,191.9,649.6z M181.4,648.5h6.3c0.4,0,0.7-0.1,0.9-0.4s0.3-0.7,0.3-1.3c0-1.2-0.4-2.1-1.1-2.9
			s-1.6-1.2-2.5-1.2c-1.1,0-2,0.5-2.8,1.5C181.8,645.1,181.4,646.6,181.4,648.5z"/>
	</g>
	<circle class="st3" cx="483.8" cy="645.6" r="21.9"/>
	<g>
		<path class="st4" d="M474.9,642.3v-5.2c4.4-1.3,7.2-3,8.6-5.2h4.3v21.1h7v4.6h-20.5v-4.6h7.7v-14.5
			C478.9,640.4,476.6,641.7,474.9,642.3z"/>
	</g>
	<circle class="st3" cx="233" cy="644" r="21.9"/>
	<g>
		<path class="st4" d="M224.1,640.8v-5.2c4.4-1.3,7.2-3,8.6-5.2h4.3v21.1h7v4.6h-20.5v-4.6h7.7V637
			C228.2,638.8,225.8,640.1,224.1,640.8z"/>
	</g>
	<rect x="293.1" y="563.2" class="st0" width="2.2" height="1.4"/>
	<polygon class="st2" points="171.8,60.1 171.8,125.7 128.8,153.3 85.9,125.7 85.9,60.1 	"/>
	<polygon class="st0" points="86.2,125.4 86.7,125.4 86.7,125.7 	"/>
	<g>
		<path class="st4" d="M146.8,113.2l-0.8,9.6h-36v-9.3c1.2-0.9,3.1-2.3,5.8-4.2c6.6-4.7,11.4-8.6,14.4-11.6c3-3,4.5-5.8,4.5-8.3
			c0-1.8-0.6-3.4-1.8-4.6c-1.2-1.2-2.8-1.8-4.8-1.8c-4.7,0-7.4,3.1-8.2,9.2l-9.9-2.2c2.2-10.6,8.4-15.9,18.5-15.9
			c5.7,0,10,1.5,13.1,4.5c3,3,4.6,6.5,4.6,10.7c0,4.3-1.6,8.1-4.8,11.4c-3.2,3.3-9,7.6-17.5,12.6
			C123.8,113.2,146.8,113.2,146.8,113.2z"/>
	</g>
	<rect x="231.8" y="560.8" class="st5" width="153.5" height="33.1"/>
	<polygon class="st5" points="464.5,446.7 460.2,446.7 460.2,446.7 	"/>
	<g>
		<polygon class="st4" points="225.1,563.2 225.1,568.5 225.1,568.3 225.1,591.2 219.6,591.2 219.6,563.2 		"/>
		<polygon class="st4" points="250.1,563.2 250.1,591.2 243.5,591.2 243.5,568.3 243.3,569.1 243.3,563.2 		"/>
		<polygon class="st4" points="241.2,563.2 241.2,575.8 236.5,591.2 232,591.2 227.2,575.5 227.2,563.2 229.8,563.2 234.7,579.9 
			239.9,563.2 		"/>
		<path class="st4" d="M261.2,577.2c0,5.3,1.3,8.3,4,9v5.4c-3.3-0.2-5.9-1.6-7.8-4.2c-2.1-2.8-3.1-6.3-3.1-10.3
			c0-4.1,1-7.5,3.1-10.2c1.9-2.5,4.5-3.8,7.8-4v5.4C262.6,568.8,261.2,571.8,261.2,577.2z"/>
		<path class="st4" d="M278.3,577.2c0,4.1-1,7.5-3.1,10.3c-1.9,2.5-4.5,3.9-7.8,4.1v-5.4c2.7-0.5,4-3.5,4-9s-1.3-8.4-4-9v-5.4
			c3.5,0.2,6.1,1.7,7.9,4.3C277.3,570,278.3,573.4,278.3,577.2z"/>
		<path class="st4" d="M300.2,578.8c3.2-1.5,4.9-3.9,4.9-7.2c0-1.7-0.5-3.3-1.4-4.7c-0.9-1.4-2-2.4-3.4-2.9
			c-1.4-0.5-3.2-0.8-5.5-0.8h-5.7v5h3.9c1.5,0,2.5,0.1,3.1,0.2c0.5,0.1,1.1,0.5,1.5,1.1c0.5,0.6,0.7,1.3,0.7,2.1
			c0,0.8-0.2,1.5-0.7,2.2c-0.5,0.6-1,1-1.6,1.2c-0.6,0.2-1.5,0.3-2.9,0.3h-4v4.8h4.7l4.3,11.1h7.2L300.2,578.8z"/>
		<rect x="282.6" y="563.2" class="st4" width="4.5" height="28"/>
		<path class="st4" d="M307.4,563.2v5.5h7v22.5h6.6v-22.5h6.9v-5.5H307.4z"/>
		<path class="st4" d="M342.5,563.2h-7.6l-9,28h5.8l1.8-5.8h9l1.7,5.8h7L342.5,563.2z M335,580.2l3-9.8l2.9,9.8H335z"/>
		<path class="st4" d="M377.1,591.2h-7.2l-4.3-11.1h-4.7v-4.8h4c1.3,0,2.3-0.1,2.9-0.3c0.6-0.2,1.1-0.6,1.6-1.2
			c0.5-0.6,0.7-1.4,0.7-2.2c0-0.8-0.2-1.5-0.7-2.1c-0.5-0.6-1-1-1.5-1.1c-0.5-0.2-1.6-0.2-3.1-0.2h-3.9v-5h5.7
			c2.3,0,4.1,0.3,5.5,0.8c1.4,0.5,2.5,1.5,3.4,2.9c0.9,1.4,1.4,3,1.4,4.7c0,3.4-1.6,5.8-4.9,7.2L377.1,591.2z"/>
		<rect x="354.3" y="563.2" class="st4" width="4.5" height="28"/>
	</g>
	<g>
		<path d="M359,634.2h12c2.4,0,4.2,0.5,5.4,1.6c1.2,1,1.9,2.3,1.9,3.9c0,1.3-0.4,2.4-1.3,3.3c-0.9,0.9-2.2,1.6-4,2.2
			c2.2,0.5,3.8,1.2,4.9,2.2s1.6,2.2,1.6,3.7c0,1.2-0.3,2.2-0.9,3s-1.6,1.6-3.1,2.2c-1.4,0.6-3.1,0.9-4.9,0.9H359v-1.2h1.9
			c0.6,0,1-0.1,1.3-0.3s0.4-0.4,0.4-0.6v-18.5c0-0.4-0.1-0.8-0.4-1s-0.6-0.3-1.1-0.3h-2L359,634.2L359,634.2L359,634.2z
			 M365.9,644.9h4.4c1.3,0,2.4-0.4,3.2-1.2c0.8-0.8,1.2-2.1,1.2-3.9c0-1.1-0.2-2-0.6-2.6s-0.9-1.1-1.7-1.4c-0.7-0.3-2-0.4-3.8-0.4
			c-1.3,0-2,0.1-2.3,0.3s-0.5,0.5-0.5,1L365.9,644.9L365.9,644.9z M365.9,646v8.9c0,0.4,0.1,0.7,0.4,0.9c0.2,0.2,0.7,0.3,1.3,0.3
			h2.8c1.9,0,3.2-0.4,4.1-1.2c0.9-0.8,1.3-2.1,1.3-3.8c0-1.6-0.5-2.8-1.4-3.7s-2.2-1.4-3.8-1.4H365.9z"/>
		<path d="M387.2,634v21.2c0,0.3,0.1,0.5,0.3,0.7c0.3,0.2,0.6,0.3,1,0.3h1.5v1.2h-8.3v-1.2h1.5c0.5,0,0.8-0.1,1.1-0.3
			c0.2-0.2,0.4-0.5,0.4-1v-17.8c0-0.5-0.1-0.9-0.4-1.1c-0.4-0.3-0.9-0.5-1.4-0.5h-1.3v-1.2L387.2,634z"/>
		<path d="M407.2,655.8l0.6,0.9c-0.8,0.8-1.6,1.2-2.5,1.2c-0.7,0-1.3-0.2-1.8-0.6s-0.9-1.1-1.3-2c-1,1-1.9,1.7-2.6,2.1
			s-1.6,0.5-2.7,0.5c-1.5,0-2.6-0.3-3.4-1s-1.2-1.5-1.2-2.5c0-1.5,0.9-2.8,2.7-3.8c1.8-1,4.2-1.7,7.1-2v-2.2c0-0.8-0.3-1.5-1-2
			c-0.6-0.6-1.4-0.8-2.4-0.8c-0.9,0-1.7,0.2-2.3,0.6c-0.5,0.3-0.7,0.6-0.7,0.8c0,0.2,0.1,0.4,0.4,0.7c0.3,0.4,0.5,0.8,0.5,1.1
			c0,0.5-0.1,0.8-0.5,1.2c-0.3,0.3-0.7,0.5-1.2,0.5c-0.5,0-1-0.2-1.3-0.5c-0.4-0.3-0.5-0.8-0.5-1.4c0-1,0.6-2,1.7-2.8
			c1.2-0.8,2.7-1.3,4.6-1.3c1.7,0,3.1,0.4,4,1.1c0.9,0.8,1.4,1.7,1.4,2.8v8c0,0.7,0.1,1.2,0.3,1.6c0.2,0.3,0.5,0.5,0.9,0.5
			C406.3,656.2,406.7,656.1,407.2,655.8z M402,649.6c-2.6,0.4-4.5,1-5.6,1.8c-0.8,0.6-1.2,1.5-1.2,2.7c0,0.8,0.2,1.4,0.6,1.9
			c0.4,0.5,1,0.7,1.7,0.7c1.2,0,2.3-0.5,3.2-1.4c0.9-0.9,1.4-2.1,1.4-3.5L402,649.6L402,649.6z"/>
		<path d="M411.3,651.8c0.6,1.8,1.4,3,2.2,3.7s1.9,1,3.1,1c1.1,0,2-0.2,2.6-0.7s0.9-1.1,0.9-1.9c0-0.4-0.1-0.8-0.3-1.2
			c-0.2-0.3-0.5-0.6-0.9-0.7s-1.4-0.4-3.1-0.7c-1.6-0.3-2.7-0.6-3.3-1c-0.6-0.3-1.1-0.8-1.5-1.4s-0.5-1.3-0.5-2c0-1.1,0.4-2,1.1-2.9
			c0.9-1.1,2.2-1.7,3.9-1.7c1.3,0,2.5,0.4,3.5,1.2l1-1.1h0.6l0.4,5.2h-1c-0.5-1.5-1.1-2.5-1.9-3.2c-0.8-0.7-1.8-1-2.9-1
			c-1,0-1.8,0.2-2.3,0.7c-0.6,0.5-0.9,1.1-0.9,1.8c0,0.6,0.3,1.1,0.8,1.5c0.5,0.4,1.5,0.8,3,1c1.7,0.3,2.9,0.5,3.4,0.7
			c0.9,0.3,1.5,0.8,2,1.4s0.7,1.4,0.7,2.4c0,1.3-0.5,2.4-1.5,3.3s-2.3,1.3-3.9,1.3c-1.5,0-2.8-0.5-4-1.4l-1.1,1.3h-0.8l-0.3-5.8
			L411.3,651.8L411.3,651.8z"/>
		<path d="M428.2,636.8h1v6h4.7v1.4h-4.7v9.4c0,0.8,0.2,1.4,0.6,1.9c0.4,0.4,0.9,0.7,1.5,0.7c0.7,0,1.3-0.3,1.8-1s0.8-1.7,0.9-3.2h1
			c-0.1,2-0.5,3.4-1.3,4.3c-0.8,0.9-1.9,1.4-3.2,1.4c-1.2,0-2.1-0.3-2.8-1c-0.7-0.7-1-1.5-1-2.6v-9.8h-2.5v-1.1
			c1.2-0.2,2-0.7,2.6-1.5C427.6,640.5,428.1,638.8,428.2,636.8z"/>
	</g>
	<g>
		<path d="M115.7,713.7h18.8l0.4,8.7h-1.1c-0.7-5.1-2.6-7.7-5.6-7.7c-0.6,0-1,0.1-1.2,0.3s-0.3,0.5-0.3,1v18.5
			c0,0.4,0.1,0.7,0.3,0.8s0.6,0.3,1.1,0.3h2.3v1.2h-10.7v-1.2h2.7c0.3,0,0.6-0.1,0.8-0.3c0.2-0.2,0.3-0.4,0.3-0.7V716
			c0-0.4-0.1-0.7-0.4-0.9s-0.6-0.3-1.2-0.3c-1.5,0-2.8,0.7-3.8,2.1c-0.8,1.2-1.4,3-1.8,5.6h-1.1L115.7,713.7z"/>
		<path d="M152.1,735.2l0.6,0.9c-0.8,0.8-1.6,1.2-2.5,1.2c-0.7,0-1.3-0.2-1.8-0.6s-0.9-1.1-1.3-2c-1,1-1.9,1.7-2.6,2.1
			s-1.6,0.5-2.7,0.5c-1.5,0-2.6-0.3-3.4-1s-1.2-1.5-1.2-2.5c0-1.5,0.9-2.8,2.7-3.8c1.8-1,4.2-1.7,7.1-2v-2.2c0-0.8-0.3-1.5-0.9-2
			c-0.6-0.6-1.4-0.8-2.4-0.8c-0.9,0-1.7,0.2-2.3,0.6c-0.5,0.3-0.7,0.6-0.7,0.8c0,0.2,0.1,0.4,0.4,0.7c0.3,0.4,0.4,0.8,0.4,1.1
			c0,0.5-0.1,0.8-0.4,1.2c-0.3,0.3-0.7,0.5-1.2,0.5c-0.5,0-1-0.2-1.3-0.5c-0.4-0.3-0.5-0.8-0.5-1.4c0-1,0.6-2,1.7-2.8
			c1.2-0.8,2.7-1.3,4.6-1.3c1.7,0,3.1,0.4,4,1.1c0.9,0.8,1.4,1.7,1.4,2.8v8c0,0.7,0.1,1.2,0.3,1.6c0.2,0.3,0.5,0.5,0.9,0.5
			C151.2,735.7,151.7,735.5,152.1,735.2z M147,729c-2.6,0.4-4.5,1-5.6,1.8c-0.8,0.6-1.2,1.5-1.2,2.7c0,0.8,0.2,1.4,0.6,1.9
			s1,0.7,1.7,0.7c1.2,0,2.3-0.5,3.2-1.4c0.9-0.9,1.4-2.1,1.4-3.5V729z"/>
		<path d="M154.2,722.2l5.3-0.3v5.9c0.6-2,1.2-3.4,2-4.4s1.8-1.5,2.9-1.5c0.8,0,1.4,0.2,1.9,0.7c0.5,0.5,0.7,1.1,0.7,2
			c0,0.7-0.2,1.2-0.5,1.5c-0.3,0.4-0.7,0.5-1.2,0.5c-0.5,0-0.9-0.2-1.1-0.5c-0.3-0.3-0.4-0.7-0.4-1.3c0-0.3,0.1-0.7,0.2-1
			c0.2-0.3,0.2-0.4,0.2-0.5c0-0.2-0.1-0.2-0.3-0.2c-0.4,0-0.9,0.2-1.4,0.8c-0.8,0.7-1.3,1.7-1.7,2.9c-0.6,1.9-0.9,3.4-0.9,4.5v3.1
			c0,0.3,0.1,0.6,0.4,0.8s0.7,0.3,1.3,0.3h1.9v1.2h-9.1v-1.2h1.4c0.5,0,0.9-0.1,1.1-0.3s0.4-0.4,0.4-0.7v-9.3c0-0.7-0.1-1.2-0.4-1.5
			c-0.3-0.3-0.7-0.5-1.3-0.5h-1.3L154.2,722.2L154.2,722.2L154.2,722.2z"/>
		<path d="M179.9,723c1-1,2-1.6,2.9-1.6c0.5,0,0.9,0.2,1.3,0.5c0.3,0.3,0.5,0.7,0.5,1.2c0,0.4-0.1,0.7-0.4,1
			c-0.2,0.3-0.5,0.4-0.8,0.4c-0.6,0-1-0.4-1.2-1.1c-0.1-0.3-0.2-0.5-0.4-0.5c-0.4,0-0.7,0.2-1.2,0.7c0.4,0.6,0.8,1.2,0.9,1.6
			c0.2,0.5,0.2,0.9,0.2,1.5c0,0.9-0.2,1.7-0.7,2.4s-1.2,1.3-2.2,1.8s-2,0.8-2.9,0.8h-1.7c-1.2,0-2,0.1-2.4,0.4
			c-0.4,0.3-0.6,0.6-0.6,1.1c0,0.4,0.2,0.7,0.5,0.9c0.3,0.2,0.9,0.3,1.8,0.3l3.9-0.1c1.9,0,3.4,0.3,4.2,1c0.9,0.7,1.3,1.5,1.3,2.7
			c0,1.2-0.5,2.3-1.5,3.2c-1.4,1.2-3.4,1.8-6.1,1.8c-2.2,0-3.9-0.4-5-1.2c-0.9-0.7-1.3-1.4-1.3-2.2c0-0.6,0.3-1.2,0.8-1.7
			s1.5-0.9,2.8-1.1c-1-0.2-1.8-0.6-2.3-1.1s-0.8-1.1-0.8-1.8c0-0.7,0.2-1.2,0.6-1.7s1.1-0.9,2.2-1.3c-0.9-0.5-1.6-1.1-2-1.8
			s-0.7-1.5-0.7-2.4c0-1.4,0.6-2.6,1.7-3.6s2.6-1.4,4.3-1.4c0.7,0,1.4,0.1,2.1,0.3C178.6,722.3,179.2,722.6,179.9,723z M176.7,736.8
			c-1.9,0-3.3,0.3-4.1,0.8c-0.8,0.5-1.2,1.2-1.2,1.9c0,0.7,0.3,1.3,0.9,1.7c0.8,0.5,2,0.8,3.5,0.8c1.8,0,3.1-0.3,4.1-0.9
			s1.4-1.3,1.4-2c0-0.4-0.1-0.8-0.4-1.2s-0.7-0.7-1.3-0.8C178.8,736.9,177.9,736.8,176.7,736.8z M175.8,722.7c-0.9,0-1.7,0.3-2.3,1
			c-0.6,0.7-0.9,1.6-0.9,2.9c0,1.3,0.3,2.3,0.9,3c0.6,0.7,1.4,1.1,2.3,1.1s1.7-0.3,2.3-1c0.6-0.7,0.9-1.7,0.9-3
			c0-1.2-0.3-2.2-0.9-2.9C177.4,723.1,176.7,722.7,175.8,722.7z"/>
		<path d="M199.6,729.6h-10.5c0.1,2.2,0.5,3.8,1.2,4.7c0.9,1,2,1.5,3.4,1.5c2,0,3.7-1.2,4.9-3.5l1,0.4c-1.5,3-3.7,4.4-6.6,4.4
			c-2,0-3.6-0.7-4.9-2.1s-2-3.2-2-5.4c0-2.4,0.7-4.3,2-5.8c1.3-1.5,2.9-2.2,4.9-2.2c1.4,0,2.6,0.4,3.7,1.1c1,0.7,1.8,1.8,2.3,3.1
			C199.4,726.9,199.5,728.2,199.6,729.6z M189.1,728.5h6.3c0.4,0,0.7-0.1,0.9-0.4s0.3-0.7,0.3-1.3c0-1.2-0.4-2.1-1.1-2.9
			s-1.6-1.2-2.5-1.2c-1.1,0-2,0.5-2.8,1.5C189.5,725.1,189.1,726.6,189.1,728.5z"/>
		<path d="M205.7,716.2h1.1v6h4.7v1.4h-4.7v9.4c0,0.8,0.2,1.4,0.6,1.9s0.9,0.7,1.5,0.7c0.7,0,1.3-0.3,1.8-1s0.8-1.7,0.9-3.2h1.1
			c-0.1,2-0.5,3.4-1.3,4.3c-0.8,0.9-1.9,1.4-3.2,1.4c-1.2,0-2.1-0.3-2.8-1c-0.7-0.7-1-1.5-1-2.6v-9.8h-2.6v-1.1
			c1.2-0.2,2-0.7,2.6-1.5C205.1,719.9,205.6,718.3,205.7,716.2z"/>
	</g>
	<rect x="126.7" y="68.1" class="st2" width="4.3" height="20.4"/>
	<path class="st2" d="M224.6,482.7c-3.4,2.4-6.5,4.1-8.9,6.4c-2.9,3-6.3,2.5-9.7,2.3c-4.3-0.3-8.6-1-12.8-1.4
		c-9.7-0.8-19.5-1.5-29.2-2.3c-0.7-0.1-2.1-0.9-2-1.1c0.2-1,0.5-2.3,1.3-2.8c4.3-2.8,8.7-5.5,13.3-7.9c10-5.4,20.1-10.5,30-16
		c1.9-1,3.1-3.3,4.4-5.2c2.5-3.6,5.8-7,7-11.1c1.6-5.3,4.5-10.4,2.7-16.6c-1-3.7-0.7-7.8,1.1-11.9c1.1-2.5,0.2-6.2-0.4-9.2
		c-1.4-6.7-3.6-13.2-4.7-19.8c-1.2-7.5-1.6-15.2-2.3-22.8c-0.1-1.2-0.2-2.3-0.3-3.8c-4.1,1.1-7.7,2.3-11.3,3
		c-1.6,0.3-4.1,0.2-4.8-0.7c-1.1-1.4-0.9-3.7-1.4-6c-0.1,0-1.2-0.2-1.6-0.2c-0.3-2.1-1-3.9-0.7-5.4c0.4-1.8,1.4-4.3,2.8-4.8
		c4.1-1.5,8.5-2.1,12.7-3.2c1.4-0.4,3.7-1.6,3.6-2.2c-0.1-1.6-1.1-3.9-2.3-4.4c-6.4-2.8-12.9-5.3-19.4-7.5c-3.6-1.2-3.9-1.9-2.8-5.6
		c2-6.3,3.6-12.7,5.2-19.1c0.2-0.8-0.6-1.9-0.5-2.8c0.1-1.6,0.1-3.7,1-4.7c1.7-1.8,2-3.3,1.1-5.6c-1.1-2.8-2.1-5.8-2.6-8.8
		c-0.4-2.2-0.3-4.8,0.5-6.8c1.7-4.5,1.3-9,1.4-13.6c0.2-10.3,1.2-20.6,1.3-30.9c0.1-6.3-0.9-12.6-1.4-18.8c-0.1-0.9-0.3-1.9,0.1-2.6
		c1.7-4,2.9-8.5,5.6-11.9c5.5-6.9,11.1-13.9,18.9-18.5c0.4-0.2,0.8-1,1.1-1c7.7,1.2,7-6.6,10.5-9.8c3.1-2.8,3.1-6.1,0.6-9.3
		c-0.9-1.1-2-2.3-3.2-2.9c-3.1-1.4-6.3-2.4-9.4-3.9c-0.8-0.4-1.5-1.6-1.5-2.5c0-1.1,0.5-3.1,1.1-3.2c6.5-1.1,8.7-6.1,10.7-11.3
		c3.2-8.3,9.5-12.8,17.9-14.7c9.4-2.2,18.3-1.4,26.4,4.1c5.2,3.6,9,8.6,11.2,14.4c1.4,3.5,3.8,5.2,6.9,6.6c1.5,0.7,3.2,2.2,3.5,3.6
		c0.2,0.9-1.7,2.8-3,3.5c-2.4,1.2-5.1,1.7-7.6,2.6c-1.4,0.5-2.8,1.4-4.3,2.2c1.1,1.5,2.2,2.6,2.8,3.9c1.1,2.2,2.7,4.8-1.9,5.3
		c-0.9,0.1-1.8,1.6-2.2,2.6c-0.7,1.5-0.7,3.4-1.6,4.7c-3.8,6.1,1.6,9.3,4.4,12.8c3,3.7,5.5,7.2,5.4,12.1c0,0.9,0.6,1.8,1,2.7
		c1.2,3.3,2.2,6.7,3.6,9.9c1,2.2,2.9,4.1,3.6,6.3c1.3,4.3,4.5,6.8,7.4,9.8c3.7,3.7,8.2,5.1,13.2,5.6c1.4,0.1,3,0.2,4.3,0.8
		c6,2.8,12.5,2.4,18.8,3.1c5.5,0.6,10.6,0.1,15.9-1.5c3.5-1.1,6.3,0.8,8.6,3.4c3.2,3.7,6.4,7.4,9.7,10.9c2,2.1,2.3,3.7,0.3,6.1
		c-5.7,6.9-11.2,14-16.7,21.1c-5.8,7.4-11.5,14.9-17.2,22.5c-3.4,4.5-6.7,9-9.7,13.6c-0.6,0.8-0.5,3,0.1,3.5c1.3,1,3.2,1.6,4.9,1.9
		c0.4,0.1,1.1-1.5,1.7-2.4c0.6-0.9,1.2-1.8,1.8-2.7c0.6,0.9,1.6,1.7,1.9,2.7c1.2,4.3,2.4,8.7,3.4,13.1c0.2,0.9-0.1,2.2-0.6,2.9
		c-1.3,1.6-3,3-4.5,4.5c-2.2,2.2-2.6,4.3,0,6.8c4.2-2.5,7.2,0.6,10.8,2.8c0,0.6,0.3,1.5,0,2.3c-0.8,1.9-0.1,2.2,1.6,3.4
		c4.1,2.8,7.7,6.4,11.1,10c1.7,1.8,2.1,4.9,6,3.7c2-0.6,3.8,2.8,2.6,5c-0.8,1.5-2,2.8-3.5,4.9c3.7,6,7.7,12.4,11.7,18.7
		c4.1,6.5,8.4,12.9,12.7,19.2c3.8,5.7,7.8,11.2,11.4,17c3,4.7,5.6,9.7,8.6,14.4c3.9,6.1,8,12,12.3,17.9c0.8,1.1,2.5,1.6,3.8,2.3
		c0.3,0.2,0.8-0.1,1.1,0.1c1.6,1.1,3.2,2.2,4.8,3.4c-1.7,1.1-3.3,2.9-5.2,3.2c-3.3,0.5-6.8,0.2-10.2,0.1c-3.2-0.1-5.3-2.2-4-4.3
		c2.9-4.5-1-6-2.9-8.7c-2.5,1.8-4.7,3.4-7.3,5.3c1.9,2.3,3.7,4.4,5.5,6.6c1.7,2.1,2.7,4-0.8,5.4c-1.1,0.5-2.1,1.3-3.2,1.8
		c-3.8,1.7-6,0.9-7.9-2.7c-0.8-1.6-1.6-3.3-2.6-5.1c-1.4,0.8-2.6,1.5-3.6,2.2c-1,0.7-1.9,1.6-3,2.6c1.6,2.9,3,5.7,4.7,8.1
		c0.6,0.9,2.1,1.3,3.3,1.5c2.7,0.6,5.5,0.8,8.2,1.5c1.4,0.4,2.5,1.7,4,2.8c-4.1,3.9-8.1,6.1-13,6.2c-4.8,0-9.5,0.1-14.3-0.1
		c-1.1,0-2.4-0.8-3.1-1.7c-1.6-1.9-1.9-3.8,0.9-5.1c1.5-0.7,3.1-1.3,4.8-2.1c-4.5-9.3-8.7-18.3-13.2-27.3
		c-6.1-12.5-12.3-24.9-18.6-37.3c-3.2-6.3-6.9-12.4-10.3-18.7c-1.4-2.7-2.2-5.7-3.7-8.3c-0.6-1.1-2.4-2.4-3.3-2.2
		c-3.5,0.7-3.5-2.2-4.2-3.9c-0.3-0.8,0.7-2.4,1.6-3.3c2.4-2.4,5.1-4.5,7.5-7c0.6-0.6,0.9-2.2,0.6-3c-1.2-3-2.6-6-4.4-8.7
		c-0.9-1.3-2.8-2.4-4.4-2.8c-4-1-7.2-7.6-5.2-11.4c1.1-2.1,2-4.3,3.1-6.3c1.5-2.7-0.1-3.6-2.2-4.1c-1.2-0.3-2.5-0.1-3.7-0.1
		c-4.2,0.1-8.9,1-9.7-6c-2,1.4-3.5,2-4.4,3.2c-3.3,4.3-6.3,8.7-9.5,13.1c-0.3,0.5-0.6,1.1-0.6,1.7c-0.1,7.1-0.5,14.3,3.1,21
		c0.6,1.1,0,2.7,0.4,4c1.4,4.5,3,8.9,4.4,13.4c0.3,0.9,0.3,2,0.3,2.9c-0.1,9.3,1,18.4,3.5,27.4c0.4,1.4,0.1,3,0.3,4.5
		c0.9,7.2,1.9,14.4,2.6,21.6c0.3,2.6,0.4,5.2,0,7.8c-0.2,1.5-0.1,3.9-3,3.6c-0.6,0-1.9,1.7-1.8,2.4c1.1,5.8,1.5,12.1,4.2,17.2
		c2.2,4.3,6.8,7.6,11,10.4c2.4,1.6,6.2,1.1,9.2,2c3.4,1.1,6.9,2.3,9.9,4.1c3.5,2,3.3,5.9,0.1,8.2c-9.2,6.5-18.9,7-29.5,3.7
		c-4.3-1.3-9-1.4-13.5-1.9c-3.6-0.4-7.2-0.2-10.7-0.8c-4.9-0.8-6.3-3.5-5.6-8.2c1.2-8.8,1.4-17.5,0.3-26.4c-0.5-4.4-1.7-7.2-5.2-9.7
		c-4.9-3.5-6.5-9-7.7-14.6c-2-8.9-4.1-17.8-6.2-26.8c-0.7-2.8-1.3-5.7-2-9.3c-2.4,3-4.4,5.9-6.8,8.3c-4.3,4.3-1.1,8.8-0.4,13
		c0.5,3.3,2.1,6.5,3.4,9.6c1.4,3.4,1.5,6.7,0.8,10.4c-1.4,7.3-3.4,14.2-8.6,19.9c-0.8,0.8-0.8,2.6-0.7,3.9c0.1,1.4,1.1,2.9,0.9,4.3
		c-1.2,6.5,2.1,11.1,6,15.5c0.2,0.2,0.4,0.3,0.5,0.6c2.6,7.4,9.3,9.5,15.7,11.8c3.6,1.3,5.6,3.9,6.9,7.2c1.2,3-1.1,4.7-3.1,6.1
		c-4,2.7-8.2,4.7-13.4,4.1c-4.9-0.6-10,0-14.8-1c-3.8-0.8-7.3-3.3-10.9-5.1c-4.2-2-8.4-3.9-12.4-6.1c-0.8-0.4-1.4-2-1.4-3
		c0.1-5.7,0.6-11.4,0.6-17.1C225.5,489.4,225,486.4,224.6,482.7z M332.7,275.3c4.8-6.6,9.6-13.1,14.9-20.3c-6,1.1-11.1,2.4-16.3,3
		c-3.8,0.5-7.8,0.1-11.7,0.2c-3.5,0-7.2-0.6-10.4,0.3c-1.5,0.5-2,4.1-3,6.2c-0.1,0.2-0.4,0.3-0.5,0.6c-2,6.5-4.3,12.9-5.8,19.6
		c-1.1,5.2-5.7,10.2-10.8,10.8c-1.3,0.2-3.3,1.8-3.4,2.8c-0.2,2.8,0.2,5.7,1,8.3c1.6,5.3,3.6,10.4,5.8,16.8c3-4.5,5.5-8.5,8-12.4
		c0.9-1.4,1.6-3,2.7-4.3c1.3-1.5,2.9-2.7,4.8-4.5c4.3,0.5,5.3-0.2,4.4-3.6c-2.1-8.4,0-12.8,7.9-16.1c0.8-0.3,1.5-0.8,2.1-1.4
		c2-2.2,4-4.6,6-6.9c-1.3-3.1-6.2,2.9-7-2.4c3.5-2.1,7-3.1,10.6-1.3C332.8,271.2,332.5,273.6,332.7,275.3z M385.2,469.6
		c2.2-1.3,3.2-2.3,4.5-2.7c2.8-0.9,2.9-2.5,1.7-4.7c-1.9-3.4-3.7-6.9-5.6-10.3c-8.6-15.2-17.3-30.3-26-45.5
		c-3.1-5.4-6.2-10.7-9.2-16.1c-0.9-1.7-2-3.3-3.8-1.5c-0.8,0.8-0.9,2.9-0.4,4c1.5,3.6,3.5,7,5.3,10.5c4.4,8.7,8.8,17.4,13.1,26.1
		c4.7,9.3,9.2,18.7,13.9,28C380.6,461.3,382.9,465.3,385.2,469.6z M359.2,384.9c14.2,25,28.2,49.7,42.3,74.5c2-1.2,3.6-2.3,5.3-3.3
		c1.9-1.2,2.2-2.8,1-4.7c-3.2-5-6.3-10-9.5-14.9c-5.7-8.6-11.7-17-17.4-25.6c-6.1-9.1-11.9-18.4-18-27.7
		C361.6,383.8,360.5,384.3,359.2,384.9z M320.4,329.3c1.1,5.2,2.4,5.7,7.2,3.2c1.5-0.8,3.4-0.9,5.1-1.3c0.9-0.2,2.1,0.2,2.6-0.3
		c0.5-0.6,0.7-2.1,0.2-2.6c-0.6-0.7-1.9-1.2-2.9-1C328.5,327.8,324.5,328.6,320.4,329.3z"/>
</g>
</svg>
