<?xml version="1.0" encoding="utf-8"?>
<!-- Generator: Adobe Illustrator 25.2.1, SVG Export Plug-In . SVG Version: 6.00 Build 0)  -->
<svg version="1.1" id="Слой_1" xmlns="http://www.w3.org/2000/svg" xmlns:xlink="http://www.w3.org/1999/xlink" x="0px" y="0px"
	 viewBox="0 0 595.28 841.89" style="enable-background:new 0 0 595.28 841.89;" xml:space="preserve">
<style type="text/css">
	.st0{fill:#C7C6C6;}
	.st1{fill:#FFFCF2;}
	.st2{fill:#49AB75;}
	.st3{fill:none;}
	.st4{fill:#FFFFFF;}
	.st5{fill:#3D3D3B;}
</style>
<g>
	<rect x="275.85" y="581.5" class="st0" width="4.2" height="7.2"/>
	<path class="st1" d="M514.05,781.8h-433c-21.1,0-38.1-17.1-38.1-38.1V98.3c0-21.1,17.1-38.1,38.1-38.1h433
		c21.1,0,38.1,17.1,38.1,38.1v645.4C552.15,764.8,535.05,781.8,514.05,781.8z"/>
	<rect x="42.85" y="551.1" class="st2" width="509.3" height="54.6"/>
	<polygon class="st2" points="171.65,60.2 171.65,125.8 128.65,153.3 85.75,125.8 85.75,60.2 	"/>
	<polygon class="st0" points="86.05,125.4 86.65,125.4 86.65,125.8 	"/>
	<rect x="231.65" y="560.9" class="st3" width="153.5" height="33.1"/>
	<polygon class="st3" points="464.35,446.8 460.05,446.8 460.05,446.8 	"/>
	<polygon class="st2" points="171.65,130.67 171.65,157.89 128.71,185.11 85.74,157.89 85.74,130.67 128.71,157.89 	"/>
	<rect x="165.33" y="677.58" class="st2" width="256.43" height="7.15"/>
	<polygon class="st2" points="117.08,705.4 101.51,696.93 85.7,704.95 88.95,687.52 76.43,674.97 94.01,672.67 102.08,656.89 
		109.7,672.89 127.2,675.69 114.33,687.89 	"/>
	<polygon class="st2" points="508.45,705.4 492.88,696.93 477.07,704.95 480.32,687.52 467.8,674.97 485.38,672.67 493.45,656.89 
		501.07,672.89 518.57,675.69 505.7,687.89 	"/>
	<g>
		<polygon class="st4" points="156.64,569.28 156.64,576.71 159.1,576.71 159.1,581.79 156.86,581.79 156.86,592.2 150.2,592.2 
			150.2,564.2 159.1,564.2 159.1,569.28 		"/>
		<path class="st4" d="M171.92,572.79c0,1.38-0.28,2.73-0.82,4.04c-0.55,1.31-1.32,2.35-2.32,3.1s-1.97,1.25-2.9,1.5
			c-0.94,0.24-2.41,0.36-4.4,0.36h-0.03v-5.1c1.34-0.07,2.3-0.45,2.88-1.11c0.65-0.75,0.98-1.61,0.98-2.58
			c0-1.14-0.36-2.04-1.09-2.71c-0.64-0.58-1.56-0.91-2.77-0.99v-5.1c2.35,0.02,4.17,0.28,5.43,0.79c1.31,0.52,2.47,1.46,3.5,2.82
			C171.4,569.16,171.92,570.82,171.92,572.79z"/>
		<rect x="184.44" y="586.65" class="st4" width="8.89" height="5.54"/>
		<polygon class="st4" points="182.19,564.2 182.19,576.07 182.08,576.07 182.08,592.2 175.55,592.2 175.55,564.2 		"/>
		<path class="st4" d="M210.44,564.2h-7.59l-8.97,27.99h5.75l1.75-5.76h9.05l1.73,5.76h7.05L210.44,564.2z M202.96,581.26l2.99-9.82
			l2.94,9.82H202.96z"/>
		<rect x="224.25" y="572.11" class="st4" width="6.65" height="20.08"/>
		<polygon class="st4" points="237.83,564.2 237.83,569.74 230.9,569.74 230.9,569.76 224.25,569.76 224.25,569.74 217.28,569.74 
			217.28,564.2 		"/>
		<path class="st4" d="M246.17,578.18c0,5.27,1.3,8.25,3.9,8.93v5.46c-3.25-0.24-5.81-1.64-7.67-4.19c-2.06-2.83-3.1-6.26-3.1-10.28
			c0-4.09,1.05-7.5,3.14-10.23c1.85-2.42,4.4-3.77,7.63-4.05v5.46C247.47,569.96,246.17,572.93,246.17,578.18z"/>
		<path class="st4" d="M263.2,578.16c0,4.06-1.03,7.49-3.08,10.28c-1.82,2.48-4.38,3.85-7.69,4.12v-5.42c2.6-0.62,3.9-3.6,3.9-8.93
			c0-5.35-1.3-8.34-3.9-8.96v-5.44c3.39,0.24,5.98,1.69,7.78,4.34C262.2,571.07,263.2,574.4,263.2,578.16z"/>
		<path class="st4" d="M290.04,578.16c0,4.06-1.02,7.49-3.07,10.28c-1.82,2.48-4.38,3.85-7.7,4.12v-5.42c2.6-0.61,3.9-3.59,3.9-8.93
			c0-5.36-1.3-8.34-3.9-8.96v-5.44c3.39,0.24,5.98,1.69,7.79,4.34C289.05,571.07,290.04,574.4,290.04,578.16z"/>
		<path class="st4" d="M273.02,578.18c0,5.27,1.3,8.25,3.9,8.93v5.46c-3.26-0.24-5.81-1.63-7.68-4.19
			c-2.06-2.83-3.09-6.26-3.09-10.28c0-4.09,1.04-7.5,3.13-10.23c1.85-2.42,4.4-3.77,7.64-4.05v5.46
			C274.32,569.96,273.02,572.93,273.02,578.18z"/>
		<path class="st4" d="M299.52,573.64l-0.21-0.36c0.01,0.48,0.03,0.8,0.04,0.95c0.06,0.48,0.08,0.88,0.08,1.21v16.75h-5.1V564.2
			h5.19V573.64z"/>
		<path class="st4" d="M315.86,564.2v27.99h-5.59l-8.4-14.49v-12.68l9.05,15.69c-0.08-0.82-0.12-1.45-0.12-1.87V564.2H315.86z"/>
		<path class="st4" d="M353.78,577.22v14.97h-2.99c-0.22-1.05-0.53-2.12-0.94-3.22c-1.99,2.44-4.54,3.65-7.63,3.65
			c-3.65,0-6.49-1.3-8.53-3.91c-2.03-2.62-3.04-5.99-3.04-10.14c0-4.45,1.08-8.03,3.25-10.74c1.82-2.29,4.2-3.6,7.14-3.96v5.55
			c-0.97,0.35-1.75,1.06-2.34,2.11c-0.91,1.61-1.37,3.9-1.37,6.88c0,2.87,0.49,5.07,1.48,6.58c0.98,1.52,2.38,2.28,4.2,2.28
			c1.18,0,2.23-0.38,3.15-1.15c0.92-0.76,1.39-1.99,1.39-3.67h-5.27v-5.23H353.78z"/>
		<path class="st4" d="M353.78,573.39l-6.23,0.82c-0.47-3.1-1.86-4.79-4.16-5.05v-5.38c2.81,0.12,5.11,0.99,6.88,2.61
			C352.19,568.14,353.36,570.47,353.78,573.39z"/>
		<path class="st4" d="M375.4,564.2v17.43c0,1.59-0.13,2.72-0.38,3.39c-0.26,0.68-0.77,1.22-1.54,1.63
			c-0.78,0.41-1.78,0.62-3.01,0.62c-1.1,0-2.04-0.21-2.8-0.63c-0.75-0.41-1.26-0.98-1.51-1.69c-0.26-0.71-0.38-1.82-0.38-3.32V564.2
			h-7.12v17.43c0,2.82,0.4,4.96,1.19,6.42c0.79,1.46,1.99,2.59,3.58,3.38c1.59,0.8,3.73,1.19,6.43,1.19c2.69,0,4.9-0.44,6.63-1.32
			s2.92-2.01,3.56-3.38c0.64-1.38,0.96-3.47,0.96-6.29V564.2H375.4z"/>
		<path class="st4" d="M386.22,564.2v27.99h6.55V564.2H386.22z"/>
		<path class="st4" d="M419.3,570.22c-1.35-2.09-2.88-3.61-4.59-4.58c-1.7-0.96-4.3-1.44-7.78-1.44h-8.55v27.99h9.63
			c4.16,0,7.41-1.34,9.78-4.03c2.36-2.69,3.54-6.03,3.54-10.04C421.33,574.95,420.66,572.3,419.3,570.22z M412.85,584.24
			c-1.16,1.79-2.94,2.68-5.32,2.68h-2.71v-17.57h2.77c1.37,0,2.55,0.29,3.54,0.87c0.98,0.58,1.8,1.59,2.46,3.03
			c0.66,1.45,1,3.01,1,4.71C414.59,580.38,414.01,582.46,412.85,584.24z"/>
		<rect x="437.97" y="575.27" class="st4" width="4.79" height="5.27"/>
		<polygon class="st4" points="432.28,569.53 432.28,575.27 435.62,575.27 435.62,580.54 432.28,580.54 432.28,586.65 
			435.62,586.65 435.62,592.2 425.62,592.2 425.62,564.2 435.62,564.2 435.62,569.53 		"/>
		<rect x="437.97" y="564.2" class="st4" width="7.64" height="5.33"/>
		<rect x="437.97" y="586.65" class="st4" width="7.64" height="5.54"/>
	</g>
	<g>
		<path class="st4" d="M120.95,85.11v0.55c0,1.56,0.32,2.94,0.96,4.14c0.65,1.2,1.55,2.13,2.71,2.78c0.53,0.3,1.1,0.54,1.71,0.69
			v7.8c-0.84,0.17-1.62,0.44-2.34,0.81c-1.33,0.69-2.37,1.67-3.1,2.93c-0.73,1.26-1.09,2.72-1.09,4.38v0.56
			c0,1.63,0.36,3.06,1.09,4.3c0.73,1.24,1.77,2.2,3.1,2.88c0.72,0.37,1.5,0.63,2.34,0.8v7.38c-2.33-0.22-4.44-0.81-6.31-1.74
			c-2.47-1.24-4.38-2.99-5.73-5.26c-1.35-2.26-2.03-4.89-2.03-7.88v-0.89c0-2.7,0.68-5.23,2.03-7.61c1.35-2.37,3.15-4.17,5.4-5.38
			c-1.91-1.04-3.44-2.54-4.59-4.51c-1.15-1.97-1.72-4.04-1.72-6.21v-1.3c0-2.82,0.63-5.3,1.89-7.44c1.26-2.14,3.04-3.8,5.34-4.98
			c1.71-0.86,3.61-1.41,5.72-1.64v7.43c-0.61,0.16-1.18,0.38-1.71,0.67c-1.16,0.63-2.06,1.53-2.71,2.69
			C121.27,82.22,120.95,83.57,120.95,85.11z"/>
		<path class="st4" d="M145,109.34v0.89c0,2.99-0.68,5.62-2.03,7.88c-1.35,2.27-3.26,4.02-5.73,5.26c-1.84,0.92-3.9,1.49-6.18,1.72
			v-7.39c0.79-0.17,1.53-0.44,2.21-0.79c1.33-0.69,2.37-1.66,3.1-2.91s1.09-2.69,1.09-4.33v-0.52c0-1.65-0.36-3.11-1.09-4.36
			s-1.77-2.22-3.1-2.91c-0.68-0.35-1.42-0.62-2.21-0.79v-7.85c0.56-0.16,1.08-0.38,1.58-0.66c1.16-0.65,2.06-1.59,2.71-2.8
			c0.64-1.21,0.96-2.61,0.96-4.19v-0.52c0-1.51-0.32-2.85-0.96-4.01c-0.65-1.16-1.55-2.06-2.71-2.69c-0.5-0.27-1.02-0.48-1.58-0.63
			v-7.45c2.06,0.23,3.92,0.77,5.59,1.62c2.3,1.18,4.08,2.84,5.34,4.98c1.26,2.14,1.89,4.62,1.89,7.44v1.3
			c0,2.22-0.59,4.31-1.76,6.27c-1.18,1.95-2.73,3.44-4.66,4.45c2.28,1.24,4.1,3.04,5.48,5.4C144.31,104.11,145,106.64,145,109.34z"
			/>
	</g>
	<g>
		<path d="M219.09,634.16h12.05c2.36,0,4.17,0.52,5.43,1.56c1.25,1.04,1.88,2.35,1.88,3.92c0,1.31-0.44,2.42-1.31,3.34
			c-0.88,0.92-2.19,1.64-3.95,2.17c2.18,0.46,3.81,1.18,4.9,2.17c1.09,0.99,1.63,2.23,1.63,3.73c0,1.15-0.31,2.16-0.93,3.05
			c-0.62,0.89-1.65,1.64-3.09,2.25c-1.44,0.62-3.08,0.92-4.91,0.92h-11.69v-1.17H221c0.57,0,0.99-0.09,1.26-0.28s0.4-0.4,0.4-0.64
			v-18.52c0-0.44-0.13-0.77-0.39-0.99c-0.26-0.22-0.64-0.34-1.14-0.34h-2.03V634.16z M226,644.77h4.38c1.34,0,2.41-0.39,3.21-1.19
			c0.8-0.79,1.2-2.08,1.2-3.88c0-1.11-0.19-1.98-0.57-2.6c-0.38-0.62-0.93-1.08-1.66-1.37c-0.72-0.29-1.98-0.43-3.76-0.43
			c-1.26,0-2.04,0.09-2.34,0.27c-0.3,0.18-0.45,0.5-0.45,0.96V644.77z M226,645.94v8.91c0,0.42,0.12,0.73,0.37,0.94
			c0.24,0.21,0.68,0.31,1.32,0.31h2.8c1.85,0,3.22-0.41,4.11-1.23c0.89-0.82,1.33-2.09,1.33-3.82c0-1.58-0.46-2.83-1.38-3.74
			c-0.92-0.91-2.18-1.37-3.8-1.37H226z"/>
		<path d="M248.64,642.19c1.97,0,3.62,0.71,4.96,2.13c1.34,1.42,2.01,3.29,2.01,5.62c0,1.6-0.3,2.97-0.9,4.1
			c-0.6,1.13-1.45,2.02-2.56,2.68s-2.3,0.98-3.59,0.98c-1.9,0-3.5-0.72-4.82-2.16c-1.32-1.44-1.98-3.3-1.98-5.59
			c0-2.3,0.66-4.17,1.98-5.61C245.07,642.91,246.7,642.19,248.64,642.19z M248.64,643.3c-1.17,0-2.12,0.53-2.88,1.59
			c-0.75,1.06-1.12,2.73-1.12,5.01c0,2.32,0.37,4.02,1.12,5.09c0.74,1.07,1.71,1.61,2.88,1.61c1.22,0,2.21-0.54,2.96-1.61
			c0.75-1.07,1.13-2.83,1.13-5.27c0-2.26-0.37-3.9-1.12-4.91C250.87,643.81,249.87,643.3,248.64,643.3z"/>
		<path d="M263.26,633.89v21.22c0,0.29,0.09,0.52,0.27,0.67c0.26,0.21,0.58,0.31,0.95,0.31h1.55v1.17h-8.3v-1.17h1.47
			c0.48,0,0.84-0.11,1.07-0.34c0.23-0.23,0.35-0.55,0.35-0.97v-17.81c0-0.52-0.14-0.9-0.42-1.14c-0.39-0.33-0.86-0.5-1.42-0.5h-1.31
			v-1.17L263.26,633.89z"/>
		<path d="M269.57,651.75c0.65,1.8,1.39,3.05,2.23,3.74c0.84,0.69,1.87,1.04,3.1,1.04c1.14,0,2.01-0.25,2.62-0.74
			c0.61-0.49,0.91-1.12,0.91-1.88c0-0.44-0.11-0.82-0.34-1.15c-0.22-0.33-0.53-0.57-0.93-0.73c-0.4-0.16-1.42-0.4-3.08-0.71
			c-1.59-0.31-2.69-0.64-3.32-0.98c-0.63-0.34-1.11-0.82-1.46-1.42c-0.35-0.6-0.52-1.26-0.52-1.97c0-1.07,0.36-2.05,1.08-2.92
			c0.93-1.11,2.23-1.67,3.9-1.67c1.27,0,2.45,0.4,3.54,1.2l1.03-1.09h0.64l0.41,5.22h-1.05c-0.46-1.48-1.08-2.54-1.86-3.2
			c-0.78-0.65-1.75-0.98-2.9-0.98c-0.99,0-1.77,0.24-2.33,0.73c-0.56,0.48-0.85,1.08-0.85,1.77c0,0.62,0.26,1.12,0.78,1.53
			c0.51,0.42,1.51,0.75,3.01,0.99c1.73,0.29,2.86,0.54,3.38,0.74c0.86,0.31,1.52,0.79,1.99,1.44c0.47,0.65,0.7,1.44,0.7,2.38
			c0,1.29-0.51,2.38-1.53,3.28c-1.02,0.9-2.31,1.34-3.87,1.34c-1.45,0-2.8-0.48-4.04-1.44l-1.14,1.31h-0.83l-0.31-5.83H269.57z"/>
		<path d="M286.48,636.66h1.05v5.97h4.73v1.44h-4.73v9.39c0,0.81,0.19,1.44,0.58,1.87c0.39,0.43,0.88,0.65,1.47,0.65
			c0.71,0,1.31-0.33,1.81-0.98s0.79-1.74,0.88-3.25h1.05c-0.06,1.95-0.51,3.39-1.33,4.34c-0.82,0.94-1.89,1.41-3.2,1.41
			c-1.21,0-2.15-0.33-2.84-0.99c-0.68-0.66-1.02-1.53-1.02-2.6v-9.83h-2.55v-1.09c1.16-0.2,2.04-0.68,2.65-1.45
			C285.92,640.36,286.41,638.74,286.48,636.66z"/>
		<path d="M308.81,650.05h-10.48c0.05,2.23,0.47,3.8,1.25,4.72c0.9,1.03,2.04,1.55,3.42,1.55c2.04,0,3.68-1.16,4.92-3.48l1.02,0.44
			c-1.52,2.96-3.72,4.44-6.59,4.44c-1.96,0-3.61-0.71-4.95-2.12c-1.34-1.42-2.01-3.23-2.01-5.44c0-2.38,0.66-4.29,1.98-5.76
			c1.32-1.46,2.94-2.2,4.87-2.2c1.42,0,2.64,0.37,3.67,1.09c1.03,0.73,1.81,1.78,2.33,3.14
			C308.59,647.39,308.79,648.59,308.81,650.05z M298.32,648.94h6.34c0.38,0,0.67-0.13,0.88-0.38c0.21-0.25,0.31-0.69,0.31-1.3
			c0-1.15-0.36-2.12-1.07-2.92c-0.71-0.8-1.55-1.2-2.52-1.2c-1.08,0-2,0.48-2.76,1.45C298.75,645.55,298.35,647,298.32,648.94z"/>
		<path d="M310.84,642.63l5.27-0.27v5.92c0.56-1.95,1.24-3.42,2.03-4.42c0.79-1,1.77-1.5,2.94-1.5c0.79,0,1.42,0.24,1.9,0.73
			s0.71,1.13,0.71,1.95c0,0.66-0.16,1.17-0.48,1.53c-0.32,0.37-0.72,0.55-1.19,0.55c-0.47,0-0.85-0.16-1.13-0.47
			c-0.29-0.31-0.43-0.73-0.43-1.27c0-0.34,0.08-0.67,0.25-0.97c0.16-0.27,0.23-0.43,0.23-0.48c0-0.16-0.1-0.23-0.3-0.23
			c-0.43,0-0.91,0.25-1.45,0.75c-0.75,0.7-1.33,1.66-1.73,2.88c-0.62,1.9-0.94,3.41-0.94,4.55V655c0,0.35,0.12,0.62,0.38,0.81
			s0.68,0.28,1.28,0.28h1.86v1.17h-9.09v-1.17h1.45c0.49,0,0.86-0.1,1.11-0.29c0.25-0.19,0.38-0.42,0.38-0.7v-9.33
			c0-0.71-0.15-1.23-0.45-1.55c-0.3-0.33-0.73-0.49-1.3-0.49h-1.28V642.63z"/>
	</g>
	<g>
		<circle class="st5" cx="364.13" cy="644.77" r="21.91"/>
		<g>
			<path class="st4" d="M355,642.41v-4.94c4.15-1.22,6.86-2.85,8.12-4.89h4.08v19.97h6.64v4.39h-19.44v-4.39h7.28v-13.73
				C358.82,640.56,356.6,641.76,355,642.41z"/>
		</g>
	</g>
	<g>
		<circle class="st5" cx="364.13" cy="711.29" r="21.91"/>
		<g>
			<path class="st4" d="M355.25,708.05v-5.21c4.38-1.29,7.24-3.01,8.57-5.16h4.3v21.08h7.01v4.64h-20.52v-4.64h7.68v-14.49
				C359.28,706.09,356.93,707.36,355.25,708.05z"/>
		</g>
	</g>
	<g>
		<path d="M241.3,701.43l1.28-2.31h1.05l0.58,9.22h-1.02c-0.78-2.65-1.7-4.57-2.76-5.75c-1.35-1.51-2.9-2.26-4.65-2.26
			c-1.34,0-2.54,0.38-3.61,1.14s-1.88,1.9-2.44,3.42c-0.57,1.52-0.85,3.66-0.85,6.42c0,2.68,0.28,4.77,0.85,6.28
			c0.57,1.51,1.35,2.62,2.35,3.33c1,0.71,2.17,1.07,3.51,1.07c1.82,0,3.23-0.51,4.22-1.53c0.99-1.02,1.49-2.34,1.49-3.95v-2.17
			c0-0.34-0.13-0.61-0.4-0.8s-0.7-0.28-1.3-0.28h-1.95v-1.09h9.69v1.09h-1.31c-0.58,0-1,0.1-1.25,0.3s-0.38,0.5-0.38,0.88v8.83
			h-1.03c-0.38-1.38-0.77-2.69-1.17-3.95c-0.78,1.28-1.71,2.24-2.79,2.88s-2.3,0.96-3.66,0.96c-1.95,0-3.75-0.5-5.41-1.5
			c-1.66-1-2.97-2.41-3.94-4.23c-0.96-1.82-1.45-3.87-1.45-6.16c0-2.3,0.48-4.36,1.45-6.19c0.97-1.82,2.29-3.27,3.98-4.34
			c1.68-1.07,3.38-1.61,5.1-1.61c0.98,0,1.91,0.17,2.81,0.5S240.18,700.55,241.3,701.43z"/>
		<path d="M254.27,707.81v9.7c0,1.19,0.3,2.1,0.9,2.75c0.6,0.65,1.37,0.97,2.32,0.97c1.16,0,2.15-0.47,2.97-1.41
			c0.82-0.94,1.22-2.12,1.22-3.54v-5.48c0-0.5-0.18-0.89-0.54-1.16c-0.36-0.28-1.05-0.43-2.07-0.46v-1.09l5.14-0.27v12.02
			c0,0.55,0.16,0.98,0.47,1.27s0.75,0.45,1.31,0.45h0.92v1.05l-4.92,0.11l-0.31-2.88c-0.87,1.03-1.75,1.81-2.64,2.33
			c-0.88,0.52-1.78,0.78-2.68,0.78c-1.32,0-2.43-0.44-3.32-1.33c-0.91-0.88-1.36-2.36-1.36-4.45v-6.36c0-0.56-0.22-0.99-0.67-1.28
			c-0.31-0.21-0.95-0.32-1.92-0.34v-1.09L254.27,707.81z"/>
		<path d="M268.52,708.07l5.83-0.17v12.59c0,0.34,0.08,0.59,0.25,0.73c0.24,0.21,0.54,0.31,0.91,0.31h1.66v1.17h-8.33v-1.17h1.55
			c0.46,0,0.79-0.11,1.01-0.34c0.21-0.22,0.32-0.55,0.32-0.98v-9.22c0-0.58-0.17-1.02-0.5-1.32c-0.33-0.3-0.83-0.45-1.48-0.45h-1.2
			V708.07z M272.58,699.34c0.47,0,0.88,0.18,1.23,0.53c0.35,0.35,0.53,0.77,0.53,1.25c0,0.47-0.17,0.88-0.52,1.22
			s-0.76,0.52-1.23,0.52c-0.48,0-0.89-0.17-1.24-0.52c-0.35-0.35-0.52-0.76-0.52-1.23s0.18-0.88,0.53-1.23
			C271.72,699.51,272.12,699.34,272.58,699.34z"/>
		<path d="M287.18,699.6l5.72-0.27v20.03c0,0.78,0.15,1.34,0.45,1.67c0.3,0.33,0.74,0.5,1.34,0.5h1.02v1.17h-5l-0.38-2.98
			c-0.59,1.06-1.29,1.86-2.09,2.4c-0.8,0.54-1.69,0.8-2.68,0.8c-1.67,0-3.09-0.7-4.26-2.09c-1.17-1.4-1.76-3.24-1.76-5.53
			c0-2.48,0.75-4.46,2.25-5.94c1.18-1.16,2.53-1.73,4.06-1.73c0.94,0,1.78,0.23,2.52,0.7c0.74,0.47,1.39,1.18,1.95,2.12v-8.27
			c0-0.44-0.17-0.78-0.51-1.04c-0.34-0.25-0.87-0.38-1.59-0.38h-1.05V699.6z M286.27,708.93c-1.12,0-2.02,0.46-2.68,1.39
			c-0.66,0.93-0.99,2.49-0.99,4.69c0,2.39,0.34,4.07,1.02,5.04c0.68,0.97,1.55,1.46,2.61,1.46c1.14,0,2.11-0.54,2.91-1.63
			c0.81-1.09,1.21-2.68,1.21-4.77c0-1.98-0.43-3.54-1.3-4.67C288.3,709.43,287.37,708.93,286.27,708.93z"/>
		<path d="M310.99,715.49H300.5c0.05,2.23,0.47,3.8,1.25,4.72c0.9,1.03,2.04,1.55,3.42,1.55c2.04,0,3.68-1.16,4.92-3.48l1.02,0.44
			c-1.52,2.96-3.72,4.44-6.59,4.44c-1.96,0-3.61-0.71-4.95-2.12c-1.34-1.42-2.01-3.23-2.01-5.44c0-2.38,0.66-4.29,1.98-5.76
			c1.32-1.46,2.94-2.2,4.87-2.2c1.42,0,2.64,0.37,3.67,1.09c1.03,0.73,1.81,1.78,2.33,3.14
			C310.78,712.83,310.97,714.04,310.99,715.49z M300.5,714.38h6.34c0.38,0,0.67-0.13,0.88-0.38c0.21-0.25,0.31-0.69,0.31-1.3
			c0-1.15-0.36-2.12-1.07-2.92c-0.71-0.8-1.55-1.2-2.52-1.2c-1.08,0-2,0.48-2.76,1.45C300.93,710.99,300.54,712.45,300.5,714.38z"/>
	</g>
	<path class="st2" d="M320.51,527.5c-0.22-0.27-0.41-0.73-0.74-0.88c-3.35-1.46-6.63-1.75-10.13-0.1c-2.05,0.97-4.46,1.64-6.72,1.66
		c-14.81,0.14-29.62,0.1-44.42,0.04c-1.55-0.01-3.1-0.58-4.66-0.8c-0.56-0.08-1.16,0.09-2.11,0.17c0.35-3.2,0.7-6.44,1.06-9.69
		c0.1-0.87,0.34-1.74,0.31-2.61c-0.13-4.61,1.94-8.8,2.38-13.33c0.92-9.66,2.31-19.27,3.12-28.94c0.65-7.8,1.21-15.58,2.78-23.27
		c0.38-1.85-0.06-3.91-0.31-5.84c-0.55-4.34-1.26-8.66-1.77-13c-0.07-0.64,0.44-1.65,0.99-1.99c2.22-1.38,2.65-3.37,2.23-5.67
		c-0.79-4.38-1.62-8.75-0.95-13.23c0.18-1.21-0.34-1.66-1.56-1.67c-3.02-0.04-6.04-0.32-9.06-0.26c-5.63,0.1-10.66-1.32-14.7-5.41
		c-1.54-1.56-2.87-1.62-5-0.84c-4.57,1.67-9.41,2.7-14.33,1.91c-2.31-0.37-4.37-1.4-5.18-4.11c-1.1-3.66-3.17-6.84-5.54-9.83
		c-2.53-3.19-3.51-7.04-4.27-10.92c-0.22-1.11,0.25-2.37,0.45-3.55c0.33-1.94,0.89-3.86,0.99-5.81c0.08-1.47,0.52-2.64,1.47-3.66
		c2.16-2.35,4.35-4.67,6.52-7c0.56-0.6,1.12-1.18,1.82-1.92c-2.21-2.29-4.32-4.52-6.49-6.71c-7.14-7.21-13.55-15.03-19.22-23.43
		c-3.38-5-6.41-10.31-7.52-16.33c-0.38-2.04-1.48-3.36-2.49-4.92c-1.27-1.96-2.32-4.05-3.64-6.39c3,0.19,5.5,0.28,7.99,0.53
		c4.52,0.45,8.19-1.32,11.65-4.01c2.15-1.67,4.53-3.08,6.89-4.45c0.69-0.4,1.7-0.22,2.53-0.42c3.24-0.79,5.87,0.3,8.51,2.18
		c1.33,0.94,3.27,1.39,4.94,1.41c5.61,0.07,11.22-0.13,16.83-0.28c0.6-0.02,1.22-0.37,1.78-0.66c4.91-2.53,7.16-7.15,9.44-11.82
		c1.97-4.03,4.01-8.05,6.35-11.87c2.49-4.06,6.57-6.35,10.63-8.62c11.24-6.28,23.28-10.71,35.27-15.24c0.05-0.02,0.1-0.03,0.16-0.05
		c3.2-0.76,5.18-2.48,5.01-6.07c-0.13-2.51-0.09-5.03-0.23-7.55c-0.02-0.41-0.49-0.84-0.84-1.17c-5.2-4.92-7.24-11.39-8.76-18.07
		c-0.83-3.68-1.63-7.4-2.04-11.14c-0.35-3.2-0.22-6.45-0.16-9.68c0.04-2.3,0.3-4.6,0.51-6.9c0.54-5.95,0.97-11.92,1.76-17.83
		c0.26-1.93,1.61-3.69,2.26-5.61c0.58-1.73,1.26-3.57,1.21-5.34c-0.11-4.08,1.2-7.35,4.22-10.1c1.94-1.77,3.72-3.74,5.43-5.75
		c1.03-1.22,2.29-1.57,3.74-1.73c1.74-0.19,3.52-0.25,5.19-0.7c3.99-1.08,7.83-0.43,11.69,0.58c4.65,1.22,9.3,2.43,13.98,3.55
		c1.32,0.32,2.71,0.32,4.3,0.49c-0.78,1.16-1.44,2.14-2.18,3.23c0.65,0.6,1.33,1.15,1.92,1.78c1.52,1.63,3.22,3.15,4.47,4.97
		c4.05,5.91,5.9,12.52,5.79,19.7c-0.06,3.69-0.07,7.38,0.03,11.06c0.03,0.89,0.38,2.02,1,2.58c2.76,2.5,2.55,5.75,1.42,8.49
		c-1.68,4.07-4.05,7.89-6.43,11.63c-2.43,3.81-3.77,7.99-4.96,12.26c-1.45,5.19-1.11,10.48-0.38,15.67c0.3,2.12,1.86,4.19,3.23,5.99
		c2.37,3.11,5.52,5.35,9.1,7c2.59,1.19,5.1,2.55,7.59,3.95c6.12,3.45,12.33,6.75,18.25,10.51c7.31,4.63,12.63,11.35,17.8,18.16
		c4.95,6.5,8.46,13.69,10.55,21.56c1.46,5.51,1.39,11.19,1.63,16.85c0.42,9.59,1.2,19.14,3.81,28.47c0.82,2.93,1.03,6.06,1.27,9.11
		c0.48,6.19,0.66,12.41,1.2,18.59c0.37,4.31,1.28,8.57,1.69,12.88c0.62,6.5,0.49,13.01-2.16,19.11c-1.8,4.13-5.26,6.86-9.41,8.26
		c-4.81,1.62-9.77,2.83-14.74,3.9c-3.9,0.84-7.91,1.19-11.88,1.73c-1.38,0.19-2.59,0.57-3.7,1.55c-1.13,1-2.57,1.65-3.94,2.51
		c0.5,3,1.13,5.92,3.78,8.13c2.44,2.03,1.89,2.11,1.16,5.23c-0.59,2.51-0.37,5.35,0.12,7.93c0.79,4.18,2.21,8.24,3.12,12.4
		c0.46,2.12,0.65,4.38,0.5,6.55c-0.36,5.11,0.75,10.05,1.53,15.02c0.2,1.25,0.05,1.73-1.22,1.79c-0.7,0.03-1.39,0.25-2.47,0.46
		c-1.43,15.2-0.62,30.47-0.4,46.01c-1.02,0.1-2.41,0.36-3.81,0.36c-16.52,0.03-33.03,0.04-49.55-0.02c-1.85-0.01-3.69-0.48-5.54-0.7
		C321.7,527.45,321.13,527.5,320.51,527.5z"/>
</g>
</svg>
