<?xml version="1.0" encoding="utf-8"?>
<!-- Generator: Adobe Illustrator 25.2.1, SVG Export Plug-In . SVG Version: 6.00 Build 0)  -->
<svg version="1.1" id="Layer_1" xmlns="http://www.w3.org/2000/svg" xmlns:xlink="http://www.w3.org/1999/xlink" x="0px" y="0px"
	 viewBox="0 0 595.3 841.9" style="enable-background:new 0 0 595.3 841.9;" xml:space="preserve">
<style type="text/css">
	.st0{fill:#C6C6C6;}
	.st1{fill:#FFFCF1;}
	.st2{fill:#4BA974;}
	.st3{fill:#3C3C3B;}
	.st4{fill:none;}
	.st5{enable-background:new    ;}
	.st6{fill:#FFFFFF;}
	.st7{fill:#5895A2;}
	.st8{fill:#FFFCF1;stroke:#4BA974;stroke-width:4;stroke-miterlimit:10;}
</style>
<rect x="275.6" y="583" class="st0" width="4.2" height="7.2"/>
<path class="st1" d="M513.8,783.3h-433c-21.1,0-38.1-17.1-38.1-38.1V99.8c0-21.1,17.1-38.1,38.1-38.1h433
	c21.1,0,38.1,17.1,38.1,38.1v645.4C551.9,766.3,534.8,783.3,513.8,783.3z"/>
<rect x="42.6" y="551.8" class="st2" width="509.3" height="54.6"/>
<rect x="216.5" y="567" class="st0" width="1.8" height="2.8"/>
<rect x="293.7" y="619.8" class="st2" width="7.1" height="143"/>
<rect x="65.7" y="687.7" class="st2" width="463.1" height="7.2"/>
<g>
	<path d="M113.9,635.3h7.7l6.9,18.2l6.4-18.2h7.9v1.2h-1.9c-0.7,0-1.1,0.1-1.4,0.3c-0.2,0.2-0.4,0.5-0.4,1v18.3
		c0,0.4,0.1,0.7,0.4,0.8c0.3,0.2,0.8,0.3,1.4,0.3h1.8v1.2h-10.6v-1.2h2c0.6,0,1-0.1,1.2-0.3s0.4-0.5,0.4-0.8v-19.6l-7.6,21.9h-1.1
		l-8.2-21.8v16.8c0,1,0.1,1.8,0.4,2.2c0.2,0.5,0.6,0.9,1.1,1.1c0.5,0.3,1.2,0.4,2.3,0.5v1.2h-8.7v-1.2c1.4-0.1,2.4-0.4,2.9-0.9
		c0.5-0.5,0.8-1.4,0.8-2.8v-15.9c0-0.4-0.1-0.7-0.4-0.9c-0.2-0.2-0.7-0.3-1.3-0.3h-2L113.9,635.3L113.9,635.3z"/>
	<path d="M151.5,643.3c2,0,3.6,0.7,5,2.1c1.3,1.4,2,3.3,2,5.6c0,1.6-0.3,3-0.9,4.1c-0.6,1.1-1.4,2-2.6,2.7s-2.3,1-3.6,1
		c-1.9,0-3.5-0.7-4.8-2.2s-2-3.3-2-5.6c0-2.3,0.7-4.2,2-5.6C147.9,644,149.6,643.3,151.5,643.3z M151.5,644.4
		c-1.2,0-2.1,0.5-2.9,1.6s-1.1,2.7-1.1,5c0,2.3,0.4,4,1.1,5.1c0.7,1.1,1.7,1.6,2.9,1.6c1.2,0,2.2-0.5,3-1.6s1.1-2.8,1.1-5.3
		c0-2.3-0.4-3.9-1.1-4.9C153.7,644.9,152.7,644.4,151.5,644.4z"/>
	<path d="M160,643.8h7.2v1.1c-1,0-1.6,0.1-1.8,0.3c-0.3,0.2-0.4,0.4-0.4,0.7c0,0.2,0.1,0.5,0.2,0.7l3.9,8.6l3.5-8.4
		c0.1-0.2,0.1-0.3,0.1-0.4c0-0.8-0.8-1.2-2.2-1.4v-1.1h6.1v1.1c-0.6,0.1-1.1,0.2-1.5,0.5c-0.4,0.3-0.6,0.6-0.8,1.1l-5.4,12.4h-0.8
		l-5.8-12.8c-0.2-0.5-0.5-0.8-0.8-1c-0.3-0.2-0.8-0.3-1.4-0.3L160,643.8L160,643.8z"/>
	<path d="M191.5,651.2H181c0.1,2.2,0.5,3.8,1.2,4.7c0.9,1,2,1.5,3.4,1.5c2,0,3.7-1.2,4.9-3.5l1,0.4c-1.5,3-3.7,4.4-6.6,4.4
		c-2,0-3.6-0.7-4.9-2.1s-2-3.2-2-5.4c0-2.4,0.7-4.3,2-5.8c1.3-1.5,2.9-2.2,4.9-2.2c1.4,0,2.6,0.4,3.7,1.1c1,0.7,1.8,1.8,2.3,3.1
		C191.3,648.5,191.5,649.7,191.5,651.2z M181,650.1h6.3c0.4,0,0.7-0.1,0.9-0.4s0.3-0.7,0.3-1.3c0-1.2-0.4-2.1-1.1-2.9
		s-1.6-1.2-2.5-1.2c-1.1,0-2,0.5-2.8,1.5C181.5,646.7,181.1,648.1,181,650.1z"/>
</g>
<circle class="st3" cx="488.6" cy="647.2" r="21.9"/>
<rect x="477.4" y="633.9" class="st4" width="22.4" height="26.5"/>
<g class="st5">
	<path class="st6" d="M479.7,643.9v-5.2c4.4-1.3,7.2-3,8.6-5.2h4.3v21.1h7v4.6h-20.5v-4.6h7.7v-14.5
		C483.8,642,481.4,643.2,479.7,643.9z"/>
</g>
<circle class="st3" cx="232.7" cy="645.6" r="21.9"/>
<rect x="221.5" y="632.3" class="st4" width="22.4" height="26.5"/>
<g class="st5">
	<path class="st6" d="M223.8,642.3v-5.2c4.4-1.3,7.2-3,8.6-5.2h4.3v21.1h7v4.6h-20.5v-4.6h7.7v-14.5
		C227.8,640.4,225.5,641.6,223.8,642.3z"/>
</g>
<g>
	<path d="M361.4,636.5h1l8.3,21.1c0.3,0.8,1,1.3,2,1.3h0.7v1.2h-9.2V659h0.7c1,0,1.6-0.1,2-0.3c0.3-0.2,0.4-0.4,0.4-0.7
		c0-0.2,0-0.4-0.1-0.6l-1.9-4.9h-9.1l-1.1,2.8c-0.3,0.8-0.4,1.3-0.4,1.8c0,0.5,0.2,1,0.7,1.3c0.5,0.4,1.2,0.5,2.1,0.5h0.8v1.2h-8.4
		V659c0.9,0,1.6-0.2,2.1-0.6c0.5-0.4,1-1.1,1.4-2.2L361.4,636.5z M360.9,641l-4.1,10.3h8.2L360.9,641z"/>
	<path d="M378.2,639.5h1v6h4.7v1.4h-4.7v9.4c0,0.8,0.2,1.4,0.6,1.9c0.4,0.4,0.9,0.7,1.5,0.7c0.7,0,1.3-0.3,1.8-1s0.8-1.7,0.9-3.2h1
		c-0.1,2-0.5,3.4-1.3,4.3c-0.8,0.9-1.9,1.4-3.2,1.4c-1.2,0-2.1-0.3-2.8-1c-0.7-0.7-1-1.5-1-2.6v-9.8h-2.5v-1.1
		c1.2-0.2,2-0.7,2.6-1.5C377.6,643.2,378.1,641.6,378.2,639.5z"/>
	<path d="M390.6,639.5h1v6h4.7v1.4h-4.7v9.4c0,0.8,0.2,1.4,0.6,1.9c0.4,0.4,0.9,0.7,1.5,0.7c0.7,0,1.3-0.3,1.8-1s0.8-1.7,0.9-3.2h1
		c-0.1,2-0.5,3.4-1.3,4.3c-0.8,0.9-1.9,1.4-3.2,1.4c-1.2,0-2.1-0.3-2.8-1c-0.7-0.7-1-1.5-1-2.6v-9.8h-2.5v-1.1
		c1.2-0.2,2-0.7,2.6-1.5C390.1,643.2,390.6,641.6,390.6,639.5z"/>
	<path d="M414.7,658.5l0.6,0.9c-0.8,0.8-1.6,1.2-2.5,1.2c-0.7,0-1.3-0.2-1.8-0.6s-0.9-1.1-1.3-2c-1,1-1.9,1.7-2.6,2.1
		s-1.6,0.5-2.7,0.5c-1.5,0-2.6-0.3-3.4-1s-1.2-1.5-1.2-2.5c0-1.5,0.9-2.8,2.7-3.8c1.8-1,4.2-1.7,7.1-2v-2.2c0-0.8-0.3-1.5-1-2
		c-0.6-0.6-1.4-0.8-2.4-0.8c-0.9,0-1.7,0.2-2.3,0.6c-0.5,0.3-0.7,0.6-0.7,0.8c0,0.2,0.1,0.4,0.4,0.7c0.3,0.4,0.5,0.8,0.5,1.1
		c0,0.5-0.1,0.8-0.5,1.2c-0.3,0.3-0.7,0.5-1.2,0.5c-0.5,0-1-0.2-1.3-0.5c-0.4-0.3-0.5-0.8-0.5-1.4c0-1,0.6-2,1.7-2.8
		c1.2-0.8,2.7-1.3,4.6-1.3c1.7,0,3.1,0.4,4,1.1c0.9,0.8,1.4,1.7,1.4,2.8v8c0,0.7,0.1,1.2,0.3,1.6c0.2,0.3,0.5,0.5,0.9,0.5
		C413.8,659,414.3,658.8,414.7,658.5z M409.6,652.3c-2.6,0.4-4.5,1-5.6,1.8c-0.8,0.6-1.2,1.5-1.2,2.7c0,0.8,0.2,1.4,0.6,1.9
		c0.4,0.5,1,0.7,1.7,0.7c1.2,0,2.3-0.5,3.2-1.4c0.9-0.9,1.4-2.1,1.4-3.5L409.6,652.3L409.6,652.3z"/>
	<path d="M428.2,655.8l1,0.3c-0.8,3-2.6,4.5-5.4,4.5c-2,0-3.7-0.7-5-2c-1.3-1.3-1.9-3.1-1.9-5.4c0-2.6,0.7-4.6,2.1-6s3.1-2.1,5-2.1
		c1.4,0,2.6,0.4,3.6,1.2c0.9,0.8,1.4,1.7,1.4,2.6c0,0.6-0.2,1.1-0.5,1.5c-0.4,0.4-0.8,0.6-1.2,0.6c-0.5,0-0.9-0.2-1.2-0.5
		s-0.5-0.7-0.5-1.2s0.2-0.9,0.5-1.3c0.2-0.2,0.2-0.3,0.2-0.5c0-0.3-0.2-0.6-0.6-0.9c-0.4-0.3-1-0.4-1.7-0.4c-1.3,0-2.2,0.5-2.9,1.4
		c-0.9,1.3-1.4,3.1-1.4,5.3c0,2.1,0.4,3.7,1.2,4.8c0.8,1.1,1.9,1.6,3.2,1.6C426,659.2,427.4,658.1,428.2,655.8z"/>
	<path d="M431,637l5.6-0.3v16l4.8-4.2c0.5-0.4,0.7-0.8,0.7-1.1c0-0.3-0.1-0.5-0.4-0.6c-0.4-0.2-1.1-0.3-2-0.3v-1.1h7.8v1.1
		c-1.5,0.1-2.7,0.5-3.5,1.2l-3.4,3l5.5,7.5c0.3,0.5,0.9,0.7,1.7,0.7h0.8v1.2h-8v-1.2h0.8c0.6,0,1,0,1.2-0.2c0.2-0.1,0.3-0.2,0.3-0.4
		s0-0.3-0.2-0.4l-4-5.6l-2.1,1.9v3.7c0,0.3,0.1,0.5,0.3,0.7c0.3,0.2,0.7,0.3,1.2,0.3h1v1.2h-7.9v-1.2h1.3c0.5,0,0.9-0.1,1.2-0.3
		s0.4-0.5,0.4-0.9v-18.1c0-0.5-0.1-0.8-0.5-1c-0.4-0.3-1-0.5-1.8-0.5H431V637z"/>
</g>
<g>
	<path d="M131.1,716.9l1.1-2.2h1l0.4,9.3h-1.1c-0.7-2.6-1.6-4.5-2.6-5.8c-1.3-1.5-2.8-2.3-4.6-2.3c-1.9,0-3.5,0.9-4.7,2.6
		c-1.2,1.7-1.8,4.7-1.8,8.8c0,3.5,0.7,6.1,2.1,7.9c1.2,1.5,2.8,2.3,5,2.3c1.9,0,3.4-0.6,4.7-1.8s2.1-3,2.5-5.5h1.1
		c-0.3,2.8-1.3,4.9-2.8,6.3c-1.6,1.5-3.5,2.2-5.9,2.2c-1.9,0-3.7-0.5-5.3-1.5s-2.9-2.4-3.9-4.2s-1.4-3.8-1.4-6
		c0-2.3,0.5-4.5,1.5-6.5c1-2,2.3-3.5,3.8-4.5c1.6-1,3.2-1.5,5-1.5c1,0,2,0.2,2.9,0.5C129,715.5,130,716.1,131.1,716.9z"/>
	<path d="M143.7,723.1c2,0,3.6,0.7,5,2.1c1.3,1.4,2,3.3,2,5.6c0,1.6-0.3,3-0.9,4.1c-0.6,1.1-1.4,2-2.6,2.7s-2.3,1-3.6,1
		c-1.9,0-3.5-0.7-4.8-2.2s-2-3.3-2-5.6c0-2.3,0.7-4.2,2-5.6C140.1,723.9,141.7,723.1,143.7,723.1z M143.7,724.2
		c-1.2,0-2.1,0.5-2.9,1.6s-1.1,2.7-1.1,5c0,2.3,0.4,4,1.1,5.1c0.7,1.1,1.7,1.6,2.9,1.6c1.2,0,2.2-0.5,3-1.6s1.1-2.8,1.1-5.3
		c0-2.3-0.4-3.9-1.1-4.9C145.9,724.8,144.9,724.2,143.7,724.2z"/>
	<path d="M152.8,723.6l4.9-0.3c0.2,0.9,0.3,2,0.4,3.2c0.7-1.1,1.4-1.9,2.3-2.4s1.9-0.8,3-0.8c1,0,1.8,0.2,2.4,0.6s1.2,1,1.6,1.8
		c0.4,0.8,0.6,1.8,0.6,2.8v7.1c0,0.5,0.1,0.9,0.4,1.1c0.2,0.2,0.6,0.3,1.2,0.3h1v1.2h-7.7V737h0.7c0.7,0,1.2-0.1,1.4-0.3
		c0.3-0.2,0.4-0.5,0.4-1v-6.3c0-1.4-0.2-2.4-0.6-3c-0.6-0.9-1.5-1.4-2.7-1.4c-1.2,0-2.2,0.5-2.9,1.4s-1.2,2.2-1.2,3.7v5.4
		c0,0.5,0.1,0.9,0.4,1.1c0.2,0.2,0.6,0.3,1.2,0.3h1v1.2h-7.8V737h1c0.5,0,0.9-0.1,1.2-0.3c0.3-0.2,0.4-0.5,0.4-0.8v-9.5
		c0-0.6-0.2-1.1-0.5-1.4s-0.8-0.5-1.5-0.5h-0.8L152.8,723.6L152.8,723.6z"/>
	<path d="M176.2,717.6h1.1v6h4.7v1.4h-4.7v9.4c0,0.8,0.2,1.4,0.6,1.9s0.9,0.7,1.5,0.7c0.7,0,1.3-0.3,1.8-1s0.8-1.7,0.9-3.2h1
		c-0.1,2-0.5,3.4-1.3,4.3c-0.8,0.9-1.9,1.4-3.2,1.4c-1.2,0-2.1-0.3-2.8-1c-0.7-0.7-1-1.5-1-2.6V725h-2.6v-1.1c1.2-0.2,2-0.7,2.6-1.5
		C175.6,721.3,176.1,719.7,176.2,717.6z"/>
	<path d="M184.5,723.6l5.3-0.3v5.9c0.6-2,1.2-3.4,2-4.4s1.8-1.5,2.9-1.5c0.8,0,1.4,0.2,1.9,0.7c0.5,0.5,0.7,1.1,0.7,2
		c0,0.7-0.2,1.2-0.5,1.5c-0.3,0.4-0.7,0.5-1.2,0.5c-0.5,0-0.9-0.2-1.1-0.5c-0.3-0.3-0.4-0.7-0.4-1.3c0-0.3,0.1-0.7,0.2-1
		c0.2-0.3,0.2-0.4,0.2-0.5c0-0.2-0.1-0.2-0.3-0.2c-0.4,0-0.9,0.2-1.4,0.8c-0.8,0.7-1.3,1.7-1.7,2.9c-0.6,1.9-0.9,3.4-0.9,4.5v3.1
		c0,0.3,0.1,0.6,0.4,0.8s0.7,0.3,1.3,0.3h1.9v1.2h-9.1v-1.2h1.4c0.5,0,0.9-0.1,1.1-0.3s0.4-0.4,0.4-0.7v-9.3c0-0.7-0.1-1.2-0.4-1.5
		c-0.3-0.3-0.7-0.5-1.3-0.5h-1.3L184.5,723.6L184.5,723.6L184.5,723.6z"/>
	<path d="M205.9,723.1c2,0,3.6,0.7,5,2.1c1.3,1.4,2,3.3,2,5.6c0,1.6-0.3,3-0.9,4.1c-0.6,1.1-1.4,2-2.6,2.7s-2.3,1-3.6,1
		c-1.9,0-3.5-0.7-4.8-2.2s-2-3.3-2-5.6c0-2.3,0.7-4.2,2-5.6C202.3,723.9,203.9,723.1,205.9,723.1z M205.9,724.2
		c-1.2,0-2.1,0.5-2.9,1.6s-1.1,2.7-1.1,5c0,2.3,0.4,4,1.1,5.1c0.7,1.1,1.7,1.6,2.9,1.6c1.2,0,2.2-0.5,3-1.6s1.1-2.8,1.1-5.3
		c0-2.3-0.4-3.9-1.1-4.9C208.1,724.8,207.1,724.2,205.9,724.2z"/>
	<path d="M220.5,714.8v21.2c0,0.3,0.1,0.5,0.3,0.7c0.3,0.2,0.6,0.3,0.9,0.3h1.6v1.2H215V737h1.5c0.5,0,0.8-0.1,1.1-0.3
		c0.2-0.2,0.4-0.5,0.4-1v-17.8c0-0.5-0.1-0.9-0.4-1.1c-0.4-0.3-0.9-0.5-1.4-0.5h-1.3v-1.2L220.5,714.8z"/>
</g>
<rect x="216.5" y="570.8" class="st7" width="1.5" height="0.8"/>
<polygon class="st2" points="171.4,61.7 171.4,127.3 128.4,154.8 85.5,127.3 85.5,61.7 "/>
<polygon class="st0" points="85.8,126.9 86.4,126.9 86.4,127.3 "/>
<g transform="translate(0.000000,1280.000000) scale(0.100000,-0.100000)">
	<path class="st2" d="M2875.7,11302.9c-27.8-11.6-68.3-34.3-90.9-51.3c-39.4-29.5-57.5-75.1-81.3-203.7
		c-3.7-19.8-9.6-44.5-12.8-54.4c-8.5-24.9-7.1-32,7.6-40.2c6.8-3.7,19.8-7.4,29.7-8.5l17.9-2l11.3-22.7
		c9.4-18.7,12.8-22.9,18.7-23.5c6.5-0.8,7.9-2.8,10.8-15.6c1.7-8.2,9.1-26.1,15.9-40.2c11.3-22.9,12.8-27.5,12.8-45.3
		c0-35.4-1.4-39.4-19.5-51.8c-8.8-6.2-22.1-14.5-30-18.4c-7.6-4-19.3-10.5-25.2-14.7c-10.2-6.8-13.9-7.7-43.9-8.8
		c-18.1-0.6-38.8-1.1-45.9-1.1c-10.2,0-15.3-1.7-21.8-7.1c-5.1-4.2-21.5-11-40.2-16.7c-27.8-8.5-45.3-17.8-45.3-24.4
		c0-1.1,5.7-6,12.8-11s12.8-9.9,12.8-11c0-1.1-8.2-6.5-17.8-11.9c-11.3-6.2-30-22.1-51.8-43.9c-30.3-30.3-44.8-46.2-99.7-109.9
		c-8.5-9.6-21-27.2-27.8-38.8c-15-25.2-43.6-96.9-52.1-130.3c-14.2-55.2-31.2-132.3-31.2-140.8c0-7.1-2.3-10.8-9.6-16.4
		c-5.4-4-11.1-11.3-12.8-16.2c-3.7-10.2-3.7-53-0.6-107.6c2-32,3.7-41.1,9.6-54.4c15-32.6,33.1-53.2,56.6-64.6
		c20.7-10.2,38.8-11.9,64.3-6.5c11.6,2.5,24.6,5.1,28.6,6c7.1,1.7,7.9,0.6,13.9-17.6c9.1-27.5,17.3-42.8,44.5-84.1
		c19.5-29.7,24.9-36,29.2-34.6c4.5,1.4,7.1-1.4,13.9-15c4.5-9.1,11.9-20.7,15.9-25.8c6.5-7.7,9.4-8.8,21.2-8.8h13.6l4-16.2l4-16.4
		l33.1-0.8c24.1-0.6,33.1-1.7,33.1-4.2c0-2-12.8-15.3-28-29.7c-15.6-14.5-34-34.8-41.1-45.6l-13-19.5v-60.3
		c0-85.5-5.1-169.7-13-212.2c-11.1-60-13.9-92.6-10.2-121.2c3.1-26.9,6.5-35.7,21.5-59.2c9.4-14.7,22.7-60.3,38.5-132.3
		c9.9-44.2,5.7-85.5-15.6-151c-8.2-24.9-9.9-34.6-9.9-55c0-16.4-2.8-38.2-8.8-66.6c-11.3-54.4-12.5-77-6.8-115.8
		c2.8-18.4,4.8-52.7,5.1-83.6c0.6-47,1.4-54.1,7.1-68c4.5-11.3,6.2-21.2,6.2-37.1c0-11.6,2.6-39.1,5.4-60.9
		c6.5-47.3,10.8-91.8,14.2-153.2c3.1-51.5,6.2-60.9,22.1-66.6c4.8-1.7,9.6-6,10.5-9.1c3.4-12.8,5.1-100,2.3-120.1
		c-3.4-23.5-17.3-55.2-34-78.2c-5.7-7.9-23.2-30-38.8-49.3c-37.1-46.2-39.1-49.6-39.7-67.4c-0.3-8.2-2-16.7-3.7-19
		c-5.9-7.1-11.9-24.4-11.9-33.7c0.3-13,8.8-30.9,19.5-39.9c13.9-11.6,28.6-14.5,73.9-14.2c57.8,0,83,6.5,109.6,28.3
		c17,13.6,27.5,32.3,26.6,47.9l-0.3,12.5h11.9c21.2,0,82.1,39.7,86.4,56.1c4,15.3,2.3,47-3.4,61.5c-5.1,13-5.7,21-5.1,96.3
		c0.3,50.7,1.7,92.3,4.2,109l3.7,26.6l31.7,10.2c17.3,5.4,32.3,10.8,33.1,11.6s-2.3,16.7-7.4,35.4c-17.6,67.4-30,113.3-34.6,128.6
		c-2.8,9.3-5.4,30.9-6.2,53.8c-1.7,36.3-1.1,39.7,6.2,63.7c4.2,14.2,8.2,32,9.1,40.2c1.4,17.8-9.9,65.2-23.8,100.3
		c-13.9,35.7-13.3,44.8,5.7,76.2c24.9,41.1,28,52.7,28.9,108.5c0.9,40.5,1.7,49,6.8,58.3c3.4,7.1,7.1,24.1,9.9,47.6
		c2.6,19.8,5.7,39.9,7.1,44.5c1.7,4.5,2.8,11,2.8,14.5s4,9.6,8.8,14.5c24.6,23.5,35.4,66.3,39.4,159.2c1.7,33.4,3.7,61.8,4.5,63.2
		s6.2,4.5,11.9,7.1c5.7,2.3,13.3,6.8,16.4,9.9c5.9,5.7,6.8,5.7,16.4,1.1c13-6.2,14.2-7.9,19.8-31.2c2.8-10.8,9.9-30.3,15.9-43.3
		c15.6-32.9,41.4-131.7,46.2-175.3c3.4-32,3.1-34.6-1.7-41.1c-5.1-7.1-5.1-7.7,8.5-58.9l13.6-52.1l9.1-2.3c7.6-2,9.4-4,10.8-13
		c3.7-24.9,11.1-54.4,18.7-73.9c10.8-28.6,9.4-36.8-16.4-90.9c-20.7-43-21-44.5-22.4-70.8c-0.9-14.7,0-47.3,1.7-72.2
		c1.7-24.9,4.2-68.3,5.4-96.3c2.6-52.7,3.1-58.6,10.8-95.5c4.2-21.5,4.2-22.4-2-39.7c-3.4-9.9-10.2-24.6-14.4-33.1
		c-9.4-17.3-9.9-24.4-4.2-38.5c4.8-11.6,25.5-34.6,33.1-36.8c5.4-1.7,5.7-4,4-71.7c-1.1-38.5-0.6-100.6,0.9-138.2
		c3.4-87.8,5.4-92.6,42.2-111.3c6.8-3.4,17.9-6.8,24.9-7.9l12.8-1.7l-1.7-30c-1.4-25.8-0.9-31.4,3.7-39.9
		c18.4-35.4,145-49.3,206.8-22.7c23.5,9.9,24.6,12.2,17.9,37.7c-2.8,11.9-6.8,24.1-8.5,27.2c-1.4,3.1-2.8,15.6-2.8,27.8
		c-0.3,12.2-2,26.6-4,32c-5.1,14.5-21.5,38.5-54.4,79.6c-15.9,19.8-32.3,43.3-36.8,52.4l-8.2,16.7l0.9,77.9
		c0.9,69.4,1.4,78.2,5.7,81.3c11.6,8.5,11.9,9.1,11.9,43.3c0,29.2,1.7,41.6,13.9,99.7c15.3,73.1,23.2,105.1,30.3,124.1
		c11.6,31.4,9.9,101.7-3.7,146.2c-7.1,23.8-7.4,28.3-7.1,76.5c0.3,30.6,2.3,60.9,4.8,75.1c7.1,40.2,3.7,157.2-5.1,170.5
		c-4.5,6.8-9.1,44.8-12.2,98.6l-2,33.1l10.5,4.8c5.7,2.8,11.9,7.7,13.9,11c4.2,7.4,4,118.1-0.6,184.4
		c-7.6,107.9-6.8,263.4,1.7,353.5c2,22.7-8.8,45.3-35.7,73.7c-11.1,11.6-20.1,23.5-20.1,26.3c0,3.1-2,8.8-4,13.3
		c-3.7,6.5-3.7,9.9-0.3,22.7c7.1,27.5,14.4,43,20.4,42.8c8.2,0,50.1-26.1,67.4-41.6c22.7-20.1,29.7-21.2,53.2-9.1
		c29.7,15.6,54.9,31.4,82.7,52.7c44.2,33.4,44.5,33.4,46.2,50.1c0.6,8.2,1.7,14.7,2.6,14.7c0.6,0,44.8-34.3,98.3-76.5l97.2-76.2
		l15.9,0.8c8.8,0.3,17.9,2.3,20.1,4.2c3.4,2.8,7.4,1.1,22.7-11.3c10.2-8.2,18.7-15.6,18.7-16.7c0-0.8-3.1-6-7.1-11.3s-7.1-11-7.1-13
		c0-4.2,13.6-13.3,17-11c1.4,0.8,5.1,0,8.5-2c7.6-4.8,15.6,0.3,15.6,9.9c-0.3,8.8-10.8,16.4,92.6-66.8c57.5-46.2,84.4-69.4,85-73.7
		c0.6-3.4,2.6-6,4.5-5.4c1.7,0.3,3.4-1.1,3.4-3.4c0-4.5,7.6-8.2,11.6-5.7c1.4,0.8,2.5-1.1,2.5-4.2c0-3.7,2-6,5.1-6
		c2.5,0,13.6-7.1,24.4-15.9c10.5-8.8,20.4-14.7,21.5-13.3c7.9,8.2,22.7,27.2,22.7,29.2c0,1.1-8.8,8.8-19.5,17
		c-10.8,8.2-20.4,17.3-21,20.1c-0.9,3.7-3.1,4.8-6,3.7c-3.1-1.1-4.5-0.3-4.5,2.8c0,2.5-2.3,5.7-4.8,6.5c-2.8,1.1-6.5,3.7-8.2,6.2
		c-1.7,2.3-5.1,3.4-7.4,2.5c-2.8-1.1-24.9,15-62,44.8c-31.7,25.8-71.9,57.8-89.5,71.4c-22.1,17-31.7,26.3-32,30.6
		c0,3.1,13.6,22.7,30.9,44.2c16.7,21.2,31.4,40.8,32.6,43.6c2.6,6.2-4.8,14.2-15.3,16.4c-9.6,1.7-89.8-13.9-95.5-18.7
		c-2.8-2.3-3.7-1.7-3.7,2.5c0,7.7-20.1,26.6-109.9,104.2c-58.9,51-73.9,65.4-72.8,69.7c0.9,2.8,1.7,11.9,1.4,20.1s-0.3,23.5,0,34.3
		c0.9,32.6-9.9,59.8-39.4,100.3c-7.6,10.5-20.4,31.2-28,45.3l-14.2,26.3l11.6,6.5l11.9,6.5l-0.6,26.3c-0.6,26.3-0.6,26.6-19,64.3
		c-22.1,45.9-28.3,55-58.9,87.5c-13.3,14.2-23.5,27.2-22.7,29.2c1.7,5.7-40.5,77.6-63.7,108.2c-11.1,14.7-28,36-38,46.7
		c-30.6,34.6-98,80.7-133.4,91.5c-22.7,6.8-24.9,11.6-24.9,52.7v32.9l-10.5,5.4c-19.5,9.9-39.7,13.9-85,17.6
		c-44.5,3.4-44.8,3.4-54.7,12.5c-25.2,22.9-49,41.4-52.4,39.9c-2-0.6-4.5,1.4-5.4,4.8c-3.7,13.9-1.4,30,6.5,47.6
		c9.6,21.5,28.6,79.3,28.6,87.5c0,3.1,1.4,5.7,2.8,5.7c1.7,0,2.8-1.4,2.8-2.8c0-1.7,3.1-4.2,6.8-6c14.4-6.8,21.5,4.2,25.8,39.9
		c2.3,22.1,3.1,22.7,20.7,19.3c11.1-2.3,18.1-2.3,26.6,0.3l11.6,3.7l-2,14.5c-1.1,8.2-3.1,26.3-4.5,40.2
		c-3.1,32.9-29.2,121.5-48.7,165.7c-19.5,44.8-39.9,79.6-53.2,91.8c-21.8,19.5-41.9,26.9-89.2,32.9c-13.9,1.7-37.4,5.7-52.1,8.5
		C2912.2,11314.5,2902.9,11314,2875.7,11302.9z M3455.5,9920.4c26.1-20.1,28.6-22.7,21.2-20.1c-13,4.8-32.3,6.8-41.9,4.5
		c-10.5-2.3-10.5-2.3-10.5,6.8c0,16.7,3.4,30.3,6.8,27.8C3432.8,9937.9,3443.9,9929.4,3455.5,9920.4z M3534.8,9856.3
		c0-1.1-1.7-2.5-4-3.4c-2.6-1.1-8.2,4.2-15.6,14.2l-11.9,15.6l15.9-12.5C3527.7,9863.7,3534.8,9857.2,3534.8,9856.3z M3948.1,9719.5
		c2.6-3.1,1.7-5.7-4-12.5c-6.2-7.4-6.5-8.8-2.8-11.9c2.3-2,4.2-4.2,4.2-5.4c0-2.5-17-20.1-19.5-20.1c-3.4,0-40.2,31.4-41.9,36
		c-2.3,6.2,5.7,10.2,27.5,13.9C3937.6,9724.1,3944.4,9724.1,3948.1,9719.5z M3892.3,9671.9c7.9-6.5,13-12.5,11.3-13
		c-3.4-1.1-31.7,19.3-31.7,22.7C3871.9,9686.7,3879,9683.3,3892.3,9671.9z"/>
</g>
<rect x="106.2" y="76.3" class="st4" width="44.4" height="49.4"/>
<g class="st5">
	<path class="st6" d="M142.4,86.2h-20.9l-0.8,10.7c2.6-2.7,6-4.1,10.2-4.1c4.3,0,8,1.4,11,4.3s4.5,6.5,4.5,11c0,5-1.6,9.1-4.9,12.2
		s-7.9,4.8-13.7,4.8c-10.2,0-16.5-4.6-18.9-13.6l10.6-1.6c1.1,4.2,3.8,6.3,8,6.3c2.3,0,4.2-0.7,5.6-2.2c1.4-1.4,2.1-3.2,2.1-5.1
		c0-2.1-0.7-3.8-2.2-5.3c-1.4-1.5-3.2-2.2-5.4-2.2c-3,0-5.3,1.2-6.9,3.7l-9.2-1.5l1.9-27.2h30.2L142.4,86.2z"/>
</g>
<rect x="126.2" y="110.3" class="st2" width="4.6" height="24.1"/>
<rect x="216.5" y="554.1" class="st2" width="1.5" height="9.2"/>
<rect x="216.5" y="564.5" class="st2" width="2.1" height="9.5"/>
<g>
	<path class="st6" d="M242.6,570.8h-1 M242.6,570.8h0.5h2c1.4,0,2.3,0.1,2.8,0.2c0.5,0.1,0.9,0.5,1.4,1s0.6,1.2,0.6,1.9
		c0,0.8-0.2,1.4-0.6,2c-0.4,0.6-0.9,1-1.4,1.1c-0.5,0.2-1.4,0.2-2.6,0.2h-3.6v-5.6v-0.8 M242.6,566.2h-1 M241.6,566.2h-6v25.3h6v-10
		h4.2l3.9,10h6.6l-4.7-11.2c2.9-1.3,4.4-3.5,4.4-6.5c0-1.6-0.4-3-1.2-4.2c-0.8-1.3-1.9-2.2-3.1-2.6c-1.2-0.5-2.9-0.7-4.9-0.7h-3.6
		h-0.5"/>
	<path class="st6" d="M260.6,566.2v25.3h5.9v-25.3H260.6z"/>
	<path class="st6" d="M278.6,566.2h-0.9h-0.1 M279.9,566.2h-1.2 M279.9,566.2h9.8v5h-9.8 M279.9,571.3h-2.1 M277.7,566.2h-6.1v25.3
		h6.2v-6.3v-3.6h2.1h7.3v-4.7h-7.3h-2.1v-1v-3.2v-1.5"/>
	<path class="st6" d="M298.7,586.6v-20.3h-6v25.3h6L298.7,586.6L298.7,586.6z M300.9,586.6v5h7.9v-5H300.9z"/>
	<path class="st6" d="M320,586.6v5h10v-5H320z M320,566.2v4.8h10v-4.8H320z M320,576.3v4.8h7.4v-4.8H320z M311.8,566.2v25.3h6v-25.3
		H311.8z"/>
	<path class="st6" d="M351.8,566.2l-4.7,15.2l-4.5-15.2h-9.2v25.3h5v-20.7l6.2,20.7h4.1l6.4-20.7v20.7h6v-25.3H351.8z"/>
	<path class="st6" d="M378.6,566.2h-6.9l-8.1,25.3h5.2l1.6-5.2h8.2l1.6,5.2h6.4L378.6,566.2z M371.8,581.7l2.7-8.9l2.7,8.9H371.8z"
		/>
	<path class="st6" d="M404.2,566.2v13.2c0,0.4,0,0.9,0.1,1.7l-8.6-14.9h-6.4v25.3h4.6v-15.2c0-0.3,0-0.7-0.1-1.1c0-0.1,0-0.4,0-0.8
		l9.9,17.1h5.1v-25.3H404.2z"/>
</g>
<circle class="st8" cx="136.9" cy="578.6" r="36"/>
<g>
	<path class="st2" d="M152.9,573.8l-9.2,0.6c-0.1-5.3-2.2-7.9-6.2-7.9c-4.6,0-6.9,4.1-6.9,12.2c0,4.7,0.6,7.9,1.9,9.5
		c1.2,1.7,3,2.5,5.2,2.5c3.6,0,5.8-2.3,6.6-7.1l8.5,0.5c-0.6,4.5-2.2,7.9-5,10.2s-6.2,3.5-10.2,3.5c-4.9,0-9-1.7-12.1-5.1
		s-4.6-8.1-4.6-14.1c0-5.6,1.5-10.2,4.5-13.8s7.1-5.4,12.3-5.4C146.7,559.4,151.7,564.2,152.9,573.8z"/>
</g>
</svg>
