<?xml version="1.0" encoding="utf-8"?>
<!-- Generator: Adobe Illustrator 25.2.1, SVG Export Plug-In . SVG Version: 6.00 Build 0)  -->
<svg version="1.1" id="Слой_1" xmlns="http://www.w3.org/2000/svg" xmlns:xlink="http://www.w3.org/1999/xlink" x="0px" y="0px"
	 viewBox="0 0 595.3 841.9" style="enable-background:new 0 0 595.3 841.9;" xml:space="preserve">
<style type="text/css">
	.st0{fill:#C7C6C6;}
	.st1{fill:#FFFCF2;}
	.st2{fill:#4BA974;}
	.st3{fill:none;}
	.st4{fill:#3C3C3B;}
	.st5{fill:#FFFFFF;}
	.st6{fill:#FFFCF2;stroke:#4BA974;stroke-width:4;stroke-miterlimit:10;}
</style>
<rect x="276" y="581.4" class="st0" width="4.2" height="7.2"/>
<path class="st1" d="M514.2,60.1h-433c-21,0-38.1,17-38.1,38.1v645.4c0,21,17,38.1,38.1,38.1h433c21,0,38.1-17,38.1-38.1V98.2
	C552.3,77.2,535.3,60.1,514.2,60.1z M449.3,474.6c-8.1,2.7-15.1,5.3-23.7,5.3c-3.3,0-6.6-0.2-9.8-0.6c0,0.3,0,0.7-0.1,1v0.1
	c0,0.5-0.1,0.9-0.2,1.4c-0.2,1.4-0.4,2.8-0.8,4.1c-0.2,0.7-0.5,1.3-0.9,1.7c0,0.2,0,0.3-0.1,0.5c-0.2,0.4-0.3,0.8-0.5,1.2
	c-0.4,0.8-1,1.4-1.8,1.8c-0.4,0.2-0.8,0.3-1.2,0.5c-0.7,0.2-1.3,0.2-2,0.1c-0.7,0-1.3-0.2-1.9-0.6c-0.6-0.3-1.1-0.8-1.4-1.3
	c-0.4-0.5-0.7-1-0.9-1.7c0-0.1,0-0.1-0.1-0.2c-0.1-0.5-0.2-1-0.2-1.5c0-0.1,0-0.1,0-0.2c0-0.4,0.1-1,0.2-1.5
	c0.1-0.4,0.3-0.8,0.5-1.1c0-0.1,0-0.1,0-0.2c0.3-1.8,0.5-3.7,1.1-5.6c0,0,0-0.2,0.1-0.2c0-0.5,0.1-0.9,0.2-1.3v-0.1
	c-0.2-0.1-0.4-0.2-0.6-0.2c-6.3-1.5-3.6-11.1,2.7-9.6c2.9,0.7,4.8,2.5,7.9,3c3.2,0.5,6.5,0.6,9.8,0.6c7.8,0,13.9-2.6,21.1-5
	C452.8,463,455.4,472.6,449.3,474.6z"/>
<path class="st1" d="M449.3,474.6c-8.1,2.7-15.1,5.3-23.7,5.3c-3.3,0-6.6-0.2-9.8-0.6c0,0.3,0,0.7-0.1,1v0.1c0,0.5-0.1,0.9-0.2,1.4
	c-0.2,1.4-0.4,2.8-0.8,4.1c-0.2,0.7-0.5,1.3-0.9,1.7c0,0.2,0,0.3-0.1,0.5c-0.2,0.4-0.3,0.8-0.5,1.2c-0.4,0.8-1,1.4-1.8,1.8
	c-0.4,0.2-0.8,0.3-1.2,0.5c-0.7,0.2-1.3,0.2-2,0.1c-0.7,0-1.3-0.2-1.9-0.6c-0.6-0.3-1.1-0.8-1.4-1.3c-0.4-0.5-0.7-1-0.9-1.7
	c0-0.1,0-0.1-0.1-0.2c-0.1-0.5-0.2-1-0.2-1.5c0-0.1,0-0.1,0-0.2c0-0.4,0.1-1,0.2-1.5c0.1-0.4,0.3-0.8,0.5-1.1c0-0.1,0-0.1,0-0.2
	c0.3-1.8,0.5-3.7,1.1-5.6c0,0,0-0.2,0.1-0.2c0-0.5,0.1-0.9,0.2-1.3v-0.1c-0.2-0.1-0.4-0.2-0.6-0.2c-6.3-1.5-3.6-11.1,2.7-9.6
	c2.9,0.7,4.8,2.5,7.9,3c3.2,0.5,6.5,0.6,9.8,0.6c7.8,0,13.9-2.6,21.1-5C452.8,463,455.4,472.6,449.3,474.6z"/>
<path class="st1" d="M414.3,479.2c-1.8-0.2-3.7-0.5-5.5-1.1c-1-0.4-2-1.3-3-1.8v0.1c-0.1,0.4-0.2,0.8-0.2,1.3c0,0.1,0,0.2-0.1,0.2
	c-0.6,1.9-0.8,3.8-1.1,5.6c0,0.1,0,0.1,0,0.2c-0.2,0.3-0.4,0.7-0.5,1.1c-0.1,0.5-0.2,1.1-0.2,1.5c0,0.1,0,0.1,0,0.2
	c0,0.5,0.1,1,0.2,1.5c0,0.1,0,0.1,0.1,0.2c0.2,0.7,0.5,1.2,0.9,1.7c0.3,0.5,0.8,1,1.4,1.3c0.6,0.4,1.2,0.6,1.9,0.6
	c0.7,0.2,1.3,0.1,2-0.1c0.4-0.2,0.8-0.3,1.2-0.5c0.8-0.5,1.3-1.1,1.8-1.8c0.2-0.4,0.3-0.8,0.5-1.2c0-0.2,0-0.3,0.1-0.5
	c0.4-0.5,0.7-1.1,0.9-1.7c0.4-1.4,0.7-2.7,0.8-4.1c0.1-0.5,0.1-0.9,0.2-1.4v-0.1c0.1-0.4,0.1-0.7,0.1-1.1
	C415.3,479.3,414.8,479.2,414.3,479.2z"/>
<rect x="43" y="551" class="st2" width="509.3" height="54.6"/>
<rect x="294.1" y="618.2" class="st2" width="7.1" height="143"/>
<rect x="66.1" y="686.1" class="st2" width="463.1" height="7.1"/>
<polygon class="st2" points="171.8,60.1 171.8,125.7 128.8,153.2 85.9,125.7 85.9,60.1 "/>
<polygon class="st0" points="86.2,125.3 86.8,125.3 86.8,125.7 "/>
<rect x="231.8" y="560.8" class="st3" width="153.5" height="33.1"/>
<polygon class="st3" points="464.5,446.7 460.2,446.7 460.2,446.7 "/>
<g>
	<path d="M120.5,641.3l1.4-2h1.1l0.1,8.4h-1c-0.6-2.6-1.6-4.5-2.9-5.7s-2.7-1.8-4.4-1.8c-1.4,0-2.5,0.4-3.4,1.2s-1.3,1.8-1.3,3
		c0,0.7,0.2,1.4,0.5,1.9s0.8,1,1.5,1.4c0.7,0.3,1.9,0.7,3.7,1.1c2.6,0.6,4.4,1.1,5.4,1.7c1,0.6,1.8,1.3,2.3,2.2s0.8,1.9,0.8,3.1
		c0,2.1-0.7,3.8-2.1,5.2s-3.2,2.1-5.4,2.1c-2.4,0-4.5-0.8-6.2-2.3l-1.8,2.2h-1.1v-9h1.1c0.4,2.5,1.4,4.4,2.9,5.8
		c1.5,1.4,3.2,2.1,5.1,2.1c1.5,0,2.8-0.5,3.8-1.4s1.5-2,1.5-3.3c0-0.7-0.2-1.4-0.5-1.9c-0.4-0.6-0.9-1-1.7-1.4
		c-0.8-0.4-2.3-0.8-4.7-1.4c-2.6-0.6-4.3-1.3-5.2-2c-1.3-1.1-2-2.6-2-4.5c0-2,0.6-3.7,1.9-5s3-1.9,5-1.9c1,0,1.9,0.2,2.8,0.5
		S119.5,640.5,120.5,641.3z"/>
	<path d="M138.1,658.3l1,0.3c-0.8,3-2.6,4.5-5.4,4.5c-2,0-3.7-0.7-5-2s-1.9-3.1-1.9-5.4c0-2.6,0.7-4.6,2.1-6c1.4-1.4,3.1-2.1,5-2.1
		c1.4,0,2.6,0.4,3.6,1.2c0.9,0.8,1.4,1.7,1.4,2.6c0,0.6-0.2,1.1-0.5,1.4c-0.3,0.4-0.8,0.6-1.2,0.6c-0.5,0-0.9-0.2-1.2-0.5
		s-0.5-0.7-0.5-1.2s0.2-0.9,0.5-1.3c0.2-0.2,0.2-0.4,0.2-0.5c0-0.3-0.2-0.6-0.6-0.9c-0.4-0.3-1-0.4-1.7-0.4c-1.3,0-2.2,0.5-2.9,1.4
		c-0.9,1.3-1.4,3.1-1.4,5.3c0,2.1,0.4,3.7,1.2,4.8s1.9,1.6,3.2,1.6C135.9,661.8,137.2,660.6,138.1,658.3z"/>
	<path d="M148,647.6c2,0,3.6,0.7,5,2.1c1.3,1.4,2,3.3,2,5.6c0,1.6-0.3,3-0.9,4.1c-0.6,1.1-1.5,2-2.6,2.7s-2.3,1-3.6,1
		c-1.9,0-3.5-0.7-4.8-2.2c-1.3-1.4-2-3.3-2-5.6s0.7-4.2,2-5.6S146,647.6,148,647.6z M148,648.7c-1.2,0-2.1,0.5-2.9,1.6
		c-0.8,1.1-1.1,2.7-1.1,5s0.4,4,1.1,5.1c0.7,1.1,1.7,1.6,2.9,1.6s2.2-0.5,3-1.6s1.1-2.8,1.1-5.3c0-2.3-0.4-3.9-1.1-4.9
		C150.2,649.2,149.2,648.7,148,648.7z"/>
	<path d="M162.1,647.8v9.7c0,1.2,0.3,2.1,0.9,2.8c0.6,0.6,1.4,1,2.3,1c1.2,0,2.2-0.5,3-1.4s1.2-2.1,1.2-3.5v-5.5
		c0-0.5-0.2-0.9-0.5-1.2c-0.4-0.3-1-0.4-2.1-0.5V648l5.1-0.3v12c0,0.6,0.2,1,0.5,1.3s0.8,0.4,1.3,0.4h0.9v1l-4.9,0.1l-0.3-2.9
		c-0.9,1-1.8,1.8-2.6,2.3c-0.9,0.5-1.8,0.8-2.7,0.8c-1.3,0-2.4-0.4-3.3-1.3c-0.9-0.9-1.4-2.4-1.4-4.5v-6.4c0-0.6-0.2-1-0.7-1.3
		c-0.3-0.2-1-0.3-1.9-0.3V648L162.1,647.8z"/>
	<path d="M180.5,642.1h1v6h4.7v1.4h-4.7v9.4c0,0.8,0.2,1.4,0.6,1.9c0.4,0.4,0.9,0.6,1.5,0.6c0.7,0,1.3-0.3,1.8-1s0.8-1.7,0.9-3.2h1
		c-0.1,1.9-0.5,3.4-1.3,4.3c-0.8,0.9-1.9,1.4-3.2,1.4c-1.2,0-2.2-0.3-2.8-1c-0.7-0.7-1-1.5-1-2.6v-9.8h-2.5v-1.1
		c1.2-0.2,2-0.7,2.7-1.5C179.9,645.8,180.4,644.2,180.5,642.1z"/>
</g>
<g>
	<circle class="st4" cx="231.2" cy="649.6" r="21.9"/>
	<g>
		<path class="st5" d="M222.3,646.3v-5.2c4.4-1.3,7.2-3,8.6-5.2h4.3V657h7v4.6h-20.5V657h7.7v-14.5
			C226.3,644.4,224,645.6,222.3,646.3z"/>
	</g>
</g>
<g>
	<path d="M344.3,638.9h1l8.3,21.1c0.3,0.9,1,1.3,2,1.3h0.7v1.2h-9.2v-1.2h0.7c1,0,1.6-0.1,2-0.3c0.3-0.1,0.4-0.4,0.4-0.7
		c0-0.2,0-0.4-0.1-0.6l-1.9-4.9h-9.1l-1.1,2.8c-0.3,0.8-0.4,1.3-0.4,1.8s0.2,0.9,0.7,1.3c0.5,0.4,1.2,0.5,2.1,0.5h0.8v1.2h-8.4v-1.2
		c0.9,0,1.6-0.2,2.1-0.6c0.5-0.4,1-1.1,1.4-2.2L344.3,638.9z M343.9,643.4l-4.1,10.3h8.2L343.9,643.4z"/>
	<path d="M361.2,641.9h1v6h4.7v1.4h-4.7v9.4c0,0.8,0.2,1.4,0.6,1.9c0.4,0.4,0.9,0.6,1.5,0.6c0.7,0,1.3-0.3,1.8-1s0.8-1.7,0.9-3.2h1
		c-0.1,1.9-0.5,3.4-1.3,4.3c-0.8,0.9-1.9,1.4-3.2,1.4c-1.2,0-2.2-0.3-2.8-1c-0.7-0.7-1-1.5-1-2.6v-9.8h-2.5v-1.1
		c1.2-0.2,2-0.7,2.7-1.5C360.6,645.6,361.1,644,361.2,641.9z"/>
	<path d="M373.6,641.9h1v6h4.7v1.4h-4.7v9.4c0,0.8,0.2,1.4,0.6,1.9c0.4,0.4,0.9,0.6,1.5,0.6c0.7,0,1.3-0.3,1.8-1s0.8-1.7,0.9-3.2h1
		c-0.1,1.9-0.5,3.4-1.3,4.3c-0.8,0.9-1.9,1.4-3.2,1.4c-1.2,0-2.2-0.3-2.8-1c-0.7-0.7-1-1.5-1-2.6v-9.8h-2.5v-1.1
		c1.2-0.2,2-0.7,2.7-1.5C373.1,645.6,373.5,644,373.6,641.9z"/>
	<path d="M397.7,660.9l0.6,0.9c-0.8,0.8-1.6,1.2-2.5,1.2c-0.7,0-1.3-0.2-1.8-0.6s-0.9-1.1-1.3-2c-1,1-1.9,1.7-2.6,2.1
		s-1.7,0.5-2.7,0.5c-1.5,0-2.6-0.3-3.4-1s-1.2-1.5-1.2-2.5c0-1.5,0.9-2.8,2.7-3.8c1.8-1,4.2-1.7,7.1-2v-2.2c0-0.8-0.3-1.5-1-2
		c-0.6-0.6-1.4-0.8-2.4-0.8c-0.9,0-1.7,0.2-2.3,0.6c-0.5,0.3-0.7,0.6-0.7,0.8s0.1,0.4,0.4,0.7c0.3,0.4,0.5,0.8,0.5,1.1
		c0,0.5-0.2,0.9-0.5,1.1c-0.3,0.3-0.7,0.4-1.2,0.4s-1-0.2-1.3-0.5c-0.3-0.4-0.5-0.8-0.5-1.4c0-1,0.6-2,1.7-2.8
		c1.2-0.9,2.7-1.3,4.6-1.3c1.7,0,3.1,0.4,4,1.1c0.9,0.8,1.4,1.7,1.4,2.8v8c0,0.7,0.1,1.2,0.3,1.6c0.2,0.3,0.5,0.5,0.9,0.5
		C396.8,661.4,397.2,661.3,397.7,660.9z M392.6,654.8c-2.6,0.4-4.5,1-5.6,1.8c-0.8,0.6-1.2,1.5-1.2,2.7c0,0.8,0.2,1.4,0.6,1.9
		s1,0.7,1.7,0.7c1.2,0,2.3-0.5,3.2-1.4c0.9-0.9,1.4-2.1,1.4-3.5v-2.2H392.6z"/>
	<path d="M411.2,658.2l1,0.3c-0.8,3-2.6,4.5-5.4,4.5c-2,0-3.7-0.7-5-2s-1.9-3.1-1.9-5.4c0-2.6,0.7-4.6,2.1-6s3.1-2.1,5-2.1
		c1.4,0,2.6,0.4,3.6,1.2c0.9,0.8,1.4,1.7,1.4,2.6c0,0.6-0.2,1.1-0.5,1.4c-0.3,0.4-0.8,0.6-1.2,0.6c-0.5,0-0.9-0.2-1.2-0.5
		c-0.3-0.3-0.5-0.7-0.5-1.2s0.2-0.9,0.5-1.3c0.2-0.2,0.2-0.4,0.2-0.5c0-0.3-0.2-0.6-0.6-0.9c-0.4-0.3-1-0.4-1.7-0.4
		c-1.3,0-2.2,0.5-2.9,1.4c-0.9,1.3-1.4,3.1-1.4,5.3c0,2.1,0.4,3.7,1.2,4.8c0.8,1.1,1.9,1.6,3.2,1.6
		C409,661.6,410.3,660.5,411.2,658.2z"/>
	<path d="M414,639.4l5.6-0.3v16l4.8-4.1c0.5-0.4,0.7-0.8,0.7-1.1s-0.1-0.5-0.4-0.6c-0.4-0.2-1.1-0.3-2-0.3v-1.1h7.8v1.1
		c-1.5,0.1-2.7,0.5-3.5,1.2l-3.4,3l5.5,7.5c0.3,0.4,0.9,0.7,1.7,0.7h0.8v1.2h-8v-1.2h0.8c0.6,0,1-0.1,1.2-0.2
		c0.2-0.1,0.3-0.2,0.3-0.4c0-0.1-0.1-0.3-0.2-0.4l-4-5.6l-2.1,1.9v3.7c0,0.3,0.1,0.5,0.3,0.7c0.3,0.2,0.7,0.3,1.2,0.3h1v1.2h-7.9
		v-1.2h1.3c0.5,0,0.9-0.1,1.2-0.3s0.4-0.5,0.4-0.9v-18.1c0-0.5-0.2-0.8-0.5-1c-0.4-0.3-1-0.5-1.8-0.5H414V639.4z"/>
</g>
<g>
	<circle class="st4" cx="476.9" cy="650.7" r="21.9"/>
	<g>
		<path class="st5" d="M468,647.4v-5.2c4.4-1.3,7.2-3,8.6-5.2h4.3v21.1h7v4.6h-20.5v-4.6h7.7v-14.5C472,645.5,469.7,646.7,468,647.4
			z"/>
	</g>
</g>
<g>
	<path d="M121.9,711.8h11.9c2.3,0,4.1,0.5,5.4,1.6c1.3,1.1,1.9,2.4,1.9,4.1c0,1-0.3,1.9-0.8,2.7s-1.2,1.4-2.2,1.9s-2.5,0.8-4.5,1
		c1.5,0.4,2.5,0.8,3.1,1.2s1,0.9,1.3,1.5s0.7,1.9,1.2,3.8c0.3,1.4,0.7,2.3,1,2.8c0.3,0.4,0.6,0.6,0.9,0.6c0.3,0,0.6-0.2,0.9-0.7
		c0.3-0.5,0.4-1.3,0.5-2.5h1.1c-0.2,3.5-1.5,5.3-3.9,5.3c-0.8,0-1.4-0.2-2-0.6c-0.6-0.4-1-1-1.3-1.7c-0.2-0.6-0.5-2-0.7-4.4
		c-0.2-1.4-0.4-2.4-0.7-3s-0.9-1.1-1.6-1.4c-0.7-0.4-1.6-0.5-2.6-0.5h-1.9v9.1c0,0.4,0.1,0.7,0.3,0.8c0.2,0.2,0.6,0.3,1.2,0.3h2.2
		v1.2h-10.7v-1.2h2.3c0.5,0,0.9-0.1,1.1-0.3s0.4-0.5,0.4-0.8v-18.5c0-0.4-0.1-0.7-0.4-0.9c-0.2-0.2-0.6-0.3-1.1-0.3h-2.3
		C121.9,712.9,121.9,711.8,121.9,711.8z M128.9,722.4h2.7c1.8,0,3.3-0.3,4.3-1s1.6-1.9,1.6-3.7c0-1.2-0.2-2.2-0.6-2.9
		s-0.9-1.2-1.5-1.5s-1.9-0.4-3.8-0.4c-1.2,0-2,0.1-2.3,0.3s-0.4,0.5-0.4,0.9V722.4z"/>
	<path d="M159,727.7h-10.5c0.1,2.2,0.5,3.8,1.2,4.7c0.9,1,2,1.5,3.4,1.5c2,0,3.7-1.2,4.9-3.5l1,0.4c-1.5,3-3.7,4.4-6.6,4.4
		c-2,0-3.6-0.7-4.9-2.1c-1.3-1.4-2-3.2-2-5.4c0-2.4,0.7-4.3,2-5.8s2.9-2.2,4.9-2.2c1.4,0,2.6,0.4,3.7,1.1c1,0.7,1.8,1.8,2.3,3.1
		C158.7,725,158.9,726.2,159,727.7z M148.5,726.6h6.3c0.4,0,0.7-0.1,0.9-0.4c0.2-0.3,0.3-0.7,0.3-1.3c0-1.1-0.4-2.1-1.1-2.9
		c-0.7-0.8-1.6-1.2-2.5-1.2c-1.1,0-2,0.5-2.8,1.5C148.9,723.2,148.5,724.6,148.5,726.6z"/>
	<path d="M172.4,730.6l1,0.3c-0.8,3-2.6,4.5-5.4,4.5c-2,0-3.7-0.7-5-2s-1.9-3.1-1.9-5.4c0-2.6,0.7-4.6,2.1-6c1.4-1.4,3.1-2.1,5-2.1
		c1.4,0,2.6,0.4,3.6,1.2c0.9,0.8,1.4,1.7,1.4,2.6c0,0.6-0.2,1.1-0.5,1.4c-0.3,0.4-0.8,0.6-1.2,0.6c-0.5,0-0.9-0.2-1.2-0.5
		s-0.5-0.7-0.5-1.2s0.2-0.9,0.5-1.3c0.2-0.2,0.2-0.4,0.2-0.5c0-0.3-0.2-0.6-0.6-0.9c-0.4-0.3-1-0.4-1.7-0.4c-1.3,0-2.2,0.5-2.9,1.4
		c-0.9,1.3-1.4,3.1-1.4,5.3c0,2.1,0.4,3.7,1.2,4.8s1.9,1.6,3.2,1.6C170.2,734,171.5,732.8,172.4,730.6z"/>
	<path d="M182.3,719.8c2,0,3.6,0.7,5,2.1c1.3,1.4,2,3.3,2,5.6c0,1.6-0.3,3-0.9,4.1c-0.6,1.1-1.5,2-2.6,2.7s-2.3,1-3.6,1
		c-1.9,0-3.5-0.7-4.8-2.2c-1.3-1.4-2-3.3-2-5.6s0.7-4.2,2-5.6C178.8,720.5,180.4,719.8,182.3,719.8z M182.3,720.9
		c-1.2,0-2.1,0.5-2.9,1.6c-0.8,1.1-1.1,2.7-1.1,5s0.4,4,1.1,5.1c0.7,1.1,1.7,1.6,2.9,1.6s2.2-0.5,3-1.6s1.1-2.8,1.1-5.3
		c0-2.3-0.4-3.9-1.1-4.9C184.6,721.4,183.6,720.9,182.3,720.9z"/>
	<path d="M191.4,720.3l4.9-0.3c0.2,0.9,0.3,2,0.4,3.2c0.7-1.1,1.4-1.9,2.3-2.4s1.9-0.8,3-0.8c1,0,1.8,0.2,2.4,0.6
		c0.7,0.4,1.2,1,1.6,1.8c0.4,0.8,0.6,1.7,0.6,2.8v7.1c0,0.5,0.1,0.9,0.4,1.1c0.2,0.2,0.6,0.3,1.2,0.3h1v1.2h-7.7v-1.2h0.7
		c0.7,0,1.2-0.1,1.4-0.3c0.3-0.2,0.4-0.5,0.4-1v-6.3c0-1.4-0.2-2.4-0.6-3c-0.6-0.9-1.5-1.4-2.7-1.4s-2.2,0.5-2.9,1.4
		c-0.8,0.9-1.2,2.2-1.2,3.7v5.4c0,0.5,0.1,0.9,0.4,1.1c0.2,0.2,0.6,0.3,1.2,0.3h1v1.2h-7.8v-1.2h1c0.5,0,0.9-0.1,1.2-0.3
		s0.4-0.5,0.4-0.8V723c0-0.6-0.2-1.1-0.5-1.4c-0.3-0.3-0.8-0.5-1.5-0.5h-0.8v-0.8H191.4z"/>
</g>
<g>
	<path d="M368.2,713.4l1.1-2.2h1l0.4,9.3h-1c-0.7-2.6-1.6-4.5-2.6-5.8c-1.3-1.6-2.8-2.3-4.6-2.3c-1.9,0-3.5,0.9-4.7,2.6
		c-1.2,1.7-1.8,4.7-1.8,8.8c0,3.5,0.7,6.1,2.1,7.9c1.2,1.5,2.9,2.3,5,2.3c1.9,0,3.4-0.6,4.7-1.8c1.3-1.2,2.1-3,2.5-5.4h1.1
		c-0.3,2.8-1.3,4.9-2.8,6.3c-1.6,1.5-3.5,2.2-5.9,2.2c-1.9,0-3.7-0.5-5.3-1.5s-2.9-2.4-3.9-4.2s-1.4-3.8-1.4-6
		c0-2.3,0.5-4.5,1.5-6.5s2.3-3.5,3.8-4.6c1.6-1,3.2-1.5,5-1.5c1,0,2,0.2,2.9,0.5S367,712.6,368.2,713.4z"/>
	<path d="M380.7,719.7c2,0,3.6,0.7,5,2.1c1.3,1.4,2,3.3,2,5.6c0,1.6-0.3,3-0.9,4.1s-1.5,2-2.6,2.7s-2.3,1-3.6,1
		c-1.9,0-3.5-0.7-4.8-2.2c-1.3-1.4-2-3.3-2-5.6s0.7-4.2,2-5.6S378.8,719.7,380.7,719.7z M380.7,720.8c-1.2,0-2.1,0.5-2.9,1.6
		s-1.1,2.7-1.1,5s0.4,4,1.1,5.1s1.7,1.6,2.9,1.6c1.2,0,2.2-0.5,3-1.6s1.1-2.8,1.1-5.3c0-2.3-0.4-3.9-1.1-4.9
		C382.9,721.3,381.9,720.8,380.7,720.8z"/>
	<path d="M389.8,720.1l4.9-0.3c0.2,0.9,0.3,2,0.4,3.2c0.7-1.1,1.4-1.9,2.3-2.4s1.9-0.8,3-0.8c1,0,1.8,0.2,2.4,0.6
		c0.7,0.4,1.2,1,1.6,1.8s0.6,1.7,0.6,2.8v7.1c0,0.5,0.1,0.9,0.4,1.1c0.2,0.2,0.6,0.3,1.2,0.3h1v1.2h-7.7v-1.2h0.7
		c0.7,0,1.2-0.1,1.4-0.3c0.3-0.2,0.4-0.5,0.4-1V726c0-1.4-0.2-2.4-0.6-3c-0.6-0.9-1.5-1.4-2.7-1.4s-2.2,0.5-2.9,1.4
		c-0.8,0.9-1.2,2.2-1.2,3.7v5.4c0,0.5,0.1,0.9,0.4,1.1c0.2,0.2,0.6,0.3,1.2,0.3h1v1.2h-7.8v-1.2h1c0.5,0,0.9-0.1,1.2-0.3
		c0.3-0.2,0.4-0.5,0.4-0.8V723c0-0.6-0.2-1.1-0.5-1.4c-0.3-0.3-0.8-0.5-1.5-0.5h-0.8v-1H389.8z"/>
	<path d="M420.5,730.4l1,0.3c-0.8,3-2.6,4.5-5.4,4.5c-2,0-3.7-0.7-5-2s-1.9-3.1-1.9-5.4c0-2.6,0.7-4.6,2.1-6s3.1-2.1,5-2.1
		c1.4,0,2.6,0.4,3.6,1.2c0.9,0.8,1.4,1.7,1.4,2.6c0,0.6-0.2,1.1-0.5,1.4c-0.3,0.4-0.8,0.6-1.2,0.6c-0.5,0-0.9-0.2-1.2-0.5
		c-0.3-0.3-0.5-0.7-0.5-1.2s0.2-0.9,0.5-1.3c0.2-0.2,0.2-0.4,0.2-0.5c0-0.3-0.2-0.6-0.6-0.9c-0.4-0.3-1-0.4-1.7-0.4
		c-1.3,0-2.2,0.5-2.9,1.4c-0.9,1.3-1.4,3.1-1.4,5.3c0,2.1,0.4,3.7,1.2,4.8c0.8,1.1,1.9,1.6,3.2,1.6
		C418.3,733.9,419.7,732.7,420.5,730.4z"/>
	<path d="M437.3,727.5h-10.5c0.1,2.2,0.5,3.8,1.2,4.7c0.9,1,2,1.5,3.4,1.5c2,0,3.7-1.2,4.9-3.5l1,0.4c-1.5,3-3.7,4.4-6.6,4.4
		c-2,0-3.6-0.7-4.9-2.1c-1.3-1.4-2-3.2-2-5.4c0-2.4,0.7-4.3,2-5.8s2.9-2.2,4.9-2.2c1.4,0,2.6,0.4,3.7,1.1c1,0.7,1.8,1.8,2.3,3.1
		C437.1,724.9,437.3,726.1,437.3,727.5z M426.8,726.4h6.3c0.4,0,0.7-0.1,0.9-0.4c0.2-0.3,0.3-0.7,0.3-1.3c0-1.1-0.4-2.1-1.1-2.9
		c-0.7-0.8-1.6-1.2-2.5-1.2c-1.1,0-2,0.5-2.8,1.5C427.2,723,426.8,724.5,426.8,726.4z"/>
	<path d="M455,733.1l0.6,0.9c-0.8,0.8-1.6,1.2-2.5,1.2c-0.7,0-1.3-0.2-1.8-0.6s-0.9-1.1-1.3-2c-1,1-1.9,1.7-2.6,2.1
		s-1.7,0.5-2.7,0.5c-1.5,0-2.6-0.3-3.4-1s-1.2-1.5-1.2-2.5c0-1.5,0.9-2.8,2.7-3.8c1.8-1,4.2-1.7,7.1-2v-2.2c0-0.8-0.3-1.5-1-2
		c-0.6-0.6-1.4-0.8-2.4-0.8c-0.9,0-1.7,0.2-2.3,0.6c-0.5,0.3-0.7,0.6-0.7,0.8s0.1,0.4,0.4,0.7c0.3,0.4,0.5,0.8,0.5,1.1
		c0,0.5-0.2,0.9-0.5,1.1c-0.3,0.3-0.7,0.4-1.2,0.4s-1-0.2-1.3-0.5c-0.3-0.4-0.5-0.8-0.5-1.4c0-1,0.6-2,1.7-2.8
		c1.2-0.9,2.7-1.3,4.6-1.3c1.7,0,3.1,0.4,4,1.1c0.9,0.8,1.4,1.7,1.4,2.8v8c0,0.7,0.1,1.2,0.3,1.6c0.2,0.3,0.5,0.5,0.9,0.5
		C454.1,733.6,454.6,733.5,455,733.1z M449.9,727c-2.6,0.4-4.5,1-5.6,1.8c-0.8,0.6-1.2,1.5-1.2,2.7c0,0.8,0.2,1.4,0.6,1.9
		s1,0.7,1.7,0.7c1.2,0,2.3-0.5,3.2-1.4c0.9-0.9,1.4-2.1,1.4-3.5V727H449.9z"/>
	<path d="M462.9,711.4v21.2c0,0.3,0.1,0.5,0.3,0.7c0.3,0.2,0.6,0.3,1,0.3h1.5v1.2h-8.3v-1.2h1.5c0.5,0,0.8-0.1,1.1-0.3
		c0.2-0.2,0.4-0.6,0.4-1v-17.8c0-0.5-0.1-0.9-0.4-1.1c-0.4-0.3-0.9-0.5-1.4-0.5h-1.3v-1.2L462.9,711.4z"/>
</g>
<g>
	<path class="st5" d="M265.5,571.6c0,0.7,0.2,1.2,0.7,1.7c0.3,0.3,1,0.6,1.9,0.9v7.1c-3.1-0.7-5.4-1.7-6.8-2.8
		c-1.5-1.3-2.3-3.1-2.3-5.6s0.9-4.6,2.7-6.3c1.6-1.5,3.7-2.3,6.3-2.5v5.2C266.4,569.4,265.5,570.2,265.5,571.6z"/>
	<path class="st5" d="M280.5,583.4c0,2.5-1,4.7-2.9,6.6c-1.6,1.5-3.8,2.4-6.6,2.7v-5.3c0.7-0.1,1.3-0.4,1.8-0.7
		c0.7-0.6,1.1-1.3,1.1-2.1s-0.3-1.5-1-1.9c-0.4-0.3-1-0.5-1.9-0.8v-7.1c2.1,0.5,3.7,1,4.8,1.4c1.3,0.6,2.4,1.5,3.3,2.8
		C280,580.4,280.5,581.8,280.5,583.4z"/>
	<path class="st5" d="M279.7,570.5l-5.6,1.9c-0.6-1.7-1.6-2.7-3.2-3.1V564C275.4,564.4,278.3,566.6,279.7,570.5z"/>
	<path class="st5" d="M268.1,587.4v5.3c-2.5-0.1-4.7-0.8-6.5-1.9c-2-1.3-3.3-3.2-4-5.8l6.1-1.4C264.3,585.8,265.7,587.1,268.1,587.4
		z"/>
	<path class="st5" d="M307.4,574.8l-6.9,0.4c-0.1-3.5-1.3-5.4-3.6-5.8V564C303,564.2,306.6,567.8,307.4,574.8z"/>
	<path class="st5" d="M307.4,582.5c-0.4,3.3-1.7,5.9-3.8,7.6c-1.9,1.6-4.1,2.4-6.8,2.6v-5.4c2.2-0.3,3.6-2.1,4.2-5.2L307.4,582.5z"
		/>
	<path class="st5" d="M290.7,578.4c0,3.5,0.5,5.9,1.4,7.1c0.5,0.7,1.1,1.2,1.8,1.5v5.6c-2.8-0.4-5.1-1.6-7-3.7
		c-2.3-2.6-3.5-6.1-3.5-10.6c0-4.2,1.1-7.7,3.4-10.4c1.8-2.2,4.2-3.5,7.1-3.9v5.6C291.8,570.7,290.7,573.6,290.7,578.4z"/>
	<path class="st5" d="M333.7,578.3c0,4.1-1,7.5-3.1,10.3c-1.8,2.4-4.2,3.8-7.4,4.1v-5.5c2.4-0.8,3.6-3.7,3.6-8.8
		c0-5.2-1.2-8.1-3.6-8.9V564c3.2,0.3,5.8,1.7,7.5,4.3C332.7,571.2,333.7,574.5,333.7,578.3z"/>
	<path class="st5" d="M316.7,578.3c0,5.1,1.2,8,3.6,8.8v5.5c-3.1-0.3-5.6-1.7-7.4-4.2c-2.1-2.8-3.1-6.3-3.1-10.3
		c0-4.1,1-7.5,3.1-10.2c1.8-2.3,4.2-3.7,7.4-4v5.5C317.9,570.3,316.7,573.3,316.7,578.3z"/>
	<path class="st5" d="M360,564.3v17.4c0,2.8-0.3,4.9-1,6.3c-0.6,1.4-1.8,2.5-3.6,3.4c-1.2,0.6-2.7,1-4.4,1.2v-5.4
		c0.5-0.1,1-0.3,1.4-0.5c0.8-0.4,1.3-1,1.5-1.6c0.3-0.7,0.4-1.8,0.4-3.4v-17.4H360z"/>
	<path class="st5" d="M348.2,587.3v5.5c-2.4-0.1-4.3-0.5-5.8-1.2c-1.6-0.8-2.8-1.9-3.6-3.4c-0.8-1.5-1.2-3.6-1.2-6.4v-17.4h7.1v17.4
		c0,1.5,0.1,2.6,0.4,3.3s0.8,1.3,1.5,1.7C347.2,587,347.7,587.2,348.2,587.3z"/>
	<path class="st5" d="M362.4,564.3v5.5h7v22.5h6.7v-22.5h6.9v-5.5H362.4z"/>
</g>
<circle class="st6" cx="124.4" cy="578.5" r="36"/>
<g>
	<path class="st5" d="M121.4,98c1.4-2.3,3.3-3.8,5.7-4.7v7.2c-1.1,0.3-2,0.9-3,1.8c-1.5,1.4-2.2,3.2-2.2,5.5c0,2.1,0.7,3.9,2,5.3
		c0.9,0.9,1.9,1.6,3.1,1.9v8.2c-3.7-0.4-6.8-1.7-9.2-3.8c-3-2.7-5-5.8-6.1-9.5c-1.1-3.6-1.6-7.2-1.6-10.6c0-7.4,1.7-13.4,5-18.2
		c2.8-4,6.8-6.4,11.9-7v8.4C123.3,84,121.4,89.2,121.4,98z"/>
	<path class="st5" d="M147.4,107.2c0,4.2-1.6,8-4.7,11.2c-2.9,3-6.8,4.7-11.5,4.9V115c1.2-0.3,2.2-0.9,3.1-1.8c1.4-1.4,2-3.3,2-5.8
		c0-2.2-0.7-4-2.2-5.3c-0.9-0.8-1.9-1.4-3-1.7v-8c0.3,0,0.7,0,1,0c4.5,0,8.1,1.5,11,4.4C146,99.8,147.4,103.2,147.4,107.2z"/>
	<path class="st5" d="M146.7,86.7l-9.7,2.6c-0.8-4.3-2.8-6.8-5.9-7.3v-8.1c4.2,0.2,7.6,1.4,10.2,3.7C144.2,80.1,146,83.1,146.7,86.7
		z"/>
</g>
<g>
	<path class="st2" d="M140.3,573.8l-9.2,0.6c-0.1-5.3-2.2-7.9-6.2-7.9c-4.6,0-6.9,4.1-6.9,12.2c0,4.7,0.6,7.9,1.9,9.5
		c1.2,1.7,3,2.5,5.2,2.5c3.6,0,5.8-2.3,6.6-7.1l8.5,0.5c-0.6,4.5-2.2,7.9-5,10.2s-6.2,3.5-10.2,3.5c-4.9,0-9-1.7-12.1-5.1
		s-4.6-8.1-4.6-14.1c0-5.6,1.5-10.2,4.5-13.8s7.1-5.4,12.3-5.4C134.1,559.3,139.2,564.1,140.3,573.8z"/>
</g>
<path class="st2" d="M473,387.6c-0.1-3.1-0.8-5.9-2-8.8c-1.4-3.1-2-6.5-4.2-9.3c-0.2-0.2-0.3-0.5-0.5-0.7c-2.4-1.7-2.3-3.9-1.6-6.4
	c0.6-2.2-0.6-4.7-2.8-6.3c-1.6-1.2-3.4-1.4-5.3-1c-2.4,0.5-4.6,0.4-6.7-1.1c-0.3-0.2-0.6-0.6-0.6-1c-0.2-1.5-0.2-2.9-0.4-4.4
	c-0.1-0.5-0.4-1.3-0.9-1.5c-3-1.7-6-3.3-9-5c-0.5-0.3-1.1-0.3-1.6-0.3c-2.8,0.1-4-2.4-5.8-3.7c-3.3-2.5-6.3-5.5-9.8-7.8
	c-3.1-2.1-6.6-3.5-9.9-5.3c-1.3-0.7-2.4-1.7-3.6-2.5c-0.4-0.3-0.8-0.8-1.2-0.8c-2.6-0.3-2.4-2.5-2.9-4.2c-0.9-3.3-1.4-6.8-3.6-9.7
	c-2-2.5-4.2-4.5-7-6.1c-1.3-0.7-2.5-1.4-4-2.2c2-3.1-0.6-4.6-2-6.6c-1.6-2.4-3.2-4.7-5-7c-1.5-2-3.2-3.9-4.7-5.8
	c-0.3-0.4-0.9-0.9-0.9-1.4c0.1-2.8,0.2-5.7,0.7-8.4c0.9-5,2.3-10,3-15c0.5-4.1,0.4-8.3,0.4-12.5c0-1.4-0.2-2.7-0.3-4.1
	c-0.1-2.6-0.1-5,1.8-7.1s0.8-4.8,0.9-7.2c0-0.4-0.2-0.8-0.2-1.2c-0.5-5.2-0.9-10.3-1.4-15.5c0-0.4-0.3-0.7-0.3-1.1
	c-0.2-1.5-1.5-3.1-0.1-4.6c0.1-0.1,0-0.4-0.1-0.6c-0.9-2.6-1.5-5.3-3.5-7.4c-0.6-0.6-0.9-1.4-1.2-2.2c-1.3-3.5-3.8-6-6.9-7.9
	c-4.9-2.9-9.8-5.8-14.9-8.3c-4.9-2.4-10-4.2-15.6-4.4c-3.8-0.1-7.5-0.8-11.3-1.3c-0.7-0.1-1.5-0.3-2.2-0.4H312
	c-3.1,0.8-6.2,1.6-9.3,2.4c-1.7,0.4-3.3,1-5,1.5c-5.1,1.6-9,4.9-12.3,8.9c-3.2,3.8-4.8,8.5-5,13.5c-0.2,4.6-0.2,9.3-0.4,13.9
	c-0.2,4.8-2.2,8.7-6.8,10.8c-4.5,2.1-9,4.3-13.6,6.3c-1.3,0.6-2.9,0.5-4.3,0.9c-1.1,0.3-2.2,0.7-3.3,1c-1.5,0.4-3,0.8-4.5,1.1
	c-5.3,1-10.6,1.9-15.1,5.2c-1.9,1.4-4.4,2.5-5.8,4.3c-2.9,3.7-6.8,6.1-10.4,8.8c-4,2.9-6.2,6.9-6.6,11.8c-0.1,1.1-0.2,2.1-0.5,3.2
	c-0.3,1.2-1,2.2-1.9,3.1c-2.5,2.6-4.7,5.5-7.2,8.1c-2.2,2.3-4.6,4.5-7,6.7c-1.8,1.7-3.7,3.4-5.6,4.9c-0.5,0.4-1.4,0.6-2.1,0.6
	c-2.2,0.2-4.4,0-6.5,0.4c-3.2,0.6-6.4,1.5-9.6,2.5c-5.1,1.6-9.9,3.8-14.6,6.5c-8.9,5.2-13.7,13.3-17.1,22.5
	c-1.2,3.1-1.3,6.6-1.8,9.9c-0.5,3.2-0.3,6.6-1.8,9.6c-0.5,0.9-1.1,1.8-1.8,2.6c-1.9,2.1-4.3,3.8-5.5,6.2c-1.4,2.7-1.9,5.9-2.6,9
	c-0.7,3.3-1.2,6.7-1.8,10.1c-0.5,2.9-0.9,5.9-1.3,8.8c-0.1,0.4-0.2,0.7-0.3,1v8.3c0.3,1.3,0.6,2.7,0.8,4c0.7,4.8,3.8,8.4,6.4,12.2
	c2.3,3.3,5,6.4,7.7,9.5c4.1,4.8,9,8.7,14.1,12.3c1.8,1.2,3.9,1.9,5.9,2.8c3.2,1.5,6.5,3,9.7,4.7c4.8,2.5,9.5,5,14.2,7.7
	c5.6,3.2,11.1,6.5,16.7,9.7c2.4,1.4,4.8,2.7,7.2,3.9c3.1,1.5,6.2,1.2,9-0.9c1.4-1,3-1.7,4.5-2.6c1.6-1,3.1-0.8,4.6,0
	c1.9,0.9,3.9,1.7,5.7,2.8c3,1.9,4.8,4.7,5,8.2c0.4,4.5,0.3,9.1,0.4,13.7c0,1.7-0.1,3.4-0.1,5.1c0,0.5-0.3,1,0,1.5
	c0.2-0.4,0.4-0.7,0.6-1.1c0.3,0.3,0.7,0.5,0.9,0.8c0.6,0.9,1.2,1.8,1.8,2.8c-0.6,0.4-1,0.7-1.5,1c0,0.1,0,0.2,0.1,0.3h156.6
	c0.3-1.8,0.5-3.7,1.1-5.5c0-0.1,0.1-0.5,0.2-0.7c0-2.8,0-5.6,0-8.4c0.1-2.9,0.3-5.8,0.5-9c1.4,0.6,2.8,1.1,4.1,1.8
	c3,1.6,5.7,3.9,9.2,4.3c1.1,0.1,2,0.5,2.8,1c2,0.8,3.7,2,6.2,2.4c3.2,0.5,6.5,0.6,9.8,0.6c4.9,0,9.2-1,13.5-2.4
	c0.7-0.6,1.3-1.1,2-1.7c3.5-3.1,6.6-6.5,10-9.7c0.5-0.5,1.5-0.6,2.3-0.7c0.7-0.1,1.4-0.1,2.1,0c3.5,0.7,5.8-1.3,8.1-3.4
	c0.6-0.5,1.2-1.1,1.7-1.7c0.9-1,1.9-1.7,1.8-3.6c-0.1-2.5,0.2-5-0.4-7.5c-0.3-1.4,1.1-1.5,2-1.7c1-0.1,1.3-0.5,1.4-1.5
	c0.5-5.7,1-11.5,1.7-17.2C472.2,407.9,473.4,397.8,473,387.6z M262.2,256.2c0.7-3,2.2-5.8,4.6-7.6c1.6-1.2,3.9-1.3,5.8-1.9
	c1.6-0.1,2.7,0.8,3.8,1.7c2.5,1.9,4.6,4.1,5.8,6.9c0.7,1.5,1.2,3.1,1.5,4.7c0.5,3,0.4,5.8-0.6,8.8c-1.1,3.4-3.4,4.9-6.5,5.6
	c-4.4,1-8.3,0.3-11.6-3.3c-2.1-2.3-3.7-4.8-3.6-8C261.5,260.9,261.7,258.5,262.2,256.2z M217.2,257.5c0.4-1.6,1.4-3.1,2.3-4.5
	c1.2-2.1,3.3-2.5,5.5-2.5c0.4,0,0.8,0.1,1.2,0c3-1.1,4.3,1,6,2.8c2.7,3,4.1,6.5,4.5,10.5c0.4,4.1-0.2,8.3-3.1,11.4
	c-1.1,1.1-3.2,1.4-4.9,1.7c-1.6,0.2-3.3,0.5-4.7-0.8c-0.5-0.4-0.9-0.8-1.3-1.3c-0.6-0.8-1-1.8-1.6-2.6c-2.3-3.2-3.9-6.7-3.6-10.8
	C217.4,260.2,216.9,258.7,217.2,257.5z M290.9,308.3c-1.1,0.6-1.9,1.7-2.6,2.8c-0.9,1.3-1.5,2.7-2.3,4c-0.2,0.4-0.6,0.8-1,0.9
	c-3,1.1-6.1,2.2-9.1,3.2c-2.2,0.7-4.1,0.1-6.2-1c-1.2-0.6-3.2-0.2-4.7,0.1c-4.4,0.7-7.1,3.9-10,6.9c-1.8,1.8-3.5,3.6-6.4,3.4
	c-1-0.1-2,0.5-3,0.9c-1.8,0.7-3.6,1.4-5.1,2.5c-2.1,1.6-4.3,1.5-6.7,1.2c-1.4-0.2-2.9,0.3-4.4,0.5s-3,0.4-4.6,0.4
	c-2.1,0-3.6,0.9-5.2,1.9c-0.4,0.3-1,0.3-1.4,0.5L218,336c1.3-2.5,2.5-5,4-7.4c1.8-3.1,3.3-6.2,2.9-9.9c-0.2-1.5,0.4-2.5,1.5-3.6
	c1.8-1.7,3.4-3.6,5.1-5.4c1.9-2.1,3.8-4.2,5.7-6.3c2.6-2.9,5.3-5.8,7.7-8.8c1.4-1.8,2.2-4.1,4.2-5.5c2.7-1.8,5.5-3.7,8.1-5.6
	c1.1-0.8,2.1-1.7,3.1-2.6c2-1.8,4.2-1.8,6.6-1c3.8,1.3,7.5,1,11.2-0.3c2.1-0.8,4.1,0.2,4.9,2.2c0.6,1.8,1.4,3.5,2.1,5.3
	c2.4,5.9,4.8,11.9,7.2,17.8C292.7,306.4,292.5,307.4,290.9,308.3z"/>
<path class="st2" d="M390.9,482.1c0.3-1.8,0.5-3.7,1.1-5.6c0.1-0.2,0.1-0.6,0.2-0.8c-5.6-8.7-39-15.3-79.3-15.3
	c-44.2,0-80.1,8-80.1,17.9s35.9,17.9,80.1,17.9c37.7,0,69.3-5.8,77.8-13.6c0-0.1,0.1-0.1,0.1-0.2
	C390.8,482.2,390.8,482.2,390.9,482.1z"/>
<ellipse class="st1" cx="273.3" cy="261.5" rx="11.8" ry="14.8"/>
<ellipse transform="matrix(0.9903 -0.1387 0.1387 0.9903 -34.25 34.2146)" class="st1" cx="228.4" cy="262.8" rx="11.8" ry="14.8"/>
</svg>
