<?xml version="1.0" encoding="utf-8"?>
<!-- Generator: Adobe Illustrator 25.2.1, SVG Export Plug-In . SVG Version: 6.00 Build 0)  -->
<svg version="1.1" id="Layer_1" xmlns="http://www.w3.org/2000/svg" xmlns:xlink="http://www.w3.org/1999/xlink" x="0px" y="0px"
	 viewBox="0 0 595.28 841.89" style="enable-background:new 0 0 595.28 841.89;" xml:space="preserve">
<style type="text/css">
	.st0{fill:#C6C6C6;}
	.st1{fill:#FFFCF1;}
	.st2{fill:#4AA974;}
	.st3{fill:#FFFFFF;}
	.st4{fill:none;}
	.st5{fill:#3C3C3B;}
</style>
<g>
	<rect x="275.64" y="581.29" class="st0" width="4.25" height="7.19"/>
	<path class="st1" d="M513.76,781.67H80.77c-21.07,0-38.14-17.08-38.14-38.14V98.16c0-21.07,17.08-38.14,38.14-38.14h432.99
		c21.07,0,38.14,17.08,38.14,38.14v645.36C551.91,764.59,534.83,781.67,513.76,781.67z"/>
	<rect x="42.63" y="550.95" class="st2" width="509.28" height="54.64"/>
	<polygon class="st2" points="171.41,60.02 171.41,125.62 128.45,153.17 85.5,125.63 85.5,60.02 	"/>
	<polygon class="st0" points="85.8,125.27 86.36,125.27 86.36,125.63 	"/>
	<g>
		<path class="st3" d="M122.26,109.96c0.99,3.38,3.11,5.06,6.38,5.06c2.21,0,4.11-0.9,5.69-2.71c1.58-1.8,2.42-6.01,2.52-12.62
			c-2.74,3.3-6.32,4.96-10.72,4.96c-4.27,0-7.8-1.36-10.6-4.08c-2.8-2.72-4.2-6.26-4.2-10.62c0-4.76,1.59-8.61,4.76-11.57
			c3.18-2.95,7.46-4.43,12.85-4.43c3.87,0,7.24,0.88,10.11,2.64s5.07,4.56,6.61,8.42c1.53,3.86,2.3,8.19,2.3,12.99
			c0,7.2-1.65,13.23-4.96,18.11c-3.3,4.88-8.25,7.31-14.84,7.31c-8.46,0-13.71-3.89-15.75-11.67L122.26,109.96z M129.15,81.94
			c-2.09,0-3.8,0.74-5.15,2.23c-1.35,1.49-2.02,3.18-2.02,5.08c0,1.92,0.64,3.61,1.92,5.06s2.98,2.18,5.12,2.18
			c2.13,0,3.88-0.75,5.24-2.25s2.04-3.19,2.04-5.06c0-1.9-0.67-3.58-2.02-5.04C132.91,82.68,131.21,81.94,129.15,81.94z"/>
	</g>
	<rect x="126.18" y="108.6" class="st2" width="4.56" height="24.14"/>
	<rect x="231.41" y="560.74" class="st4" width="153.48" height="33.1"/>
	<g>
		<polygon class="st3" points="107.16,567.17 107.16,574.94 110.65,574.94 110.65,580.27 107.39,580.27 107.39,591.16 
			100.41,591.16 100.41,561.84 110.65,561.84 110.65,567.17 		"/>
		<path class="st3" d="M123.16,570.84c0,1.45-0.28,2.86-0.86,4.23c-0.57,1.38-1.38,2.46-2.42,3.25c-1.05,0.78-2.06,1.31-3.04,1.56
			c-0.91,0.24-2.26,0.37-4.09,0.38v-5.38c1.12-0.15,1.94-0.52,2.46-1.12c0.69-0.79,1.03-1.69,1.03-2.71c0-1.18-0.38-2.13-1.15-2.83
			c-0.56-0.52-1.34-0.84-2.34-0.97v-5.4c2.2,0.05,3.91,0.32,5.14,0.81c1.37,0.56,2.59,1.54,3.66,2.96
			C122.63,567.04,123.16,568.78,123.16,570.84z"/>
		<polygon class="st3" points="133.93,561.84 133.93,579.71 133.9,579.71 133.9,591.16 126.97,591.16 126.97,561.84 		"/>
		<rect x="136" y="585.36" class="st3" width="9.59" height="5.8"/>
		<path class="st3" d="M163.53,561.84h-7.96l-9.4,29.32h6.03l1.83-6.03h9.49l1.8,6.03h7.39L163.53,561.84z M155.68,579.71
			l3.14-10.29l3.08,10.29H155.68z"/>
		<polygon class="st3" points="192.21,561.84 192.21,567.64 188.52,567.64 188.52,567.6 174.38,567.6 174.38,567.64 170.69,567.64 
			170.69,561.84 		"/>
		<rect x="177.99" y="569.7" class="st3" width="6.96" height="21.46"/>
		<path class="st3" d="M200.96,576.49c0,5.65,1.42,8.78,4.27,9.39v5.7c-3.5-0.22-6.24-1.69-8.23-4.41
			c-2.16-2.97-3.24-6.56-3.24-10.77c0-4.28,1.09-7.85,3.28-10.72c1.97-2.58,4.7-3.99,8.19-4.24v5.68
			C202.38,567.73,200.96,570.86,200.96,576.49z"/>
		<path class="st3" d="M218.79,576.47c0,4.25-1.07,7.84-3.22,10.76c-1.94,2.64-4.69,4.09-8.25,4.33v-5.65
			c2.85-0.54,4.27-3.68,4.27-9.4c0-5.73-1.42-8.88-4.27-9.42v-5.67c3.64,0.21,6.42,1.73,8.35,4.55
			C217.75,569.03,218.79,572.53,218.79,576.47z"/>
		<path class="st3" d="M246.91,576.47c0,4.25-1.07,7.84-3.22,10.76c-1.94,2.64-4.69,4.09-8.25,4.33v-5.65
			c2.85-0.54,4.28-3.68,4.28-9.4c0-5.73-1.43-8.87-4.28-9.42v-5.67c3.64,0.21,6.43,1.73,8.35,4.55
			C245.87,569.03,246.91,572.53,246.91,576.47z"/>
		<path class="st3" d="M229.08,576.49c0,5.65,1.42,8.78,4.27,9.39v5.7c-3.5-0.22-6.24-1.69-8.23-4.41
			c-2.16-2.97-3.24-6.56-3.24-10.77c0-4.28,1.1-7.85,3.29-10.72c1.97-2.58,4.7-3.99,8.18-4.24v5.68
			C230.5,567.73,229.08,570.86,229.08,576.49z"/>
		<path class="st3" d="M268.65,561.84v15.34c0,0.44,0.05,1.09,0.13,1.95l-9.97-17.29h-7.41v29.32h5.35v-17.55
			c0-0.34-0.03-0.76-0.08-1.27c-0.02-0.15-0.03-0.48-0.05-0.98l11.48,19.8h5.86v-29.32L268.65,561.84L268.65,561.84z"/>
		<path class="st3" d="M311.11,568.28l-5.85,1.96c-0.71-2.1-2.14-3.25-4.3-3.45v-5.37C306.17,561.66,309.55,563.95,311.11,568.28z"
			/>
		<path class="st3" d="M311.9,581.84c0,2.65-1.02,4.94-3.06,6.88c-1.83,1.73-4.46,2.68-7.88,2.86v-5.46c1.22-0.09,2.15-0.39,2.8-0.9
			c0.77-0.61,1.16-1.33,1.16-2.18c0-0.86-0.35-1.52-1.05-2c-0.56-0.37-1.53-0.73-2.91-1.07v-7.4c2.7,0.57,4.71,1.13,6.01,1.71
			c1.38,0.62,2.55,1.61,3.51,2.98C311.43,578.62,311.9,580.15,311.9,581.84z"/>
		<path class="st3" d="M298.87,586.05v5.54c-2.62-0.13-4.87-0.8-6.77-2.03c-2.11-1.36-3.5-3.39-4.17-6.09l6.36-1.44
			C294.89,584.36,296.42,585.7,298.87,586.05z"/>
		<path class="st3" d="M296.2,569.4c0,0.7,0.25,1.3,0.76,1.78c0.35,0.33,0.98,0.63,1.91,0.9v7.42c-3.24-0.74-5.59-1.74-7.04-2.96
			c-1.58-1.34-2.38-3.3-2.38-5.87c0-2.61,0.95-4.81,2.85-6.6c1.66-1.58,3.85-2.45,6.57-2.64v5.42
			C297.09,567.12,296.2,567.97,296.2,569.4z"/>
		<rect x="325.49" y="561.84" class="st3" width="11.85" height="5.58"/>
		<polygon class="st3" points="323.38,567.42 323.38,573.44 323.39,573.44 323.39,578.96 323.38,578.96 323.38,585.36 
			323.39,585.36 323.39,591.16 316.39,591.16 316.39,561.84 323.39,561.84 323.39,567.42 		"/>
		<rect x="325.49" y="573.44" class="st3" width="8.86" height="5.52"/>
		<rect x="325.49" y="585.36" class="st3" width="11.85" height="5.8"/>
		<rect x="341.47" y="561.84" class="st3" width="6.91" height="29.32"/>
		<path class="st3" d="M365.4,591.16h-7.59l-4.51-11.62h-2.82v-5.01h2.11c1.38,0,2.38-0.09,3-0.29c0.62-0.19,1.18-0.62,1.67-1.28
			c0.48-0.67,0.73-1.43,0.73-2.29c0-0.82-0.25-1.55-0.73-2.19c-0.49-0.65-1.02-1.05-1.59-1.2c-0.58-0.15-1.65-0.22-3.23-0.22h-1.96
			v-5.22h3.88c2.37,0,4.28,0.27,5.72,0.82c1.44,0.56,2.63,1.57,3.58,3.04c0.94,1.48,1.42,3.12,1.42,4.92c0,3.52-1.7,6.05-5.1,7.58
			L365.4,591.16z"/>
		<path class="st3" d="M392.64,571.46l-6.53,0.86c-0.53-3.55-2.21-5.33-5.05-5.33c-0.41,0-0.8,0.04-1.17,0.13v-5.68
			c0.38-0.04,0.77-0.05,1.17-0.05c3.27,0,5.9,0.91,7.91,2.75C390.97,565.97,392.2,568.41,392.64,571.46z"/>
		<path class="st3" d="M392.64,575.48v15.68h-3.14c-0.22-1.1-0.55-2.22-0.97-3.37c-2.1,2.55-4.76,3.82-8,3.82
			c-0.22,0-0.43,0-0.64-0.02v-5.77c0.46,0.13,0.95,0.19,1.47,0.19c1.23,0,2.33-0.4,3.3-1.21c0.97-0.8,1.45-2.08,1.45-3.84h-5.52
			v-5.48L392.64,575.48L392.64,575.48z"/>
		<path class="st3" d="M376.84,569.52c-0.95,1.68-1.43,4.08-1.43,7.21c0,3,0.52,5.3,1.55,6.89c0.25,0.39,0.53,0.73,0.83,1.02v6.71
			c-2.54-0.52-4.6-1.79-6.19-3.84c-2.13-2.73-3.19-6.27-3.19-10.61c0-4.67,1.13-8.42,3.4-11.26c1.59-1.99,3.59-3.28,5.98-3.87v6.51
			C377.43,568.61,377.12,569.03,376.84,569.52z"/>
		<polygon class="st3" points="405.04,567.42 405.04,573.44 405.08,573.44 405.08,578.96 405.04,578.96 405.04,585.36 
			405.08,585.36 405.08,591.16 398.05,591.16 398.05,561.84 405.08,561.84 405.08,567.42 		"/>
		<rect x="407.17" y="573.44" class="st3" width="8.85" height="5.52"/>
		<rect x="407.17" y="561.84" class="st3" width="11.83" height="5.58"/>
		<rect x="407.17" y="585.36" class="st3" width="11.83" height="5.8"/>
		<path class="st3" d="M437.54,561.84h-7.96l-9.4,29.32h6.03l1.84-6.03h9.48l1.8,6.03h7.39L437.54,561.84z M429.69,579.71
			l3.14-10.29l3.08,10.29H429.69z"/>
		<path class="st3" d="M467.13,561.84v15.34c0,0.44,0.04,1.09,0.13,1.95l-9.98-17.29h-7.4v29.32h5.34v-17.55
			c0-0.34-0.02-0.76-0.08-1.27c-0.02-0.15-0.03-0.48-0.04-0.98l11.47,19.8h5.86v-29.32L467.13,561.84L467.13,561.84z"/>
		<polygon class="st3" points="496.9,561.84 496.9,567.64 489.64,567.64 489.64,567.65 482.68,567.65 482.68,567.64 475.38,567.64 
			475.38,561.84 		"/>
		<rect x="482.68" y="569.75" class="st3" width="6.96" height="21.41"/>
	</g>
	<polygon class="st4" points="464.15,446.63 459.8,446.63 459.8,446.63 	"/>
	<path class="st3" d="M269.98,285.42c-0.1,7.27-4.89,12.68-11.15,12.59c-6.12-0.09-10.99-5.88-10.88-12.93
		c0.12-7.05,5.18-12.74,11.22-12.62C265.4,272.6,270.08,278.21,269.98,285.42z"/>
	<rect x="169.05" y="680.89" class="st2" width="256.43" height="7.15"/>
	<g>
		<path d="M213.21,637.33h12.05c2.36,0,4.17,0.52,5.43,1.56c1.25,1.04,1.88,2.35,1.88,3.92c0,1.31-0.44,2.42-1.31,3.34
			c-0.88,0.92-2.19,1.64-3.95,2.17c2.18,0.46,3.81,1.18,4.9,2.17s1.63,2.23,1.63,3.73c0,1.15-0.31,2.16-0.93,3.05
			s-1.65,1.64-3.09,2.25c-1.44,0.62-3.08,0.92-4.91,0.92h-11.69v-1.17h1.91c0.57,0,0.99-0.09,1.26-0.28s0.4-0.4,0.4-0.64v-18.52
			c0-0.44-0.13-0.77-0.39-0.99s-0.64-0.34-1.14-0.34h-2.03v-1.17H213.21z M220.12,647.93h4.38c1.34,0,2.41-0.39,3.21-1.19
			c0.8-0.79,1.2-2.08,1.2-3.88c0-1.11-0.19-1.98-0.57-2.6s-0.93-1.08-1.66-1.37c-0.72-0.29-1.98-0.43-3.76-0.43
			c-1.26,0-2.04,0.09-2.34,0.27s-0.45,0.5-0.45,0.96v8.24H220.12z M220.12,649.11v8.91c0,0.42,0.12,0.73,0.37,0.94
			c0.24,0.21,0.68,0.31,1.32,0.31h2.8c1.85,0,3.22-0.41,4.11-1.23c0.88-0.82,1.33-2.09,1.33-3.82c0-1.58-0.46-2.83-1.38-3.74
			s-2.18-1.37-3.8-1.37H220.12z"/>
		<path d="M242.76,645.36c1.97,0,3.62,0.71,4.96,2.13c1.34,1.42,2.01,3.29,2.01,5.62c0,1.6-0.3,2.97-0.9,4.1
			c-0.6,1.13-1.45,2.02-2.56,2.68s-2.3,0.98-3.59,0.98c-1.9,0-3.5-0.72-4.82-2.16s-1.98-3.3-1.98-5.59c0-2.3,0.66-4.17,1.98-5.61
			C239.19,646.08,240.82,645.36,242.76,645.36z M242.76,646.47c-1.17,0-2.13,0.53-2.88,1.59s-1.13,2.73-1.13,5.01
			c0,2.32,0.37,4.02,1.12,5.09c0.74,1.07,1.71,1.61,2.88,1.61c1.22,0,2.21-0.54,2.96-1.61s1.13-2.83,1.13-5.27
			c0-2.26-0.37-3.9-1.12-4.91C244.99,646.97,244,646.47,242.76,646.47z"/>
		<path d="M257.39,637.06v21.22c0,0.29,0.09,0.52,0.27,0.67c0.26,0.21,0.58,0.31,0.95,0.31h1.55v1.17h-8.3v-1.17h1.47
			c0.48,0,0.84-0.11,1.07-0.34c0.23-0.23,0.35-0.55,0.35-0.97v-17.81c0-0.52-0.14-0.9-0.42-1.14c-0.39-0.33-0.86-0.5-1.42-0.5h-1.31
			v-1.17L257.39,637.06z"/>
		<path d="M263.7,654.92c0.65,1.8,1.39,3.05,2.23,3.74s1.87,1.04,3.1,1.04c1.13,0,2.01-0.25,2.62-0.74s0.91-1.12,0.91-1.88
			c0-0.44-0.11-0.82-0.34-1.15c-0.22-0.33-0.53-0.57-0.93-0.73s-1.43-0.4-3.08-0.71c-1.59-0.31-2.69-0.64-3.32-0.98
			c-0.63-0.34-1.11-0.82-1.46-1.42s-0.52-1.26-0.52-1.97c0-1.07,0.36-2.05,1.08-2.92c0.93-1.11,2.23-1.67,3.9-1.67
			c1.27,0,2.45,0.4,3.54,1.2l1.03-1.09h0.64l0.41,5.22h-1.05c-0.46-1.48-1.08-2.54-1.86-3.2c-0.78-0.65-1.75-0.98-2.9-0.98
			c-0.99,0-1.77,0.24-2.33,0.73c-0.56,0.48-0.85,1.08-0.85,1.77c0,0.62,0.26,1.13,0.78,1.53c0.51,0.42,1.51,0.75,3,0.99
			c1.73,0.29,2.86,0.54,3.38,0.74c0.86,0.31,1.52,0.79,1.99,1.44s0.7,1.44,0.7,2.38c0,1.29-0.51,2.38-1.53,3.28
			s-2.31,1.34-3.87,1.34c-1.45,0-2.8-0.48-4.04-1.44l-1.14,1.31h-0.83l-0.31-5.83L263.7,654.92L263.7,654.92z"/>
		<path d="M280.61,639.83h1.05v5.97h4.73v1.44h-4.73v9.39c0,0.81,0.19,1.44,0.58,1.87c0.38,0.43,0.88,0.65,1.47,0.65
			c0.71,0,1.31-0.33,1.81-0.98s0.79-1.74,0.88-3.25h1.05c-0.06,1.95-0.51,3.39-1.33,4.34c-0.82,0.94-1.89,1.41-3.2,1.41
			c-1.21,0-2.15-0.33-2.84-0.99c-0.68-0.66-1.02-1.53-1.02-2.6v-9.83h-2.55v-1.09c1.16-0.2,2.04-0.68,2.65-1.45
			C280.05,643.53,280.53,641.91,280.61,639.83z"/>
		<path d="M302.93,653.22h-10.48c0.05,2.23,0.47,3.8,1.25,4.72c0.9,1.03,2.04,1.55,3.42,1.55c2.04,0,3.68-1.16,4.92-3.48l1.02,0.44
			c-1.52,2.96-3.72,4.44-6.59,4.44c-1.96,0-3.61-0.71-4.95-2.13c-1.34-1.42-2.01-3.23-2.01-5.44c0-2.38,0.66-4.29,1.98-5.76
			c1.32-1.46,2.94-2.2,4.87-2.2c1.42,0,2.64,0.37,3.67,1.09c1.03,0.73,1.81,1.78,2.33,3.14
			C302.72,650.55,302.91,651.76,302.93,653.22z M292.45,652.11h6.34c0.38,0,0.67-0.13,0.88-0.38s0.31-0.69,0.31-1.3
			c0-1.15-0.36-2.12-1.07-2.92c-0.71-0.8-1.55-1.2-2.52-1.2c-1.08,0-2,0.48-2.76,1.45C292.87,648.72,292.48,650.17,292.45,652.11z"
			/>
		<path d="M304.96,645.79l5.27-0.27v5.92c0.56-1.95,1.24-3.42,2.03-4.42s1.77-1.5,2.94-1.5c0.79,0,1.42,0.24,1.9,0.73
			c0.47,0.48,0.71,1.13,0.71,1.95c0,0.66-0.16,1.17-0.48,1.53c-0.32,0.37-0.72,0.55-1.2,0.55c-0.47,0-0.85-0.16-1.13-0.47
			c-0.29-0.31-0.43-0.73-0.43-1.27c0-0.34,0.08-0.67,0.25-0.97c0.16-0.27,0.23-0.43,0.23-0.48c0-0.16-0.1-0.23-0.3-0.23
			c-0.43,0-0.91,0.25-1.45,0.75c-0.75,0.7-1.33,1.66-1.73,2.88c-0.63,1.9-0.94,3.41-0.94,4.55v3.14c0,0.35,0.13,0.63,0.38,0.81
			s0.68,0.28,1.28,0.28h1.86v1.17h-9.09v-1.17h1.45c0.49,0,0.86-0.1,1.11-0.29s0.38-0.42,0.38-0.7v-9.33c0-0.71-0.15-1.23-0.45-1.55
			c-0.3-0.33-0.73-0.49-1.3-0.49h-1.28L304.96,645.79L304.96,645.79z"/>
	</g>
	<circle class="st5" cx="359.41" cy="648.79" r="21.91"/>
	<g>
		<path class="st3" d="M355.61,645.58h2.67c1.52,0,2.55-0.32,3.1-0.95c0.54-0.63,0.82-1.3,0.82-2.02c0-0.8-0.3-1.52-0.9-2.14
			s-1.44-0.94-2.51-0.94c-2.05,0-3.35,1.08-3.88,3.25l-5.25-0.83c0.43-1.95,1.48-3.57,3.14-4.85s3.71-1.92,6.15-1.92
			c2.55,0,4.69,0.61,6.43,1.82s2.61,2.87,2.61,4.98c0,2.76-1.45,4.65-4.34,5.66c3.4,0.9,5.1,2.91,5.1,6.01
			c0,2.23-0.87,4.05-2.61,5.49c-1.74,1.43-4.13,2.15-7.19,2.15c-2.93,0-5.25-0.74-6.97-2.21s-2.74-3.3-3.09-5.49l5.38-0.78
			c0.52,2.61,2.03,3.92,4.53,3.92c1.16,0,2.11-0.31,2.83-0.93s1.09-1.44,1.09-2.48c0-1.1-0.33-1.92-0.99-2.46
			c-0.66-0.54-1.93-0.81-3.79-0.81h-2.32v-4.47H355.61z"/>
	</g>
	<g>
		<path d="M210.21,705.04l1.08-2.23h0.98l0.41,9.3h-1.05c-0.69-2.61-1.55-4.54-2.59-5.78c-1.29-1.55-2.83-2.33-4.63-2.33
			c-1.94,0-3.52,0.87-4.73,2.59c-1.22,1.73-1.83,4.66-1.83,8.78c0,3.47,0.7,6.12,2.09,7.94c1.19,1.54,2.85,2.31,5,2.31
			c1.88,0,3.45-0.6,4.72-1.8s2.1-3.02,2.48-5.45h1.11c-0.32,2.75-1.27,4.87-2.83,6.34c-1.56,1.48-3.53,2.22-5.91,2.22
			c-1.93,0-3.7-0.48-5.3-1.45s-2.9-2.36-3.86-4.18s-1.45-3.81-1.45-5.98c0-2.3,0.5-4.46,1.49-6.48c0.99-2.02,2.27-3.54,3.82-4.55
			c1.55-1.02,3.22-1.52,5.02-1.52c1,0,1.97,0.17,2.91,0.52S209.11,704.21,210.21,705.04z"/>
		<path d="M222.76,711.27c1.97,0,3.62,0.71,4.96,2.13c1.34,1.42,2.01,3.29,2.01,5.62c0,1.6-0.3,2.97-0.9,4.1
			c-0.6,1.13-1.45,2.02-2.56,2.68s-2.3,0.98-3.59,0.98c-1.9,0-3.5-0.72-4.82-2.16s-1.98-3.3-1.98-5.59c0-2.3,0.66-4.17,1.98-5.61
			C219.19,711.99,220.82,711.27,222.76,711.27z M222.76,712.38c-1.17,0-2.13,0.53-2.88,1.59s-1.13,2.73-1.13,5.01
			c0,2.32,0.37,4.02,1.12,5.09c0.74,1.07,1.71,1.61,2.88,1.61c1.22,0,2.21-0.54,2.96-1.61s1.13-2.83,1.13-5.27
			c0-2.26-0.37-3.9-1.12-4.91C224.99,712.89,224,712.38,222.76,712.38z"/>
		<path d="M232.76,711.71l4.19-0.27c0.23,1.09,0.38,2.13,0.45,3.11c0.79-1.14,1.59-1.94,2.38-2.41s1.66-0.7,2.61-0.7
			c1.01,0,1.85,0.26,2.5,0.79s1.16,1.39,1.52,2.58c0.7-1.13,1.47-1.98,2.33-2.54c0.85-0.56,1.78-0.84,2.79-0.84
			c1.33,0,2.33,0.4,3,1.19c0.85,1.04,1.28,2.39,1.28,4.03v7.27c0,0.44,0.11,0.73,0.33,0.89c0.29,0.24,0.72,0.36,1.3,0.36h0.73v1.17
			h-7.36v-1.17h0.73c0.63,0,1.06-0.1,1.31-0.31s0.38-0.52,0.38-0.94v-7.28c0-1.08-0.27-1.92-0.79-2.52
			c-0.53-0.59-1.23-0.89-2.09-0.89c-0.66,0-1.25,0.17-1.78,0.52c-0.53,0.35-0.95,0.85-1.25,1.49c-0.45,0.93-0.67,1.72-0.67,2.36v6.3
			c0,0.43,0.11,0.74,0.34,0.95c0.23,0.2,0.58,0.3,1.06,0.3h1v1.17h-7.47v-1.17h0.84c0.53,0,0.93-0.1,1.19-0.31
			c0.26-0.21,0.39-0.47,0.39-0.8v-6.75c0-1.43-0.25-2.46-0.76-3.11c-0.51-0.65-1.19-0.97-2.04-0.97c-1.1,0-1.95,0.38-2.55,1.13
			c-0.84,1.06-1.27,2.3-1.27,3.72v5.84c0,0.45,0.1,0.76,0.3,0.92c0.28,0.22,0.72,0.33,1.31,0.33h0.75v1.17h-7.38v-1.17h1.11
			c0.42,0,0.74-0.1,0.96-0.31s0.34-0.47,0.34-0.8v-9.59c0-0.53-0.14-0.93-0.41-1.19s-0.81-0.43-1.63-0.5v-1.05H232.76z"/>
		<path d="M261.21,711.71l4.19-0.27c0.23,1.09,0.38,2.13,0.45,3.11c0.79-1.14,1.59-1.94,2.38-2.41s1.66-0.7,2.61-0.7
			c1.01,0,1.85,0.26,2.5,0.79s1.16,1.39,1.52,2.58c0.7-1.13,1.47-1.98,2.33-2.54c0.85-0.56,1.78-0.84,2.79-0.84
			c1.33,0,2.33,0.4,3,1.19c0.85,1.04,1.28,2.39,1.28,4.03v7.27c0,0.44,0.11,0.73,0.33,0.89c0.29,0.24,0.72,0.36,1.3,0.36h0.73v1.17
			h-7.36v-1.17h0.73c0.63,0,1.06-0.1,1.31-0.31s0.38-0.52,0.38-0.94v-7.28c0-1.08-0.27-1.92-0.79-2.52
			c-0.53-0.59-1.23-0.89-2.09-0.89c-0.66,0-1.25,0.17-1.78,0.52c-0.53,0.35-0.95,0.85-1.25,1.49c-0.45,0.93-0.67,1.72-0.67,2.36v6.3
			c0,0.43,0.11,0.74,0.34,0.95c0.23,0.2,0.58,0.3,1.06,0.3h1v1.17h-7.47v-1.17h0.84c0.53,0,0.93-0.1,1.19-0.31s0.39-0.47,0.39-0.8
			v-6.75c0-1.43-0.25-2.46-0.76-3.11c-0.51-0.65-1.19-0.97-2.04-0.97c-1.1,0-1.95,0.38-2.55,1.13c-0.84,1.06-1.27,2.3-1.27,3.72
			v5.84c0,0.45,0.1,0.76,0.3,0.92c0.28,0.22,0.72,0.33,1.31,0.33h0.75v1.17h-7.38v-1.17h1.11c0.42,0,0.74-0.1,0.96-0.31
			s0.34-0.47,0.34-0.8v-9.59c0-0.53-0.14-0.93-0.41-1.19s-0.81-0.43-1.63-0.5v-1.05H261.21z"/>
		<path d="M304.23,724.74l0.56,0.88c-0.76,0.78-1.6,1.17-2.53,1.17c-0.71,0-1.3-0.19-1.79-0.58s-0.91-1.06-1.27-2.03
			c-0.99,1.04-1.86,1.74-2.61,2.09s-1.65,0.52-2.7,0.52c-1.5,0-2.64-0.32-3.42-0.97s-1.17-1.47-1.17-2.48
			c0-1.52,0.89-2.78,2.68-3.79c1.79-1,4.16-1.67,7.13-2.01v-2.22c0-0.79-0.32-1.47-0.95-2.03c-0.64-0.56-1.44-0.84-2.42-0.84
			c-0.91,0-1.69,0.19-2.34,0.56c-0.47,0.28-0.7,0.56-0.7,0.83c0,0.16,0.13,0.4,0.38,0.73c0.3,0.42,0.45,0.79,0.45,1.11
			c0,0.47-0.15,0.85-0.45,1.15c-0.3,0.3-0.7,0.45-1.19,0.45c-0.52,0-0.96-0.18-1.3-0.53c-0.35-0.35-0.52-0.81-0.52-1.36
			c0-1.03,0.58-1.97,1.74-2.83c1.16-0.85,2.68-1.28,4.57-1.28c1.74,0,3.07,0.38,3.98,1.13c0.92,0.76,1.38,1.68,1.38,2.77v8
			c0,0.71,0.11,1.23,0.34,1.56c0.23,0.34,0.53,0.52,0.89,0.52C303.35,725.24,303.78,725.08,304.23,724.74z M299.1,718.57
			c-2.65,0.37-4.52,0.96-5.63,1.78c-0.82,0.63-1.23,1.51-1.23,2.66c0,0.8,0.21,1.43,0.64,1.88c0.43,0.45,0.98,0.68,1.67,0.68
			c1.23,0,2.29-0.47,3.2-1.4c0.9-0.93,1.35-2.1,1.35-3.51L299.1,718.57L299.1,718.57z"/>
		<path d="M306.56,711.71l4.86-0.3c0.2,0.92,0.34,1.99,0.44,3.22c0.66-1.06,1.43-1.86,2.32-2.39s1.9-0.8,3.02-0.8
			c0.97,0,1.78,0.19,2.44,0.57s1.18,0.98,1.58,1.8s0.59,1.75,0.59,2.77v7.13c0,0.53,0.12,0.91,0.36,1.13
			c0.24,0.22,0.64,0.34,1.2,0.34h1.03v1.17h-7.72v-1.17h0.73c0.69,0,1.17-0.11,1.44-0.33c0.27-0.22,0.41-0.55,0.41-0.98v-6.27
			c0-1.36-0.21-2.38-0.63-3.03c-0.58-0.94-1.47-1.41-2.66-1.41c-1.18,0-2.16,0.47-2.95,1.42s-1.18,2.18-1.18,3.7v5.42
			c0,0.53,0.12,0.91,0.37,1.13c0.24,0.22,0.65,0.34,1.21,0.34h1.02v1.17h-7.75v-1.17h1.02c0.51,0,0.9-0.1,1.16-0.31
			c0.27-0.21,0.4-0.47,0.4-0.78v-9.45c0-0.63-0.17-1.1-0.51-1.42s-0.83-0.48-1.46-0.48h-0.75v-1.02H306.56z"/>
		<path d="M334.4,703.24l5.72-0.27V723c0,0.78,0.15,1.34,0.45,1.67c0.3,0.33,0.74,0.5,1.34,0.5h1.02v1.17h-5l-0.38-2.98
			c-0.59,1.06-1.29,1.86-2.09,2.4c-0.8,0.54-1.69,0.8-2.68,0.8c-1.67,0-3.09-0.7-4.26-2.09c-1.17-1.4-1.76-3.24-1.76-5.53
			c0-2.48,0.75-4.46,2.25-5.94c1.18-1.16,2.53-1.73,4.06-1.73c0.94,0,1.78,0.23,2.52,0.7c0.74,0.47,1.39,1.18,1.95,2.13v-8.27
			c0-0.44-0.17-0.78-0.51-1.04c-0.34-0.25-0.87-0.38-1.59-0.38h-1.05v-1.17H334.4z M333.49,712.57c-1.13,0-2.02,0.46-2.68,1.39
			s-0.99,2.49-0.99,4.69c0,2.39,0.34,4.07,1.02,5.04s1.55,1.46,2.61,1.46c1.13,0,2.11-0.54,2.91-1.63c0.81-1.09,1.21-2.68,1.21-4.77
			c0-1.98-0.43-3.54-1.3-4.67C335.53,713.07,334.6,712.57,333.49,712.57z"/>
	</g>
	<circle class="st5" cx="380.93" cy="714.86" r="21.91"/>
	<g>
		<path class="st3" d="M390.37,721.91l-0.43,5.05h-19v-4.92c0.62-0.47,1.64-1.21,3.06-2.21c3.48-2.47,6-4.51,7.59-6.11
			c1.58-1.6,2.38-3.07,2.38-4.41c0-0.98-0.32-1.78-0.95-2.42c-0.63-0.64-1.48-0.96-2.54-0.96c-2.47,0-3.91,1.61-4.3,4.84l-5.23-1.17
			c1.17-5.58,4.43-8.37,9.78-8.37c2.99,0,5.29,0.79,6.89,2.36s2.4,3.45,2.4,5.62c0,2.25-0.84,4.26-2.51,6.03
			c-1.68,1.77-4.76,3.99-9.25,6.66L390.37,721.91L390.37,721.91z"/>
	</g>
	<polygon class="st2" points="120.8,708.73 105.22,700.26 89.42,708.28 92.66,690.85 80.15,678.3 97.73,676 105.8,660.22 
		113.41,676.22 130.92,679.02 118.05,691.22 	"/>
	<polygon class="st2" points="512.17,708.73 496.59,700.26 480.79,708.28 484.03,690.85 471.52,678.3 489.1,676 497.17,660.22 
		504.78,676.22 522.29,679.02 509.42,691.22 	"/>
	<polygon class="st2" points="171.41,130.52 171.41,157.74 128.46,184.96 85.5,157.74 85.5,130.52 128.46,157.74 	"/>
	<g>
		<path class="st2" d="M180.98,258.64c3.1-6.3,7.02-11.21,13.17-14.49c1.96-1.04,3.41-2.73,3.29-5.43
			c-0.14-3.36,1.95-5.94,4.89-7.95c0.72-0.49,1.28-1.46,1.47-2.29c0.39-1.73,1.02-3.66,0.57-5.26c-0.68-2.39-1.8-4.87-3.44-6.8
			c-5.82-6.81-7.89-14.7-8.91-23.07c-0.44-3.59-2.23-7.08-2.42-10.66c-0.49-8.81,2.5-10.63,9.87-12.83
			c8.56-2.55,17.74-2.61,26.37-0.02c4.84,1.46,9.23,4.39,13.58,7.01c7.7,4.64,16.33,7.07,24.89,9.75c4.73,1.48,9.44,3,14.12,4.61
			c12.44,4.27,24.83,8.68,37.3,12.89c10.01,3.38,20.16,6.45,28.65,12.75c3.67,2.73,7.57,5.25,10.96,8.25
			c1.74,1.54,2.96,3.83,3.76,5.99c1.58,4.22,1.39,4.28,4.66,5.79c-9.07-0.56-17.11,3.49-25.71,4.82
			c-3.23,25.69-13.6,49.11-24.51,71.45c2.29,1.96,4.94,3.36,6.22,5.47c4.49,7.39,8.52,15.02,12.47,22.1
			c4.12,1.28,8.26,2.07,11.9,3.78c14.08,6.61,28.81,11.7,43.49,16.97c3.6,1.29,7.02,3.37,10.03,5.65c7,5.29,14.15,10.51,20.4,16.51
			c8.83,8.46,14.84,18.57,16.34,30.52c0.68,5.43,1.19,10.91,1.28,16.38c0.14,8.79,1.56,17.35,4.25,25.75
			c0.24,0.75,0.42,1.57,0.36,2.34c-0.75,11.35,1.85,22.35,3.86,33.42c0.3,1.67,0.22,3.43,0.03,5.13c-0.38,3.51-3.31,4.16-6.36,4.52
			c-2.02,0.24-4.04,0.47-6.07,0.6c-3.07,0.2-5.88,0.01-8.3-2.37c-1-0.98-3.27-1.09-4.98-1.15c-1.43-0.05-2.87,0.68-4.34,0.85
			c-7.93,0.93-15.85,2.34-23.81,2.57c-14.57,0.42-29.17,0.17-43.76,0.09c-5.51-0.03-11.02-0.56-16.53-0.53
			c-8.34,0.04-16.68,0.37-25.02,0.55c-0.97,0.02-2.14,0.22-2.89-0.18c-5.91-3.19-12.49-2.32-18.84-2.86
			c-3.08-0.26-6.13-1.05-9.2-1.13c-7.65-0.2-15.09,0.95-22.24,3.63c-1.14,0.43-2.5,0.53-3.76,0.53
			c-19.81,0.03-39.62-0.05-59.44,0.08c-4.34,0.03-7.72-1.23-9.52-3.22c-0.31-4.28,0.23-7.76-0.95-10.63
			c-1.85-4.49-1.19-8.89-0.77-13.26c0.61-6.38,1.95-12.71,2.94-19.06c0.47-3.04,1.06-6.08,1.22-9.13c0.12-2.36-0.55-4.76-0.51-7.13
			c0.07-4.6,0.63-9.2,0.56-13.79c-0.13-7.61,0.93-15.02,2.5-22.49c2.55-12.09,10.38-20.31,20.77-27.13
			c6.96-4.57,13.52-9.68,20.59-14.1c2.73-1.71,3.7-4.08,5.15-6.37c1.48-2.35,2.89-4.73,4.42-7.05c2.17-3.29-0.23-8.2-4.13-9.47
			c-4.67-1.51-9.54-3.04-13.52-5.63c-3.79-2.47-5.92-6.55-6.38-11.13c-0.33-3.24-0.98-6.44-1.54-9.66c-0.53-3.12-1.3-6.21-1.64-9.35
			c-0.41-3.87-0.55-7.78-0.68-11.67c-0.08-2.24-0.74-3.87-3.22-4.82c-2.7-1.04-4.81-5.59-3.63-8.08c1.82-3.84,3.84-7.63,6.24-11.17
			c1.4-2.07,2.74-4.2,1.5-6.28c-1.49-2.51-4.73-2.97-7.59-3.05C194.04,258.51,187.62,258.64,180.98,258.64z"/>
		<path class="st2" d="M454.26,509.69c-0.34-0.47-0.63-0.99-0.81-1.56l-10.36-17.05l-264.9,3.17l2.15,16.27l3.02-1.26l262.2,4.53
			l8.71-3.59C454.27,510.04,454.26,509.87,454.26,509.69z"/>
	</g>
</g>
</svg>
