<?xml version="1.0" encoding="utf-8"?>
<!-- Generator: Adobe Illustrator 25.2.1, SVG Export Plug-In . SVG Version: 6.00 Build 0)  -->
<svg version="1.1" id="Слой_1" xmlns="http://www.w3.org/2000/svg" xmlns:xlink="http://www.w3.org/1999/xlink" x="0px" y="0px"
	 viewBox="0 0 595.3 841.9" style="enable-background:new 0 0 595.3 841.9;" xml:space="preserve">
<style type="text/css">
	.st0{fill:#FFFCF2;}
	.st1{fill:#4AA974;}
	.st2{fill:#FFFFFF;}
</style>
<circle class="st0" cx="297.6" cy="420.9" r="243.5"/>
<path class="st1" d="M541,420.9L541,420.9c0,134.5-109,243.6-243.5,243.6S54,555.5,54,421v-0.1H541z"/>
<g transform="translate(0.000000,1280.000000) scale(0.100000,-0.100000)">
	<path class="st1" d="M2883,10639.6c-27.8-11.6-68.3-34.3-90.9-51.3c-39.4-29.5-57.5-75.1-81.3-203.7c-3.7-19.8-9.6-44.5-12.8-54.4
		c-8.5-24.9-7.1-32,7.6-40.2c6.8-3.7,19.8-7.4,29.7-8.5l17.9-2l11.3-22.7c9.4-18.7,12.8-22.9,18.7-23.5c6.5-0.8,7.9-2.8,10.8-15.6
		c1.7-8.2,9.1-26.1,15.9-40.2c11.3-22.9,12.8-27.5,12.8-45.3c0-35.4-1.4-39.4-19.5-51.8c-8.8-6.2-22.1-14.5-30-18.4
		c-7.6-4-19.3-10.5-25.2-14.7c-10.2-6.8-13.9-7.7-43.9-8.8c-18.1-0.6-38.8-1.1-45.9-1.1c-10.2,0-15.3-1.7-21.8-7.1
		c-5.1-4.2-21.5-11-40.2-16.7c-27.8-8.5-45.3-17.8-45.3-24.4c0-1.1,5.7-6,12.8-11s12.8-9.9,12.8-11s-8.2-6.5-17.8-11.9
		c-11.3-6.2-30-22.1-51.8-43.9c-30.3-30.3-44.8-46.2-99.7-109.9c-8.5-9.6-21-27.2-27.8-38.8c-15-25.2-43.6-96.9-52.1-130.3
		c-14.2-55.2-31.2-132.3-31.2-140.8c0-7.1-2.3-10.8-9.6-16.4c-5.4-4-11.1-11.3-12.8-16.2c-3.7-10.2-3.7-53-0.6-107.6
		c2-32,3.7-41.1,9.6-54.4c15-32.6,33.1-53.2,56.6-64.6c20.7-10.2,38.8-11.9,64.3-6.5c11.6,2.5,24.6,5.1,28.6,6
		c7.1,1.7,7.9,0.6,13.9-17.6c9.1-27.5,17.3-42.8,44.5-84.1c19.5-29.7,24.9-36,29.2-34.6c4.5,1.4,7.1-1.4,13.9-15
		c4.5-9.1,11.9-20.7,15.9-25.8c6.5-7.7,9.4-8.8,21.2-8.8h13.6l4-16.2l4-16.4l33.1-0.8c24.1-0.6,33.1-1.7,33.1-4.2
		c0-2-12.8-15.3-28-29.7c-15.6-14.5-34-34.8-41.1-45.6l-13-19.5v-60.3c0-85.5-5.1-169.7-13-212.2c-11.1-60-13.9-92.6-10.2-121.2
		c3.1-26.9,6.5-35.7,21.5-59.2c9.4-14.7,22.7-60.3,38.5-132.3c9.9-44.2,5.7-85.5-15.6-151c-8.2-24.9-9.9-34.6-9.9-55
		c0-16.4-2.8-38.2-8.8-66.6c-11.3-54.4-12.5-77-6.8-115.8c2.8-18.4,4.8-52.7,5.1-83.6c0.6-47,1.4-54.1,7.1-68
		c4.5-11.3,6.2-21.2,6.2-37.1c0-11.6,2.6-39.1,5.4-60.9c6.5-47.3,10.8-91.8,14.2-153.2c3.1-51.5,6.2-60.9,22.1-66.6
		c4.8-1.7,9.6-6,10.5-9.1c3.4-12.8,5.1-100,2.3-120.1c-3.4-23.5-17.3-55.2-34-78.2c-5.7-7.9-23.2-30-38.8-49.3
		c-37.1-46.2-39.1-49.6-39.7-67.4c-0.3-8.2-2-16.7-3.7-19c-5.9-7.1-11.9-24.4-11.9-33.7c0.3-13,8.8-30.9,19.5-39.9
		c13.9-11.6,28.6-14.5,73.9-14.2c57.8,0,83,6.5,109.6,28.3c17,13.6,27.5,32.3,26.6,47.9l-0.3,12.5h11.9c21.2,0,82.1,39.7,86.4,56.1
		c4,15.3,2.3,47-3.4,61.5c-5.1,13-5.7,21-5.1,96.3c0.3,50.7,1.7,92.3,4.2,109l3.7,26.6l31.7,10.2c17.3,5.4,32.3,10.8,33.1,11.6
		s-2.3,16.7-7.4,35.4c-17.6,67.4-30,113.3-34.6,128.6c-2.8,9.3-5.4,30.9-6.2,53.8c-1.7,36.3-1.1,39.7,6.2,63.7
		c4.2,14.2,8.2,32,9.1,40.2c1.4,17.8-9.9,65.2-23.8,100.3c-13.9,35.7-13.3,44.8,5.7,76.2c24.9,41.1,28,52.7,28.9,108.5
		c0.9,40.5,1.7,49,6.8,58.3c3.4,7.1,7.1,24.1,9.9,47.6c2.6,19.8,5.7,39.9,7.1,44.5c1.7,4.5,2.8,11,2.8,14.5s4,9.6,8.8,14.5
		c24.6,23.5,35.4,66.3,39.4,159.2c1.7,33.4,3.7,61.8,4.5,63.2s6.2,4.5,11.9,7.1c5.7,2.3,13.3,6.8,16.4,9.9c5.9,5.7,6.8,5.7,16.4,1.1
		c13-6.2,14.2-7.9,19.8-31.2c2.8-10.8,9.9-30.3,15.9-43.3c15.6-32.9,41.4-131.7,46.2-175.3c3.4-32,3.1-34.6-1.7-41.1
		c-5.1-7.1-5.1-7.7,8.5-58.9l13.6-52.1l9.1-2.3c7.6-2,9.4-4,10.8-13c3.7-24.9,11.1-54.4,18.7-73.9c10.8-28.6,9.4-36.8-16.4-90.9
		c-20.7-43-21-44.5-22.4-70.8c-0.9-14.7,0-47.3,1.7-72.2s4.2-68.3,5.4-96.3c2.6-52.7,3.1-58.6,10.8-95.5c4.2-21.5,4.2-22.4-2-39.7
		c-3.4-9.9-10.2-24.6-14.4-33.1c-9.4-17.3-9.9-24.4-4.2-38.5c4.8-11.6,25.5-34.6,33.1-36.8c5.4-1.7,5.7-4,4-71.7
		c-1.1-38.5-0.6-100.6,0.9-138.2c3.4-87.8,5.4-92.6,42.2-111.3c6.8-3.4,17.9-6.8,24.9-7.9l12.8-1.7l-1.7-30
		c-1.4-25.8-0.9-31.4,3.7-39.9c18.4-35.4,145-49.3,206.8-22.7c23.5,9.9,24.6,12.2,17.9,37.7c-2.8,11.9-6.8,24.1-8.5,27.2
		c-1.4,3.1-2.8,15.6-2.8,27.8c-0.3,12.2-2,26.6-4,32c-5.1,14.5-21.5,38.5-54.4,79.6c-15.9,19.8-32.3,43.3-36.8,52.4l-8.2,16.7
		l0.9,77.9c0.9,69.4,1.4,78.2,5.7,81.3c11.6,8.5,11.9,9.1,11.9,43.3c0,29.2,1.7,41.6,13.9,99.7c15.3,73.1,23.2,105.1,30.3,124.1
		c11.6,31.4,9.9,101.7-3.7,146.2c-7.1,23.8-7.4,28.3-7.1,76.5c0.3,30.6,2.3,60.9,4.8,75.1c7.1,40.2,3.7,157.2-5.1,170.5
		c-4.5,6.8-9.1,44.8-12.2,98.6l-2,33.1l10.5,4.8c5.7,2.8,11.9,7.7,13.9,11c4.2,7.4,4,118.1-0.6,184.4
		c-7.6,107.9-6.8,263.4,1.7,353.5c2,22.7-8.8,45.3-35.7,73.7c-11.1,11.6-20.1,23.5-20.1,26.3c0,3.1-2,8.8-4,13.3
		c-3.7,6.5-3.7,9.9-0.3,22.7c7.1,27.5,14.4,43,20.4,42.8c8.2,0,50.1-26.1,67.4-41.6c22.7-20.1,29.7-21.2,53.2-9.1
		c29.7,15.6,54.9,31.4,82.7,52.7c44.2,33.4,44.5,33.4,46.2,50.1c0.6,8.2,1.7,14.7,2.6,14.7c0.6,0,44.8-34.3,98.3-76.5l97.2-76.2
		l15.9,0.8c8.8,0.3,17.9,2.3,20.1,4.2c3.4,2.8,7.4,1.1,22.7-11.3c10.2-8.2,18.7-15.6,18.7-16.7c0-0.8-3.1-6-7.1-11.3s-7.1-11-7.1-13
		c0-4.2,13.6-13.3,17-11c1.4,0.8,5.1,0,8.5-2c7.6-4.8,15.6,0.3,15.6,9.9c-0.3,8.8-10.8,16.4,92.6-66.8c57.5-46.2,84.4-69.4,85-73.7
		c0.6-3.4,2.6-6,4.5-5.4c1.7,0.3,3.4-1.1,3.4-3.4c0-4.5,7.6-8.2,11.6-5.7c1.4,0.8,2.5-1.1,2.5-4.2c0-3.7,2-6,5.1-6
		c2.5,0,13.6-7.1,24.4-15.9c10.5-8.8,20.4-14.7,21.5-13.3c7.9,8.2,22.7,27.2,22.7,29.2c0,1.1-8.8,8.8-19.5,17
		c-10.8,8.2-20.4,17.3-21,20.1c-0.9,3.7-3.1,4.8-6,3.7c-3.1-1.1-4.5-0.3-4.5,2.8c0,2.5-2.3,5.7-4.8,6.5c-2.8,1.1-6.5,3.7-8.2,6.2
		c-1.7,2.3-5.1,3.4-7.4,2.5c-2.8-1.1-24.9,15-62,44.8c-31.7,25.8-71.9,57.8-89.5,71.4c-22.1,17-31.7,26.3-32,30.6
		c0,3.1,13.6,22.7,30.9,44.2c16.7,21.2,31.4,40.8,32.6,43.6c2.6,6.2-4.8,14.2-15.3,16.4c-9.6,1.7-89.8-13.9-95.5-18.7
		c-2.8-2.3-3.7-1.7-3.7,2.5c0,7.7-20.1,26.6-109.9,104.2c-58.9,51-73.9,65.4-72.8,69.7c0.9,2.8,1.7,11.9,1.4,20.1s-0.3,23.5,0,34.3
		c0.9,32.6-9.9,59.8-39.4,100.3c-7.6,10.5-20.4,31.2-28,45.3l-14.2,26.3l11.6,6.5l11.9,6.5l-0.6,26.3c-0.6,26.3-0.6,26.6-19,64.3
		c-22.1,45.9-28.3,55-58.9,87.5c-13.3,14.2-23.5,27.2-22.7,29.2c1.7,5.7-40.5,77.6-63.7,108.2c-11.1,14.7-28,36-38,46.7
		c-30.6,34.6-98,80.7-133.4,91.5c-22.7,6.8-24.9,11.6-24.9,52.7v32.9l-10.5,5.4c-19.5,9.9-39.7,13.9-85,17.6
		c-44.5,3.4-44.8,3.4-54.7,12.5c-25.2,22.9-49,41.4-52.4,39.9c-2-0.6-4.5,1.4-5.4,4.8c-3.7,13.9-1.4,30,6.5,47.6
		c9.6,21.5,28.6,79.3,28.6,87.5c0,3.1,1.4,5.7,2.8,5.7c1.7,0,2.8-1.4,2.8-2.8c0-1.7,3.1-4.2,6.8-6c14.4-6.8,21.5,4.2,25.8,39.9
		c2.3,22.1,3.1,22.7,20.7,19.3c11.1-2.3,18.1-2.3,26.6,0.3l11.6,3.7l-2,14.5c-1.1,8.2-3.1,26.3-4.5,40.2
		c-3.1,32.9-29.2,121.5-48.7,165.7c-19.5,44.8-39.9,79.6-53.2,91.8c-21.8,19.5-41.9,26.9-89.2,32.9c-13.9,1.7-37.4,5.7-52.1,8.5
		C2919.5,10651.2,2910.2,10650.7,2883,10639.6z M3462.8,9257.1c26.1-20.1,28.6-22.7,21.2-20.1c-13,4.8-32.3,6.8-41.9,4.5
		c-10.5-2.3-10.5-2.3-10.5,6.8c0,16.7,3.4,30.3,6.8,27.8C3440.1,9274.6,3451.2,9266.1,3462.8,9257.1z M3542.1,9193
		c0-1.1-1.7-2.5-4-3.4c-2.6-1.1-8.2,4.2-15.6,14.2l-11.9,15.6l15.9-12.5C3535,9200.4,3542.1,9193.9,3542.1,9193z M3955.4,9056.2
		c2.6-3.1,1.7-5.7-4-12.5c-6.2-7.4-6.5-8.8-2.8-11.9c2.3-2,4.2-4.2,4.2-5.4c0-2.5-17-20.1-19.5-20.1c-3.4,0-40.2,31.4-41.9,36
		c-2.3,6.2,5.7,10.2,27.5,13.9C3944.9,9060.8,3951.7,9060.8,3955.4,9056.2z M3899.6,9008.6c7.9-6.5,13-12.5,11.3-13
		c-3.4-1.1-31.7,19.3-31.7,22.7C3879.2,9023.4,3886.3,9020,3899.6,9008.6z"/>
</g>
<g>
	<path class="st2" d="M186.7,442.7h-1.4 M186.7,442.7h0.7h2.8c2,0,3.2,0.1,3.9,0.3c0.7,0.1,1.3,0.7,2,1.4c0.7,0.7,0.8,1.7,0.8,2.6
		c0,1.1-0.3,2-0.8,2.8c-0.6,0.8-1.3,1.4-2,1.5c-0.7,0.3-2,0.3-3.6,0.3h-5v-7.8v-1.1 M186.7,436.2h-1.4 M185.3,436.2h-8.4v35.3h8.4
		v-13.9h5.9l5.4,13.9h9.2l-6.6-15.6c4-1.8,6.1-4.9,6.1-9.1c0-2.2-0.6-4.2-1.7-5.9c-1.1-1.8-2.6-3.1-4.3-3.6c-1.7-0.7-4-1-6.8-1h-5
		h-0.7"/>
	<path class="st2" d="M211.8,436.2v35.3h8.2v-35.3H211.8z"/>
	<path class="st2" d="M236.8,436.2h-1.3h-0.1 M238.7,436.2H237 M238.7,436.2h13.7v7h-13.7 M238.7,443.3h-2.9 M235.6,436.2h-8.5v35.3
		h8.6v-8.8v-5h2.9h10.2v-6.6h-10.2h-2.9v-1.4v-4.5v-2.1"/>
	<path class="st2" d="M264.9,464.7v-28.3h-8.4v35.3h8.4V464.7L264.9,464.7z M267.9,464.7v7h11v-7H267.9z"/>
	<path class="st2" d="M294.6,464.7v7h13.9v-7H294.6z M294.6,436.2v6.7h13.9v-6.7H294.6z M294.6,450.3v6.7h10.3v-6.7H294.6z
		 M283.1,436.2v35.3h8.4v-35.3H283.1z"/>
	<path class="st2" d="M338.9,436.2l-6.6,21.2l-6.3-21.2h-12.8v35.3h7v-28.9l8.6,28.9h5.7l8.9-28.9v28.9h8.4v-35.3H338.9z"/>
	<path class="st2" d="M376.3,436.2h-9.6l-11.3,35.3h7.3l2.2-7.3h11.4l2.2,7.3h8.9L376.3,436.2z M366.8,457.8l3.8-12.4l3.8,12.4
		H366.8z"/>
	<path class="st2" d="M412,436.2v18.4c0,0.6,0,1.3,0.1,2.4l-12-20.8h-8.9v35.3h6.4v-21.2c0-0.4,0-1-0.1-1.5c0-0.1,0-0.6,0-1.1
		l13.8,23.8h7.1v-35.3H412z"/>
</g>
<g>
	<g>
		<path class="st0" d="M252.5,523.2c0-2.2-1.7-4-3.9-4.2c-18-1.7-32.7-11.3-37.5-14.8c-1-0.7-2.4-0.7-3.4,0
			c-4.8,3.5-19.5,13.1-37.5,14.8c-2.2,0.2-3.8,2-3.9,4.2c-0.2,14.2,2.1,62.4,42,73.1c0.7,0.2,1.5,0.2,2.2,0
			C250.4,585.6,252.7,537.4,252.5,523.2z"/>
	</g>
	<g>
		<path class="st1" d="M211.6,523.4v9.8l0.2-0.3l-0.1,2.1c-0.1,1-0.1,1.8-0.1,2.5v9.4h0.2v-23.6H211.6z"/>
		<polygon class="st1" points="230.6,555.4 230.6,564.6 223.3,564.6 223.3,576.7 211,576.7 211,564.6 188.1,564.6 188.1,555.4 
			206.7,527.4 206.7,540.9 197.4,555.4 211.6,555.4 211.6,547 211.8,547 211.8,523.4 223.3,523.4 223.3,555.4 		"/>
		<polygon class="st1" points="206.9,527 206.9,540.6 206.7,540.9 206.7,527.4 		"/>
	</g>
	<circle class="st0" cx="381.7" cy="550.1" r="47.3"/>
	<g>
		<path class="st1" d="M361.9,526.3h22.2c4,0,7,0.5,9,1.5c2,0.9,3.6,2.4,4.9,4.1c1.3,1.7,2,4,2,6.7c0,5.2-2.8,8.8-8.6,10.6
			c3.3,0.8,5.8,2.3,7.5,4.4c1.6,2.3,2.5,4.7,2.5,7.2c0,3.6-1.3,6.7-4,9.2s-7.1,3.9-13.1,3.9h-22.2L361.9,526.3L361.9,526.3z
			 M373.1,534.7v10.4h8.4c3.1,0,5.1-0.7,5.9-1.9c0.8-1.2,1.2-2.4,1.2-3.5c0-1.2-0.3-2.3-0.9-3.1c-0.7-0.9-1.3-1.5-2.1-1.6
			c-0.8-0.3-2.4-0.3-4.7-0.3L373.1,534.7L373.1,534.7z M373.1,553.7v11.5h8.6c2.9,0,4.9-0.5,6.2-1.6c1.2-1.1,1.9-2.4,1.9-4.3
			c0-1.6-0.5-2.8-1.7-4c-1.2-1.1-3.1-1.6-5.8-1.6L373.1,553.7L373.1,553.7z"/>
	</g>
</g>
</svg>
