<?xml version="1.0" encoding="utf-8"?>
<!-- Generator: Adobe Illustrator 25.2.1, SVG Export Plug-In . SVG Version: 6.00 Build 0)  -->
<svg version="1.1" id="Слой_1" xmlns="http://www.w3.org/2000/svg" xmlns:xlink="http://www.w3.org/1999/xlink" x="0px" y="0px"
	 viewBox="0 0 595.3 841.9" style="enable-background:new 0 0 595.3 841.9;" xml:space="preserve">
<style type="text/css">
	.st0{fill:#FFFCF2;}
	.st1{fill:#49AB75;}
	.st2{fill:#4BA974;}
	.st3{fill:#FFFFFF;}
</style>
<circle class="st0" cx="297.6" cy="420.9" r="243.5"/>
<path class="st1" d="M541,420.9L541,420.9c0,134.5-109,243.6-243.5,243.6S54,555.5,54,421v-0.1H541z"/>
<ellipse class="st0" cx="277.9" cy="289" rx="9.9" ry="12.4"/>
<ellipse transform="matrix(0.9903 -0.1387 0.1387 0.9903 -37.9021 36.1039)" class="st0" cx="240.1" cy="290" rx="9.9" ry="12.4"/>
<path class="st2" d="M478.6,283.9c-1.8,5-1.8,3.8-6,3.8c-12-0.3-24.1-0.5-36.1-0.9c-13.9-0.5-27.7-1-41.6-1.6
	c-6.2-0.2-12.4-0.5-18.6-0.8c-0.7,1.5-1.5,2.9-2,4.4c-0.5,1.4-1.3,1.7-2.7,1.7c-10.8-0.2-21.6-0.4-32.4-0.6c-2.2,0-3,0.6-3.3,2.7
	c-0.5,2.8-3,4.5-5.6,4c-3.5-0.7-6.9-0.5-10.4,0.7c-1.5,0.5-3.2,1.8-5.2,0.8c-0.8-0.4-2.2,0.5-3.3,0.9c-1.5,0.5-1,2-1.1,3.1
	c-0.3,3.9-2.2,6.9-4.7,9.7c-0.7,0.7-1.2,1.6-1.7,2.5c-4.9,10.3-9.8,20.5-14.7,30.8c-1.8,3.8-5.1,5.6-9.3,5.2c-3-0.3-6.1-1-9.1-1.6
	c-3.4-0.7-6.9-1.3-10.2-2.2c-3.7-1-7.3-2.4-11-3.6c-0.9-0.3-1.8-0.5-3-0.9c-0.1,2.2,0.7,3.9,1.7,5.6c0.9,1.4,1.8,2.8,2.5,4.3
	c0.8,1.6,0.3,2.5-1.4,3.2c-0.4-2-0.8-3.9-1.2-5.9c-0.3,0-0.5,0-0.8,0c-0.2,1.1-0.8,2.2-0.7,3.3c0.2,4.8,0.7,9.7,0.9,14.5
	c0,0.9-0.2,2.1-0.8,2.6c-3.4,2.9-7.1,5.6-10.5,8.4c-0.8,0.6-1.3,1.6-1.8,2.5c-0.3,0.5-0.1,1.2-0.4,1.7c-3.1,4.4-0.6,8.4,1.1,12.2
	c1.3,3,2.5,5.9,3.1,9c0.3,1.5,0.9,3,1.7,4.5c4.3,8.4,8.9,16.7,12.9,25.3c1.9,4,2.7,8.5,4,12.9c0.2,0.7,0.2,1.5,0.5,2
	c1.7,2.8,1.8,5.8,1.8,8.9c0,2.9,0.2,5.8,1.8,8.4c1.8,3,2.2,6.3,2.4,9.7c0.1,0.9,0.1,1.9,0.4,2.8c1.5,3.9,1.3,7.9,1.3,12
	c0,0.5,0,1-0.2,1.4c-2.8,5.3-4.7,11-8.5,15.7c-0.3,0.4-0.4,1.1-0.5,1.6c-0.8,2.6-1.6,5.3-2.4,8c-0.4,1.2-0.7,2.5-0.8,3.7
	c-0.1,2,0,3.9,0,5.9c-0.1,3.4,0.3,6.8,2,9.8c0.7,1.3,0.5,2.3-0.6,3.3c-1.1,1-2.1,2.2-3.2,3.3c-0.8,0.9-0.7,1.6-0.1,2.7
	c1.1,2,1.6,4.2,2.7,6.2c1,1.7,2.4,3.1,3.7,4.6c0.3,0.4,0.9,0.7,1.1,1.2c0.6,1.3,1,2.6,2.9,1.7c0.1,0,0.3,0,0.3,0
	c0.6,1.7,2.4,1.8,3.6,2.4c2.2,1.2,4.7,2.1,7.2,2.8c1.8,0.5,3.7,0.6,5.6,0.8c4.4,0.5,6.6,3.8,8.7,7.1c0.4,0.6,0.4,1.9,0,2.6
	c-2,4.5-4.6,8.7-9.4,10.8c-0.9,0.4-1.6,1-2.5,1.4c-6.7,3.6-13.4,3.4-19.9-0.6c-1-0.6-2-1.1-2.9-1.7c-2.6-1.6-5-0.8-7.3,0.5
	c-0.6,0.3-1.5,0.8-2.1,0.7c-4.1-0.9-8.2-1.7-11.9-3.6c-1.2-0.7-1.8-1.5-1.7-2.8c0.3-3.9,0.6-7.8,0.9-11.7c0-0.5,0.1-1,0.3-1.4
	c1.8-2.9,1.4-6.2,1.3-9.3c-0.1-3.4-0.2-6.9-0.2-10.3c-0.1-2.1-2.1-3.5-3.9-2.4c-1.9,1.2-3.8,1.1-5.8,1.1c-1.9,0-3,0.6-3.4,2.5
	c-0.4,2.2-1.8,3.7-3.7,4.8c-1.3,0.8-2.6,1.7-3.9,2.5c-0.5,0.3-1.1,0.5-1.6,0.6c-3.9,0.8-7.8,0.8-11.4-1.2c-0.4-0.2-0.8-0.7-0.9-1.1
	c-0.4-3.5-0.4-7,1.5-10.2c1.9-3.2,1.6-6.9,2-10.4c0.2-1.5,0.2-3.1,0.4-4.6c0.9-6.1-1.9-11.2-4.4-16.3c-0.4-0.8-1.4-1.3-2.3-1.8
	c-0.9-0.5-1.9-0.7-2.8-1.1c-2.3-1.1-3-3.2-1.8-5.4c0.5-0.8,1.1-1.6,1.6-2.4c2-3.1,2.7-6.5,1.7-10.2c-0.1-0.5-0.2-1.2-0.1-1.7
	c0.7-3.2,1.5-6.3,2.3-9.5c0.6-2.3,1.2-4.6,1.6-6.9c0.4-1.9,1.2-4-1.2-5.3c-0.2-0.1-0.1-1.2,0.1-1.4c1.9-1.6,2.5-3.1,0.7-5.3
	c-0.7-0.8-0.3-2.5-0.6-3.7c-0.3-1.3-0.9-2.5-1.5-3.6c-0.3-0.7-0.9-1.2-1.5-1.7c-1.9-1.6-3.5-3.5-3.9-6.1c0-0.1,0-0.1-0.1-0.2
	c-2.4-3.6-1.2-7,0.6-10.3c1.4-2.5,1.1-3.6-1.2-6c1.5-2,1.4-4.3,1.1-6.7c-0.3-3.3-2.4-5-4.9-6.6c-1.7-1.1-3.2-2.6-4.8-4
	c-0.6,0.2-1.4,0.5-2.6,0.9c0.5-6.2-0.1-12,1.9-17.6c0.9-2.6,1.4-5.3,1.3-8.4c-3.2,1.1-6.2,2-9.2,3.1c-0.8,0.3-1.5,0.8-2.1,1.3
	c-1.7,1.4-4.2,1.5-6.1,0.5c-4-2-7.2-4.8-9.8-8.4c-1.5-2-3.8-3.3-5.7-5c-1.3-1.2-2.4-2.5-3.5-3.9c-0.5-0.6-0.7-1.5-1.3-2.1
	c-4.6-4.9-6.2-11.4-8.9-17.3c-0.6-1.4-1.2-2.8-2-4.2c-0.8-1.4-0.5-2.5,0.6-3.5c2.6-2.2,5.6-3.1,8.9-2.8c0.6,0.1,1.1,0.5,1.7,0.8
	c3.1-0.5,3.3-3,3.5-5.6c0.4-5.7,0.7-11.5,1.5-17.2c0.8-5.4,3.5-10,7.8-13.6c0.8-0.7,1.6-1.1,2.9-0.4c1.3,0.7,3,0.3,3.6-1
	c1.2-2.8,3.6-3.7,6-4.9c0.8-0.4,1.6-0.9,2.4-1.4c1.2-0.8,2.7-0.2,3,1.2c0.2,1.1,0.4,2.2,0.6,3.3c0.3,0,0.5,0,0.5-0.1
	c1.3-3.2,2.4-6.5,3.8-9.6c0.8-1.8,2-3.4,3.2-5.1c0.8-1.1,1.8-2,1.1-3.4c-0.8-1.5-1.7-2.9-3.7-2.8c-0.4,0-0.8-0.1-1.2-0.1
	c-0.4-1.5,0-2.4,1.3-3.1c1.8-1,3.2-2.5,3.9-4.6c0.4-1.2,1.4-2.3,2.2-3.4c0.3-0.5,0.8-1.1,0.7-1.5c-0.2-0.4-0.9-0.6-1.4-0.8
	c-0.5-0.2-1.1-0.2-2.2-0.4c3.4-2,6.5-3.6,10-3.8c3.5-0.2,5-2.3,4.1-5.7c-0.1-0.4-0.1-0.9-0.1-1.4c2.9-0.3,4.3-1.8,4.3-4.6
	c0-1.5,0.6-2.5,1.8-3.2c1-0.5,1.4-1.3,1.4-2.4c0.5-6.5,2.7-12.5,5.9-18.1c0.8-1.3,2.1-2.5,3.4-3.2c2.7-1.3,5.6-2.2,8.4-3.3
	c2.4,0,4.7,0,7.1,0c0.3,0.1,0.6,0.2,0.8,0.3c6.6,1.7,12.3,4.9,15.8,11.1c1.6,2.8,2.8,5.8,4.4,8.5c0.5,0.9,1.4,1.8,2.3,2.1
	c4.4,1.9,8.8,3.6,13.3,5.5c-0.5,1.6-0.9,3.1-1.3,4.7c2.7,0.3,5.1,0.4,7.3,1c5.6,1.5,11.3,2,17,0.7c1-2.9,1-2.8,3.9-2.6
	c2.7,0.1,1.3,2.4,2.2,3.9c3.5-0.2,7.1-0.4,10.8-0.6c1.1-0.1,2.4-0.5,3.3,0c2.3,1.2,4.5,0.4,6.7-0.1c4.5-1.1,9-1.9,13.7-1.5
	c1.3,0.1,2,0.5,2,1.8c0.1,2,0.3,4,0.3,6c0,1.8-1.5,3.2-3.3,3.3c-4.9,0.4-9.5-1-14.1-2.4c-1.2-0.3-2.4-0.4-3.7-0.5
	c-0.4,0-1,0.3-1.1,0.6c-1.7,3.3-0.2,5.9,3.3,6c5.6,0.3,11.2,0.5,16.9,0.8c13.9,0.6,27.8,1.3,41.8,1.9c21.7,1,43.5,2,65.2,3.1
	c13.5,0.6,27,1.3,40.5,2c0.7,0,1.4,0.3,2,0.5C478.6,282.3,478.6,283.1,478.6,283.9z M272.8,293.5c-0.3,1-0.5,2-0.9,2.8
	c-1,2.2-2,4.4-3.1,6.5c-0.5,0.9-1.4,1.2-2.6,0.8c-1.1-0.4-2.3-0.3-3.5-0.4c-0.1,1.4-0.2,2.6-0.2,3.4c-1.1,0.1-2.4-0.1-2.8,0.4
	c-1.7,1.9-3.1,4-4.8,6.4c3.2,2.2,6.3,4.3,9.4,6.5c0.1,0.1,0.3,0.1,0.5,0.1c1.6,0,2.6,0.9,3.5,2.1c0.8,1,1.7,1.7,3.2,1.2
	c0.6-0.2,1.4,0,2,0.3c2.8,1.2,3,1.2,4.6-1.4c0.3-0.5,0.5-1.2,0.9-1.7c0.4-0.5,1-1.1,1.5-1.1c1.4-0.1,2.1-0.9,2.6-2
	c0.8-1.8,1.7-3.6,2.5-5.5c1.9-4.3,3.7-8.5,5.7-12.8c0.8-1.7,1.3-3.7,3.4-5c0.8,1.5,1.4,2.8,2.2,4.3c0.4-0.3,1-0.7,1.4-1.3
	c0.5-0.8,0.7-1.7,1.2-2.5c1-1.6,2.2-3.1,3.4-4.8c-3.9,0-7.7-0.1-11.5,0c-1.1,0-2.3,0.5-3.4,0.8c-0.1-0.1-0.4-0.7-1-1.6
	C284.7,296.4,280.8,298.6,272.8,293.5z M222.9,474.6c-2.3,4.3-4.4,8.4-4.5,13.1c0,0.6,0.1,1.5-0.3,1.9c-2.4,2.5-1.4,4.9,0,7.3
	c0.1,0.1,0.1,0.4,0.2,0.5c1,1.5,0.5,2.6-0.8,3.6c-1.9,1.5-2.3,3-1.3,5.2c0.7,1.4,0.2,2.2-0.3,3.4c-1.5,3.9-0.6,7.9,0.1,11.8
	c0,0.1,0.1,0.2,0.2,0.3c0.4,0.8,0.7,1.5,1.1,2.3c0.1,0.3,0.1,0.8,0.4,1c1.4,1,2.7,2.3,4.8,1.6c2-0.7,3.4-1.7,3.4-4
	c0-0.6,0.3-1.3,0.5-1.9c1.3-5.6,2.8-11.3,4-16.9c0.6-2.8,0.8-5.7-2.2-7.6c-0.5-0.3-0.7-1.6-0.4-2.3c0.9-2.4,2-4.7,3.1-7.2
	c1.3,0.6,1.5-0.5,1.6-1.8c0.2-1.5-0.1-2.7-1.3-3.7C228.4,479.1,225.7,476.9,222.9,474.6z M272.6,279.5c2-0.5,1.3-1.9,1.6-2.9
	c0.2-0.6,0.5-1.4,0.9-1.6c2.5-0.8,5-1.4,7.8-2.2c0.2-2.1,0.5-4.5,0.8-7.2c-3.8,0.2-7.4,0.5-11,0.7c-2.8,0.2-5.6,0.3-8.5,0.4
	c-1.7,0-2.6-0.8-2.7-2.6c0-0.9-0.2-1.8-0.4-3c-2.9,2.6-5.9,4.2-9.6,4.1c-1.3,0-1.6,0.9-1.8,2.1c-0.4,2.6-1,5.1-1.6,7.6
	c-0.3,1.4-0.9,2.6-1.4,4.3c2.8,0.2,5.2,0.3,7.7,0.4c1,0.1,2.2-0.1,2.9,0.4c0.7,0.5,1,1.6,1.5,2.5c1.5-2,2.9-4.5,5.9-4.7
	c2.6-0.2,5.3,0,7.9,0C272.6,278.4,272.6,278.9,272.6,279.5z M288.4,271.2c3.9,0.2,7.6,0.4,11.4,0.6c3.9,0.2,3.9,0.2,4.3-3.8
	c0.1-1.2-0.2-1.8-1.5-1.8c-1.8,0-3.5-0.1-5.3-0.1c-2.9,0.1-5.9,0.3-8.9,0.4C288.4,268.1,288.4,269.5,288.4,271.2z M277.5,293
	c0,1.6,0.7,2.4,2.2,2.2c1-0.1,2-0.5,2.7-1.1c1.5-1.2,1.2-2.2-0.6-2.9c-0.6-0.2-1.1-0.3-1.7-0.5C278.1,290.3,277.4,290.9,277.5,293z
	 M276.3,294.5c0.1-1.1,0.2-2.1,0.2-3.1c0-0.4-0.6-1-0.8-1c-0.5,0.1-1.2,0.5-1.2,0.8C274.3,292.6,274.7,293.8,276.3,294.5z"/>
<g>
	<path class="st0" d="M340.7,523.2c0-2.2-1.7-4-3.9-4.2c-18-1.7-32.7-11.3-37.5-14.8c-1-0.7-2.4-0.7-3.4,0
		c-4.8,3.5-19.5,13.1-37.5,14.8c-2.2,0.2-3.8,2-3.9,4.2c-0.2,14.2,2.1,62.4,42,73.1c0.7,0.2,1.5,0.2,2.2,0
		C338.6,585.6,340.9,537.4,340.7,523.2z"/>
	<g>
		<path class="st1" d="M289.4,549.4c1.4-2.2,3.2-3.9,5.5-4.9v8.1c-0.8,0.4-1.6,0.9-2.4,1.6c-1.6,1.6-2.5,3.6-2.5,6.1
			c0,2.4,0.8,4.4,2.3,5.9c0.7,0.8,1.6,1.4,2.6,1.8v9.3c-3.8-0.6-6.9-1.9-9.3-4.1c-3.3-3-5.6-6.5-6.8-10.5c-1.2-4.1-1.8-8-1.8-11.9
			c0-8.2,1.9-15,5.5-20.3c3-4.3,7.1-6.8,12.3-7.7v9.7C291.2,534.7,289.4,540.3,289.4,549.4z"/>
		<path class="st1" d="M317.6,536.8l-10.8,2.9c-0.8-4.4-2.7-7-5.6-7.9v-9.2c4.2,0.3,7.7,1.7,10.4,4
			C314.8,529.4,316.8,532.8,317.6,536.8z"/>
		<path class="st1" d="M318.3,559.6c0,4.7-1.7,8.9-5.2,12.5c-3.1,3.2-7.1,5-11.9,5.4v-9.5c0.9-0.4,1.8-1,2.6-1.7
			c1.5-1.5,2.3-3.7,2.3-6.5c0-2.5-0.8-4.4-2.5-5.9c-0.7-0.7-1.5-1.2-2.4-1.5v-9.3h0.2c5,0,9.1,1.6,12.2,4.9
			C316.8,551.3,318.3,555.2,318.3,559.6z"/>
	</g>
</g>
<g>
	<path class="st3" d="M236.2,443.1l-7.3,2.4c-0.8-2.5-2.5-3.9-5.1-4.3v-6.7C230.2,434.9,234.3,437.8,236.2,443.1z"/>
	<path class="st3" d="M237.2,460c0,3.3-1.3,6.1-3.8,8.5c-2.2,2.1-5.4,3.3-9.5,3.6v-6.8c1.4-0.1,2.4-0.5,3.2-1.1
		c1-0.8,1.4-1.7,1.4-2.7c0-1.1-0.4-1.9-1.3-2.5c-0.9-0.6-2.6-1.1-5-1.7c-4.7-1-8-2.3-9.9-3.9c-2-1.7-3-4.1-3-7.3
		c0-3.2,1.2-6,3.5-8.2c2.1-2,4.9-3.1,8.3-3.3v6.7c-2.3,0.3-3.5,1.4-3.5,3.2c0,0.9,0.3,1.6,1,2.2c0.6,0.6,2.1,1.1,4.3,1.6
		c3.7,0.8,6.4,1.5,8.2,2.3c1.7,0.8,3.2,2,4.4,3.7C236.6,456,237.2,457.9,237.2,460z"/>
	<path class="st3" d="M221.1,465.2v6.9c-3.3-0.1-6.2-1-8.6-2.5c-2.6-1.7-4.4-4.2-5.2-7.6l7.9-1.8C216,463.2,218,464.8,221.1,465.2z"
		/>
	<polygon class="st3" points="261.3,451.3 261.3,467.8 254.8,456.5 254.8,440 	"/>
	<path class="st3" d="M252.1,451.8l-2.8-4.9c0,0.6,0,1,0.1,1.2c0.1,0.6,0.1,1.1,0.1,1.6v21.8h-6.7v-36.5h9.2l0.1,0.2L252.1,451.8
		L252.1,451.8z"/>
	<path class="st3" d="M270.8,435.1v36.5h-6.8v-15.5l0.3,0.5c-0.1-1.1-0.2-1.9-0.2-2.4v-19.1L270.8,435.1L270.8,435.1z"/>
	<path class="st3" d="M278.1,435.1v36.5h8.5v-36.5H278.1z"/>
	<path class="st3" d="M322.3,446.3c0,1.8-0.4,3.6-1.1,5.3c-0.7,1.7-1.7,3.1-3,4c-1.3,1-2.6,1.6-3.8,2c-1.2,0.3-3.1,0.5-5.7,0.5h-6
		v13.5H294v-36.5h8.4v16.3h5.6c2.1,0,3.6-0.5,4.5-1.5c0.8-1,1.3-2.1,1.3-3.4c0-1.5-0.5-2.7-1.4-3.5c-1-0.9-2.4-1.3-4.3-1.3h-2.8
		v-6.6h3.3c3.2,0,5.7,0.3,7.4,1c1.7,0.7,3.2,1.9,4.6,3.7C321.6,441.6,322.3,443.7,322.3,446.3z"/>
	<rect x="338.4" y="449.5" class="st3" width="11" height="6.9"/>
	<rect x="338.4" y="435.1" class="st3" width="14.7" height="6.9"/>
	<rect x="338.4" y="464.4" class="st3" width="14.7" height="7.2"/>
	<rect x="327" y="435.1" class="st3" width="8.7" height="36.5"/>
	<path class="st3" d="M387.9,471.6h-9.4l-5.6-14.4h-6.1v14.4h-8.6v-36.5h8.6v15.8h5.2c1.7,0,3-0.1,3.7-0.4c0.8-0.2,1.5-0.8,2.1-1.6
		c0.6-0.8,0.9-1.8,0.9-2.8c0-1-0.3-1.9-0.9-2.7c-0.6-0.8-1.3-1.3-2-1.5c-0.7-0.2-2-0.3-4-0.3h-2.3v-6.5h4.7c3,0,5.3,0.3,7.1,1
		c1.8,0.7,3.3,1.9,4.4,3.8c1.2,1.8,1.8,3.9,1.8,6.1c0,4.4-2.1,7.5-6.3,9.4L387.9,471.6z"/>
</g>
</svg>
