<?xml version="1.0" encoding="utf-8"?>
<!-- Generator: Adobe Illustrator 25.2.1, SVG Export Plug-In . SVG Version: 6.00 Build 0)  -->
<svg version="1.1" id="Слой_1" xmlns="http://www.w3.org/2000/svg" xmlns:xlink="http://www.w3.org/1999/xlink" x="0px" y="0px"
	 viewBox="0 0 595.3 841.9" style="enable-background:new 0 0 595.3 841.9;" xml:space="preserve">
<style type="text/css">
	.st0{fill:#4AA974;stroke:#FFFFFF;stroke-miterlimit:10;}
	.st1{fill:#FFFFFF;}
	.st2{fill:#4AA974;}
</style>
<path class="st0" d="M514,781.8h-433C60,781.8,43,764.8,43,743.8V98.3c-0.1-21.1,17-38.2,38.1-38.2h433c21.1,0,38.1,17.1,38.1,38.1
	v645.4C552.1,764.8,535,781.8,514,781.8z"/>
<path class="st1" d="M297.6,208c-103.1,0-189.1,73.2-208.7,170.5l-0.3,1.3c-2.6,13.3-4,27-4,41.1c0,71,34.7,133.8,88.1,172.5l7-41
	c-36.1-32.3-58.8-79.3-58.8-131.5c0-6.3,0.3-12.5,1-18.7c0.3-2.7,0.6-5.4,1-8c0.5-3,1-6,1.6-8.9l-29.2-28.5l40-5.8
	c24.9-57.7,79.6-99.5,144.8-105.9l17.4-35.2l17.4,35.2c65.2,6.3,120.1,48.2,144.9,105.9l39.8,5.8l-29.1,28.3
	c2.4,11.5,3.6,23.5,3.6,35.7c0,52.3-22.8,99.3-58.9,131.7l7,41c53.5-38.7,88.3-101.6,88.3-172.6C510.6,303.3,415.2,208,297.6,208z
	 M384.6,574.6c-25.7,14.6-55.4,22.9-87,22.9c-31.7,0-61.4-8.3-87.1-22.9l-37,19.4c34.9,25.1,77.8,39.9,124.1,39.9
	c46.3,0,89.1-14.8,124-39.8L384.6,574.6z"/>
<path class="st1" d="M499.7,356.9l-29.1,28.3c-2.4-11.9-6-23.3-10.7-34.1L499.7,356.9z"/>
<path class="st2" d="M521.3,349.1L472.1,397c-4.1-20-10.2-39.3-18.1-57.6L521.3,349.1z"/>
<path class="st2" d="M437.9,614.6c-0.4,0.3-0.8,0.6-1.2,0.9l-66-34.4c19.6-11,37.9-24.1,54.7-38.9L437.9,614.6z"/>
<path class="st2" d="M223.8,581.1l-66,34.7c-0.4-0.3-0.9-0.6-1.3-1l12.5-73.1C185.8,556.7,204.2,570,223.8,581.1z"/>
<path class="st2" d="M141,340c-7.9,18.3-14,37.6-18.1,57.7l-49.2-47.9L141,340z"/>
<path class="st2" d="M330.2,247.9c-11-1.1-22.1-1.6-33.4-1.6c-11.4,0-22.7,0.6-33.8,1.6l33.6-68.1L330.2,247.9z"/>
<path class="st1" d="M398.6,455.4l16.7,97.2c-9.4,8.4-19.6,15.8-30.6,22l-87.1-45.8l-87,45.7c-11-6.3-21.3-13.7-30.7-22.1l16.6-97.1
	l-71.8-70c2.4-11.9,6.1-23.4,10.8-34.3l99.7-14.5l45.1-91.4c5.7-0.6,11.6-0.8,17.4-0.8c5.8,0,11.6,0.3,17.3,0.8l45.1,91.4l99.8,14.5
	c4.7,10.8,8.3,22.3,10.7,34.1L398.6,455.4z"/>
<path class="st1" d="M499.7,356.9l-29.1,28.3c-2.4-11.9-6-23.3-10.7-34.1L499.7,356.9z"/>
<path class="st1" d="M422.2,593.4c-0.2,0.2-0.5,0.3-0.7,0.5l-37-19.5c11-6.2,21.3-13.6,30.6-22L422.2,593.4z"/>
<path class="st1" d="M210.7,574.1l-37,19.4c-0.2-0.2-0.5-0.3-0.8-0.5l7-41C189.4,560.5,199.7,567.9,210.7,574.1z"/>
<path class="st1" d="M135.5,351.1c-4.7,10.9-8.3,22.4-10.8,34.3l-29.2-28.5L135.5,351.1z"/>
<path class="st1" d="M315,245.3c-5.7-0.6-11.4-0.8-17.3-0.8c-5.9,0-11.7,0.3-17.4,0.8l17.4-35.2L315,245.3z"/>
</svg>
