<?xml version="1.0" encoding="utf-8"?>
<!-- Generator: Adobe Illustrator 25.2.1, SVG Export Plug-In . SVG Version: 6.00 Build 0)  -->
<svg version="1.1" id="Слой_1" xmlns="http://www.w3.org/2000/svg" xmlns:xlink="http://www.w3.org/1999/xlink" x="0px" y="0px"
	 viewBox="0 0 595.3 841.9" style="enable-background:new 0 0 595.3 841.9;" xml:space="preserve">
<style type="text/css">
	.st0{fill:#5895A2;stroke:#FFFFFF;stroke-miterlimit:10;}
	.st1{fill:#FFFFFF;}
</style>
<path class="st0" d="M514,781.8H81c-21,0-38-17-38-38V98.3c-0.1-21.1,17-38.2,38.1-38.2h433c21.1,0,38.1,17.1,38.1,38.1v645.4
	C552.1,764.8,535,781.8,514,781.8z"/>
<g>
	<polygon class="st1" points="270.8,449.6 270.8,628 244.1,628 244.1,476.3 92.5,476.3 92.5,449.6 	"/>
	<polygon class="st1" points="324.4,449.6 324.4,628 351.1,628 351.1,476.3 502.7,476.3 502.7,449.6 	"/>
	<polygon class="st1" points="324.4,392.3 502.7,392.3 502.7,365.6 351.1,365.6 351.1,213.9 324.4,213.9 	"/>
	<polygon class="st1" points="270.8,392.3 92.5,392.3 92.5,365.6 244.1,365.6 244.1,213.9 270.8,213.9 	"/>
</g>
</svg>
