<?xml version="1.0" encoding="utf-8"?>
<!-- Generator: Adobe Illustrator 25.2.1, SVG Export Plug-In . SVG Version: 6.00 Build 0)  -->
<svg version="1.1" id="Слой_1" xmlns="http://www.w3.org/2000/svg" xmlns:xlink="http://www.w3.org/1999/xlink" x="0px" y="0px"
	 viewBox="0 0 595.3 841.9" style="enable-background:new 0 0 595.3 841.9;" xml:space="preserve">
<style type="text/css">
	.st0{fill:#CEB95E;}
	.st1{fill:#5895A2;}
	.st2{fill:#FFFFFF;}
</style>
<path class="st0" d="M309.5,625.3c0.2,0,0.4-0.1,0.6-0.2v0.9L309.5,625.3z"/>
<circle class="st1" cx="297.6" cy="420.9" r="243.5"/>
<g>
	<polygon class="st2" points="274.1,446.1 274.1,602.9 250.6,602.9 250.6,469.6 117.3,469.6 117.3,446.1 	"/>
	<polygon class="st2" points="321.2,446.1 321.2,602.9 344.7,602.9 344.7,469.6 477.9,469.6 477.9,446.1 	"/>
	<polygon class="st2" points="321.2,395.8 477.9,395.8 477.9,372.3 344.7,372.3 344.7,238.9 321.2,238.9 	"/>
	<polygon class="st2" points="274.1,395.8 117.3,395.8 117.3,372.3 250.6,372.3 250.6,238.9 274.1,238.9 	"/>
</g>
</svg>
