<?xml version="1.0" encoding="utf-8"?>
<!-- Generator: Adobe Illustrator 25.2.1, SVG Export Plug-In . SVG Version: 6.00 Build 0)  -->
<svg version="1.1" id="Слой_1" xmlns="http://www.w3.org/2000/svg" xmlns:xlink="http://www.w3.org/1999/xlink" x="0px" y="0px"
	 viewBox="0 0 595.3 841.9" style="enable-background:new 0 0 595.3 841.9;" xml:space="preserve">
<style type="text/css">
	.st0{fill:#CEB95E;}
	.st1{fill:none;stroke:#FFFFFF;stroke-width:3;stroke-miterlimit:10;}
	.st2{fill:#FFFFFF;}
</style>
<path class="st0" d="M309.5,625.3c0.2,0,0.4-0.1,0.6-0.2v0.9L309.5,625.3z"/>
<path class="st0" d="M355.3,420.9l85.4,100.1c-2,0.5-4,0.7-6.1,0.7H180.1c-14.1,0-25.6-11.5-25.6-25.6V345.6
	c0-14.1,11.5-25.6,25.6-25.6h254.5c2.1,0,4.2,0.3,6.1,0.7L355.3,420.9z"/>
<path class="st0" d="M335.8,446.3v0.9c-0.2-0.1-0.4-0.1-0.6-0.2L335.8,446.3z"/>
<circle class="st1" cx="260.2" cy="420.9" r="70.7"/>
<g>
	<path class="st2" d="M292.2,446.7l-1.4,16.6h-62.6v-16.2c2-1.5,5.4-4,10.1-7.3c11.4-8.1,19.8-14.9,25-20.1
		c5.2-5.3,7.8-10.1,7.8-14.5c0-3.2-1-5.9-3.1-8c-2.1-2.1-4.9-3.1-8.4-3.1c-8.1,0-12.9,5.3-14.2,15.9l-17.2-3.8
		c3.9-18.4,14.6-27.6,32.2-27.6c9.9,0,17.4,2.6,22.7,7.8c5.3,5.2,7.9,11.3,7.9,18.5c0,7.4-2.8,14-8.3,19.9s-15.7,13.1-30.5,21.9
		H292.2z"/>
</g>
</svg>
