<?xml version="1.0" encoding="utf-8"?>
<!-- Generator: Adobe Illustrator 25.2.1, SVG Export Plug-In . SVG Version: 6.00 Build 0)  -->
<svg version="1.1" id="Слой_1" xmlns="http://www.w3.org/2000/svg" xmlns:xlink="http://www.w3.org/1999/xlink" x="0px" y="0px"
	 viewBox="0 0 595.3 841.9" style="enable-background:new 0 0 595.3 841.9;" xml:space="preserve">
<style type="text/css">
	.st0{fill:#CEB95E;}
	.st1{fill:none;stroke:#FFFFFF;stroke-width:3;stroke-miterlimit:10;}
	.st2{fill:#FFFFFF;}
</style>
<path class="st0" d="M309.5,625.3c0.2,0,0.4-0.1,0.6-0.2v0.9L309.5,625.3z"/>
<g>
	<path class="st0" d="M355.3,420.9l85.4,100.1c-2,0.5-4,0.7-6.1,0.7H180.1c-14.1,0-25.6-11.5-25.6-25.6V345.6
		c0-14.1,11.5-25.6,25.6-25.6h254.5c2.1,0,4.2,0.3,6.1,0.7L355.3,420.9z"/>
	<path class="st0" d="M335.8,446.3v0.9c-0.2-0.1-0.4-0.1-0.6-0.2L335.8,446.3z"/>
	<circle class="st1" cx="260.2" cy="420.9" r="70.7"/>
	<g>
		<path class="st2" d="M230.9,413.4v-15.9c13.3-3.9,22-9.1,26.1-15.7h13.1V446h21.3v14.1H229V446h23.4v-44.1
			C243.2,407.4,236,411.3,230.9,413.4z"/>
	</g>
</g>
</svg>
