<?xml version="1.0" encoding="utf-8"?>
<!-- Generator: Adobe Illustrator 25.2.1, SVG Export Plug-In . SVG Version: 6.00 Build 0)  -->
<svg version="1.1" id="Слой_1" xmlns="http://www.w3.org/2000/svg" xmlns:xlink="http://www.w3.org/1999/xlink" x="0px" y="0px"
	 viewBox="0 0 595.3 841.9" style="enable-background:new 0 0 595.3 841.9;" xml:space="preserve">
<style type="text/css">
	.st0{fill:#CEB95E;}
	.st1{fill:#4AA974;}
	.st2{fill:#FFFFFF;}
	.st3{fill:#4AAA75;}
</style>
<path class="st0" d="M309.5,625.3c0.2,0,0.4-0.1,0.6-0.2v0.9L309.5,625.3z"/>
<circle class="st1" cx="297.6" cy="420.9" r="243.5"/>
<g>
	<path class="st2" d="M297.9,235.9c-91.4,0-167.7,64.9-185.1,151.2l-0.3,1.2c-2.3,11.8-3.5,23.9-3.5,36.4c0,63,30.8,118.6,78.1,153
		l6.2-36.4c-32-28.6-52.1-70.3-52.1-116.6c0-5.6,0.3-11.1,0.9-16.6c0.3-2.4,0.5-4.8,0.9-7.1c0.4-2.7,0.9-5.3,1.4-7.9l-25.9-25.3
		l35.5-5.1c22.1-51.2,70.6-88.2,128.4-93.9l15.4-31.2l15.4,31.2c57.8,5.6,106.5,42.7,128.5,93.9l35.3,5.1l-25.8,25.1
		c2.1,10.2,3.2,20.8,3.2,31.7c0,46.4-20.2,88.1-52.2,116.8l6.2,36.4c47.4-34.3,78.3-90.1,78.3-153
		C486.7,320.4,402.1,235.9,297.9,235.9z M375,561c-22.8,12.9-49.1,20.3-77.1,20.3c-28.1,0-54.4-7.4-77.2-20.3l-32.8,17.2
		c30.9,22.3,69,35.4,110,35.4s79-13.1,110-35.3L375,561z"/>
	<path class="st3" d="M496.2,361l-43.6,42.5c-3.6-17.7-9-34.8-16-51.1L496.2,361z"/>
	<path class="st3" d="M422.3,596.4c-0.4,0.3-0.7,0.5-1.1,0.8l-58.5-30.5c17.4-9.8,33.6-21.4,48.5-34.5L422.3,596.4z"/>
	<path class="st3" d="M232.4,566.7l-58.5,30.8c-0.4-0.3-0.8-0.5-1.2-0.9l11.1-64.8C198.7,545.1,215,556.9,232.4,566.7z"/>
	<path class="st3" d="M159,352.9c-7,16.2-12.4,33.3-16,51.2l-43.6-42.5L159,352.9z"/>
	<path class="st3" d="M326.8,271.3c-9.8-1-19.6-1.4-29.6-1.4c-10.1,0-20.1,0.5-30,1.4l29.8-60.4L326.8,271.3z"/>
	<path class="st2" d="M387.4,455.3l14.8,86.2c-8.3,7.4-17.4,14-27.1,19.5l-77.2-40.6l-77.1,40.5c-9.8-5.6-18.9-12.1-27.2-19.6
		l14.7-86.1l-63.7-62.1c2.1-10.6,5.4-20.7,9.6-30.4l88.4-12.9l40-81c5.1-0.5,10.3-0.7,15.4-0.7c5.1,0,10.3,0.3,15.3,0.7l40,81
		l88.5,12.9c4.2,9.6,7.4,19.8,9.5,30.2L387.4,455.3z"/>
	<path class="st2" d="M477.1,367.9L451.3,393c-2.1-10.6-5.3-20.7-9.5-30.2L477.1,367.9z"/>
	<path class="st2" d="M408.3,577.6c-0.2,0.2-0.4,0.3-0.6,0.4l-32.8-17.3c9.8-5.5,18.9-12.1,27.1-19.5L408.3,577.6z"/>
	<path class="st2" d="M220.8,560.5L188,577.7c-0.2-0.2-0.4-0.3-0.7-0.4l6.2-36.4C201.9,548.5,211,555,220.8,560.5z"/>
	<path class="st2" d="M154.1,362.8c-4.2,9.7-7.4,19.9-9.6,30.4l-25.9-25.3L154.1,362.8z"/>
	<path class="st2" d="M313.3,269c-5.1-0.5-10.1-0.7-15.3-0.7s-10.4,0.3-15.4,0.7l15.4-31.2L313.3,269z"/>
</g>
</svg>
