<?xml version="1.0" encoding="utf-8"?>
<!-- Generator: Adobe Illustrator 25.2.1, SVG Export Plug-In . SVG Version: 6.00 Build 0)  -->
<svg version="1.1" id="Слой_1" xmlns="http://www.w3.org/2000/svg" xmlns:xlink="http://www.w3.org/1999/xlink" x="0px" y="0px"
	 viewBox="0 0 595.3 841.9" style="enable-background:new 0 0 595.3 841.9;" xml:space="preserve">
<style type="text/css">
	.st0{fill:#CEB95E;}
	.st1{fill:none;stroke:#FFFFFF;stroke-width:3;stroke-miterlimit:10;}
	.st2{fill:#FFFFFF;}
</style>
<path class="st0" d="M309.5,625.3c0.2,0,0.4-0.1,0.6-0.2v0.9L309.5,625.3z"/>
<path class="st0" d="M355.3,420.9l85.4,100.1c-2,0.5-4,0.7-6.1,0.7H180.1c-14.1,0-25.6-11.5-25.6-25.6V345.6
	c0-14.1,11.5-25.6,25.6-25.6h254.5c2.1,0,4.2,0.3,6.1,0.7L355.3,420.9z"/>
<path class="st0" d="M335.8,446.3v0.9c-0.2-0.1-0.4-0.1-0.6-0.2L335.8,446.3z"/>
<circle class="st1" cx="260.2" cy="420.9" r="70.7"/>
<g>
	<path class="st2" d="M249.5,412.1h8.9c5.1,0,8.5-1.1,10.4-3.2c1.8-2.1,2.7-4.4,2.7-6.8c0-2.7-1-5.1-3-7.2c-2-2.1-4.8-3.1-8.4-3.1
		c-6.9,0-11.2,3.6-13,10.9l-17.5-2.8c1.4-6.5,5-11.9,10.5-16.2c5.6-4.3,12.4-6.4,20.6-6.4c8.5,0,15.7,2,21.5,6.1
		c5.8,4.1,8.7,9.6,8.7,16.6c0,9.2-4.8,15.5-14.5,18.9c11.4,3,17.1,9.7,17.1,20.1c0,7.4-2.9,13.6-8.7,18.3c-5.8,4.8-13.8,7.2-24,7.2
		c-9.8,0-17.6-2.5-23.3-7.4c-5.7-4.9-9.2-11-10.3-18.3l18-2.6c1.7,8.7,6.8,13.1,15.1,13.1c3.9,0,7-1,9.5-3.1
		c2.4-2.1,3.6-4.8,3.6-8.3c0-3.7-1.1-6.4-3.3-8.2c-2.2-1.8-6.4-2.7-12.7-2.7h-7.8V412.1z"/>
</g>
</svg>
