<?xml version="1.0" encoding="utf-8"?>
<!-- Generator: Adobe Illustrator 25.2.1, SVG Export Plug-In . SVG Version: 6.00 Build 0)  -->
<svg version="1.1" id="Слой_1" xmlns="http://www.w3.org/2000/svg" xmlns:xlink="http://www.w3.org/1999/xlink" x="0px" y="0px"
	 viewBox="0 0 595.3 841.9" style="enable-background:new 0 0 595.3 841.9;" xml:space="preserve">
<style type="text/css">
	.st0{fill:#CEB95E;}
	.st1{fill:#5996A2;}
	.st2{fill:#FFFFFF;}
</style>
<path class="st0" d="M309.5,625.3c0.2,0,0.4-0.1,0.6-0.2v0.9L309.5,625.3z"/>
<circle class="st1" cx="297.6" cy="420.9" r="243.5"/>
<g>
	<path class="st2" d="M128.7,516.4c0-4.5,0-9,0-13.5c4-19.5,8.8-38.9,11.8-58.6c2.8-19,10.3-34.2,27.5-43.8c1.8-1,3.3-3.8,3.6-6
		c1.9-13.6,4.1-27.2,5-40.9c0.9-12.9,6.5-22.5,17.1-29.1c15.4-9.7,32.2-11.8,49.7-7.4c13.9,3.5,26.7,9.5,33.5,23.1
		c2.7,5.5,2.8,12.2,3.9,17.6c11.5,0,23,0,34.6,0c0.2-16.6,4.4-25.1,18.1-33.1c19-11,39.2-13.1,59.7-4.7c13.4,5.5,23.3,14.5,25.2,30
		c1.6,13.6,3.6,27.2,5,40.9c0.5,5.1,2,8.6,6.8,11.4c13.3,8,21.1,19.7,23.6,35.5c3.1,19.2,7,38.3,11.3,57.3
		c5.3,23.4-2.7,41.2-21.5,54.8c-27.1,19.5-68.5,19.9-96.1,1.1c-16.4-11.2-25.7-26.2-24.8-46.7c0.3-6.7,0-13.4,0-20.7
		c-16.7,6-32.8,6.3-49.5-0.1c0,7.8-0.2,15,0,22.2c0.4,14.9-5.1,27.2-15.5,37.6C221.6,579.2,142,569.7,128.7,516.4z M197.8,544.9
		c19,0,34.2-5.4,44.5-14.6c14.2-12.8,14.3-29.3,0.4-42.4c-21.2-19.9-62.3-20-83.5-0.2c-14,13-14,29.5,0.2,42.4
		C171,540.8,185.4,544.3,197.8,544.9z M391.1,544.9c18.8,0.1,34.3-5.2,44.4-14.2c14.7-13.1,14.9-29.4,0.7-42.9
		c-21.2-19.9-63.3-19.7-84.1,0.5c-13.1,12.7-13,29,0.4,41.4C364.2,540.5,378.5,544.2,391.1,544.9z M299.7,471
		c1.7-0.5,5.2-1.1,8.4-2.3c6-2.1,10.9-5.9,11.1-12.6c0.2-7.2-4.9-11.2-11.1-13.3c-3.5-1.2-7.3-1.8-10.9-1.8
		c-11.7,0-21.2,6.8-21.1,14.8C276.3,463.8,286.8,471.1,299.7,471z"/>
	<path class="st2" d="M331.8,302.6c-1.8-10.5,3.2-16.4,10.7-20.5c12.3-6.5,24.8-7,37.2,0c8,4.5,11.1,12,10.5,20.8
		c-0.1,1.5-3.6,4.4-4.9,4.1c-16.2-3.6-31.6-1.2-47.1,4C328.2,314.4,333.2,305.1,331.8,302.6z"/>
	<path class="st2" d="M264,300.9c-0.2,12.3-0.4,12.5-10.7,8.8c-13.5-4.7-27.3-6.1-41.2-3c-6.4,1.4-7.4-0.7-6.9-6.3
		c1.2-15.9,17-26.2,35.4-22.6c4.1,0.8,8.2,2.3,11.9,4.2C260.4,286.1,265.3,292.3,264,300.9z"/>
</g>
</svg>
