<?xml version="1.0" encoding="utf-8"?>
<!-- Generator: Adobe Illustrator 25.2.1, SVG Export Plug-In . SVG Version: 6.00 Build 0)  -->
<svg version="1.1" id="Слой_1" xmlns="http://www.w3.org/2000/svg" xmlns:xlink="http://www.w3.org/1999/xlink" x="0px" y="0px"
	 viewBox="0 0 595.3 841.9" style="enable-background:new 0 0 595.3 841.9;" xml:space="preserve">
<style type="text/css">
	.st0{fill:#CEB95E;}
	.st1{fill:#4AA974;}
	.st2{fill:#FFFFFF;}
</style>
<path class="st0" d="M309.5,625.3c0.2,0,0.4-0.1,0.6-0.2v0.9L309.5,625.3z"/>
<path class="st1" d="M458.6,629.7h-322c-26.3,0-47.7-21.4-47.7-47.7v-322c0-26.3,21.4-47.7,47.7-47.7h322
	c26.3,0,47.7,21.4,47.7,47.7v322C506.4,608.3,485,629.7,458.6,629.7z"/>
<g>
	<path class="st2" d="M223.7,360.3l38,121.2h-30.5l-7.5-25h-39.2l-7.6,25H152l38.9-121.2H223.7z M191.3,434.2H217l-12.7-42.5
		L191.3,434.2z"/>
	<path class="st2" d="M303.5,457.6h48.2v24h-77V360.3h28.8V457.6z"/>
	<path class="st2" d="M395.1,457.6h48.2v24h-77V360.3h28.8V457.6z"/>
</g>
</svg>
