<?xml version="1.0" encoding="utf-8"?>
<!-- Generator: Adobe Illustrator 25.2.1, SVG Export Plug-In . SVG Version: 6.00 Build 0)  -->
<svg version="1.1" id="Слой_1" xmlns="http://www.w3.org/2000/svg" xmlns:xlink="http://www.w3.org/1999/xlink" x="0px" y="0px"
	 viewBox="0 0 595.3 841.9" style="enable-background:new 0 0 595.3 841.9;" xml:space="preserve">
<style type="text/css">
	.st0{fill:#CEB95E;}
	.st1{fill:#4AAA75;}
	.st2{fill:#FFFCF3;}
</style>
<path class="st0" d="M309.5,625.3c0.2,0,0.4-0.1,0.6-0.2v0.9L309.5,625.3z"/>
<circle class="st1" cx="297.6" cy="420.9" r="243.5"/>
<path class="st2" d="M158,428.7c-14.2,0-28.3,0-43,0c0-5.2,0-9.8,0-15.3c14.5,0,28.9,0,43.1,0c7.3-75.5,63.7-125.9,131.6-131.6
	c0-14.3,0-28.6,0-43.4c5.2,0,9.6,0,15,0c0,14.1,0,28.4,0,43c77,11.2,120.9,54.9,132.2,132c14.2,0,28.5,0,43.2,0c0,5.2,0,9.7,0,15
	c-14.3,0-28.6,0-43.8,0c-3,35.4-16,65.8-40.8,90.5c-24.6,24.6-54.6,37.8-90,40.7c0,14.6,0,28.9,0,43.8c-5.4,0-10.1,0-15.5,0
	c0-14.3,0-28.7,0-42.8C213.2,549.4,169.6,505.8,158,428.7z M345.9,428.7c0-5.6,0-10,0-15.3c7.6,0,14.9,0,22.2,0
	c-0.1-30.7-33-63.5-62.9-62.7c0,7.2,0,14.5,0,21.8c-5.5,0-10.1,0-15.6,0c0-7.8,0-15,0-22.1c-38.1,2.1-65,41.3-61.9,63.2
	c7.2,0,14.4,0,21.6,0c0,5.4,0,10.1,0,15.5c-7.8,0-15,0-22.3,0c0.3,31.1,33.2,63.8,62.9,62.3c0-7.2,0-14.5,0-22.1
	c5.4,0,10.1,0,15.5,0c0,7.8,0,15.1,0,22.4c32-0.7,63.5-34.2,62.2-62.8C360.7,428.7,353.6,428.7,345.9,428.7z M289.4,298.3
	c-71.3,3.9-115.4,67.8-113.8,115c9.6,0,19.2-0.3,28.8,0.1c5.2,0.2,6.5-1.8,7.3-6.7c3.5-22.5,14.6-40.7,32.5-54.7
	c13.2-10.4,28.4-15.9,45.2-17.9C289.4,321.8,289.4,310,289.4,298.3z M289.5,508.2c-46-7.9-71.9-34.5-79.4-79.1
	c-12.1,0-23.6,0-35.2,0c3,67,63,114.5,114.5,113.9C289.5,531.5,289.5,519.9,289.5,508.2z M384.4,429c-2.5,21.5-10.9,39.3-25.6,54
	c-14.7,14.6-32.8,22.4-52.9,24.9c0,12.5,0,24.2,0,35.9c71.8-5.3,113.9-67.1,113.8-114.8C408.3,429,396.7,429,384.4,429z
	 M420.2,412.9c-3.5-68.3-64-114.4-114.5-113.9c0,11.5,0,23,0,34.7c45.6,7.6,71.7,34.4,79.2,79.2
	C397.1,412.9,408.6,412.9,420.2,412.9z"/>
</svg>
