<?xml version="1.0" encoding="utf-8"?>
<!-- Generator: Adobe Illustrator 25.2.1, SVG Export Plug-In . SVG Version: 6.00 Build 0)  -->
<svg version="1.1" id="Layer_1" xmlns="http://www.w3.org/2000/svg" xmlns:xlink="http://www.w3.org/1999/xlink" x="0px" y="0px"
	 viewBox="0 0 595.3 841.9" style="enable-background:new 0 0 595.3 841.9;" xml:space="preserve">
<style type="text/css">
	.st0{fill:#C6C6C6;}
	.st1{fill:#FFFCF1;}
	.st2{fill:#5895A2;}
	.st3{fill:#3C3C3B;}
	.st4{fill:#FFFFFF;}
	.st5{fill:#FFFCF1;stroke:#5895A2;stroke-width:4;stroke-miterlimit:10;}
</style>
<rect x="276" y="581.3" class="st0" width="4.2" height="7.2"/>
<path class="st1" d="M514,781.7H81c-21.1,0-38.1-17.1-38.1-38.1V98.2C42.8,77.1,59.9,60,81,60h433c21.1,0,38.1,17.1,38.1,38.1v645.4
	C552.2,764.6,535,781.7,514,781.7z"/>
<rect x="42.8" y="551" class="st2" width="509.3" height="54.6"/>
<polygon class="st2" points="171.6,60 171.6,125.6 128.8,153.2 85.8,125.6 85.8,60 "/>
<polygon class="st0" points="86.1,125.3 86.7,125.3 86.7,125.6 "/>
<rect x="126.4" y="108.6" class="st2" width="4.6" height="24.1"/>
<rect x="169.4" y="680.9" class="st2" width="256.4" height="7.1"/>
<g>
	<path d="M213.4,637.3h12.1c2.4,0,4.2,0.5,5.4,1.6c1.2,1,1.9,2.3,1.9,3.9c0,1.3-0.4,2.4-1.3,3.3c-0.9,0.9-2.2,1.6-3.9,2.2
		c2.2,0.5,3.8,1.2,4.9,2.2s1.6,2.2,1.6,3.7c0,1.2-0.3,2.2-0.9,3c-0.6,0.8-1.6,1.6-3.1,2.2c-1.4,0.6-3.1,0.9-4.9,0.9h-11.7v-1.2h1.9
		c0.6,0,1-0.1,1.3-0.3s0.4-0.4,0.4-0.6v-18.5c0-0.4-0.1-0.8-0.4-1c-0.3-0.2-0.6-0.3-1.1-0.3h-2L213.4,637.3L213.4,637.3z
		 M220.4,647.9h4.4c1.3,0,2.4-0.4,3.2-1.2s1.2-2.1,1.2-3.9c0-1.1-0.2-2-0.6-2.6s-0.9-1.1-1.7-1.4c-0.7-0.3-2-0.4-3.8-0.4
		c-1.3,0-2,0.1-2.3,0.3s-0.4,0.5-0.4,1L220.4,647.9L220.4,647.9z M220.4,649.1v8.9c0,0.4,0.1,0.7,0.4,0.9c0.2,0.2,0.7,0.3,1.3,0.3
		h2.8c1.9,0,3.2-0.4,4.1-1.2c0.9-0.8,1.3-2.1,1.3-3.8c0-1.6-0.5-2.8-1.4-3.7s-2.2-1.4-3.8-1.4H220.4z"/>
	<path d="M243.1,645.4c2,0,3.6,0.7,5,2.1c1.3,1.4,2,3.3,2,5.6c0,1.6-0.3,3-0.9,4.1c-0.6,1.1-1.4,2-2.6,2.7c-1.2,0.7-2.3,1-3.6,1
		c-1.9,0-3.5-0.7-4.8-2.2s-2-3.3-2-5.6s0.7-4.2,2-5.6S241.1,645.4,243.1,645.4z M243.1,646.5c-1.2,0-2.1,0.5-2.9,1.6s-1.1,2.7-1.1,5
		s0.4,4,1.1,5.1c0.7,1.1,1.7,1.6,2.9,1.6s2.2-0.5,3-1.6s1.1-2.8,1.1-5.3c0-2.3-0.4-3.9-1.1-4.9C245.2,647,244.2,646.5,243.1,646.5z"
		/>
	<path d="M257.6,637.1v21.2c0,0.3,0.1,0.5,0.3,0.7c0.3,0.2,0.6,0.3,1,0.3h1.5v1.2h-8.3v-1.2h1.5c0.5,0,0.8-0.1,1.1-0.3
		c0.2-0.2,0.4-0.5,0.4-1v-17.8c0-0.5-0.1-0.9-0.4-1.1c-0.4-0.3-0.9-0.5-1.4-0.5H252v-1.2L257.6,637.1z"/>
	<path d="M264,654.9c0.6,1.8,1.4,3,2.2,3.7c0.8,0.7,1.9,1,3.1,1c1.1,0,2-0.2,2.6-0.7s0.9-1.1,0.9-1.9c0-0.4-0.1-0.8-0.3-1.2
		c-0.2-0.3-0.5-0.6-0.9-0.7c-0.4-0.1-1.4-0.4-3.1-0.7c-1.6-0.3-2.7-0.6-3.3-1c-0.6-0.3-1.1-0.8-1.5-1.4c-0.4-0.6-0.5-1.3-0.5-2
		c0-1.1,0.4-2,1.1-2.9c0.9-1.1,2.2-1.7,3.9-1.7c1.3,0,2.5,0.4,3.5,1.2l1-1.1h0.6l0.4,5.2h-1c-0.5-1.5-1.1-2.5-1.9-3.2s-1.8-1-2.9-1
		c-1,0-1.8,0.2-2.3,0.7c-0.6,0.5-0.9,1.1-0.9,1.8c0,0.6,0.3,1.1,0.8,1.5s1.5,0.8,3,1c1.7,0.3,2.9,0.5,3.4,0.7c0.9,0.3,1.5,0.8,2,1.4
		c0.5,0.6,0.7,1.4,0.7,2.4c0,1.3-0.5,2.4-1.5,3.3c-1,0.9-2.3,1.3-3.9,1.3c-1.5,0-2.8-0.5-4-1.4l-1.1,1.3h-0.8l-0.3-5.8L264,654.9
		L264,654.9z"/>
	<path d="M280.9,639.8h1v6h4.7v1.4h-4.7v9.4c0,0.8,0.2,1.4,0.6,1.9c0.4,0.4,0.9,0.7,1.5,0.7c0.7,0,1.3-0.3,1.8-1s0.8-1.7,0.9-3.2h1
		c-0.1,2-0.5,3.4-1.3,4.3c-0.8,0.9-1.9,1.4-3.2,1.4c-1.2,0-2.1-0.3-2.8-1c-0.7-0.7-1-1.5-1-2.6v-9.8h-2.5v-1.1
		c1.2-0.2,2-0.7,2.6-1.5C280.4,643.5,280.8,641.9,280.9,639.8z"/>
	<path d="M303.1,653.2h-10.5c0,2.2,0.5,3.8,1.2,4.7c0.9,1,2,1.5,3.4,1.5c2,0,3.7-1.2,4.9-3.5l1,0.4c-1.5,3-3.7,4.4-6.6,4.4
		c-2,0-3.6-0.7-5-2.1c-1.3-1.4-2-3.2-2-5.4c0-2.4,0.7-4.3,2-5.8s2.9-2.2,4.9-2.2c1.4,0,2.6,0.4,3.7,1.1c1,0.7,1.8,1.8,2.3,3.1
		C303,650.5,303.1,651.8,303.1,653.2z M292.8,652.1h6.3c0.4,0,0.7-0.1,0.9-0.4s0.3-0.7,0.3-1.3c0-1.2-0.4-2.1-1.1-2.9
		s-1.5-1.2-2.5-1.2c-1.1,0-2,0.5-2.8,1.5C293.1,648.7,292.8,650.2,292.8,652.1z"/>
	<path d="M305.2,645.8l5.3-0.3v5.9c0.6-2,1.2-3.4,2-4.4s1.8-1.5,2.9-1.5c0.8,0,1.4,0.2,1.9,0.7s0.7,1.1,0.7,2c0,0.7-0.2,1.2-0.5,1.5
		c-0.3,0.4-0.7,0.5-1.2,0.5s-0.9-0.2-1.1-0.5c-0.3-0.3-0.4-0.7-0.4-1.3c0-0.3,0.1-0.7,0.2-1c0.2-0.3,0.2-0.4,0.2-0.5
		c0-0.2-0.1-0.2-0.3-0.2c-0.4,0-0.9,0.2-1.5,0.8c-0.8,0.7-1.3,1.7-1.7,2.9c-0.6,1.9-0.9,3.4-0.9,4.5v3.1c0,0.3,0.1,0.6,0.4,0.8
		s0.7,0.3,1.3,0.3h1.9v1.2h-9.1v-1.2h1.5c0.5,0,0.9-0.1,1.1-0.3s0.4-0.4,0.4-0.7V649c0-0.7-0.1-1.2-0.5-1.5
		c-0.3-0.3-0.7-0.5-1.3-0.5h-1.3V645.8L305.2,645.8z"/>
</g>
<circle class="st3" cx="359.6" cy="648.8" r="21.9"/>
<g>
	<path class="st4" d="M369.1,655.8l-0.4,5h-19V656c0.6-0.5,1.6-1.2,3.1-2.2c3.5-2.5,6-4.5,7.6-6.1s2.4-3.1,2.4-4.4
		c0-1-0.3-1.8-1-2.4c-0.6-0.6-1.5-1-2.5-1c-2.5,0-3.9,1.6-4.3,4.8l-5.2-1.2c1.2-5.6,4.4-8.4,9.8-8.4c3,0,5.3,0.8,6.9,2.4
		c1.6,1.6,2.4,3.5,2.4,5.6c0,2.2-0.8,4.3-2.5,6c-1.7,1.8-4.8,4-9.2,6.7L369.1,655.8L369.1,655.8z"/>
</g>
<polygon class="st2" points="121.1,708.7 105.4,700.3 89.7,708.3 92.9,690.8 80.4,678.3 97.9,676 106.1,660.2 113.7,676.2 
	131.1,679 118.3,691.2 "/>
<polygon class="st2" points="512.5,708.7 496.9,700.3 481,708.3 484.4,690.8 471.8,678.3 489.4,676 497.5,660.2 505,676.2 
	522.5,679 509.6,691.2 "/>
<polygon class="st2" points="171.6,130.5 171.6,157.7 128.8,185 85.8,157.7 85.8,130.5 128.8,157.7 "/>
<path class="st2" d="M317.5,163.3c0.5,0,1,0,1.5,0c2.2,0.5,4.4,1.3,6.4,2.5c2.4,1.4,4.6,3.1,6,5.6c1,1.7,1.6,3.5,1.4,5.5
	c-0.1,1.8-0.2,3.6-0.2,5.3c0.1,1.4,0.3,2.8-0.2,4.2c0,0.1,0,0.2,0,0.3c0.1,0,0.2,0,0.3,0c1.2-0.2,1.5,0.1,1.8,1.3
	c0.1,0.3,0.1,0.6,0.1,0.9c-0.2,2.1-0.3,4.3-0.6,6.4c-0.3,1.9-1.3,3.6-3,4.5c-0.8,0.5-1.2,1.1-1.3,1.9c-0.1,0.3-0.1,0.6-0.2,0.8
	c-0.5,1.3-0.9,2.7-1.4,4c-0.2,0.5-0.2,0.9,0.4,1c0.5,0.1,1,0.4,1.5,0.5c1.9,0.6,3.5,1.7,4.8,3.1c0.1,0.1,0.2,0.3,0.3,0.4
	c0.7,1.6,1.4,3.1,2.2,4.6c0.1,0.3,0.5,0.6,0.8,0.7c3.2,1.4,6.4,2.8,9.7,4c2.6,1,4.8,2.5,6.4,4.8c1.5,2.2,3,4.4,4.3,6.7
	s2.8,4.6,3.4,7.3c0.3,1.4,0.7,2.8,0.6,4.3c-0.1,1.7-0.1,3.5,0,5.2c0.2,2.5,1,4.7,3,6.3c0.8,0.6,1,1.5,1.1,2.5c0.1,1.7,0.2,3.5,0.8,5
	c1,2.8,1.4,5.7,1.6,8.7c0.3,4,0.6,8,0.8,12c0.1,1.8,0.3,3.6-0.5,5.3c-0.1,0.3-0.1,0.7,0,1c0.5,2.1,1,4.3,1.5,6.4
	c0.1,0.4,0.4,0.9,0.7,1.2c0.3,0.3,0.4,0.6,0.4,1.1c-0.1,1.9-0.1,3.7-0.1,5.6c0,2.7,0,5.3-0.8,8c-0.5,1.4-0.4,3-0.5,4.5
	c0,0.2,0.2,0.5,0.4,0.8c0.1,0.1,0.4,0.2,0.5,0.3c0.9,0.4,1,0.6,0.6,1.5c-0.4,1-0.8,2-1.3,3c-2.2,4.4-4.4,8.9-6.6,13.3
	c-0.2,0.4-0.2,0.7,0.2,1c0.4,0.3,0.5,0.6,0.4,1.1c-0.4,1.1-0.8,2.2-1.2,3.2c-0.1,0.3-0.5,0.5-0.7,0.8c-0.1,0.1-0.3,0.2-0.3,0.4
	c0,1.2,0,2.4,0.1,3.6c0,0.9,0.1,1.9-0.1,2.8c-0.1,0.5-0.4,0.9-0.7,1.3c-0.3,0.3-0.8,0.5-1.1,0.7c-1,0.8-2.1,1.5-3.1,2.3
	c-0.3,0.2-0.7,0.4-1.1,0.5c-0.7,0.2-1.4,0.2-2,0.3c-0.8,0.2-1.6,0.5-2.5,0.8c-0.4,0.1-0.8,0.2-1.1,0.5c-0.9,0.7-1.9,1.3-3.1,1.4
	c0,0,0,0-0.1,0.1c0,0.3,0,0.7,0.1,1.1c0.4,2.2,0.8,4.4,0.9,6.6c0.1,1.6-0.2,3-0.8,4.4c-0.3,0.6-0.5,1.2-0.5,1.9
	c-0.2,3.7-0.2,7.4-0.6,11.1c-0.5,4.7-1.2,9.3-1.8,14c-0.2,1.4-0.4,2.8-0.8,4.2c-0.3,1.1-0.4,1.1-1.4,0.5c0,0-0.1,0-0.2,0
	c-0.2,0.9-0.5,1.8-0.7,2.7c-0.7,3.9-1.2,7.9-1.2,11.9c0,2.4-0.2,4.8-0.9,7.1c-0.4,1.4-0.8,2.9-1.1,4.3c-0.1,0.6-0.2,1.3-0.1,1.9
	c0.2,1.4,0.7,2.8,0.8,4.2c0.1,2,0.1,4,0.1,6c0,0.9-0.2,1.7-0.1,2.6c0.5,3.2,1.1,6.4,1.6,9.6c0.4,2.4,0.8,4.8,0.8,7.2
	c0.1,4.1-0.2,8.1-0.3,12.2c0,0.6,0.2,1,0.6,1.4c0.3,0.2,0.6,0.5,0.9,0.8c0.5,0.4,0.6,0.9,0.3,1.4c-0.3,0.7-0.6,1.3-1.1,1.9
	c-0.8,1-1.6,1.9-2.4,2.9c-0.2,0.2-0.3,0.5-0.3,0.8c0,0.8,0.1,1.5,0.2,2.3c0.1,1.6,0.2,3.1,0.3,4.7c0.1,1.3,0,2.6-1,3.6
	c-0.1,0.1-0.1,0.3,0,0.4c1,2.1,1.9,4.2,3.1,6.3c1.4,2.5,2.9,4.9,3.9,7.5c0.5,1.2,0.7,2.3,0.5,3.6c-0.2,1.5-0.6,3.1-0.7,4.6
	c-0.2,1.7-0.9,3.2-1.8,4.6c-0.4,0.7-1,1.2-1.8,1.5c-0.9,0.3-1.8,0.8-2.7,1c-0.8,0.2-1.7,0.3-2.4,0.1c-2-0.6-4.1-1.3-6-2.2
	c-1.4-0.6-2.4-1.7-3.1-3c-0.8-1.5-1.5-3.1-1.5-4.9c0-0.9-0.1-1.9-0.2-2.8c-0.2-1.6-0.7-3-2.2-3.7c-1.8-0.8-3.1-2.2-4.1-3.9
	c-0.6-1-0.7-2-0.6-3.1c0.1-0.8,0.1-1.6,0-2.3c-0.2-1.4-0.2-2.8,0.1-4.2c0.2-0.8,0-1-1-0.9c-0.1,1.6-0.2,3.2-0.2,4.8
	c0,0.5,0.2,1.1,0.4,1.6c0.1,0.5,0.3,1,0.4,1.5c0.2,1.9-0.3,3.7-0.6,5.6c0,0.2-0.2,0.4-0.3,0.5c-1.4,0.9-2.9,1.8-4.3,2.6
	c-1.4,0.8-3,1.4-4.4,2.2c-2.4,1.4-4.6,3-7,4.5c-1.6,1-3.3,1.7-5.2,2c-1.5,0.2-3,0.5-4.5,0.7c-1.1,0.1-2.2,0.5-3.2,0.2
	c-1.8-0.4-3.5-1.1-5.2-1.7c-0.6-0.2-0.9-0.7-1.1-1.4c-0.2-0.8-0.4-1.5-0.7-2.2c-0.2-0.5-0.6-0.9-0.6-1.4c-0.2-1.6-0.2-3.3,0.8-4.7
	c2.2-3.1,4.9-5.9,7.7-8.5c0.3-0.3,0.6-0.6,0.8-1c0.5-0.8,0.9-1.5,1.4-2.3c0.1-0.2,0.3-0.4,0.4-0.6c0.4-0.7,0.7-1.5,1-2.2
	c0.1-0.2,0.2-0.4,0.2-0.6c-0.2-1-0.5-1.9-0.7-2.9c-0.4-2-0.8-3.9,0-5.9c0.3-0.8,0.1-1.4-0.4-2c-1.1-1.5-2.2-3.1-3.3-4.7
	c-0.2-0.3-0.4-0.6-0.5-1c-1.7-4.2-2.8-8.5-3.9-12.9c-0.2-0.9-0.3-2-0.2-2.9c0.2-1.9,0.5-3.7,0.8-5.6c0.4-2.3,1.2-4.6,0.8-7
	c-0.1-0.6-0.1-1.2-0.1-1.8c0.1-4.1,0.1-8.2,0.2-12.3c0.1-2.8-0.1-5.6-0.9-8.2c-1.5-4.7-2.3-9.5-3-14.3c-0.2-1.4-0.5-2.8-0.7-4.2
	c-1.2-0.1-1.2-0.1-1.2-1.3c0-1.6,0-3.2-0.1-4.8c-0.1-1.3-0.4-2.6-0.7-3.8c-0.5-2.4-0.5-4.9-1.5-7.2c-0.2-0.5-0.3-1.1-0.5-1.6
	c-1.1-3.4-1.6-7-3.4-10.1c-0.1-0.3-0.2-0.6-0.3-0.9c-0.3-1.7-0.6-3.4-0.8-5.1c-0.2-3.2-0.2-6.4,0.1-9.6c0.2-1.6,0.5-3.2,0.4-4.9
	c-0.1-1.6,0.1-3,0.5-4.5c0.2-0.5,0.3-1,0.5-1.5s0-0.8-0.4-1.1c-1.5-0.8-3-1.6-4.3-2.7c-1.8-1.6-3.2-3.5-4.8-5.3
	c-0.8-0.9-0.8-2-0.1-3c0.6-0.9,1-1.9,1.3-3c0.5-2.3,1.3-4.5,1.7-6.8c0.4-2.1,0.8-4.2,1.6-6.2c0.5-1,0.6-2.2,0.5-3.3
	c0-0.7,0-1.4,0-2.2c0-1.3,0-2.5,0-3.8c-0.2-5.7-0.6-11.5-0.8-17.2c-0.1-4.3,0.3-8.6,0.8-12.9c0.5-4,0.9-7.9,1.4-11.9
	c0.2-1.7,0-3.2-0.9-4.7c-1-1.6-1.8-3.4-2.6-5.1c-1.1-2.4-2-4.9-3-7.4c-0.2-0.6-0.6-1.1-1.2-1.5c-1.6-1.2-3.3-2.3-4.8-3.6
	c-4.5-3.9-9-7.7-13.8-11.3c-3.1-2.3-6-4.8-8.9-7.2c-4.8-4.1-8.9-8.7-11.7-14.3c-0.9-1.7-1-3.4-0.4-5.2c0.7-2,1.8-3.8,3.2-5.3
	c2.9-3.1,5.9-6.2,8.9-9.2c1.3-1.3,2.8-2.5,4.1-3.8c0.9-1,2-1.6,3.4-1.8c1.1-0.1,2.2-0.3,3.3-0.4c1.7-0.1,3.4-0.4,5-1.3
	c0.7-0.4,1.6-0.8,2.4-1.1c3-1.2,6-2.5,9.3-2.6c1.1,0,2.1-0.5,2.9-1.2s1.7-1.3,2.6-1.8c1.3-0.7,2.7-1.2,4.1-1.8
	c0.2-0.1,0.5-0.1,0.7-0.1c0.4-0.1,0.8-0.2,1-0.4c2.7-1.9,5.6-3.3,8.9-3.9c2.8-0.5,5.5-0.8,8.3-1.1c1.6-0.2,3.1-0.3,4.7,0.1
	c1.3,0.4,1.4,0.5,1.4,1.8c0,0,0,0.1,0.1,0.1c0.8,0.1,1.7,0.3,2.5,0.4c0.5,0.1,0.7-0.2,0.9-0.5c2.9-4.9,7.2-8,12.8-9.3
	C315.5,163.7,316.5,163.5,317.5,163.3z M259.2,204.9c0.5,0.4,1.1,0.8,1.5,1.3c0.5,0.6,0.9,1.3,1.3,2c0.3,0.5,0.7,0.9,1.2,0.9
	c1.1,0.1,2.2,0.3,3.4,0.4c0.3,0,0.7-0.1,1-0.1c0.4,0,0.8-0.2,1.2-0.1c0.7,0.2,1.3,0.6,2,0.9c0.3,0.1,0.8,0.2,1.1,0.1
	c1-0.3,2-0.4,3-0.1c1.8,0.6,3.6,0.8,5.5,0.7c0.7-0.1,1.4,0,2,0.1c2.7,0.4,5.4,0.9,7.9,2.1c0.4,0.2,0.8,0.2,1.2,0c1-0.5,1.7-0.1,2,1
	c0.1,0.5,0.4,0.6,0.8,0.3c0.3-0.2,0.5-0.5,0.9-0.6c0.9-0.3,1.5-0.9,2-1.6c0.6-0.8,1.3-0.9,2.2-0.4c0.9,0.5,1.4,0.4,2-0.4
	c0.7-0.9,1.5-1.9,2.1-2.9c0.2-0.4,0.4-0.9,0.4-1.4c0-0.9,0-1.7-0.1-2.6c-0.1-2-0.3-4.1-0.5-6.1c0-0.4-0.2-0.7-0.7-0.8
	c-1.5-0.5-2.4-1.5-2.6-3.1c-0.4-2.8-0.5-5.7-0.1-8.5c0.1-0.4-0.1-0.5-0.4-0.5c-0.2,0-0.4,0.1-0.5,0.1c-2,0.7-4.1,1.4-6.1,2.1
	c-0.6,0.2-0.8,0.5-0.8,1.2c0,1.4-0.5,2-1.8,2.5c-1.5,0.6-3.1,1.1-4.6,1.7c-0.9,0.4-1.7,0.4-2.6,0.2c-0.8-0.2-1.7-0.3-2.6-0.5
	c0,1.3-0.8,1.6-1.7,1.9c-2.9,1-5.9,2.1-8.8,3.2c-0.4,0.1-0.9,0.3-1.3,0.4c-1.1,0.1-2,0.5-2.8,1.4c-1.6,1.7-3.4,3.1-5.6,3.8
	C259.8,203.8,259.4,204.3,259.2,204.9z M346.6,283.5c-0.6,0.8-0.7,0.9-0.5,1.7c0.4,1.5,0.8,3.1,0.4,4.6c-0.6,2.1-0.5,4.3-0.6,6.5
	c0,0.8,0,1.6-0.2,2.3c-0.4,1.8-0.9,3.5-1.4,5.2c-0.2,0.7-0.2,1.3,0,2c0.6,2.1,1.3,4.3,1.9,6.4c0.5,1.7,0.9,3.4,0.7,5.1
	c0,0.1,0,0.2,0.1,0.3c0.1,0,0.1,0.1,0.2,0.1c1.1-1.3,2.1-2.6,3.2-3.9c-0.1-0.2-0.2-0.4-0.3-0.6c-0.8-1-1-2.2-0.9-3.5
	c0.1-0.7,0.1-1.4,0-2c-0.4-2.7-0.3-5.4,0.3-8.1c0.2-0.9,0.2-1.8,0-2.7c-0.2-0.9-0.4-1.9-0.5-2.9
	C348.6,290.5,347.5,287.1,346.6,283.5z M347,331.4c0,0,0.1,0,0.2,0c0.2-0.2,0.4-0.5,0.5-0.7c0.3-0.9,0.9-1.5,1.7-1.8
	c0.7-0.3,0.9-1.7,0.4-2.1c-1.5-1.2-2.5-2.7-3.1-4.4c-0.2-0.5-0.4-0.9-0.6-1.4c-0.6,0.7-0.7,1.4-0.4,2.2c0.4,0.8,0.8,1.5,1,2.3
	c0.3,1.7,0.6,3.4,0.4,5.2C346.9,330.9,347,331.1,347,331.4z M317.1,461.1c-0.2,0.9-0.4,1.6-0.5,2.4c-0.1,0.5-0.1,1.1,0.1,1.6
	c0.4,1.2,0.8,2.4,1.2,3.5c0.1,0.2,0.2,0.3,0.3,0.6c0.7-1.3,1.3-2.5,1.8-3.7c0.3-0.6,0-1.1-0.4-1.6c-0.5-0.5-1-0.9-1.4-1.4
	C318,462.1,317.5,461.6,317.1,461.1z M316.5,428c-0.1,0-0.2,0-0.3,0c0,1.2,0,2.5,0,3.7c0,1,0.1,2.1,0.2,3.1c0.4,2.1,0.6,4.2,0.4,6.4
	c-0.1,0.9-0.1,1.9-0.2,2.8c0.1,0,0.1,0,0.2,0c0.2-0.9,0.5-1.8,0.7-2.8c0.3-1.6,0-3.1-0.2-4.7c-0.3-2.4-0.4-4.9-0.7-7.3
	C316.6,428.8,316.5,428.4,316.5,428z M315,415.8c-1.1,2.2-0.5,6.4,0.9,7C315.5,420.4,316.4,418,315,415.8z"/>
<path class="st4" d="M259.2,204.9c0.1-0.6,0.5-1.1,1.1-1.3c2.2-0.7,4.1-2.1,5.6-3.8c0.8-0.9,1.6-1.3,2.8-1.4c0.4,0,0.9-0.2,1.3-0.4
	c2.9-1.1,5.9-2.1,8.8-3.2c0.9-0.3,1.8-0.6,1.7-1.9c0.9,0.2,1.8,0.3,2.6,0.5c0.9,0.2,1.7,0.1,2.6-0.2c1.5-0.6,3-1.2,4.6-1.7
	c1.3-0.5,1.8-1.1,1.8-2.5c0-0.6,0.2-0.9,0.8-1.2c2-0.7,4.1-1.4,6.1-2.1c0.2-0.1,0.4-0.1,0.5-0.1c0.3,0,0.5,0.1,0.4,0.5
	c-0.4,2.8-0.4,5.7,0.1,8.5c0.2,1.5,1.2,2.6,2.6,3.1c0.5,0.1,0.6,0.4,0.7,0.8c0.2,2,0.3,4.1,0.5,6.1c0.1,0.9,0.1,1.7,0.1,2.6
	c0,0.5-0.2,1-0.4,1.4c-0.7,1-1.4,1.9-2.1,2.9c-0.6,0.8-1.1,0.9-2,0.4s-1.6-0.4-2.2,0.4c-0.5,0.7-1.1,1.3-2,1.6
	c-0.3,0.1-0.6,0.4-0.9,0.6c-0.5,0.3-0.7,0.2-0.8-0.3c-0.3-1.1-1-1.5-2-1c-0.4,0.2-0.8,0.2-1.2,0c-2.5-1.2-5.2-1.8-7.9-2.1
	c-0.7-0.1-1.4-0.1-2-0.1c-1.9,0.1-3.7-0.1-5.5-0.7c-1-0.3-2-0.3-3,0.1c-0.3,0.1-0.7,0-1.1-0.1c-0.7-0.3-1.3-0.7-2-0.9
	c-0.4-0.1-0.8,0-1.2,0.1c-0.3,0-0.7,0.1-1,0.1c-1.1-0.1-2.2-0.2-3.4-0.4c-0.6-0.1-1-0.4-1.2-0.9c-0.4-0.7-0.8-1.4-1.3-2
	C260.5,205.7,259.9,205.4,259.2,204.9z"/>
<path class="st4" d="M346.6,283.5c0.8,3.6,2,7,2.4,10.7c0.1,1,0.3,1.9,0.5,2.9c0.2,0.9,0.2,1.8,0,2.7c-0.5,2.7-0.6,5.4-0.3,8.1
	c0.1,0.7,0.1,1.4,0,2c-0.2,1.3,0.1,2.5,0.9,3.5c0.1,0.2,0.2,0.4,0.3,0.6c-1.1,1.3-2.1,2.6-3.2,3.9c-0.1,0-0.1-0.1-0.2-0.1
	c0-0.1-0.1-0.2-0.1-0.3c0.2-1.8-0.2-3.4-0.7-5.1c-0.6-2.1-1.2-4.3-1.9-6.4c-0.2-0.7-0.2-1.3,0-2c0.5-1.7,1-3.5,1.4-5.2
	c0.2-0.8,0.2-1.6,0.2-2.3c0.1-2.2,0-4.4,0.6-6.5c0.4-1.6,0-3.1-0.4-4.6C346,284.3,346,284.2,346.6,283.5z"/>
<path class="st4" d="M347,331.4c0-0.3,0-0.6,0-0.8c0.2-1.8-0.1-3.5-0.4-5.2c-0.1-0.8-0.6-1.5-1-2.3s-0.2-1.5,0.4-2.2
	c0.2,0.5,0.5,0.9,0.6,1.4c0.7,1.7,1.6,3.2,3.1,4.4c0.5,0.4,0.3,1.9-0.4,2.1c-0.9,0.4-1.4,1-1.7,1.8c-0.1,0.3-0.3,0.5-0.5,0.7
	C347,331.4,347,331.4,347,331.4z"/>
<path class="st4" d="M317.1,461.1c0.4,0.5,0.7,1.1,1.1,1.5c0.4,0.5,1,1,1.4,1.4c0.5,0.4,0.7,1,0.4,1.6c-0.6,1.2-1.2,2.3-1.8,3.7
	c-0.2-0.3-0.3-0.5-0.3-0.6c-0.4-1.2-0.9-2.4-1.2-3.5c-0.1-0.5-0.1-1-0.1-1.6C316.8,462.7,317,461.9,317.1,461.1z"/>
<path class="st4" d="M316.5,428c0.1,0.4,0.1,0.8,0.2,1.2c0.2,2.4,0.3,4.9,0.7,7.3c0.2,1.6,0.5,3.1,0.2,4.7c-0.2,0.9-0.5,1.9-0.7,2.8
	c-0.1,0-0.1,0-0.2,0c0.1-0.9,0.1-1.9,0.2-2.8c0.2-2.1-0.1-4.3-0.4-6.4c-0.2-1-0.2-2.1-0.2-3.1c0-1.2,0-2.5,0-3.7
	C316.2,428,316.4,428,316.5,428z"/>
<path class="st4" d="M315,415.8c1.5,2.2,0.6,4.7,0.9,7C314.4,422.1,313.9,417.9,315,415.8z"/>
<g>
	<path class="st4" d="M145.9,76.5V85c-2.2,2.3-4.6,5.9-7.1,10.7s-4.3,9.6-5.2,14.2s-1.3,8.3-1.3,11c0,0.8,0.1,2,0.1,3.6h-12.9
		c0.1-3.8,0.4-7.2,1.1-10.3c0.6-3.1,1.8-6.7,3.7-10.7c1.8-4,3.6-7.3,5.5-9.9c1.9-2.6,3.9-5,6.1-7.2h-24.4l0.8-9.9L145.9,76.5
		L145.9,76.5z"/>
</g>
<g>
	<g>
		<path d="M213.6,702h10.7v1.2h-1.8c-0.8,0-1.3,0.1-1.5,0.3s-0.3,0.6-0.3,1.3v17.5c0,0.7,0.1,1.1,0.3,1.3s0.7,0.4,1.4,0.4h2.1v1.2
			h-10.7V724h2c0.7,0,1.2-0.1,1.4-0.3s0.3-0.7,0.3-1.4v-17.5c0-0.7-0.1-1.1-0.3-1.2c-0.3-0.2-0.8-0.4-1.6-0.4h-1.8L213.6,702
			L213.6,702z"/>
		<path d="M226.6,710.5l4.9-0.3c0.2,0.9,0.3,2,0.4,3.2c0.7-1.1,1.4-1.9,2.3-2.4s1.9-0.8,3-0.8c1,0,1.8,0.2,2.4,0.6
			c0.6,0.4,1.2,1,1.6,1.8c0.4,0.8,0.6,1.8,0.6,2.8v7.1c0,0.5,0.1,0.9,0.4,1.1c0.2,0.2,0.6,0.3,1.2,0.3h1v1.2h-7.7V724h0.7
			c0.7,0,1.2-0.1,1.4-0.3c0.3-0.2,0.4-0.5,0.4-1v-6.3c0-1.4-0.2-2.4-0.6-3c-0.6-0.9-1.5-1.4-2.7-1.4s-2.2,0.5-2.9,1.4
			s-1.2,2.2-1.2,3.7v5.4c0,0.5,0.1,0.9,0.4,1.1c0.2,0.2,0.6,0.3,1.2,0.3h1v1.2h-7.8V724h1c0.5,0,0.9-0.1,1.2-0.3s0.4-0.5,0.4-0.8
			v-9.5c0-0.6-0.2-1.1-0.5-1.4s-0.8-0.5-1.5-0.5h-0.6L226.6,710.5L226.6,710.5z"/>
		<path d="M247.9,719.6c0.6,1.8,1.4,3,2.2,3.7s1.9,1,3.1,1c1.1,0,2-0.2,2.6-0.7c0.6-0.5,0.9-1.1,0.9-1.9c0-0.4-0.1-0.8-0.3-1.2
			c-0.2-0.3-0.5-0.6-0.9-0.7c-0.4-0.1-1.4-0.4-3.1-0.7c-1.6-0.3-2.7-0.6-3.3-1c-0.6-0.3-1.1-0.8-1.5-1.4c-0.4-0.6-0.5-1.3-0.5-2
			c0-1.1,0.4-2,1.1-2.9c0.9-1.1,2.2-1.7,3.9-1.7c1.3,0,2.5,0.4,3.5,1.2l1-1.1h0.6l0.4,5.2h-1c-0.5-1.5-1.1-2.5-1.9-3.2
			c-0.8-0.7-1.8-1-2.9-1c-1,0-1.8,0.2-2.3,0.7c-0.6,0.5-0.9,1.1-0.9,1.8c0,0.6,0.3,1.1,0.8,1.5s1.5,0.8,3,1c1.7,0.3,2.9,0.5,3.4,0.7
			c0.9,0.3,1.5,0.8,2,1.4c0.5,0.6,0.7,1.4,0.7,2.4c0,1.3-0.5,2.4-1.5,3.3c-1,0.9-2.3,1.3-3.9,1.3c-1.4,0-2.8-0.5-4-1.4l-1.1,1.3
			h-0.8l-0.3-5.8L247.9,719.6L247.9,719.6z"/>
		<path d="M265.5,710.2c0.2,1.1,0.4,2.2,0.4,3.2c0.7-1.2,1.5-2,2.3-2.4s1.6-0.7,2.6-0.7s2,0.3,2.9,0.9c0.9,0.6,1.6,1.5,2.2,2.7
			s0.9,2.5,0.9,4c0,2.4-0.7,4.3-2.1,5.8c-1.1,1.2-2.5,1.9-4.1,1.9c-0.9,0-1.7-0.2-2.5-0.7s-1.4-1.2-2-2.1v5.9c0,0.5,0.1,0.8,0.3,1
			c0.3,0.2,0.7,0.4,1.2,0.4h1.1v1.1h-7.8v-1.1h1.1c0.5,0,0.9-0.1,1.1-0.3s0.4-0.5,0.4-0.8v-15.4c0-0.7-0.2-1.2-0.5-1.5
			s-1-0.5-2.1-0.5v-1L265.5,710.2z M270,711.7c-1.1,0-2.1,0.5-2.9,1.6s-1.2,2.7-1.2,4.8s0.4,3.6,1.1,4.6s1.7,1.5,2.9,1.5
			c1.1,0,2-0.4,2.5-1.3c0.8-1.1,1.1-2.8,1.1-4.9c0-2.3-0.3-3.9-1-4.9S271.1,711.7,270,711.7z"/>
		<path d="M279,710.5l5.8-0.2v12.6c0,0.3,0.1,0.6,0.2,0.7c0.2,0.2,0.5,0.3,0.9,0.3h1.7v1.2h-8.3V724h1.5c0.5,0,0.8-0.1,1-0.3
			s0.3-0.5,0.3-1v-9.2c0-0.6-0.2-1-0.5-1.3s-0.8-0.5-1.5-0.5h-1.2L279,710.5L279,710.5z M283,701.8c0.5,0,0.9,0.2,1.2,0.5
			c0.4,0.3,0.5,0.8,0.5,1.2c0,0.5-0.2,0.9-0.5,1.2s-0.8,0.5-1.2,0.5c-0.5,0-0.9-0.2-1.2-0.5c-0.4-0.3-0.5-0.8-0.5-1.2
			s0.2-0.9,0.5-1.2C282.1,702,282.5,701.8,283,701.8z"/>
		<path d="M289.1,710.5l5.3-0.3v5.9c0.6-2,1.2-3.4,2-4.4s1.8-1.5,2.9-1.5c0.8,0,1.4,0.2,1.9,0.7s0.7,1.1,0.7,2
			c0,0.7-0.2,1.2-0.5,1.5c-0.3,0.4-0.7,0.5-1.2,0.5s-0.9-0.2-1.1-0.5c-0.3-0.3-0.4-0.7-0.4-1.3c0-0.3,0.1-0.7,0.2-1
			c0.2-0.3,0.2-0.4,0.2-0.5c0-0.2-0.1-0.2-0.3-0.2c-0.4,0-0.9,0.2-1.5,0.8c-0.8,0.7-1.3,1.7-1.7,2.9c-0.6,1.9-0.9,3.4-0.9,4.5v3.1
			c0,0.3,0.1,0.6,0.4,0.8s0.7,0.3,1.3,0.3h1.9v1.2h-9.1v-1h1.5c0.5,0,0.9-0.1,1.1-0.3s0.4-0.4,0.4-0.7v-9.3c0-0.7-0.1-1.2-0.5-1.5
			c-0.3-0.3-0.7-0.5-1.3-0.5h-1.3V710.5L289.1,710.5z"/>
		<path d="M317.4,717.9h-10.5c0,2.2,0.5,3.8,1.2,4.7c0.9,1,2,1.5,3.4,1.5c2,0,3.7-1.2,4.9-3.5l1,0.4c-1.5,3-3.7,4.4-6.6,4.4
			c-2,0-3.6-0.7-5-2.1c-1.3-1.4-2-3.2-2-5.4c0-2.4,0.7-4.3,2-5.8s2.9-2.2,4.9-2.2c1.4,0,2.6,0.4,3.7,1.1c1,0.7,1.8,1.8,2.3,3.1
			C317,715.3,317.2,716.5,317.4,717.9z M306.9,716.8h6.3c0.4,0,0.7-0.1,0.9-0.4s0.3-0.7,0.3-1.3c0-1.2-0.4-2.1-1.1-2.9
			c-0.7-0.8-1.5-1.2-2.5-1.2c-1.1,0-2,0.5-2.8,1.5C307.2,713.4,306.9,714.9,306.9,716.8z"/>
	</g>
	<circle class="st3" cx="360.2" cy="713.9" r="21.9"/>
	<g>
		<path class="st4" d="M351.4,710.7v-5.2c4.4-1.3,7.2-3,8.6-5.2h4.3v21.1h7v4.6h-20.5v-4.6h7.7v-14.5
			C355.4,708.7,353,710,351.4,710.7z"/>
	</g>
</g>
<rect x="118.6" y="93.6" class="st2" width="24.2" height="3.8"/>
<path class="st4" d="M213.1,570.1c0,0.7,0.2,1.2,0.7,1.7c0.3,0.3,0.9,0.6,1.8,0.8v7.1c-3.1-0.7-5.3-1.7-6.7-2.8
	c-1.5-1.3-2.3-3.1-2.3-5.6s0.9-4.6,2.7-6.3c1.6-1.5,3.6-2.3,6.2-2.5v5.2C214,567.9,213.1,568.7,213.1,570.1z"/>
<path class="st4" d="M215.6,585.9v5.3c-2.5-0.1-4.6-0.8-6.4-1.9c-2-1.3-3.3-3.2-4-5.8l6.1-1.4C211.9,584.3,213.3,585.6,215.6,585.9z
	"/>
<path class="st4" d="M227.4,569l-5.6,1.9c-0.7-2-2-3.1-4.1-3.3v-5.1C222.7,562.7,225.9,564.9,227.4,569z"/>
<path class="st4" d="M228.1,581.9c0,2.5-1,4.7-2.9,6.6c-1.7,1.7-4.2,2.6-7.5,2.7V586c1.1-0.1,2-0.4,2.6-0.8c0.7-0.6,1.1-1.3,1.1-2.1
	s-0.3-1.5-1-1.9c-0.5-0.3-1.4-0.7-2.7-1v-7.1c2.6,0.5,4.4,1.1,5.7,1.6c1.3,0.6,2.4,1.5,3.4,2.8C227.7,578.9,228.1,580.3,228.1,581.9
	z"/>
<path class="st4" d="M251.7,591.6c0.5,0,1.3-0.1,2.5-0.2v5c-0.8,0.2-1.6,0.3-2.3,0.3c-2.5,0-4.2-0.5-5-1.6c-0.9-1.1-1.3-2.4-1.5-4
	c-0.4,0-0.8,0.1-1.2,0.1V586c2.8-0.6,4.1-3.5,4.1-8.9c0-5.5-1.4-8.5-4.1-9.1v-5.4c3.4,0.2,6.1,1.6,7.9,4.2c2.1,2.8,3.1,6.2,3.1,10.2
	c0,3.2-0.6,5.9-1.8,8s-2.6,3.7-4.1,4.6C249.3,590.9,250.1,591.6,251.7,591.6z"/>
<path class="st4" d="M237.9,576.8c0,5.4,1.4,8.4,4.1,9v5.3c-3.2-0.2-5.8-1.5-7.8-4.1c-2.1-2.8-3.2-6.2-3.2-10.2
	c0-3.9,1-7.3,3.1-10.1c1.9-2.6,4.5-4,7.9-4.2v5.4C239.3,568.4,237.9,571.4,237.9,576.8z"/>
<path class="st4" d="M281.5,562.8v17.4c0,2.8-0.3,4.9-1,6.3c-0.6,1.4-1.8,2.5-3.6,3.4c-1.3,0.7-3,1.1-4.9,1.2v-5.3
	c0.7-0.1,1.3-0.3,1.9-0.5c0.8-0.4,1.3-1,1.5-1.6c0.2-0.7,0.4-1.8,0.4-3.4v-17.4h5.7V562.8z"/>
<path class="st4" d="M270,585.8v5.4c-2.5,0-4.6-0.4-6.1-1.2c-1.6-0.8-2.8-1.9-3.6-3.4c-0.8-1.5-1.2-3.6-1.2-6.4v-17.4h7.1v17.4
	c0,1.5,0.1,2.6,0.4,3.3s0.8,1.3,1.5,1.7C268.7,585.6,269.3,585.7,270,585.8z"/>
<path class="st4" d="M299.8,562.8h-7.6l-9,28h5.8l1.8-5.8h9.1l1.7,5.8h7.1L299.8,562.8z M292.4,579.9l3-9.8l2.9,9.8H292.4z"/>
<rect x="311.6" y="562.8" class="st4" width="6.4" height="28"/>
<path class="st4" d="M334.6,576.7c0,4-1.2,7.3-3.5,10c-2.4,2.7-5.6,4-9.8,4h-1.1v-5.3h0.6c2.4,0,4.2-0.9,5.3-2.7
	c1.2-1.8,1.7-3.9,1.7-6.3c0-1.7-0.3-3.3-1-4.7s-1.5-2.5-2.5-3c-1-0.6-2.2-0.9-3.5-0.9h-0.7v-5.2l0,0c3.5,0,6.1,0.5,7.8,1.4
	c1.7,1,3.2,2.5,4.6,4.6C333.9,570.9,334.6,573.6,334.6,576.7z"/>
<rect x="358" y="585.3" class="st4" width="9.1" height="5.5"/>
<polygon class="st4" points="356,562.8 356,570.9 355.9,570.9 355.9,590.8 349.4,590.8 349.4,562.8 "/>
<rect x="379.2" y="562.8" class="st4" width="11.3" height="5.3"/>
<rect x="379.2" y="573.9" class="st4" width="8.4" height="5.3"/>
<rect x="379.2" y="585.3" class="st4" width="11.3" height="5.5"/>
<rect x="370.5" y="562.8" class="st4" width="6.6" height="28"/>
<path class="st4" d="M408.2,562.8h-7.6l-9,28h5.8l1.8-5.8h9l1.7,5.8h7L408.2,562.8z M400.7,579.9l3-9.8l2.9,9.8H400.7z"/>
<rect x="420" y="562.8" class="st4" width="6.4" height="28"/>
<path class="st4" d="M442.9,576.7c0,4-1.2,7.3-3.5,10c-2.4,2.7-5.6,4-9.8,4h-1.1v-5.3h0.6c2.4,0,4.2-0.9,5.3-2.7
	c1.2-1.8,1.7-3.9,1.7-6.3c0-1.7-0.3-3.3-1-4.7s-1.5-2.5-2.5-3c-1-0.6-2.2-0.9-3.5-0.9h-0.6v-5.2c3.5,0,6.1,0.5,7.8,1.4
	c1.7,1,3.2,2.5,4.6,4.6C442.2,570.9,442.9,573.6,442.9,576.7z"/>
<rect x="456" y="562.8" class="st4" width="11.2" height="5.3"/>
<rect x="456" y="585.3" class="st4" width="11.2" height="5.5"/>
<polygon class="st4" points="453.9,568.2 453.9,573.9 453.9,573.9 453.9,579.2 453.9,579.2 453.9,585.3 453.9,585.3 453.9,590.8 
	447.2,590.8 447.2,562.8 453.9,562.8 "/>
<rect x="456" y="573.9" class="st4" width="8.4" height="5.3"/>
<path class="st4" d="M494,590.8h-7.2l-4.3-11.1h-2.6v-4.8h1.9c1.3,0,2.3-0.1,2.9-0.3s1.1-0.6,1.6-1.2s0.7-1.4,0.7-2.2
	s-0.2-1.5-0.7-2.1s-1-1-1.5-1.1c-0.5-0.2-1.6-0.2-3.1-0.2h-1.8v-5h3.6c2.3,0,4.1,0.3,5.5,0.8s2.5,1.5,3.4,2.9s1.4,3,1.4,4.7
	c0,3.4-1.6,5.8-4.9,7.2L494,590.8z"/>
<polygon class="st4" points="477.7,579.7 477.7,590.8 471.1,590.8 471.1,562.8 477.7,562.8 "/>
<circle class="st5" cx="136.9" cy="578.3" r="36"/>
<g>
	<path class="st2" d="M122.2,560.5h16.6c3,0,5.2,0.4,6.7,1.1c1.5,0.7,2.7,1.8,3.7,3.1s1.5,3,1.5,5c0,3.9-2.1,6.6-6.4,7.9
		c2.5,0.6,4.3,1.7,5.6,3.3c1.2,1.7,1.9,3.5,1.9,5.4c0,2.7-1,5-3,6.9s-5.3,2.9-9.8,2.9h-16.6L122.2,560.5L122.2,560.5z M130.6,566.8
		v7.8h6.3c2.3,0,3.8-0.5,4.4-1.4c0.6-0.9,0.9-1.8,0.9-2.6c0-0.9-0.2-1.7-0.7-2.3c-0.5-0.7-1-1.1-1.6-1.2c-0.6-0.2-1.8-0.2-3.5-0.2
		H130.6z M130.6,581v8.6h6.4c2.2,0,3.7-0.4,4.6-1.2c0.9-0.8,1.4-1.8,1.4-3.2c0-1.2-0.4-2.1-1.3-3c-0.9-0.8-2.3-1.2-4.3-1.2H130.6z"
		/>
</g>
</svg>
