<?xml version="1.0" encoding="utf-8"?>
<!-- Generator: Adobe Illustrator 25.2.1, SVG Export Plug-In . SVG Version: 6.00 Build 0)  -->
<svg version="1.1" id="Layer_1" xmlns="http://www.w3.org/2000/svg" xmlns:xlink="http://www.w3.org/1999/xlink" x="0px" y="0px"
	 viewBox="0 0 595.3 841.9" style="enable-background:new 0 0 595.3 841.9;" xml:space="preserve">
<style type="text/css">
	.st0{fill:#C7C6C6;}
	.st1{fill:#FFFCF2;}
	.st2{fill:#5895A2;}
	.st3{fill:#020203;}
	.st4{fill:#3D3D3B;}
	.st5{fill:none;}
	.st6{enable-background:new    ;}
	.st7{fill:#FFFFFF;}
</style>
<g>
	<rect x="274.8" y="581.3" class="st0" width="4.2" height="7.2"/>
	<path class="st1" d="M512.9,781.7h-433c-21.1,0-38.1-17.1-38.1-38.1V98.2C41.7,77.1,58.8,60,79.9,60h433
		c21.1,0,38.1,17.1,38.1,38.1v645.4C551,764.6,533.9,781.7,512.9,781.7z"/>
	<rect x="41.7" y="550.1" class="st2" width="509.3" height="54.6"/>
	<rect x="292.8" y="618.1" class="st2" width="7.1" height="143"/>
	<rect x="64.8" y="686" class="st2" width="463.1" height="7.2"/>
	<g>
		<path class="st3" d="M113,633.6h7.7l6.9,18.2l6.4-18.2h7.9v1.2h-1.9c-0.7,0-1.1,0.1-1.4,0.3c-0.2,0.2-0.4,0.5-0.4,1v18.3
			c0,0.4,0.1,0.7,0.4,0.8c0.3,0.2,0.8,0.3,1.4,0.3h1.8v1.2h-10.6v-1.2h2c0.6,0,1-0.1,1.2-0.3s0.4-0.5,0.4-0.8v-19.6l-7.6,21.9h-1.1
			l-8.2-21.8v16.8c0,1,0.1,1.8,0.4,2.2c0.2,0.5,0.6,0.9,1.1,1.1c0.5,0.3,1.2,0.4,2.3,0.5v1.2H113v-1.2c1.4-0.1,2.4-0.4,2.9-0.9
			c0.5-0.5,0.8-1.4,0.8-2.8v-15.9c0-0.4-0.1-0.7-0.4-0.9c-0.2-0.2-0.7-0.3-1.3-0.3h-2L113,633.6L113,633.6L113,633.6z"/>
		<path class="st3" d="M150.6,641.7c2,0,3.6,0.7,5,2.1c1.3,1.4,2,3.3,2,5.6c0,1.6-0.3,3-0.9,4.1c-0.6,1.1-1.4,2-2.6,2.7
			s-2.3,1-3.6,1c-1.9,0-3.5-0.7-4.8-2.2s-2-3.3-2-5.6c0-2.3,0.7-4.2,2-5.6C147,642.4,148.7,641.7,150.6,641.7z M150.6,642.8
			c-1.2,0-2.1,0.5-2.9,1.6s-1.1,2.7-1.1,5c0,2.3,0.4,4,1.1,5.1c0.7,1.1,1.7,1.6,2.9,1.6c1.2,0,2.2-0.5,3-1.6s1.1-2.8,1.1-5.3
			c0-2.3-0.4-3.9-1.1-4.9C152.8,643.3,151.9,642.8,150.6,642.8z"/>
		<path class="st3" d="M159.1,642.1h7.2v1.1c-1,0-1.6,0.1-1.8,0.3c-0.3,0.2-0.4,0.4-0.4,0.7c0,0.2,0.1,0.5,0.2,0.7l3.9,8.6l3.5-8.4
			c0.1-0.2,0.1-0.3,0.1-0.4c0-0.8-0.8-1.2-2.2-1.4v-1.1h6.1v1.1c-0.6,0.1-1.1,0.2-1.5,0.5c-0.4,0.3-0.6,0.6-0.8,1.1l-5.4,12.4H167
			l-5.8-12.8c-0.2-0.5-0.5-0.8-0.8-1c-0.3-0.2-0.8-0.3-1.4-0.3L159.1,642.1L159.1,642.1z"/>
		<path class="st3" d="M190.6,649.5h-10.5c0.1,2.2,0.5,3.8,1.2,4.7c0.9,1,2,1.5,3.4,1.5c2,0,3.7-1.2,4.9-3.5l1,0.4
			c-1.5,3-3.7,4.4-6.6,4.4c-2,0-3.6-0.7-4.9-2.1s-2-3.2-2-5.4c0-2.4,0.7-4.3,2-5.8c1.3-1.5,2.9-2.2,4.9-2.2c1.4,0,2.6,0.4,3.7,1.1
			c1,0.7,1.8,1.8,2.3,3.1C190.4,646.8,190.6,648,190.6,649.5z M180.1,648.4h6.3c0.4,0,0.7-0.1,0.9-0.4s0.3-0.7,0.3-1.3
			c0-1.2-0.4-2.1-1.1-2.9s-1.6-1.2-2.5-1.2c-1.1,0-2,0.5-2.8,1.5C180.6,645,180.2,646.5,180.1,648.4z"/>
	</g>
	<circle class="st4" cx="487.7" cy="645.5" r="21.9"/>
	<rect x="476.5" y="632.2" class="st5" width="22.4" height="26.5"/>
	<g class="st6">
		<path class="st7" d="M497.2,652.5l-0.4,5h-19v-4.9c0.6-0.5,1.6-1.2,3.1-2.2c3.5-2.5,6-4.5,7.6-6.1c1.6-1.6,2.4-3.1,2.4-4.4
			c0-1-0.3-1.8-1-2.4c-0.6-0.6-1.5-1-2.5-1c-2.5,0-3.9,1.6-4.3,4.8l-5.2-1.2c1.2-5.6,4.4-8.4,9.8-8.4c3,0,5.3,0.8,6.9,2.4
			s2.4,3.5,2.4,5.6c0,2.2-0.8,4.3-2.5,6c-1.7,1.8-4.8,4-9.2,6.7L497.2,652.5L497.2,652.5z"/>
	</g>
	<circle class="st4" cx="231.8" cy="643.9" r="21.9"/>
	<rect x="220.6" y="630.7" class="st5" width="22.4" height="26.5"/>
	<g class="st6">
		<path class="st7" d="M222.9,640.7v-5.2c4.4-1.3,7.2-3,8.6-5.2h4.3v21.1h7v4.6h-20.5v-4.6h7.7v-14.5
			C226.9,638.7,224.6,640,222.9,640.7z"/>
	</g>
	<g>
		<path class="st3" d="M360.5,634.9h1l8.3,21.1c0.3,0.8,1,1.3,2,1.3h0.7v1.2h-9.2v-1.2h0.7c1,0,1.6-0.1,2-0.3
			c0.3-0.2,0.4-0.4,0.4-0.7c0-0.2,0-0.4-0.1-0.6l-1.9-4.9h-9.1l-1.1,2.8c-0.3,0.8-0.4,1.3-0.4,1.8c0,0.5,0.2,1,0.7,1.3
			c0.5,0.4,1.2,0.5,2.1,0.5h0.8v1.2h-8.4v-1.2c0.9,0,1.6-0.2,2.1-0.6c0.5-0.4,1-1.1,1.4-2.2L360.5,634.9z M360,639.3l-4.1,10.3h8.2
			L360,639.3z"/>
		<path class="st3" d="M377.3,637.8h1v6h4.7v1.4h-4.7v9.4c0,0.8,0.2,1.4,0.6,1.9c0.4,0.4,0.9,0.7,1.5,0.7c0.7,0,1.3-0.3,1.8-1
			s0.8-1.7,0.9-3.2h1c-0.1,2-0.5,3.4-1.3,4.3c-0.8,0.9-1.9,1.4-3.2,1.4c-1.2,0-2.1-0.3-2.8-1c-0.7-0.7-1-1.5-1-2.6v-9.8h-2.5v-1.1
			c1.2-0.2,2-0.7,2.6-1.5C376.8,641.5,377.2,639.9,377.3,637.8z"/>
		<path class="st3" d="M389.8,637.8h1v6h4.7v1.4h-4.7v9.4c0,0.8,0.2,1.4,0.6,1.9c0.4,0.4,0.9,0.7,1.5,0.7c0.7,0,1.3-0.3,1.8-1
			s0.8-1.7,0.9-3.2h1c-0.1,2-0.5,3.4-1.3,4.3c-0.8,0.9-1.9,1.4-3.2,1.4c-1.2,0-2.1-0.3-2.8-1c-0.7-0.7-1-1.5-1-2.6v-9.8h-2.5v-1.1
			c1.2-0.2,2-0.7,2.6-1.5C389.2,641.5,389.7,639.9,389.8,637.8z"/>
		<path class="st3" d="M413.8,656.8l0.6,0.9c-0.8,0.8-1.6,1.2-2.5,1.2c-0.7,0-1.3-0.2-1.8-0.6s-0.9-1.1-1.3-2c-1,1-1.9,1.7-2.6,2.1
			s-1.6,0.5-2.7,0.5c-1.5,0-2.6-0.3-3.4-1s-1.2-1.5-1.2-2.5c0-1.5,0.9-2.8,2.7-3.8c1.8-1,4.2-1.7,7.1-2v-2.2c0-0.8-0.3-1.5-1-2
			c-0.6-0.6-1.4-0.8-2.4-0.8c-0.9,0-1.7,0.2-2.3,0.6c-0.5,0.3-0.7,0.6-0.7,0.8c0,0.2,0.1,0.4,0.4,0.7c0.3,0.4,0.5,0.8,0.5,1.1
			c0,0.5-0.1,0.8-0.5,1.2c-0.3,0.3-0.7,0.5-1.2,0.5c-0.5,0-1-0.2-1.3-0.5c-0.4-0.3-0.5-0.8-0.5-1.4c0-1,0.6-2,1.7-2.8
			c1.2-0.8,2.7-1.3,4.6-1.3c1.7,0,3.1,0.4,4,1.1c0.9,0.8,1.4,1.7,1.4,2.8v8c0,0.7,0.1,1.2,0.3,1.6c0.2,0.3,0.5,0.5,0.9,0.5
			C413,657.3,413.4,657.2,413.8,656.8z M408.7,650.7c-2.6,0.4-4.5,1-5.6,1.8c-0.8,0.6-1.2,1.5-1.2,2.7c0,0.8,0.2,1.4,0.6,1.9
			c0.4,0.5,1,0.7,1.7,0.7c1.2,0,2.3-0.5,3.2-1.4c0.9-0.9,1.4-2.1,1.4-3.5L408.7,650.7L408.7,650.7z"/>
		<path class="st3" d="M427.3,654.1l1,0.3c-0.8,3-2.6,4.5-5.4,4.5c-2,0-3.7-0.7-5-2c-1.3-1.3-1.9-3.1-1.9-5.4c0-2.6,0.7-4.6,2.1-6
			s3.1-2.1,5-2.1c1.4,0,2.6,0.4,3.6,1.2c0.9,0.8,1.4,1.7,1.4,2.6c0,0.6-0.2,1.1-0.5,1.5c-0.4,0.4-0.8,0.6-1.2,0.6
			c-0.5,0-0.9-0.2-1.2-0.5s-0.5-0.7-0.5-1.2s0.2-0.9,0.5-1.3c0.2-0.2,0.2-0.3,0.2-0.5c0-0.3-0.2-0.6-0.6-0.9c-0.4-0.3-1-0.4-1.7-0.4
			c-1.3,0-2.2,0.5-2.9,1.4c-0.9,1.3-1.4,3.1-1.4,5.3c0,2.1,0.4,3.7,1.2,4.8c0.8,1.1,1.9,1.6,3.2,1.6
			C425.1,657.5,426.5,656.4,427.3,654.1z"/>
		<path class="st3" d="M430.1,635.3l5.6-0.3v16l4.8-4.2c0.5-0.4,0.7-0.8,0.7-1.1c0-0.3-0.1-0.5-0.4-0.6c-0.4-0.2-1.1-0.3-2-0.3v-1.1
			h7.8v1.1c-1.5,0.1-2.7,0.5-3.5,1.2l-3.4,3l5.5,7.5c0.3,0.5,0.9,0.7,1.7,0.7h0.8v1.2h-8v-1.2h0.8c0.6,0,1,0,1.2-0.2
			c0.2-0.1,0.3-0.2,0.3-0.4s0-0.3-0.2-0.4l-4-5.6l-2.1,1.9v3.7c0,0.3,0.1,0.5,0.3,0.7c0.3,0.2,0.7,0.3,1.2,0.3h1v1.2h-7.9v-1.2h1.3
			c0.5,0,0.9-0.1,1.2-0.3s0.4-0.5,0.4-0.9V638c0-0.5-0.1-0.8-0.5-1c-0.4-0.3-1-0.5-1.8-0.5h-0.8V635.3z"/>
	</g>
	<polygon class="st2" points="170.5,60 170.5,125.6 127.6,153.2 84.6,125.6 84.6,60 	"/>
	<polygon class="st0" points="84.9,125.3 85.5,125.3 85.5,125.6 	"/>
	<polygon class="st0" points="171.9,125.3 171.4,125.6 171.4,125.3 	"/>
	<g>
		<polygon class="st7" points="162.4,575.4 158,589.7 153.9,589.7 149.6,575.4 149.9,575.4 149.9,564.4 151.9,564.4 156.4,579.5 
			161.1,564.4 162.2,564.4 162.2,575.4 		"/>
		<polygon class="st7" points="170.3,564.4 170.3,589.7 164.3,589.7 164.3,569.1 164.3,569.2 164.3,564.4 		"/>
		<polygon class="st7" points="147.7,564.4 147.7,569.3 147.7,569.1 147.7,589.7 142.7,589.7 142.7,564.4 		"/>
		<path class="st7" d="M187.8,564.4h-6.9l-8.1,25.3h5.2l1.6-5.2h8.2l1.6,5.2h6.4L187.8,564.4z M181,579.8l2.7-8.9l2.7,8.9H181z"/>
		<path class="st7" d="M218.1,580.8c-0.4,3-1.5,5.3-3.4,6.9c-1.7,1.4-3.7,2.2-6.1,2.3v-4.9c2-0.3,3.3-1.9,3.8-4.7L218.1,580.8z"/>
		<path class="st7" d="M203,577.1c0,3.2,0.4,5.3,1.3,6.5c0.6,0.8,1.3,1.3,2.1,1.5v5c-2.8-0.3-5-1.4-6.9-3.4
			c-2.1-2.3-3.1-5.5-3.1-9.6c0-3.8,1-7,3.1-9.4c1.8-2.1,4.1-3.3,6.9-3.6v5C204.1,569.7,203,572.4,203,577.1z"/>
		<path class="st7" d="M218.1,573.8l-6.2,0.4c-0.1-3.2-1.2-4.9-3.3-5.3V564C214.2,564.3,217.3,567.5,218.1,573.8z"/>
		<path class="st7" d="M235.2,564.4v9.9h-7.9v-9.9h-5.8v25.3h5.8v-10.5h7.9v10.5h5.8v-25.3H235.2z"/>
		<path class="st7" d="M246.1,564.4v25.3h5.9v-25.3H246.1z"/>
		<path class="st7" d="M261.7,573.5v9.7h0.1v-8.6C261.7,574.3,261.7,573.9,261.7,573.5z"/>
		<path class="st7" d="M276.6,564.4v25.3h-4.7V579l0.2,0.3c-0.1-0.7-0.1-1.3-0.1-1.7v-13.2L276.6,564.4L276.6,564.4z"/>
		<path class="st7" d="M261.7,583.2v6.5h-4.6v-25.3h4.5v8.3l0,0c0,0.4,0,0.7,0,0.8L261.7,583.2L261.7,583.2z"/>
		<polygon class="st7" points="269.9,575.4 269.9,586.8 263.8,576.3 263.8,564.8 		"/>
		<rect x="289.7" y="564.4" class="st7" width="10.1" height="4.8"/>
		<rect x="289.7" y="574.4" class="st7" width="7.5" height="4.8"/>
		<rect x="289.7" y="584.7" class="st7" width="10.1" height="5"/>
		<rect x="281.7" y="564.4" class="st7" width="5.9" height="25.3"/>
		<path class="st7" d="M318.9,571c-0.8,1.5-1.2,3.5-1.2,6.2c0,2.6,0.5,4.6,1.3,6c0.5,0.8,1.2,1.4,2,1.7v5.1c-2.8-0.2-5-1.4-6.7-3.5
			c-1.8-2.4-2.8-5.4-2.8-9.2c0-4,1-7.3,2.9-9.7c1.7-2.1,3.8-3.3,6.5-3.6v5C320.2,569.4,319.5,570.1,318.9,571z"/>
		<path class="st7" d="M332.6,572.7l-5.6,0.7c-0.4-2.8-1.7-4.3-3.8-4.6V564c2.5,0.1,4.6,0.9,6.2,2.3
			C331.1,568,332.2,570.1,332.6,572.7z"/>
		<path class="st7" d="M332.6,576.2v13.5h-2.7c-0.2-1-0.5-1.9-0.8-2.9c-1.6,1.9-3.5,3-5.9,3.3v-4.8c0.9,0,1.8-0.4,2.5-1
			c0.8-0.7,1.2-1.8,1.2-3.3h-4.8v-4.7H332.6z"/>
		<path class="st7" d="M346.7,585.2v4.9c-2.2,0-4-0.4-5.4-1.1c-1.4-0.7-2.5-1.7-3.2-3.1c-0.7-1.3-1.1-3.3-1.1-5.8v-15.8h6.4v15.8
			c0,1.4,0.1,2.4,0.3,3c0.2,0.6,0.7,1.2,1.4,1.5C345.6,584.9,346.1,585.1,346.7,585.2z"/>
		<path class="st7" d="M357.2,564.4v15.8c0,2.5-0.3,4.4-0.9,5.7c-0.6,1.2-1.7,2.3-3.2,3.1c-1.2,0.6-2.6,1-4.4,1.1v-4.9
			c0.6-0.1,1.2-0.2,1.6-0.5c0.7-0.4,1.2-0.9,1.4-1.5s0.4-1.6,0.4-3.1v-15.8L357.2,564.4L357.2,564.4z"/>
		<path class="st7" d="M366.5,573.7v6.6h0v-5.7C366.5,574.3,366.5,574,366.5,573.7z M376.8,572.8v4.8c0,0.1,0,0.2,0,0.3L376.8,572.8
			L376.8,572.8z"/>
		<polygon class="st7" points="374.7,575.5 374.7,586.9 368.6,576.3 368.6,564.8 		"/>
		<path class="st7" d="M381.4,564.4v25.3h-4.6v-10.6l0.1,0.2c0-0.6-0.1-1-0.1-1.4v-5.1h0v-8.4H381.4z"/>
		<path class="st7" d="M366.5,580.2v9.5h-4.6v-25.3h4.6v8.3l-0.1-0.1c0,0.4,0,0.7,0,0.8c0,0.1,0,0.1,0,0.2L366.5,580.2L366.5,580.2z
			"/>
		<path class="st7" d="M391.1,574.3v5.6h0v-5.3C391.1,574.5,391.1,574.4,391.1,574.3z M401.4,572.4v5.3c0,0.2,0,0.4,0,0.7
			L401.4,572.4L401.4,572.4z"/>
		<path class="st7" d="M391.1,579.9v9.8h-4.6v-25.3h4.6v8.4l-0.1-0.2c0,0.4,0,0.7,0,0.8c0,0.3,0.1,0.6,0.1,0.9L391.1,579.9
			L391.1,579.9z"/>
		<path class="st7" d="M406,564.4v25.3h-4.5v-10.5l0.1,0.1c0-0.4-0.1-0.7-0.1-1v-6h0v-8L406,564.4L406,564.4z"/>
		<polygon class="st7" points="399.3,575.5 399.3,587 393.2,576.4 393.2,564.9 		"/>
		<polygon class="st7" points="417.1,569.2 417.1,574.4 417.1,574.4 417.1,579.2 417.1,579.2 417.1,584.7 417.1,584.7 417.1,589.7 
			411,589.7 411,564.4 417.1,564.4 417.1,569.2 		"/>
		<rect x="419.2" y="574.4" class="st7" width="7.4" height="4.8"/>
		<rect x="419.2" y="564.4" class="st7" width="10" height="4.8"/>
		<rect x="419.2" y="584.7" class="st7" width="10" height="5"/>
		<path class="st7" d="M448.7,578.5c2.9-1.3,4.4-3.5,4.4-6.5c0-1.6-0.4-3-1.2-4.2c-0.8-1.3-1.9-2.2-3.1-2.6c-1.2-0.5-2.9-0.7-5-0.7
			h-3.1v4.5h1.4c1.4,0,2.3,0.1,2.8,0.2c0.5,0.1,1,0.5,1.4,1c0.4,0.6,0.6,1.2,0.6,1.9c0,0.8-0.2,1.4-0.6,2c-0.4,0.6-0.9,1-1.4,1.1
			c-0.5,0.2-1.4,0.2-2.6,0.2h-3.6v-11h-6v25.3h6v-10h4.2l3.9,10h6.6L448.7,578.5z"/>
	</g>
	<rect x="114.1" y="711.3" class="st5" width="69.4" height="24.4"/>
	<g>
		<path class="st3" d="M99.2,713.3l1.4-2h1.1l0.1,8.4h-1c-0.7-2.6-1.6-4.5-2.9-5.7s-2.7-1.8-4.4-1.8c-1.4,0-2.5,0.4-3.4,1.2
			c-0.9,0.8-1.3,1.8-1.3,3c0,0.7,0.2,1.4,0.5,2s0.8,1,1.5,1.4c0.7,0.3,1.9,0.7,3.7,1.1c2.6,0.6,4.4,1.1,5.4,1.7s1.8,1.3,2.3,2.2
			s0.8,1.9,0.8,3c0,2.1-0.7,3.8-2.1,5.2s-3.2,2-5.4,2c-2.4,0-4.5-0.8-6.2-2.3l-1.8,2.2h-1.1v-9h1.1c0.4,2.5,1.4,4.4,2.9,5.8
			c1.5,1.4,3.2,2.1,5.1,2.1c1.5,0,2.8-0.5,3.8-1.4c1-0.9,1.5-2,1.5-3.3c0-0.7-0.2-1.4-0.6-2s-0.9-1-1.7-1.4
			c-0.8-0.4-2.3-0.8-4.7-1.4c-2.6-0.6-4.3-1.3-5.2-2c-1.3-1.1-1.9-2.6-1.9-4.5c0-2,0.7-3.7,1.9-5s3-2,5-2c1,0,1.9,0.2,2.8,0.5
			S98.2,712.5,99.2,713.3z"/>
		<path class="st3" d="M110.6,719.8v9.7c0,1.2,0.3,2.1,0.9,2.8s1.4,1,2.3,1c1.2,0,2.2-0.5,3-1.4s1.2-2.1,1.2-3.5v-5.5
			c0-0.5-0.2-0.9-0.5-1.2c-0.4-0.3-1.1-0.4-2.1-0.5v-1.1l5.1-0.3v12c0,0.5,0.2,1,0.5,1.3s0.8,0.5,1.3,0.5h0.9v1l-4.9,0.1l-0.3-2.9
			c-0.9,1-1.8,1.8-2.6,2.3c-0.9,0.5-1.8,0.8-2.7,0.8c-1.3,0-2.4-0.4-3.3-1.3c-0.9-0.9-1.4-2.4-1.4-4.5v-6.4c0-0.6-0.2-1-0.7-1.3
			c-0.3-0.2-0.9-0.3-1.9-0.3v-1.1L110.6,719.8z"/>
		<path class="st3" d="M129.8,719.8c0.2,1.1,0.4,2.2,0.4,3.2c0.7-1.2,1.5-2,2.3-2.4s1.6-0.7,2.6-0.7c1,0,1.9,0.3,2.9,0.9
			c0.9,0.6,1.6,1.5,2.2,2.7c0.6,1.2,0.9,2.5,0.9,4c0,2.4-0.7,4.3-2.1,5.8c-1.1,1.2-2.5,1.9-4.1,1.9c-0.9,0-1.7-0.2-2.5-0.7
			s-1.4-1.2-2-2.1v5.9c0,0.5,0.1,0.8,0.3,1c0.3,0.2,0.7,0.4,1.2,0.4h1.1v1.1h-7.8v-1.1h1.1c0.5,0,0.9-0.1,1.1-0.3s0.4-0.5,0.4-0.8
			v-15.4c0-0.7-0.2-1.2-0.5-1.5s-1-0.5-2.1-0.5v-1L129.8,719.8z M134.3,721.2c-1.1,0-2.1,0.5-2.9,1.6c-0.8,1.1-1.2,2.7-1.2,4.8
			c0,2.1,0.4,3.6,1.1,4.6s1.7,1.5,2.9,1.5c1.1,0,1.9-0.4,2.5-1.3c0.8-1.1,1.1-2.8,1.1-4.9c0-2.3-0.3-3.9-1-4.9
			S135.4,721.2,134.3,721.2z"/>
		<path class="st3" d="M148.2,719.8c0.2,1.1,0.4,2.2,0.4,3.2c0.7-1.2,1.5-2,2.3-2.4s1.6-0.7,2.6-0.7c1,0,1.9,0.3,2.9,0.9
			c0.9,0.6,1.6,1.5,2.2,2.7c0.6,1.2,0.9,2.5,0.9,4c0,2.4-0.7,4.3-2.1,5.8c-1.1,1.2-2.5,1.9-4.1,1.9c-0.9,0-1.7-0.2-2.5-0.7
			s-1.4-1.2-2-2.1v5.9c0,0.5,0.1,0.8,0.3,1c0.3,0.2,0.7,0.4,1.2,0.4h1.1v1.1h-7.8v-1.1h1.1c0.5,0,0.9-0.1,1.1-0.3s0.4-0.5,0.4-0.8
			v-15.4c0-0.7-0.2-1.2-0.5-1.5s-1-0.5-2.1-0.5v-1L148.2,719.8z M152.7,721.2c-1.1,0-2.1,0.5-2.9,1.6c-0.8,1.1-1.2,2.7-1.2,4.8
			c0,2.1,0.4,3.6,1.1,4.6s1.7,1.5,2.9,1.5c1.1,0,1.9-0.4,2.5-1.3c0.8-1.1,1.1-2.8,1.1-4.9c0-2.3-0.3-3.9-1-4.9
			S153.8,721.2,152.7,721.2z"/>
		<path class="st3" d="M161.7,720.1l5.3-0.3v5.9c0.6-2,1.2-3.4,2-4.4s1.8-1.5,2.9-1.5c0.8,0,1.4,0.2,1.9,0.7c0.5,0.5,0.7,1.1,0.7,2
			c0,0.7-0.2,1.2-0.5,1.5c-0.3,0.4-0.7,0.5-1.2,0.5c-0.5,0-0.9-0.2-1.1-0.5c-0.3-0.3-0.4-0.7-0.4-1.3c0-0.3,0.1-0.7,0.2-1
			c0.2-0.3,0.2-0.4,0.2-0.5c0-0.2-0.1-0.2-0.3-0.2c-0.4,0-0.9,0.2-1.4,0.8c-0.8,0.7-1.3,1.7-1.7,2.9c-0.6,1.9-0.9,3.4-0.9,4.5v3.1
			c0,0.3,0.1,0.6,0.4,0.8s0.7,0.3,1.3,0.3h1.9v1.2h-9.1v-1.2h1.4c0.5,0,0.9-0.1,1.1-0.3s0.4-0.4,0.4-0.7v-9.3c0-0.7-0.1-1.2-0.4-1.5
			c-0.3-0.3-0.7-0.5-1.3-0.5h-1.3L161.7,720.1L161.7,720.1L161.7,720.1z"/>
		<path class="st3" d="M189.8,727.5h-10.5c0.1,2.2,0.5,3.8,1.2,4.7c0.9,1,2,1.5,3.4,1.5c2,0,3.7-1.2,4.9-3.5l1,0.4
			c-1.5,3-3.7,4.4-6.6,4.4c-2,0-3.6-0.7-4.9-2.1s-2-3.2-2-5.4c0-2.4,0.7-4.3,2-5.8c1.3-1.5,2.9-2.2,4.9-2.2c1.4,0,2.6,0.4,3.7,1.1
			c1,0.7,1.8,1.8,2.3,3.1C189.6,724.8,189.8,726,189.8,727.5z M179.4,726.4h6.3c0.4,0,0.7-0.1,0.9-0.4s0.3-0.7,0.3-1.3
			c0-1.2-0.4-2.1-1.1-2.9s-1.6-1.2-2.5-1.2c-1.1,0-2,0.5-2.8,1.5C179.8,723,179.4,724.4,179.4,726.4z"/>
		<path class="st3" d="M193.9,729.2c0.6,1.8,1.4,3,2.2,3.7s1.9,1,3.1,1c1.1,0,2-0.2,2.6-0.7s0.9-1.1,0.9-1.9c0-0.4-0.1-0.8-0.3-1.2
			c-0.2-0.3-0.5-0.6-0.9-0.7s-1.4-0.4-3.1-0.7c-1.6-0.3-2.7-0.6-3.3-1c-0.6-0.3-1.1-0.8-1.5-1.4s-0.5-1.3-0.5-2c0-1.1,0.4-2,1.1-2.9
			c0.9-1.1,2.2-1.7,3.9-1.7c1.3,0,2.4,0.4,3.5,1.2l1-1.1h0.6l0.4,5.2h-1.1c-0.5-1.5-1.1-2.5-1.9-3.2c-0.8-0.7-1.8-1-2.9-1
			c-1,0-1.8,0.2-2.3,0.7c-0.6,0.5-0.9,1.1-0.9,1.8c0,0.6,0.3,1.1,0.8,1.5c0.5,0.4,1.5,0.8,3,1c1.7,0.3,2.9,0.5,3.4,0.7
			c0.9,0.3,1.5,0.8,2,1.4s0.7,1.4,0.7,2.4c0,1.3-0.5,2.4-1.5,3.3s-2.3,1.3-3.9,1.3c-1.4,0-2.8-0.5-4-1.4l-1.1,1.3h-0.8l-0.3-5.8
			L193.9,729.2L193.9,729.2z"/>
		<path class="st3" d="M208.7,729.2c0.6,1.8,1.4,3,2.2,3.7s1.9,1,3.1,1c1.1,0,2-0.2,2.6-0.7s0.9-1.1,0.9-1.9c0-0.4-0.1-0.8-0.3-1.2
			c-0.2-0.3-0.5-0.6-0.9-0.7s-1.4-0.4-3.1-0.7c-1.6-0.3-2.7-0.6-3.3-1c-0.6-0.3-1.1-0.8-1.5-1.4s-0.5-1.3-0.5-2c0-1.1,0.4-2,1.1-2.9
			c0.9-1.1,2.2-1.7,3.9-1.7c1.3,0,2.4,0.4,3.5,1.2l1-1.1h0.6l0.4,5.2h-1.1c-0.5-1.5-1.1-2.5-1.9-3.2c-0.8-0.7-1.8-1-2.9-1
			c-1,0-1.8,0.2-2.3,0.7c-0.6,0.5-0.9,1.1-0.9,1.8c0,0.6,0.3,1.1,0.8,1.5c0.5,0.4,1.5,0.8,3,1c1.7,0.3,2.9,0.5,3.4,0.7
			c0.9,0.3,1.5,0.8,2,1.4s0.7,1.4,0.7,2.4c0,1.3-0.5,2.4-1.5,3.3s-2.3,1.3-3.9,1.3c-1.4,0-2.8-0.5-4-1.4l-1.1,1.3h-0.8l-0.3-5.8
			L208.7,729.2L208.7,729.2z"/>
	</g>
	
		<ellipse transform="matrix(0.9565 -0.2918 0.2918 0.9565 -200.049 105.507)" class="st4" cx="253.7" cy="723.4" rx="21.9" ry="21.9"/>
	<rect x="242.5" y="710.2" class="st5" width="22.4" height="26.5"/>
	<g class="st6">
		<path class="st7" d="M259.6,710.2v15.4h3.5v4.4h-3.5v5.8h-5.9v-5.8h-11.1v-4.4l10.2-15.4H259.6z M247.1,725.7h6.9v-8.6
			c0-0.3,0-0.7,0-1.2l0-1L247.1,725.7z"/>
	</g>
	<g>
		<path class="st7" d="M119.8,92.5h5.2c3,0,5-0.6,6-1.8c1.1-1.2,1.6-2.5,1.6-3.9c0-1.6-0.6-3-1.8-4.2c-1.2-1.2-2.8-1.8-4.9-1.8
			c-4,0-6.5,2.1-7.6,6.3l-10.2-1.6c0.8-3.8,2.9-7,6.1-9.4c3.2-2.5,7.2-3.7,12-3.7c5,0,9.1,1.2,12.5,3.5s5.1,5.6,5.1,9.7
			c0,5.4-2.8,9.1-8.5,11c6.6,1.8,9.9,5.7,9.9,11.7c0,4.3-1.7,7.9-5.1,10.7c-3.4,2.8-8.1,4.2-14,4.2c-5.7,0-10.2-1.4-13.6-4.3
			c-3.3-2.9-5.3-6.4-6-10.7l10.5-1.5c1,5.1,3.9,7.6,8.8,7.6c2.3,0,4.1-0.6,5.5-1.8c1.4-1.2,2.1-2.8,2.1-4.8c0-2.1-0.6-3.7-1.9-4.8
			c-1.3-1.1-3.8-1.6-7.4-1.6h-4.5L119.8,92.5L119.8,92.5L119.8,92.5z"/>
	</g>
	<rect x="125.6" y="67.8" class="st2" width="5.4" height="20.2"/>
	<rect x="125.7" y="108.5" class="st2" width="5.4" height="20.2"/>
	<path class="st0" d="M251.7,223.4c0,1.1,0.2,1.5,0.4,1c0.2-0.5,0.2-1.4,0-2C251.9,221.9,251.7,222.3,251.7,223.4z"/>
	<path class="st2" d="M369.2,250.3c-1.9,2.5-3.5,4.6-5.2,6.6c-3.3,3.7-7.5,5.2-12.4,5.2c-2.3,0-4.6,0-7.3,0c0,1.3,0,2.5,0,3.7
		c0.1,4.2,0.6,8.4,0.3,12.6c-0.7,9-1.9,18-2.8,27c-0.8,7.3-3.3,14.2-6.3,20.8c-2,4.4-4.2,8.8-7.9,12.3c-1.5,1.4-1.8,4.1-2.7,6.1
		c-2.9,6.4-3.6,13.2-4.3,20.2c-0.5,4.4-1.9,8.6-3,12.9c-1.2,4.4-2,8.5,0.8,12.9c2.2,3.3,3.3,7.4,4.8,11.1c0.6,1.4,0.8,2.9,1.3,4.3
		c1.1,3-0.8,4.8-2.5,6.7c-1.3,1.5-2.9,2.7-4.2,4.2c-0.4,0.5-0.6,1.3-0.6,2c0.2,2.5,0.6,4.9,0.9,7.4c0.1,0.8,0,1.7,0,2.5
		c0.2,4.7-0.1,9.3,1.4,14c1.2,3.8,0.6,8.2,0.6,12.3c0,2.2-0.1,4.5,1.2,6.5c1,1.6,0.4,3.1-1,4.2c-1.8,1.5-3.6,2.9-3.3,5.6
		c0.1,0.6,0.1,1.3,0.3,1.9c0.8,1.7,1.1,3.3-0.1,4.9c-0.9,1.2-1,2.5-0.6,4.1c0.6,2.4,0.3,5.1,1.1,7.4c1.8,5.1,1.6,10.3,1.6,15.5
		c0,0.8,0.6,1.5,0.8,2.3c0.5,3.1-0.5,4.8-4,5.4c-5.5,0.9-11.1,2-16.7,2.1c-4.8,0-9.6-0.2-14.4-1.8c-2.9-1-6.1-1-9.2-1.4
		c-0.5-0.1-1.2-0.2-1.5-0.5c-1.3-1.6-2.9-1.5-4.7-1.6c-3.7-0.3-7.6-0.4-11.1-1.4c-2.8-0.8-5.5-2.5-7.9-4.2c-2.3-1.6-2.5-4.5-0.8-7.1
		c2.6-4,6.1-5.8,10.9-5.4c3.4,0.3,6.8,0.2,9.8-1.8c0.6-0.4,1.1-1,1.6-1.5c2.3-2.4,4.6-4.7,6.7-7.2c1.8-2.2,2.6-4.8,2.3-7.7
		c-0.1-0.7-0.1-1.4-0.4-2c-0.2-0.5-0.6-1.1-1.1-1.2c-1.7-0.4-3.4-0.6-5.1-0.9c-3.3-0.7-4.9-4-3.7-7.3c0.6-1.7,0.9-3.6,1.4-5.4
		c0.3-1.1,0.7-2.2,1.2-3.3c0.7-1.5,0.7-2.6-0.5-3.9c-1.9-2.2-3.6-4.6-5-7.1c-2.1-3.7-4.2-7.5-5.9-11.4c-1-2.3-1.1-4.9-1.6-7.4
		c-0.5-2.6-1-5.1-1.4-7.7c-0.3-1.8-0.6-3.7-0.7-5.6c-0.2-3.8,0-7.7-0.5-11.5c-0.5-3.7-1.8-7.3-2.4-11.1c-0.6-3.8-0.8-7.7-1.1-11.6
		c-0.3-4.5,0.5-8.9-1.2-13.4c-1.1-3-1.7-6.2-1.6-9.6c0.1-4.1-0.5-8.2-0.7-12.3c-0.1-1.4,0.1-2.8,0.4-4.1c0.5-2.1,0.4-4-0.7-6
		c-0.6-1.2-0.7-2.9-0.6-4.3c0.2-2.5,0.6-5.1,1.3-7.5c0.5-1.7,0-3.1-1-4.2c-1.4-1.5-1.4-3.2-1.1-4.9c0.6-3.3,1.5-6.6,2.1-9.9
		c0.2-0.9,0.2-1.9,0.3-2.9c0.1-0.9,0.3-1.8,0.6-3.2c-1.3-1.5-3.2-2.9-5.7-3.4c-2.4-0.4-3.9-1.8-4.9-4c-0.7-1.5-1.8-2.8-2.7-4.2
		c-1.2,1.1-2,2.5-3,2.6c-2.3,0.2-3.8,1.5-5.5,2.8c-1.4,1.1-3.4,0.2-4.2-1.2c-1.5-2.6-3.4-1.8-5.3-1.1c-4,1.6-7.9,3.3-12,4.8
		c-1.9,0.7-4.1,0.8-6,1.6c-3.7,1.4-7.7,1.7-11,4.3c-2.6,2-4.9,0.7-6.5-2.9c-0.6-1.4-1.3-2.7-1.6-4.2c-0.5-2.4-2.6-2.8-4.3-3.5
		c-0.4-0.2-1.8,1-2.1,1.8c-1.3,3.8-2.6,7.7-3.6,11.6c-1.1,4.3-1.1,8.6-0.9,13.1c0.3,5.8,2.1,11.1,3.9,16.4
		c1.9,5.6,4.8,10.6,8.4,15.3c2.8,3.7,5.6,7.4,8.5,11.1c1.4,1.8,2.9,3.5,4.5,5.1c1.2,1.2,1.6,2.2,0.5,3.6c-1.6,1.9-3.7,2.4-5,1.2
		c-0.8-0.7-1.5-1.6-2.2-2.5c-4-5.4-8.2-10.6-11.9-16.2c-3.2-5-6.1-10.3-8.6-15.7c-2.1-4.8-4-9.8-3.8-15.3c0.1-5.1-0.2-10.2,0.6-15.2
		c0.6-3.9,2.5-7.6,3.8-11.3c0.7-1.9,1.6-3.8,2.3-5.7c0.4-1.3,0.2-2.5-0.2-3.9c-0.6-2.7-0.6-5.6-0.2-8.4c0.4-2.8,1.9-5.2,4.1-7.1
		c0.3-0.3,0.6-0.8,0.7-1.2c0.2-1.8,1.5-2.6,2.5-3.8c1-1.2,1-3.2,1.4-4.8c0.2-0.9,0.2-2,0.7-2.6c1.5-1.5,3.5-2.6,4.8-4.2
		c1.5-1.9,3.1-4.3,3.2-6.5c0.2-3.7,1.5-6.2,4.9-7.6c1-0.4,1.5-0.9,1.3-2c-0.1-0.4-0.1-0.9,0.1-1.2c2.2-2.9,3.3-6.7,6.7-8.6
		c1.1-0.6,2.4-0.8,3.6-1.2c3-1,6.1-2.1,9.1-3.2c0.4-0.2,0.9-0.6,1.1-1c2-4.1,5.1-7,9.4-8.5c1.9-0.7,3.1-2,3-4.2c0-0.4,0.2-1,0.5-1.3
		c3.6-3.2,6.5-7.2,11-9.4c0.6-0.3,1.1-1.2,1.1-1.9c0-1.7,0.9-2.9,2.3-3.1c1.6-0.2,2.3-1.1,3-2.3c2.2-4,6-4.8,10.1-4.7
		c1.8,0,3.6,0.2,5.4,0.4c1.2,0.1,2.4,0.4,3.6,0.7c1.2,0.2,2.1,0.3,2.4-1.3c0.4-1.8,0.8-3.8,2.7-4.9c0.3-0.2,0.6-1.1,0.4-1.6
		c-1.7-4.2-3.4-8.5-5.4-12.6c-0.4-0.8-1.9-1-3-1.3c-2.9-0.9-5.9-1.5-8.7-2.6c-3.2-1.3-3.5-3.7-0.8-5.7c1.6-1.2,3.4-2.1,5.1-3.1
		c1.2-0.7,2.1-1.6,2.3-3.2c0.3-3.3,1.2-6.5,3-9.4c2.4-3.9,5.3-7.1,9.5-8.9c2.7-1.1,5.4-2.7,8.3-3.1c10.1-1.5,19,0.9,25.7,9
		c2.3,2.7,4.2,6,4.3,9.9c0,0.5,0.8,1.3,1.4,1.5c2.2,0.7,4.5,1.3,6.8,1.7c1.8,0.4,3.4,1.2,3.9,3c0.5,1.8-1,3.1-2.4,3.7
		c-2.4,1.1-4.9,1.7-7.3,2.6c-0.7,0.3-1.6,0.8-1.8,1.5c-1.3,3.7-3.1,6.9-6.1,9.4c-2.4,2-0.9,6.8,2.3,8c0.8,0.3,1.6,0.8,2.5,1
		c1,0.2,2.1,0.3,3.1,0.4c2.4,0.2,4.7,0.2,7.1,0.5c2.7,0.4,5.7,0.5,8.1,1.6c4.1,1.8,8.1,4.1,11.7,6.7c1.7,1.3,2.6,3.9,3.5,6
		c0.4,0.9,0.2,2.1,0,3.1c-0.2,1-0.2,1.3,0.8,2c1.5,1.2,2.6,3,3.8,4.6c0.6,0.8,1.1,1.6,1.5,2.5c1.3,2.7,1.6,2.8,4.2,1.8
		c8.9-3.3,17.9-6.6,26.9-10c1.9-0.7,3.9-1.3,5.8-2.2c0.6-0.3,1.2-1.4,1.2-2.1c0-1.8,0.8-2.8,2.3-3.3c1.5-0.5,2.2,0.4,2.8,1.6
		c0.2,0.4,1.3,0.7,2,0.6c2.2-0.4,3.1,0,3.8,2.1c0.7,2.1,1.4,4.1,2,6.2c0.8,2.5,1.6,3.1,4.1,2.4c2.6-0.8,5.2-1.7,7.7-2.8
		c5.7-2.5,10.3,0.1,12.8,4.6c0.5,0.9-0.1,2.7-0.6,4c-1.2,3.7-4,5.6-7.7,6.7c-2.8,0.8-5.5,2.2-8.2,3.5c-0.6,0.3-1.3,1.4-1.2,2.1
		c0.5,3,1.3,5.9,2,8.8c0.6,2.8,1.6,5.7,1.7,8.5c0.1,4.4,0.9,8.8-1.2,13c-0.9,1.8-1.5,3.8-2.8,5.2c-3,3.4-6.1,6.7-9.6,9.5
		c-3,2.5-6.7,4.2-10.7,4.4c-5,0.3-9.2-1.8-12.6-5.2c-2.5-2.5-4.6-5.5-6.7-8.4C369.4,252.7,369.5,251.6,369.2,250.3z M390.3,261.7
		c1.2-0.5,3.3-1.1,5.3-2.1c4.1-2,6.9-5.5,9.6-9c3.3-4.5,4.9-9.6,3.7-15.2c-1-4.8-2.3-9.4-5.1-13.5c-1.3-1.8-4.4-3.8-5.8-3.4
		c-4,1.2-8,2.2-12,3.5c-5.5,1.8-10.9,3.8-16.3,5.8c-1.3,0.5-1.3,1.3-0.9,2.5c1.4,4.3,2.9,8.6,3.9,13c1.1,4.6,2.6,9,5.6,12.7
		C381.1,259.2,384.7,261.4,390.3,261.7z M237.6,244.6c0-2.7-0.4-3.2-1.8-2.5c-5.2,2.5-10.5,5-15.7,7.6c-1.1,0.5-1.9,1.5-2.9,2.3
		c1.3,0.2,2.6,0.5,3.9,0.7c0.1,0,0.3-0.1,0.4-0.1c4.7-1.7,9.3-3.5,14-5.2C237.2,246.9,238,246.1,237.6,244.6z M218.8,258.8
		c1.1-0.3,2-0.4,2.8-0.8c0.5-0.3,0.8-1,1.2-1.5c-0.7-0.4-1.4-1.1-2-1c-0.8,0.1-1.7,0.6-2.4,1.1c-0.4,0.3-0.9,1.1-0.8,1.4
		C217.7,258.3,218.4,258.6,218.8,258.8z M193.6,283.2c-0.3,0.1-0.6,0.3-0.8,0.4c0.6,1.9,1.2,3.9,1.9,5.8c0.1,0.4,1,0.4,1.5,0.6
		c0.2-0.5,0.6-1.1,0.5-1.4C195.7,286.8,194.6,285,193.6,283.2z M196.1,282.5c0.3-0.2,0.7-0.4,1-0.6c-0.8-1.7-1.5-3.4-2.4-5.1
		c-0.1-0.2-0.8-0.4-1.1-0.3c-0.3,0.1-0.7,0.8-0.6,0.9C194,279.1,195.1,280.8,196.1,282.5z M209.4,256.9c2.5-0.4,3.4-1.1,3.7-2.7
		C211.2,254,209.9,254.9,209.4,256.9z"/>
</g>
</svg>
