<?xml version="1.0" encoding="utf-8"?>
<!-- Generator: Adobe Illustrator 24.0.2, SVG Export Plug-In . SVG Version: 6.00 Build 0)  -->
<svg version="1.1" id="Layer_1" xmlns="http://www.w3.org/2000/svg" xmlns:xlink="http://www.w3.org/1999/xlink" x="0px" y="0px"
	 viewBox="0 0 595.28 841.89" style="enable-background:new 0 0 595.28 841.89;" xml:space="preserve">
<style type="text/css">
	.st0{fill:#C6C6C6;}
	.st1{fill:#FFFCF1;}
	.st2{fill:#5895A2;}
	.st3{fill:#FFFFFF;}
	.st4{fill:#3C3C3B;}
	.st5{fill:none;}
	.st6{enable-background:new    ;}
</style>
<rect x="275.64" y="582.96" class="st0" width="4.25" height="7.19"/>
<path class="st1" d="M513.76,783.34H80.77c-21.07,0-38.14-17.08-38.14-38.14V99.84c0-21.07,17.08-38.14,38.14-38.14h432.99
	c21.07,0,38.14,17.08,38.14,38.14V745.2C551.91,766.26,534.83,783.34,513.76,783.34z"/>
<rect x="42.63" y="551.8" class="st2" width="509.28" height="54.64"/>
<rect x="216.54" y="566.99" class="st0" width="1.79" height="2.8"/>
<path class="st3" d="M217.54,570.76h-1 M217.54,570.76h0.5h2c1.36,0,2.29,0.06,2.79,0.19c0.49,0.13,0.95,0.47,1.37,1.03
	s0.63,1.19,0.63,1.89c0,0.75-0.21,1.41-0.63,1.98c-0.42,0.58-0.9,0.95-1.44,1.11c-0.54,0.17-1.4,0.25-2.59,0.25h-3.63v-5.61v-0.84
	 M217.54,566.25h-1 M216.54,566.25h-5.98v25.32h5.98v-10.03h4.25l3.89,10.03h6.55l-4.67-11.19c2.93-1.33,4.39-3.51,4.39-6.55
	c0-1.56-0.41-2.97-1.22-4.24c-0.82-1.28-1.85-2.15-3.09-2.63c-1.24-0.47-2.89-0.71-4.95-0.71h-3.65h-0.5"/>
<path class="st3" d="M235.54,566.25v25.32h5.91v-25.32H235.54z"/>
<path class="st3" d="M253.55,566.25h-0.85h-0.07 M254.77,566.25h-1.22 M254.77,566.25h9.79v5.01h-9.79 M254.77,571.26h-2.07
	 M252.63,566.25h-6.09v25.32h6.16v-6.26v-3.64h2.07h7.3v-4.73h-7.3h-2.07v-0.97v-3.16v-1.55"/>
<path class="st3" d="M273.61,586.57v-20.32h-6.01v25.32h6.02L273.61,586.57L273.61,586.57z M275.8,586.57v5h7.89v-5H275.8z"/>
<path class="st3" d="M294.87,586.57v5h9.95v-5H294.87z M294.87,566.25v4.82h9.95v-4.82H294.87z M294.87,576.27v4.77h7.37v-4.77
	H294.87z M286.73,566.25v25.32h5.96v-25.32H286.73z"/>
<path class="st3" d="M326.74,566.25l-4.67,15.16l-4.45-15.16h-9.24v25.32h4.97v-20.65l6.25,20.65h4.06l6.38-20.65v20.65h5.97v-25.32
	H326.74z"/>
<path class="st3" d="M353.5,566.25h-6.87l-8.12,25.32h5.21l1.58-5.21h8.19l1.56,5.21h6.38L353.5,566.25z M346.73,581.69l2.7-8.89
	l2.66,8.89H346.73z"/>
<path class="st3" d="M379.06,566.25v13.25c0,0.38,0.03,0.94,0.11,1.68l-8.62-14.93h-6.39v25.32h4.62v-15.15
	c0-0.3-0.03-0.67-0.08-1.1c-0.01-0.13-0.02-0.42-0.03-0.85l9.91,17.1h5.06v-25.32H379.06z"/>
<rect x="293.69" y="619.79" class="st2" width="7.15" height="142.95"/>
<rect x="65.73" y="687.68" class="st2" width="463.07" height="7.15"/>
<g>
	<path d="M113.88,635.29h7.69l6.91,18.25l6.36-18.25h7.87v1.17h-1.92c-0.68,0-1.13,0.1-1.37,0.3c-0.23,0.2-0.35,0.54-0.35,1.03v18.3
		c0,0.37,0.14,0.65,0.42,0.84c0.28,0.2,0.77,0.3,1.45,0.3h1.77v1.17h-10.58v-1.17h1.98c0.56,0,0.98-0.11,1.25-0.32
		s0.41-0.49,0.41-0.82v-19.63l-7.64,21.94h-1.05l-8.23-21.84v16.8c0,1,0.13,1.75,0.38,2.24c0.25,0.5,0.61,0.88,1.07,1.14
		c0.46,0.27,1.23,0.43,2.3,0.49v1.17h-8.72v-1.17c1.43-0.09,2.4-0.4,2.91-0.92c0.51-0.52,0.77-1.44,0.77-2.77V637.6
		c0-0.4-0.12-0.68-0.36-0.87c-0.24-0.18-0.69-0.27-1.34-0.27h-1.97L113.88,635.29L113.88,635.29z"/>
	<path d="M151.51,643.32c1.97,0,3.62,0.71,4.96,2.13c1.34,1.42,2.01,3.29,2.01,5.62c0,1.6-0.3,2.97-0.9,4.1
		c-0.6,1.13-1.45,2.02-2.56,2.68s-2.3,0.98-3.59,0.98c-1.9,0-3.5-0.72-4.82-2.16s-1.98-3.3-1.98-5.59c0-2.3,0.66-4.17,1.98-5.61
		C147.94,644.04,149.57,643.32,151.51,643.32z M151.51,644.43c-1.17,0-2.13,0.53-2.88,1.59s-1.13,2.73-1.13,5.01
		c0,2.32,0.37,4.02,1.12,5.09c0.74,1.07,1.71,1.61,2.88,1.61c1.22,0,2.21-0.54,2.96-1.61s1.13-2.83,1.13-5.27
		c0-2.26-0.37-3.9-1.12-4.91C153.74,644.94,152.74,644.43,151.51,644.43z"/>
	<path d="M159.96,643.76h7.2v1.06c-0.96,0.02-1.57,0.11-1.84,0.26c-0.27,0.15-0.4,0.37-0.4,0.65c0,0.23,0.05,0.46,0.16,0.69
		l3.88,8.64l3.53-8.38c0.05-0.15,0.08-0.29,0.08-0.44c0-0.76-0.75-1.23-2.24-1.42v-1.06h6.06v1.06c-0.61,0.06-1.1,0.23-1.47,0.5
		c-0.36,0.27-0.65,0.64-0.84,1.09l-5.36,12.42h-0.84l-5.76-12.77c-0.21-0.46-0.46-0.78-0.76-0.96c-0.3-0.18-0.76-0.28-1.4-0.29
		L159.96,643.76L159.96,643.76z"/>
	<path d="M191.52,651.18h-10.48c0.05,2.23,0.47,3.8,1.25,4.72c0.9,1.03,2.04,1.55,3.42,1.55c2.04,0,3.68-1.16,4.92-3.48l1.02,0.44
		c-1.52,2.96-3.72,4.44-6.59,4.44c-1.96,0-3.61-0.71-4.95-2.13s-2.01-3.23-2.01-5.44c0-2.38,0.66-4.29,1.98-5.76
		c1.32-1.46,2.94-2.2,4.87-2.2c1.42,0,2.64,0.37,3.67,1.09c1.03,0.73,1.81,1.78,2.33,3.14C191.31,648.51,191.5,649.72,191.52,651.18
		z M181.04,650.07h6.34c0.38,0,0.67-0.13,0.88-0.38s0.31-0.69,0.31-1.3c0-1.15-0.36-2.12-1.07-2.92s-1.55-1.2-2.52-1.2
		c-1.08,0-2,0.48-2.76,1.45C181.46,646.68,181.07,648.13,181.04,650.07z"/>
</g>
<circle class="st4" cx="488.62" cy="647.16" r="21.91"/>
<rect x="477.44" y="633.92" class="st5" width="22.37" height="26.48"/>
<g class="st6">
	<path class="st3" d="M479.74,643.92v-5.21c4.38-1.29,7.24-3.01,8.57-5.16h4.3v21.08h7.01v4.64H479.1v-4.64h7.68v-14.49
		C483.77,641.97,481.42,643.23,479.74,643.92z"/>
</g>
<circle class="st4" cx="232.66" cy="645.58" r="21.91"/>
<rect x="221.48" y="632.34" class="st5" width="22.37" height="26.48"/>
<g class="st6">
	<path class="st3" d="M223.78,642.34v-5.21c4.38-1.29,7.24-3.01,8.57-5.16h4.3v21.08h7.01v4.64h-20.52v-4.64h7.68v-14.49
		C227.81,640.38,225.46,641.64,223.78,642.34z"/>
</g>
<g>
	<path d="M361.36,636.53h1.05l8.29,21.14c0.33,0.85,1.02,1.28,2.05,1.28h0.72v1.17h-9.22v-1.17h0.73c0.96,0,1.63-0.1,2.03-0.31
		c0.27-0.15,0.41-0.37,0.41-0.67c0-0.18-0.04-0.36-0.11-0.56l-1.91-4.91h-9.14l-1.07,2.81c-0.28,0.75-0.42,1.34-0.42,1.78
		c0,0.51,0.24,0.95,0.71,1.31c0.47,0.37,1.16,0.55,2.07,0.55h0.78v1.17h-8.38v-1.17c0.9,0,1.6-0.2,2.13-0.59
		c0.52-0.39,1-1.13,1.44-2.23L361.36,636.53z M360.91,640.98l-4.15,10.3h8.16L360.91,640.98z"/>
	<path d="M378.2,639.52h1.05v5.97h4.73v1.44h-4.73v9.39c0,0.81,0.19,1.44,0.58,1.87c0.38,0.43,0.88,0.65,1.47,0.65
		c0.71,0,1.31-0.33,1.81-0.98s0.79-1.74,0.88-3.25h1.05c-0.06,1.95-0.51,3.39-1.33,4.34c-0.82,0.94-1.89,1.41-3.2,1.41
		c-1.21,0-2.15-0.33-2.84-0.99c-0.68-0.66-1.02-1.53-1.02-2.6v-9.83h-2.55v-1.09c1.16-0.2,2.04-0.68,2.65-1.45
		C377.64,643.22,378.13,641.6,378.2,639.52z"/>
	<path d="M390.65,639.52h1.05v5.97h4.73v1.44h-4.73v9.39c0,0.81,0.19,1.44,0.58,1.87c0.38,0.43,0.88,0.65,1.47,0.65
		c0.71,0,1.31-0.33,1.81-0.98s0.79-1.74,0.88-3.25h1.05c-0.06,1.95-0.51,3.39-1.33,4.34c-0.82,0.94-1.89,1.41-3.2,1.41
		c-1.21,0-2.15-0.33-2.84-0.99c-0.68-0.66-1.02-1.53-1.02-2.6v-9.83h-2.55v-1.09c1.16-0.2,2.04-0.68,2.65-1.45
		C390.09,643.22,390.58,641.6,390.65,639.52z"/>
	<path d="M414.71,658.52l0.56,0.88c-0.76,0.78-1.6,1.17-2.53,1.17c-0.71,0-1.3-0.19-1.79-0.58s-0.91-1.06-1.27-2.03
		c-0.99,1.04-1.86,1.74-2.61,2.09s-1.65,0.52-2.7,0.52c-1.5,0-2.64-0.32-3.42-0.97s-1.17-1.47-1.17-2.48c0-1.52,0.89-2.78,2.68-3.79
		c1.79-1,4.16-1.67,7.13-2.01v-2.22c0-0.79-0.32-1.47-0.95-2.03c-0.64-0.56-1.44-0.84-2.42-0.84c-0.91,0-1.69,0.19-2.34,0.56
		c-0.47,0.28-0.7,0.56-0.7,0.83c0,0.16,0.13,0.4,0.38,0.73c0.3,0.42,0.45,0.79,0.45,1.11c0,0.47-0.15,0.85-0.45,1.15
		c-0.3,0.3-0.7,0.45-1.19,0.45c-0.52,0-0.96-0.18-1.3-0.53c-0.35-0.35-0.52-0.81-0.52-1.36c0-1.03,0.58-1.97,1.74-2.83
		c1.16-0.85,2.68-1.28,4.57-1.28c1.74,0,3.07,0.38,3.98,1.13c0.92,0.76,1.38,1.68,1.38,2.77v8c0,0.71,0.11,1.23,0.34,1.56
		c0.23,0.34,0.53,0.52,0.89,0.52C413.84,659.02,414.27,658.85,414.71,658.52z M409.59,652.34c-2.65,0.37-4.52,0.96-5.63,1.78
		c-0.82,0.63-1.23,1.51-1.23,2.66c0,0.8,0.21,1.43,0.64,1.88c0.43,0.45,0.98,0.68,1.67,0.68c1.23,0,2.29-0.47,3.2-1.4
		c0.9-0.93,1.35-2.1,1.35-3.51L409.59,652.34L409.59,652.34z"/>
	<path d="M428.23,655.78l1.02,0.3c-0.81,2.99-2.6,4.48-5.38,4.48c-2.03,0-3.69-0.67-4.98-2.02c-1.29-1.34-1.94-3.13-1.94-5.36
		c0-2.58,0.71-4.59,2.13-6.01s3.08-2.13,5-2.13c1.44,0,2.63,0.4,3.56,1.19c0.94,0.79,1.41,1.67,1.41,2.64
		c0,0.58-0.17,1.07-0.52,1.45c-0.35,0.38-0.76,0.57-1.24,0.57c-0.47,0-0.87-0.16-1.19-0.48s-0.48-0.71-0.48-1.17
		s0.18-0.89,0.53-1.31c0.17-0.2,0.25-0.35,0.25-0.47c0-0.3-0.2-0.59-0.61-0.88c-0.41-0.29-0.96-0.43-1.66-0.43
		c-1.27,0-2.23,0.46-2.89,1.39c-0.94,1.34-1.41,3.11-1.41,5.31c0,2.09,0.42,3.68,1.25,4.75c0.83,1.08,1.9,1.62,3.19,1.62
		C426.04,659.22,427.36,658.07,428.23,655.78z"/>
	<path d="M431,637.02l5.59-0.27v15.98l4.76-4.15c0.46-0.41,0.69-0.76,0.69-1.06c0-0.26-0.14-0.46-0.41-0.61
		c-0.41-0.21-1.07-0.32-1.98-0.34v-1.09h7.8v1.09c-1.54,0.08-2.72,0.49-3.53,1.22l-3.36,2.98l5.46,7.51
		c0.33,0.45,0.91,0.67,1.73,0.67h0.81v1.17h-8v-1.17h0.8c0.59,0,0.99-0.05,1.19-0.16c0.2-0.1,0.3-0.23,0.3-0.38
		s-0.05-0.29-0.16-0.44l-3.99-5.58l-2.12,1.88v3.7c0,0.3,0.1,0.53,0.3,0.67c0.28,0.2,0.67,0.3,1.17,0.3h1.02v1.17h-7.86v-1.17h1.27
		c0.52,0,0.91-0.11,1.16-0.33s0.38-0.51,0.38-0.88v-18.06c0-0.47-0.15-0.81-0.45-1.03c-0.44-0.31-1.03-0.47-1.77-0.47H431V637.02z"
		/>
</g>
<g>
	<path d="M131.12,716.9l1.08-2.23h0.98l0.41,9.3h-1.05c-0.69-2.61-1.55-4.54-2.59-5.78c-1.29-1.55-2.83-2.33-4.63-2.33
		c-1.94,0-3.52,0.87-4.73,2.59c-1.22,1.73-1.83,4.66-1.83,8.78c0,3.47,0.7,6.12,2.09,7.94c1.19,1.54,2.85,2.31,5,2.31
		c1.88,0,3.45-0.6,4.72-1.8s2.1-3.02,2.48-5.45h1.11c-0.32,2.75-1.27,4.87-2.83,6.34c-1.56,1.48-3.53,2.22-5.91,2.22
		c-1.93,0-3.7-0.48-5.3-1.45s-2.9-2.36-3.86-4.18s-1.45-3.81-1.45-5.98c0-2.3,0.5-4.46,1.49-6.48c0.99-2.02,2.27-3.54,3.82-4.55
		c1.55-1.02,3.22-1.52,5.02-1.52c1,0,1.97,0.17,2.91,0.52C128.99,715.5,130.02,716.07,131.12,716.9z"/>
	<path d="M143.67,723.14c1.97,0,3.62,0.71,4.96,2.13c1.34,1.42,2.01,3.29,2.01,5.62c0,1.6-0.3,2.97-0.9,4.1
		c-0.6,1.13-1.45,2.02-2.56,2.68s-2.3,0.98-3.59,0.98c-1.9,0-3.5-0.72-4.82-2.16s-1.98-3.3-1.98-5.59c0-2.3,0.66-4.17,1.98-5.61
		C140.1,723.86,141.73,723.14,143.67,723.14z M143.67,724.25c-1.17,0-2.13,0.53-2.88,1.59s-1.13,2.73-1.13,5.01
		c0,2.32,0.37,4.02,1.12,5.09c0.74,1.07,1.71,1.61,2.88,1.61c1.22,0,2.21-0.54,2.96-1.61s1.13-2.83,1.13-5.27
		c0-2.26-0.37-3.9-1.12-4.91C145.9,724.75,144.91,724.25,143.67,724.25z"/>
	<path d="M152.76,723.57l4.86-0.3c0.2,0.92,0.34,1.99,0.44,3.22c0.66-1.06,1.43-1.86,2.32-2.39s1.9-0.8,3.02-0.8
		c0.97,0,1.78,0.19,2.44,0.57s1.18,0.98,1.58,1.8c0.4,0.82,0.59,1.75,0.59,2.77v7.13c0,0.53,0.12,0.91,0.36,1.13
		c0.24,0.22,0.64,0.34,1.2,0.34h1.03v1.17h-7.72v-1.17h0.73c0.69,0,1.17-0.11,1.44-0.33c0.27-0.22,0.41-0.55,0.41-0.98v-6.27
		c0-1.36-0.21-2.38-0.63-3.03c-0.58-0.94-1.47-1.41-2.66-1.41c-1.18,0-2.16,0.47-2.95,1.42s-1.18,2.18-1.18,3.7v5.42
		c0,0.53,0.12,0.91,0.37,1.13c0.24,0.22,0.65,0.34,1.21,0.34h1.02v1.17h-7.75v-1.17h1.02c0.51,0,0.9-0.1,1.16-0.31
		c0.27-0.21,0.4-0.47,0.4-0.78v-9.45c0-0.63-0.17-1.1-0.51-1.42s-0.83-0.48-1.46-0.48h-0.75L152.76,723.57L152.76,723.57z"/>
	<path d="M176.17,717.61h1.05v5.97h4.73v1.44h-4.73v9.39c0,0.81,0.19,1.44,0.58,1.87s0.88,0.65,1.47,0.65
		c0.71,0,1.31-0.33,1.81-0.98s0.79-1.74,0.88-3.25H183c-0.06,1.95-0.51,3.39-1.33,4.34c-0.82,0.94-1.89,1.41-3.2,1.41
		c-1.21,0-2.15-0.33-2.84-0.99c-0.68-0.66-1.02-1.53-1.02-2.6v-9.83h-2.55v-1.09c1.16-0.2,2.04-0.68,2.65-1.45
		C175.61,721.31,176.1,719.69,176.17,717.61z"/>
	<path d="M184.53,723.57l5.27-0.27v5.92c0.56-1.95,1.24-3.42,2.03-4.42s1.77-1.5,2.94-1.5c0.79,0,1.42,0.24,1.9,0.73
		c0.47,0.48,0.71,1.13,0.71,1.95c0,0.66-0.16,1.17-0.48,1.53c-0.32,0.37-0.72,0.55-1.2,0.55c-0.47,0-0.85-0.16-1.13-0.47
		c-0.29-0.31-0.43-0.73-0.43-1.27c0-0.34,0.08-0.67,0.25-0.97c0.16-0.27,0.23-0.43,0.23-0.48c0-0.16-0.1-0.23-0.3-0.23
		c-0.43,0-0.91,0.25-1.45,0.75c-0.75,0.7-1.33,1.66-1.73,2.88c-0.63,1.9-0.94,3.41-0.94,4.55v3.14c0,0.35,0.13,0.63,0.38,0.81
		s0.68,0.28,1.28,0.28h1.86v1.17h-9.09v-1.17h1.45c0.49,0,0.86-0.1,1.11-0.29s0.38-0.42,0.38-0.7v-9.33c0-0.71-0.15-1.23-0.45-1.55
		c-0.3-0.33-0.73-0.49-1.3-0.49h-1.28v-1.12L184.53,723.57L184.53,723.57z"/>
	<path d="M205.87,723.14c1.97,0,3.62,0.71,4.96,2.13c1.34,1.42,2.01,3.29,2.01,5.62c0,1.6-0.3,2.97-0.9,4.1
		c-0.6,1.13-1.45,2.02-2.56,2.68s-2.3,0.98-3.59,0.98c-1.9,0-3.5-0.72-4.82-2.16s-1.98-3.3-1.98-5.59c0-2.3,0.66-4.17,1.98-5.61
		C202.3,723.86,203.93,723.14,205.87,723.14z M205.87,724.25c-1.17,0-2.13,0.53-2.88,1.59s-1.13,2.73-1.13,5.01
		c0,2.32,0.37,4.02,1.12,5.09c0.74,1.07,1.71,1.61,2.88,1.61c1.22,0,2.21-0.54,2.96-1.61s1.13-2.83,1.13-5.27
		c0-2.26-0.37-3.9-1.12-4.91C208.1,724.75,207.11,724.25,205.87,724.25z"/>
	<path d="M220.5,714.84v21.22c0,0.29,0.09,0.52,0.27,0.67c0.26,0.21,0.58,0.31,0.95,0.31h1.55v1.17h-8.3v-1.17h1.47
		c0.48,0,0.84-0.11,1.07-0.34c0.23-0.23,0.35-0.55,0.35-0.97v-17.81c0-0.52-0.14-0.9-0.42-1.14c-0.39-0.33-0.86-0.5-1.42-0.5h-1.31
		v-1.17L220.5,714.84z"/>
</g>
<rect x="216.54" y="563.35" class="st2" width="1.5" height="2.9"/>
<rect x="216.54" y="570.76" class="st2" width="1.5" height="0.84"/>
<polygon class="st2" points="171.41,61.69 171.41,127.29 128.45,154.84 85.5,127.3 85.5,61.69 "/>
<polygon class="st0" points="85.8,126.94 86.36,126.94 86.36,127.3 "/>
<g transform="translate(0.000000,1280.000000) scale(0.100000,-0.100000)">
	<path class="st2" d="M2875.67,11302.93c-27.76-11.61-68.26-34.27-90.93-51.27c-39.37-29.46-57.5-75.06-81.29-203.66
		c-3.68-19.83-9.63-44.47-12.75-54.38c-8.5-24.93-7.08-32.01,7.65-40.22c6.8-3.68,19.83-7.37,29.74-8.5l17.85-1.98l11.33-22.66
		c9.35-18.69,12.75-22.94,18.69-23.51c6.51-0.85,7.93-2.83,10.76-15.58c1.7-8.21,9.06-26.06,15.86-40.22
		c11.33-22.94,12.75-27.48,12.75-45.32c0-35.41-1.42-39.37-19.54-51.84c-8.78-6.23-22.09-14.45-30.03-18.41
		c-7.65-3.97-19.26-10.48-25.21-14.73c-10.2-6.8-13.88-7.65-43.9-8.78c-18.13-0.57-38.81-1.13-45.89-1.13
		c-10.2,0-15.3-1.7-21.81-7.08c-5.1-4.25-21.53-11.05-40.22-16.71c-27.76-8.5-45.32-17.85-45.32-24.36c0-1.13,5.67-5.95,12.75-11.05
		s12.75-9.91,12.75-11.05c0-1.13-8.21-6.52-17.84-11.9c-11.33-6.23-30.03-22.09-51.84-43.9c-30.31-30.31-44.75-46.17-99.71-109.9
		c-8.5-9.63-20.96-27.19-27.76-38.81c-15.01-25.21-43.62-96.87-52.12-130.3c-14.16-55.24-31.16-132.28-31.16-140.78
		c0-7.08-2.27-10.76-9.63-16.43c-5.38-3.97-11.05-11.33-12.75-16.15c-3.68-10.2-3.68-52.97-0.57-107.64
		c1.98-32.01,3.68-41.07,9.63-54.39c15.01-32.57,33.14-53.25,56.65-64.58c20.68-10.2,38.81-11.9,64.3-6.51
		c11.61,2.55,24.64,5.1,28.61,5.95c7.08,1.7,7.93,0.57,13.88-17.56c9.06-27.48,17.28-42.77,44.47-84.13
		c19.54-29.74,24.93-35.97,29.18-34.56c4.53,1.42,7.08-1.42,13.88-15.01c4.53-9.06,11.9-20.68,15.86-25.78
		c6.51-7.65,9.35-8.78,21.24-8.78h13.6l3.97-16.15l3.97-16.43l33.14-0.85c24.08-0.57,33.14-1.7,33.14-4.25
		c0-1.98-12.75-15.3-28.04-29.74c-15.58-14.45-33.99-34.84-41.07-45.6l-13.03-19.54v-60.33c0-85.54-5.1-169.67-13.03-212.16
		c-11.05-60.05-13.88-92.63-10.2-121.23c3.12-26.91,6.52-35.69,21.53-59.2c9.35-14.73,22.66-60.33,38.52-132.28
		c9.91-44.19,5.67-85.54-15.58-150.98c-8.21-24.93-9.91-34.56-9.91-54.95c0-16.43-2.83-38.24-8.78-66.57
		c-11.33-54.39-12.46-77.05-6.8-115.85c2.83-18.41,4.82-52.69,5.1-83.56c0.57-47.02,1.42-54.1,7.08-67.98
		c4.53-11.33,6.23-21.24,6.23-37.11c0-11.61,2.55-39.09,5.38-60.9c6.51-47.3,10.76-91.77,14.16-153.24
		c3.12-51.55,6.23-60.9,22.09-66.57c4.82-1.7,9.63-5.95,10.48-9.06c3.4-12.75,5.1-99.99,2.27-120.1
		c-3.4-23.51-17.28-55.23-33.99-78.18c-5.67-7.93-23.23-30.03-38.81-49.29c-37.11-46.17-39.09-49.57-39.66-67.42
		c-0.28-8.21-1.98-16.71-3.68-18.98c-5.95-7.08-11.9-24.36-11.9-33.71c0.28-13.03,8.78-30.88,19.54-39.94
		c13.88-11.61,28.61-14.45,73.93-14.16c57.78,0,82.99,6.52,109.62,28.33c17,13.6,27.48,32.29,26.63,47.87l-0.28,12.46h11.9
		c21.24,0,82.14,39.66,86.39,56.08c3.97,15.3,2.27,47.02-3.4,61.47c-5.1,13.03-5.67,20.96-5.1,96.31
		c0.28,50.7,1.7,92.34,4.25,109.05l3.68,26.63l31.72,10.2c17.28,5.38,32.29,10.76,33.14,11.61s-2.27,16.71-7.36,35.41
		c-17.56,67.42-30.03,113.3-34.56,128.6c-2.83,9.35-5.38,30.88-6.23,53.82c-1.7,36.26-1.13,39.66,6.23,63.73
		c4.25,14.16,8.21,32.01,9.06,40.22c1.42,17.84-9.91,65.15-23.79,100.27c-13.88,35.69-13.31,44.75,5.67,76.2
		c24.93,41.07,28.04,52.69,28.89,108.49c0.85,40.5,1.7,49,6.8,58.35c3.4,7.08,7.08,24.08,9.91,47.59
		c2.55,19.83,5.67,39.94,7.08,44.47c1.7,4.53,2.83,11.05,2.83,14.45s3.97,9.63,8.78,14.45c24.64,23.51,35.41,66.28,39.37,159.19
		c1.7,33.42,3.68,61.75,4.53,63.17s6.23,4.53,11.9,7.08c5.67,2.27,13.31,6.8,16.43,9.91c5.95,5.67,6.8,5.67,16.43,1.13
		c13.03-6.23,14.16-7.93,19.83-31.16c2.83-10.76,9.91-30.31,15.86-43.34c15.58-32.86,41.36-131.71,46.17-175.34
		c3.4-32.01,3.12-34.56-1.7-41.07c-5.1-7.08-5.1-7.65,8.5-58.92l13.6-52.12l9.06-2.27c7.65-1.98,9.35-3.97,10.76-13.03
		c3.68-24.93,11.05-54.38,18.69-73.93c10.76-28.61,9.35-36.82-16.43-90.93c-20.68-43.05-20.96-44.47-22.38-70.81
		c-0.85-14.73,0-47.3,1.7-72.23c1.7-24.93,4.25-68.27,5.38-96.31c2.55-52.69,3.12-58.63,10.76-95.46
		c4.25-21.53,4.25-22.38-1.98-39.66c-3.4-9.91-10.2-24.64-14.45-33.14c-9.35-17.28-9.91-24.36-4.25-38.52
		c4.82-11.61,25.49-34.56,33.14-36.82c5.38-1.7,5.67-3.97,3.97-71.66c-1.13-38.52-0.57-100.56,0.85-138.23
		c3.4-87.81,5.38-92.63,42.21-111.32c6.8-3.4,17.85-6.8,24.93-7.93l12.75-1.7l-1.7-30.02c-1.42-25.78-0.85-31.44,3.68-39.94
		c18.41-35.41,145.03-49.29,206.78-22.66c23.51,9.91,24.64,12.18,17.85,37.67c-2.83,11.9-6.8,24.08-8.5,27.19
		c-1.42,3.12-2.83,15.58-2.83,27.76c-0.28,12.18-1.98,26.63-3.97,32.01c-5.1,14.45-21.53,38.52-54.39,79.59
		c-15.86,19.83-32.29,43.34-36.82,52.4l-8.21,16.71l0.85,77.9c0.85,69.4,1.42,78.18,5.67,81.29c11.61,8.5,11.9,9.06,11.9,43.34
		c0,29.18,1.7,41.64,13.88,99.71c15.3,73.08,23.23,105.09,30.31,124.07c11.61,31.44,9.91,101.69-3.68,146.16
		c-7.08,23.79-7.36,28.33-7.08,76.48c0.28,30.59,2.27,60.9,4.82,75.06c7.08,40.22,3.68,157.21-5.1,170.52
		c-4.53,6.8-9.06,44.75-12.18,98.57l-1.98,33.14l10.48,4.82c5.67,2.83,11.9,7.65,13.88,11.05c4.25,7.37,3.97,118.12-0.57,184.4
		c-7.65,107.92-6.8,263.43,1.7,353.5c1.98,22.66-8.78,45.32-35.69,73.65c-11.05,11.61-20.11,23.51-20.11,26.34
		c0,3.12-1.98,8.78-3.97,13.31c-3.68,6.51-3.68,9.91-0.28,22.66c7.08,27.48,14.45,43.05,20.39,42.77c8.21,0,50.14-26.06,67.42-41.64
		c22.66-20.11,29.74-21.24,53.25-9.06c29.74,15.58,54.95,31.44,82.71,52.69c44.19,33.42,44.47,33.42,46.17,50.14
		c0.57,8.21,1.7,14.73,2.55,14.73c0.57,0,44.75-34.27,98.29-76.48l97.16-76.2l15.86,0.85c8.78,0.28,17.85,2.27,20.11,4.25
		c3.4,2.83,7.36,1.13,22.66-11.33c10.2-8.21,18.7-15.58,18.7-16.71c0-0.85-3.12-5.95-7.08-11.33s-7.08-11.05-7.08-13.03
		c0-4.25,13.6-13.31,17-11.05c1.42,0.85,5.1,0,8.5-1.98c7.65-4.82,15.58,0.28,15.58,9.91c-0.28,8.78-10.76,16.43,92.63-66.85
		c57.5-46.17,84.41-69.4,84.98-73.65c0.57-3.4,2.55-5.95,4.53-5.38c1.7,0.28,3.4-1.13,3.4-3.4c0-4.53,7.65-8.21,11.61-5.67
		c1.42,0.85,2.55-1.13,2.55-4.25c0-3.68,1.98-5.95,5.1-5.95c2.55,0,13.6-7.08,24.36-15.86c10.48-8.78,20.39-14.73,21.53-13.31
		c7.93,8.21,22.66,27.19,22.66,29.17c0,1.13-8.78,8.78-19.54,17c-10.76,8.21-20.39,17.28-20.96,20.11
		c-0.85,3.68-3.12,4.82-5.95,3.68c-3.12-1.13-4.53-0.28-4.53,2.83c0,2.55-2.27,5.67-4.82,6.51c-2.83,1.13-6.52,3.68-8.21,6.23
		c-1.7,2.27-5.1,3.4-7.36,2.55c-2.83-1.13-24.93,15.01-62.03,44.75c-31.72,25.78-71.95,57.78-89.51,71.38
		c-22.09,17-31.72,26.34-32.01,30.59c0,3.12,13.6,22.66,30.87,44.19c16.71,21.25,31.44,40.79,32.57,43.62
		c2.55,6.23-4.82,14.16-15.3,16.43c-9.63,1.7-89.79-13.88-95.46-18.7c-2.83-2.27-3.68-1.7-3.68,2.55
		c0,7.65-20.11,26.63-109.9,104.24c-58.92,50.99-73.93,65.43-72.8,69.68c0.85,2.83,1.7,11.9,1.42,20.11s-0.28,23.51,0,34.27
		c0.85,32.57-9.91,59.77-39.37,100.27c-7.65,10.48-20.39,31.16-28.04,45.32l-14.16,26.34l11.61,6.51l11.9,6.52l-0.57,26.34
		c-0.57,26.34-0.57,26.63-18.98,64.3c-22.09,45.89-28.33,54.95-58.92,87.53c-13.31,14.16-23.51,27.19-22.66,29.18
		c1.7,5.67-40.51,77.61-63.73,108.2c-11.05,14.73-28.04,35.97-37.96,46.74c-30.59,34.56-98.01,80.73-133.41,91.49
		c-22.66,6.8-24.93,11.61-24.93,52.69v32.86l-10.48,5.38c-19.54,9.91-39.66,13.88-84.98,17.56c-44.47,3.4-44.75,3.4-54.67,12.46
		c-25.21,22.94-49,41.36-52.4,39.94c-1.98-0.57-4.53,1.42-5.38,4.82c-3.68,13.88-1.42,30.03,6.51,47.59
		c9.63,21.53,28.61,79.31,28.61,87.53c0,3.12,1.42,5.67,2.83,5.67c1.7,0,2.83-1.42,2.83-2.83c0-1.7,3.12-4.25,6.8-5.95
		c14.45-6.8,21.53,4.25,25.78,39.94c2.27,22.09,3.12,22.66,20.68,19.26c11.05-2.27,18.13-2.27,26.63,0.28l11.61,3.68l-1.98,14.45
		c-1.13,8.21-3.12,26.34-4.53,40.22c-3.12,32.86-29.18,121.52-48.72,165.71c-19.54,44.75-39.94,79.6-53.25,91.78
		c-21.81,19.54-41.92,26.91-89.23,32.86c-13.88,1.7-37.39,5.67-52.12,8.5C2912.21,11314.55,2902.87,11313.98,2875.67,11302.93z
		 M3455.5,9920.36c26.06-20.11,28.61-22.66,21.24-20.11c-13.03,4.82-32.29,6.8-41.92,4.53c-10.48-2.27-10.48-2.27-10.48,6.8
		c0,16.71,3.4,30.31,6.8,27.76C3432.84,9937.92,3443.89,9929.42,3455.5,9920.36z M3534.81,9856.34c0-1.13-1.7-2.55-3.97-3.4
		c-2.55-1.13-8.21,4.25-15.58,14.16l-11.9,15.58l15.86-12.46C3527.73,9863.71,3534.81,9857.19,3534.81,9856.34z M3948.08,9719.53
		c2.55-3.12,1.7-5.67-3.97-12.46c-6.23-7.36-6.51-8.78-2.83-11.9c2.27-1.98,4.25-4.25,4.25-5.38c0-2.55-17-20.11-19.54-20.11
		c-3.4,0-40.22,31.44-41.92,35.97c-2.27,6.23,5.67,10.2,27.48,13.88C3937.6,9724.06,3944.4,9724.06,3948.08,9719.53z
		 M3892.28,9671.94c7.93-6.52,13.03-12.46,11.33-13.03c-3.4-1.13-31.72,19.26-31.72,22.66
		C3871.89,9686.67,3878.97,9683.27,3892.28,9671.94z"/>
</g>
<rect x="106.25" y="76.34" class="st5" width="44.41" height="49.38"/>
<g class="st6">
	<path class="st3" d="M142.43,86.22h-20.95L120.7,96.9c2.58-2.74,5.99-4.11,10.23-4.11c4.34,0,8.02,1.42,11.04,4.27
		s4.54,6.52,4.54,11.02c0,4.99-1.63,9.08-4.9,12.25s-7.85,4.76-13.73,4.76c-10.22,0-16.54-4.55-18.95-13.64l10.55-1.58
		c1.08,4.22,3.75,6.33,8.02,6.33c2.34,0,4.21-0.73,5.59-2.18c1.38-1.45,2.07-3.16,2.07-5.13c0-2.06-0.73-3.83-2.18-5.31
		c-1.45-1.48-3.25-2.21-5.38-2.21c-2.98,0-5.27,1.24-6.89,3.73l-9.15-1.51l1.88-27.21h30.23L142.43,86.22z"/>
</g>
<rect x="126.18" y="110.27" class="st2" width="4.56" height="24.14"/>
<rect x="216.54" y="554.12" class="st2" width="1.5" height="9.23"/>
<rect x="216.54" y="564.5" class="st2" width="2.1" height="9.49"/>
</svg>
