<?xml version="1.0" encoding="utf-8"?>
<!-- Generator: Adobe Illustrator 25.2.1, SVG Export Plug-In . SVG Version: 6.00 Build 0)  -->
<svg version="1.1" id="Layer_1" xmlns="http://www.w3.org/2000/svg" xmlns:xlink="http://www.w3.org/1999/xlink" x="0px" y="0px"
	 viewBox="0 0 595.28 841.89" style="enable-background:new 0 0 595.28 841.89;" xml:space="preserve">
<style type="text/css">
	.st0{fill:#C6C6C6;}
	.st1{fill:#FFFCF1;}
	.st2{fill:#5996A2;}
	.st3{fill:#FFFFFF;}
	.st4{fill:none;}
	.st5{fill:#3C3C3B;}
</style>
<g>
	<rect x="276.01" y="581.39" class="st0" width="4.25" height="7.19"/>
	<path class="st1" d="M514.13,781.77H81.14c-21.07,0-38.14-17.08-38.14-38.14V98.26c0-21.07,17.08-38.14,38.14-38.14h432.99
		c21.07,0,38.14,17.08,38.14,38.14v645.36C552.28,764.69,535.2,781.77,514.13,781.77z"/>
	<rect x="43" y="551.05" class="st2" width="509.28" height="54.64"/>
	<polygon class="st2" points="171.78,60.12 171.78,125.72 128.82,153.27 85.87,125.73 85.87,60.12 	"/>
	<polygon class="st0" points="86.17,125.37 86.73,125.37 86.73,125.73 	"/>
	<g>
		<path class="st3" d="M122.63,110.06c0.99,3.38,3.11,5.06,6.38,5.06c2.21,0,4.11-0.9,5.69-2.71c1.58-1.8,2.42-6.01,2.52-12.62
			c-2.74,3.3-6.32,4.96-10.72,4.96c-4.27,0-7.8-1.36-10.6-4.08c-2.8-2.72-4.2-6.26-4.2-10.62c0-4.76,1.59-8.61,4.76-11.57
			c3.18-2.95,7.46-4.43,12.85-4.43c3.87,0,7.24,0.88,10.11,2.64s5.07,4.56,6.61,8.42c1.53,3.86,2.3,8.19,2.3,12.99
			c0,7.2-1.65,13.23-4.96,18.11c-3.3,4.88-8.25,7.31-14.84,7.31c-8.46,0-13.71-3.89-15.75-11.67L122.63,110.06z M129.52,82.04
			c-2.09,0-3.8,0.74-5.15,2.23c-1.35,1.49-2.02,3.18-2.02,5.08c0,1.92,0.64,3.61,1.92,5.06s2.98,2.18,5.12,2.18
			c2.13,0,3.88-0.75,5.24-2.25s2.04-3.19,2.04-5.06c0-1.9-0.67-3.58-2.02-5.04C133.28,82.78,131.58,82.04,129.52,82.04z"/>
	</g>
	<rect x="126.55" y="108.7" class="st2" width="4.56" height="24.14"/>
	<rect x="231.78" y="560.84" class="st4" width="153.48" height="33.1"/>
	<g>
		<polygon class="st3" points="107.53,567.27 107.53,575.04 111.02,575.04 111.02,580.37 107.76,580.37 107.76,591.26 
			100.78,591.26 100.78,561.94 111.02,561.94 111.02,567.27 		"/>
		<path class="st3" d="M123.53,570.94c0,1.45-0.28,2.86-0.86,4.23c-0.57,1.38-1.38,2.46-2.42,3.25c-1.05,0.78-2.06,1.31-3.04,1.56
			c-0.91,0.24-2.26,0.37-4.09,0.38v-5.38c1.12-0.15,1.94-0.52,2.46-1.12c0.69-0.79,1.03-1.69,1.03-2.71c0-1.18-0.38-2.13-1.15-2.83
			c-0.56-0.52-1.34-0.84-2.34-0.97v-5.4c2.2,0.05,3.91,0.32,5.14,0.81c1.37,0.56,2.59,1.54,3.66,2.96
			C123,567.14,123.53,568.88,123.53,570.94z"/>
		<polygon class="st3" points="134.3,561.94 134.3,579.81 134.27,579.81 134.27,591.26 127.34,591.26 127.34,561.94 		"/>
		<rect x="136.37" y="585.46" class="st3" width="9.59" height="5.8"/>
		<path class="st3" d="M163.9,561.94h-7.96l-9.4,29.32h6.03l1.83-6.03h9.49l1.8,6.03h7.39L163.9,561.94z M156.05,579.81l3.14-10.29
			l3.08,10.29H156.05z"/>
		<polygon class="st3" points="192.58,561.94 192.58,567.74 188.89,567.74 188.89,567.7 174.75,567.7 174.75,567.74 171.06,567.74 
			171.06,561.94 		"/>
		<rect x="178.36" y="569.8" class="st3" width="6.96" height="21.46"/>
		<path class="st3" d="M201.33,576.59c0,5.65,1.42,8.78,4.27,9.39v5.7c-3.5-0.22-6.24-1.69-8.23-4.41
			c-2.16-2.97-3.24-6.56-3.24-10.77c0-4.28,1.09-7.85,3.28-10.72c1.97-2.58,4.7-3.99,8.19-4.24v5.68
			C202.75,567.83,201.33,570.96,201.33,576.59z"/>
		<path class="st3" d="M219.16,576.57c0,4.25-1.07,7.84-3.22,10.76c-1.94,2.64-4.69,4.09-8.25,4.33v-5.65
			c2.85-0.54,4.27-3.68,4.27-9.4c0-5.73-1.42-8.88-4.27-9.42v-5.67c3.64,0.21,6.42,1.73,8.35,4.55
			C218.12,569.13,219.16,572.63,219.16,576.57z"/>
		<path class="st3" d="M247.28,576.57c0,4.25-1.07,7.84-3.22,10.76c-1.94,2.64-4.69,4.09-8.25,4.33v-5.65
			c2.85-0.54,4.28-3.68,4.28-9.4c0-5.73-1.43-8.87-4.28-9.42v-5.67c3.64,0.21,6.43,1.73,8.35,4.55
			C246.24,569.13,247.28,572.63,247.28,576.57z"/>
		<path class="st3" d="M229.45,576.59c0,5.65,1.42,8.78,4.27,9.39v5.7c-3.5-0.22-6.24-1.69-8.23-4.41
			c-2.16-2.97-3.24-6.56-3.24-10.77c0-4.28,1.1-7.85,3.29-10.72c1.97-2.58,4.7-3.99,8.18-4.24v5.68
			C230.87,567.83,229.45,570.96,229.45,576.59z"/>
		<path class="st3" d="M269.02,561.94v15.34c0,0.44,0.05,1.09,0.13,1.95l-9.97-17.29h-7.41v29.32h5.35v-17.55
			c0-0.34-0.03-0.76-0.08-1.27c-0.02-0.15-0.03-0.48-0.05-0.98l11.48,19.8h5.86v-29.32L269.02,561.94L269.02,561.94z"/>
		<path class="st3" d="M311.48,568.38l-5.85,1.96c-0.71-2.1-2.14-3.25-4.3-3.45v-5.37C306.54,561.76,309.92,564.05,311.48,568.38z"
			/>
		<path class="st3" d="M312.27,581.94c0,2.65-1.02,4.94-3.06,6.88c-1.83,1.73-4.46,2.68-7.88,2.86v-5.46
			c1.22-0.09,2.15-0.39,2.8-0.9c0.77-0.61,1.16-1.33,1.16-2.18c0-0.86-0.35-1.52-1.05-2c-0.56-0.37-1.53-0.73-2.91-1.07v-7.4
			c2.7,0.57,4.71,1.13,6.01,1.71c1.38,0.62,2.55,1.61,3.51,2.98C311.8,578.72,312.27,580.25,312.27,581.94z"/>
		<path class="st3" d="M299.24,586.15v5.54c-2.62-0.13-4.87-0.8-6.77-2.03c-2.11-1.36-3.5-3.39-4.17-6.09l6.36-1.44
			C295.26,584.46,296.79,585.8,299.24,586.15z"/>
		<path class="st3" d="M296.57,569.5c0,0.7,0.25,1.3,0.76,1.78c0.35,0.33,0.98,0.63,1.91,0.9v7.42c-3.24-0.74-5.59-1.74-7.04-2.96
			c-1.58-1.34-2.38-3.3-2.38-5.87c0-2.61,0.95-4.81,2.85-6.6c1.66-1.58,3.85-2.45,6.57-2.64v5.42
			C297.46,567.22,296.57,568.07,296.57,569.5z"/>
		<rect x="325.86" y="561.94" class="st3" width="11.85" height="5.58"/>
		<polygon class="st3" points="323.75,567.52 323.75,573.54 323.76,573.54 323.76,579.06 323.75,579.06 323.75,585.46 
			323.76,585.46 323.76,591.26 316.76,591.26 316.76,561.94 323.76,561.94 323.76,567.52 		"/>
		<rect x="325.86" y="573.54" class="st3" width="8.86" height="5.52"/>
		<rect x="325.86" y="585.46" class="st3" width="11.85" height="5.8"/>
		<rect x="341.84" y="561.94" class="st3" width="6.91" height="29.32"/>
		<path class="st3" d="M365.77,591.26h-7.59l-4.51-11.62h-2.82v-5.01h2.11c1.38,0,2.38-0.09,3-0.29c0.62-0.19,1.18-0.62,1.67-1.28
			c0.48-0.67,0.73-1.43,0.73-2.29c0-0.82-0.25-1.55-0.73-2.19c-0.49-0.65-1.02-1.05-1.59-1.2c-0.58-0.15-1.65-0.22-3.23-0.22h-1.96
			v-5.22h3.88c2.37,0,4.28,0.27,5.72,0.82c1.44,0.56,2.63,1.57,3.58,3.04c0.94,1.48,1.42,3.12,1.42,4.92c0,3.52-1.7,6.05-5.1,7.58
			L365.77,591.26z"/>
		<path class="st3" d="M393.01,571.56l-6.53,0.86c-0.53-3.55-2.21-5.33-5.05-5.33c-0.41,0-0.8,0.04-1.17,0.13v-5.68
			c0.38-0.04,0.77-0.05,1.17-0.05c3.27,0,5.9,0.91,7.91,2.75C391.34,566.07,392.57,568.51,393.01,571.56z"/>
		<path class="st3" d="M393.01,575.58v15.68h-3.14c-0.22-1.1-0.55-2.22-0.97-3.37c-2.1,2.55-4.76,3.82-8,3.82
			c-0.22,0-0.43,0-0.64-0.02v-5.77c0.46,0.13,0.95,0.19,1.47,0.19c1.23,0,2.33-0.4,3.3-1.21c0.97-0.8,1.45-2.08,1.45-3.84h-5.52
			v-5.48L393.01,575.58L393.01,575.58z"/>
		<path class="st3" d="M377.21,569.62c-0.95,1.68-1.43,4.08-1.43,7.21c0,3,0.52,5.3,1.55,6.89c0.25,0.39,0.53,0.73,0.83,1.02v6.71
			c-2.54-0.52-4.6-1.79-6.19-3.84c-2.13-2.73-3.19-6.27-3.19-10.61c0-4.67,1.13-8.42,3.4-11.26c1.59-1.99,3.59-3.28,5.98-3.87v6.51
			C377.8,568.71,377.49,569.13,377.21,569.62z"/>
		<polygon class="st3" points="405.41,567.52 405.41,573.54 405.45,573.54 405.45,579.06 405.41,579.06 405.41,585.46 
			405.45,585.46 405.45,591.26 398.42,591.26 398.42,561.94 405.45,561.94 405.45,567.52 		"/>
		<rect x="407.54" y="573.54" class="st3" width="8.85" height="5.52"/>
		<rect x="407.54" y="561.94" class="st3" width="11.83" height="5.58"/>
		<rect x="407.54" y="585.46" class="st3" width="11.83" height="5.8"/>
		<path class="st3" d="M437.91,561.94h-7.96l-9.4,29.32h6.03l1.84-6.03h9.48l1.8,6.03h7.39L437.91,561.94z M430.06,579.81
			l3.14-10.29l3.08,10.29H430.06z"/>
		<path class="st3" d="M467.5,561.94v15.34c0,0.44,0.04,1.09,0.13,1.95l-9.98-17.29h-7.4v29.32h5.34v-17.55
			c0-0.34-0.02-0.76-0.08-1.27c-0.02-0.15-0.03-0.48-0.04-0.98l11.47,19.8h5.86v-29.32L467.5,561.94L467.5,561.94z"/>
		<polygon class="st3" points="497.27,561.94 497.27,567.74 490.01,567.74 490.01,567.75 483.05,567.75 483.05,567.74 
			475.75,567.74 475.75,561.94 		"/>
		<rect x="483.05" y="569.85" class="st3" width="6.96" height="21.41"/>
	</g>
	<polygon class="st4" points="464.52,446.73 460.17,446.73 460.17,446.73 	"/>
	<path class="st3" d="M270.35,285.52c-0.1,7.27-4.89,12.68-11.15,12.59c-6.12-0.09-10.99-5.88-10.88-12.93
		c0.12-7.05,5.18-12.74,11.22-12.62C265.77,272.7,270.45,278.31,270.35,285.52z"/>
	<rect x="169.42" y="680.99" class="st2" width="256.43" height="7.15"/>
	<g>
		<path d="M213.58,637.43h12.05c2.36,0,4.17,0.52,5.43,1.56c1.25,1.04,1.88,2.35,1.88,3.92c0,1.31-0.44,2.42-1.31,3.34
			c-0.88,0.92-2.19,1.64-3.95,2.17c2.18,0.46,3.81,1.18,4.9,2.17s1.63,2.23,1.63,3.73c0,1.15-0.31,2.16-0.93,3.05
			s-1.65,1.64-3.09,2.25c-1.44,0.62-3.08,0.92-4.91,0.92h-11.69v-1.17h1.91c0.57,0,0.99-0.09,1.26-0.28s0.4-0.4,0.4-0.64v-18.52
			c0-0.44-0.13-0.77-0.39-0.99s-0.64-0.34-1.14-0.34h-2.03v-1.17H213.58z M220.49,648.03h4.38c1.34,0,2.41-0.39,3.21-1.19
			c0.8-0.79,1.2-2.08,1.2-3.88c0-1.11-0.19-1.98-0.57-2.6s-0.93-1.08-1.66-1.37c-0.72-0.29-1.98-0.43-3.76-0.43
			c-1.26,0-2.04,0.09-2.34,0.27s-0.45,0.5-0.45,0.96v8.24H220.49z M220.49,649.21v8.91c0,0.42,0.12,0.73,0.37,0.94
			c0.24,0.21,0.68,0.31,1.32,0.31h2.8c1.85,0,3.22-0.41,4.11-1.23c0.88-0.82,1.33-2.09,1.33-3.82c0-1.58-0.46-2.83-1.38-3.74
			s-2.18-1.37-3.8-1.37H220.49z"/>
		<path d="M243.13,645.46c1.97,0,3.62,0.71,4.96,2.13c1.34,1.42,2.01,3.29,2.01,5.62c0,1.6-0.3,2.97-0.9,4.1
			c-0.6,1.13-1.45,2.02-2.56,2.68s-2.3,0.98-3.59,0.98c-1.9,0-3.5-0.72-4.82-2.16s-1.98-3.3-1.98-5.59c0-2.3,0.66-4.17,1.98-5.61
			C239.56,646.18,241.19,645.46,243.13,645.46z M243.13,646.57c-1.17,0-2.13,0.53-2.88,1.59s-1.13,2.73-1.13,5.01
			c0,2.32,0.37,4.02,1.12,5.09c0.74,1.07,1.71,1.61,2.88,1.61c1.22,0,2.21-0.54,2.96-1.61s1.13-2.83,1.13-5.27
			c0-2.26-0.37-3.9-1.12-4.91C245.36,647.07,244.37,646.57,243.13,646.57z"/>
		<path d="M257.76,637.16v21.22c0,0.29,0.09,0.52,0.27,0.67c0.26,0.21,0.58,0.31,0.95,0.31h1.55v1.17h-8.3v-1.17h1.47
			c0.48,0,0.84-0.11,1.07-0.34c0.23-0.23,0.35-0.55,0.35-0.97v-17.81c0-0.52-0.14-0.9-0.42-1.14c-0.39-0.33-0.86-0.5-1.42-0.5h-1.31
			v-1.17L257.76,637.16z"/>
		<path d="M264.07,655.02c0.65,1.8,1.39,3.05,2.23,3.74s1.87,1.04,3.1,1.04c1.13,0,2.01-0.25,2.62-0.74s0.91-1.12,0.91-1.88
			c0-0.44-0.11-0.82-0.34-1.15c-0.22-0.33-0.53-0.57-0.93-0.73s-1.43-0.4-3.08-0.71c-1.59-0.31-2.69-0.64-3.32-0.98
			c-0.63-0.34-1.11-0.82-1.46-1.42s-0.52-1.26-0.52-1.97c0-1.07,0.36-2.05,1.08-2.92c0.93-1.11,2.23-1.67,3.9-1.67
			c1.27,0,2.45,0.4,3.54,1.2l1.03-1.09h0.64l0.41,5.22h-1.05c-0.46-1.48-1.08-2.54-1.86-3.2c-0.78-0.65-1.75-0.98-2.9-0.98
			c-0.99,0-1.77,0.24-2.33,0.73c-0.56,0.48-0.85,1.08-0.85,1.77c0,0.62,0.26,1.13,0.78,1.53c0.51,0.42,1.51,0.75,3,0.99
			c1.73,0.29,2.86,0.54,3.38,0.74c0.86,0.31,1.52,0.79,1.99,1.44s0.7,1.44,0.7,2.38c0,1.29-0.51,2.38-1.53,3.28
			s-2.31,1.34-3.87,1.34c-1.45,0-2.8-0.48-4.04-1.44l-1.14,1.31h-0.83l-0.31-5.83L264.07,655.02L264.07,655.02z"/>
		<path d="M280.98,639.93h1.05v5.97h4.73v1.44h-4.73v9.39c0,0.81,0.19,1.44,0.58,1.87c0.38,0.43,0.88,0.65,1.47,0.65
			c0.71,0,1.31-0.33,1.81-0.98s0.79-1.74,0.88-3.25h1.05c-0.06,1.95-0.51,3.39-1.33,4.34c-0.82,0.94-1.89,1.41-3.2,1.41
			c-1.21,0-2.15-0.33-2.84-0.99c-0.68-0.66-1.02-1.53-1.02-2.6v-9.83h-2.55v-1.09c1.16-0.2,2.04-0.68,2.65-1.45
			C280.42,643.63,280.9,642.01,280.98,639.93z"/>
		<path d="M303.3,653.32h-10.48c0.05,2.23,0.47,3.8,1.25,4.72c0.9,1.03,2.04,1.55,3.42,1.55c2.04,0,3.68-1.16,4.92-3.48l1.02,0.44
			c-1.52,2.96-3.72,4.44-6.59,4.44c-1.96,0-3.61-0.71-4.95-2.13c-1.34-1.42-2.01-3.23-2.01-5.44c0-2.38,0.66-4.29,1.98-5.76
			c1.32-1.46,2.94-2.2,4.87-2.2c1.42,0,2.64,0.37,3.67,1.09c1.03,0.73,1.81,1.78,2.33,3.14
			C303.09,650.65,303.28,651.86,303.3,653.32z M292.82,652.21h6.34c0.38,0,0.67-0.13,0.88-0.38s0.31-0.69,0.31-1.3
			c0-1.15-0.36-2.12-1.07-2.92c-0.71-0.8-1.55-1.2-2.52-1.2c-1.08,0-2,0.48-2.76,1.45C293.24,648.82,292.85,650.27,292.82,652.21z"
			/>
		<path d="M305.33,645.89l5.27-0.27v5.92c0.56-1.95,1.24-3.42,2.03-4.42s1.77-1.5,2.94-1.5c0.79,0,1.42,0.24,1.9,0.73
			c0.47,0.48,0.71,1.13,0.71,1.95c0,0.66-0.16,1.17-0.48,1.53c-0.32,0.37-0.72,0.55-1.2,0.55c-0.47,0-0.85-0.16-1.13-0.47
			c-0.29-0.31-0.43-0.73-0.43-1.27c0-0.34,0.08-0.67,0.25-0.97c0.16-0.27,0.23-0.43,0.23-0.48c0-0.16-0.1-0.23-0.3-0.23
			c-0.43,0-0.91,0.25-1.45,0.75c-0.75,0.7-1.33,1.66-1.73,2.88c-0.63,1.9-0.94,3.41-0.94,4.55v3.14c0,0.35,0.13,0.63,0.38,0.81
			s0.68,0.28,1.28,0.28h1.86v1.17h-9.09v-1.17h1.45c0.49,0,0.86-0.1,1.11-0.29s0.38-0.42,0.38-0.7v-9.33c0-0.71-0.15-1.23-0.45-1.55
			c-0.3-0.33-0.73-0.49-1.3-0.49h-1.28L305.33,645.89L305.33,645.89z"/>
	</g>
	<circle class="st5" cx="359.78" cy="648.89" r="21.91"/>
	<g>
		<path class="st3" d="M355.98,645.68h2.67c1.52,0,2.55-0.32,3.1-0.95c0.54-0.63,0.82-1.3,0.82-2.02c0-0.8-0.3-1.52-0.9-2.14
			s-1.44-0.94-2.51-0.94c-2.05,0-3.35,1.08-3.88,3.25l-5.25-0.83c0.43-1.95,1.48-3.57,3.14-4.85s3.71-1.92,6.15-1.92
			c2.55,0,4.69,0.61,6.43,1.82s2.61,2.87,2.61,4.98c0,2.76-1.45,4.65-4.34,5.66c3.4,0.9,5.1,2.91,5.1,6.01
			c0,2.23-0.87,4.05-2.61,5.49c-1.74,1.43-4.13,2.15-7.19,2.15c-2.93,0-5.25-0.74-6.97-2.21s-2.74-3.3-3.09-5.49l5.38-0.78
			c0.52,2.61,2.03,3.92,4.53,3.92c1.16,0,2.11-0.31,2.83-0.93s1.09-1.44,1.09-2.48c0-1.1-0.33-1.92-0.99-2.46
			c-0.66-0.54-1.93-0.81-3.79-0.81h-2.32v-4.47H355.98z"/>
	</g>
	<g>
		<path d="M210.58,705.14l1.08-2.23h0.98l0.41,9.3H212c-0.69-2.61-1.55-4.54-2.59-5.78c-1.29-1.55-2.83-2.33-4.63-2.33
			c-1.94,0-3.52,0.87-4.73,2.59c-1.22,1.73-1.83,4.66-1.83,8.78c0,3.47,0.7,6.12,2.09,7.94c1.19,1.54,2.85,2.31,5,2.31
			c1.88,0,3.45-0.6,4.72-1.8s2.1-3.02,2.48-5.45h1.11c-0.32,2.75-1.27,4.87-2.83,6.34c-1.56,1.48-3.53,2.22-5.91,2.22
			c-1.93,0-3.7-0.48-5.3-1.45s-2.9-2.36-3.86-4.18s-1.45-3.81-1.45-5.98c0-2.3,0.5-4.46,1.49-6.48c0.99-2.02,2.27-3.54,3.82-4.55
			c1.55-1.02,3.22-1.52,5.02-1.52c1,0,1.97,0.17,2.91,0.52S209.48,704.31,210.58,705.14z"/>
		<path d="M223.13,711.37c1.97,0,3.62,0.71,4.96,2.13c1.34,1.42,2.01,3.29,2.01,5.62c0,1.6-0.3,2.97-0.9,4.1
			c-0.6,1.13-1.45,2.02-2.56,2.68s-2.3,0.98-3.59,0.98c-1.9,0-3.5-0.72-4.82-2.16s-1.98-3.3-1.98-5.59c0-2.3,0.66-4.17,1.98-5.61
			C219.56,712.09,221.19,711.37,223.13,711.37z M223.13,712.48c-1.17,0-2.13,0.53-2.88,1.59s-1.13,2.73-1.13,5.01
			c0,2.32,0.37,4.02,1.12,5.09c0.74,1.07,1.71,1.61,2.88,1.61c1.22,0,2.21-0.54,2.96-1.61s1.13-2.83,1.13-5.27
			c0-2.26-0.37-3.9-1.12-4.91C225.36,712.99,224.37,712.48,223.13,712.48z"/>
		<path d="M233.13,711.81l4.19-0.27c0.23,1.09,0.38,2.13,0.45,3.11c0.79-1.14,1.59-1.94,2.38-2.41s1.66-0.7,2.61-0.7
			c1.01,0,1.85,0.26,2.5,0.79s1.16,1.39,1.52,2.58c0.7-1.13,1.47-1.98,2.33-2.54c0.85-0.56,1.78-0.84,2.79-0.84
			c1.33,0,2.33,0.4,3,1.19c0.85,1.04,1.28,2.39,1.28,4.03v7.27c0,0.44,0.11,0.73,0.33,0.89c0.29,0.24,0.72,0.36,1.3,0.36h0.73v1.17
			h-7.36v-1.17h0.73c0.63,0,1.06-0.1,1.31-0.31s0.38-0.52,0.38-0.94v-7.28c0-1.08-0.27-1.92-0.79-2.52
			c-0.53-0.59-1.23-0.89-2.09-0.89c-0.66,0-1.25,0.17-1.78,0.52c-0.53,0.35-0.95,0.85-1.25,1.49c-0.45,0.93-0.67,1.72-0.67,2.36v6.3
			c0,0.43,0.11,0.74,0.34,0.95c0.23,0.2,0.58,0.3,1.06,0.3h1v1.17h-7.47v-1.17h0.84c0.53,0,0.93-0.1,1.19-0.31
			c0.26-0.21,0.39-0.47,0.39-0.8v-6.75c0-1.43-0.25-2.46-0.76-3.11c-0.51-0.65-1.19-0.97-2.04-0.97c-1.1,0-1.95,0.38-2.55,1.13
			c-0.84,1.06-1.27,2.3-1.27,3.72V724c0,0.45,0.1,0.76,0.3,0.92c0.28,0.22,0.72,0.33,1.31,0.33h0.75v1.17h-7.38v-1.17h1.11
			c0.42,0,0.74-0.1,0.96-0.31s0.34-0.47,0.34-0.8v-9.59c0-0.53-0.14-0.93-0.41-1.19s-0.81-0.43-1.63-0.5v-1.05H233.13z"/>
		<path d="M261.58,711.81l4.19-0.27c0.23,1.09,0.38,2.13,0.45,3.11c0.79-1.14,1.59-1.94,2.38-2.41s1.66-0.7,2.61-0.7
			c1.01,0,1.85,0.26,2.5,0.79s1.16,1.39,1.52,2.58c0.7-1.13,1.47-1.98,2.33-2.54c0.85-0.56,1.78-0.84,2.79-0.84
			c1.33,0,2.33,0.4,3,1.19c0.85,1.04,1.28,2.39,1.28,4.03v7.27c0,0.44,0.11,0.73,0.33,0.89c0.29,0.24,0.72,0.36,1.3,0.36h0.73v1.17
			h-7.36v-1.17h0.73c0.63,0,1.06-0.1,1.31-0.31s0.38-0.52,0.38-0.94v-7.28c0-1.08-0.27-1.92-0.79-2.52
			c-0.53-0.59-1.23-0.89-2.09-0.89c-0.66,0-1.25,0.17-1.78,0.52c-0.53,0.35-0.95,0.85-1.25,1.49c-0.45,0.93-0.67,1.72-0.67,2.36v6.3
			c0,0.43,0.11,0.74,0.34,0.95c0.23,0.2,0.58,0.3,1.06,0.3h1v1.17h-7.47v-1.17h0.84c0.53,0,0.93-0.1,1.19-0.31s0.39-0.47,0.39-0.8
			v-6.75c0-1.43-0.25-2.46-0.76-3.11c-0.51-0.65-1.19-0.97-2.04-0.97c-1.1,0-1.95,0.38-2.55,1.13c-0.84,1.06-1.27,2.3-1.27,3.72V724
			c0,0.45,0.1,0.76,0.3,0.92c0.28,0.22,0.72,0.33,1.31,0.33h0.75v1.17h-7.38v-1.17h1.11c0.42,0,0.74-0.1,0.96-0.31
			s0.34-0.47,0.34-0.8v-9.59c0-0.53-0.14-0.93-0.41-1.19s-0.81-0.43-1.63-0.5v-1.05H261.58z"/>
		<path d="M304.6,724.84l0.56,0.88c-0.76,0.78-1.6,1.17-2.53,1.17c-0.71,0-1.3-0.19-1.79-0.58s-0.91-1.06-1.27-2.03
			c-0.99,1.04-1.86,1.74-2.61,2.09s-1.65,0.52-2.7,0.52c-1.5,0-2.64-0.32-3.42-0.97s-1.17-1.47-1.17-2.48
			c0-1.52,0.89-2.78,2.68-3.79c1.79-1,4.16-1.67,7.13-2.01v-2.22c0-0.79-0.32-1.47-0.95-2.03c-0.64-0.56-1.44-0.84-2.42-0.84
			c-0.91,0-1.69,0.19-2.34,0.56c-0.47,0.28-0.7,0.56-0.7,0.83c0,0.16,0.13,0.4,0.38,0.73c0.3,0.42,0.45,0.79,0.45,1.11
			c0,0.47-0.15,0.85-0.45,1.15c-0.3,0.3-0.7,0.45-1.19,0.45c-0.52,0-0.96-0.18-1.3-0.53c-0.35-0.35-0.52-0.81-0.52-1.36
			c0-1.03,0.58-1.97,1.74-2.83c1.16-0.85,2.68-1.28,4.57-1.28c1.74,0,3.07,0.38,3.98,1.13c0.92,0.76,1.38,1.68,1.38,2.77v8
			c0,0.71,0.11,1.23,0.34,1.56c0.23,0.34,0.53,0.52,0.89,0.52C303.72,725.34,304.15,725.18,304.6,724.84z M299.47,718.67
			c-2.65,0.37-4.52,0.96-5.63,1.78c-0.82,0.63-1.23,1.51-1.23,2.66c0,0.8,0.21,1.43,0.64,1.88c0.43,0.45,0.98,0.68,1.67,0.68
			c1.23,0,2.29-0.47,3.2-1.4c0.9-0.93,1.35-2.1,1.35-3.51L299.47,718.67L299.47,718.67z"/>
		<path d="M306.93,711.81l4.86-0.3c0.2,0.92,0.34,1.99,0.44,3.22c0.66-1.06,1.43-1.86,2.32-2.39s1.9-0.8,3.02-0.8
			c0.97,0,1.78,0.19,2.44,0.57s1.18,0.98,1.58,1.8s0.59,1.75,0.59,2.77v7.13c0,0.53,0.12,0.91,0.36,1.13
			c0.24,0.22,0.64,0.34,1.2,0.34h1.03v1.17h-7.72v-1.17h0.73c0.69,0,1.17-0.11,1.44-0.33c0.27-0.22,0.41-0.55,0.41-0.98v-6.27
			c0-1.36-0.21-2.38-0.63-3.03c-0.58-0.94-1.47-1.41-2.66-1.41c-1.18,0-2.16,0.47-2.95,1.42s-1.18,2.18-1.18,3.7v5.42
			c0,0.53,0.12,0.91,0.37,1.13c0.24,0.22,0.65,0.34,1.21,0.34h1.02v1.17h-7.75v-1.17h1.02c0.51,0,0.9-0.1,1.16-0.31
			c0.27-0.21,0.4-0.47,0.4-0.78v-9.45c0-0.63-0.17-1.1-0.51-1.42s-0.83-0.48-1.46-0.48h-0.75v-1.02H306.93z"/>
		<path d="M334.77,703.34l5.72-0.27v20.03c0,0.78,0.15,1.34,0.45,1.67c0.3,0.33,0.74,0.5,1.34,0.5h1.02v1.17h-5l-0.38-2.98
			c-0.59,1.06-1.29,1.86-2.09,2.4c-0.8,0.54-1.69,0.8-2.68,0.8c-1.67,0-3.09-0.7-4.26-2.09c-1.17-1.4-1.76-3.24-1.76-5.53
			c0-2.48,0.75-4.46,2.25-5.94c1.18-1.16,2.53-1.73,4.06-1.73c0.94,0,1.78,0.23,2.52,0.7c0.74,0.47,1.39,1.18,1.95,2.13v-8.27
			c0-0.44-0.17-0.78-0.51-1.04c-0.34-0.25-0.87-0.38-1.59-0.38h-1.05v-1.17H334.77z M333.86,712.67c-1.13,0-2.02,0.46-2.68,1.39
			s-0.99,2.49-0.99,4.69c0,2.39,0.34,4.07,1.02,5.04s1.55,1.46,2.61,1.46c1.13,0,2.11-0.54,2.91-1.63c0.81-1.09,1.21-2.68,1.21-4.77
			c0-1.98-0.43-3.54-1.3-4.67C335.9,713.17,334.97,712.67,333.86,712.67z"/>
	</g>
	<circle class="st5" cx="381.3" cy="714.96" r="21.91"/>
	<g>
		<path class="st3" d="M390.74,722.01l-0.43,5.05h-19v-4.92c0.62-0.47,1.64-1.21,3.06-2.21c3.48-2.47,6-4.51,7.59-6.11
			c1.58-1.6,2.38-3.07,2.38-4.41c0-0.98-0.32-1.78-0.95-2.42c-0.63-0.64-1.48-0.96-2.54-0.96c-2.47,0-3.91,1.61-4.3,4.84l-5.23-1.17
			c1.17-5.58,4.43-8.37,9.78-8.37c2.99,0,5.29,0.79,6.89,2.36s2.4,3.45,2.4,5.62c0,2.25-0.84,4.26-2.51,6.03
			c-1.68,1.77-4.76,3.99-9.25,6.66L390.74,722.01L390.74,722.01z"/>
	</g>
	<polygon class="st2" points="121.17,708.83 105.59,700.36 89.79,708.38 93.03,690.95 80.52,678.4 98.1,676.1 106.17,660.32 
		113.78,676.32 131.29,679.12 118.42,691.32 	"/>
	<polygon class="st2" points="512.54,708.83 496.96,700.36 481.16,708.38 484.4,690.95 471.89,678.4 489.47,676.1 497.54,660.32 
		505.15,676.32 522.66,679.12 509.79,691.32 	"/>
	<polygon class="st2" points="171.78,130.62 171.78,157.84 128.83,185.06 85.87,157.84 85.87,130.62 128.83,157.84 	"/>
	<g>
		<path class="st2" d="M181.35,258.74c3.1-6.3,7.02-11.21,13.17-14.49c1.96-1.04,3.41-2.73,3.29-5.43
			c-0.14-3.36,1.95-5.94,4.89-7.95c0.72-0.49,1.28-1.46,1.47-2.29c0.39-1.73,1.02-3.66,0.57-5.26c-0.68-2.39-1.8-4.87-3.44-6.8
			c-5.82-6.81-7.89-14.7-8.91-23.07c-0.44-3.59-2.23-7.08-2.42-10.66c-0.49-8.81,2.5-10.63,9.87-12.83
			c8.56-2.55,17.74-2.61,26.37-0.02c4.84,1.46,9.23,4.39,13.58,7.01c7.7,4.64,16.33,7.07,24.89,9.75c4.73,1.48,9.44,3,14.12,4.61
			c12.44,4.27,24.83,8.68,37.3,12.89c10.01,3.38,20.16,6.45,28.65,12.75c3.67,2.73,7.57,5.25,10.96,8.25
			c1.74,1.54,2.96,3.83,3.76,5.99c1.58,4.22,1.39,4.28,4.66,5.79c-9.07-0.56-17.11,3.49-25.71,4.82
			c-3.23,25.69-13.6,49.11-24.51,71.45c2.29,1.96,4.94,3.36,6.22,5.47c4.49,7.39,8.52,15.02,12.47,22.1
			c4.12,1.28,8.26,2.07,11.9,3.78c14.08,6.61,28.81,11.7,43.49,16.97c3.6,1.29,7.02,3.37,10.03,5.65c7,5.29,14.15,10.51,20.4,16.51
			c8.83,8.46,14.84,18.57,16.34,30.52c0.68,5.43,1.19,10.91,1.28,16.38c0.14,8.79,1.56,17.35,4.25,25.75
			c0.24,0.75,0.42,1.57,0.36,2.34c-0.75,11.35,1.85,22.35,3.86,33.42c0.3,1.67,0.22,3.43,0.03,5.13c-0.38,3.51-3.31,4.16-6.36,4.52
			c-2.02,0.24-4.04,0.47-6.07,0.6c-3.07,0.2-5.88,0.01-8.3-2.37c-1-0.98-3.27-1.09-4.98-1.15c-1.43-0.05-2.87,0.68-4.34,0.85
			c-7.93,0.93-15.85,2.34-23.81,2.57c-14.57,0.42-29.17,0.17-43.76,0.09c-5.51-0.03-11.02-0.56-16.53-0.53
			c-8.34,0.04-16.68,0.37-25.02,0.55c-0.97,0.02-2.14,0.22-2.89-0.18c-5.91-3.19-12.49-2.32-18.84-2.86
			c-3.08-0.26-6.13-1.05-9.2-1.13c-7.65-0.2-15.09,0.95-22.24,3.63c-1.14,0.43-2.5,0.53-3.76,0.53
			c-19.81,0.03-39.62-0.05-59.44,0.08c-4.34,0.03-7.72-1.23-9.52-3.22c-0.31-4.28,0.23-7.76-0.95-10.63
			c-1.85-4.49-1.19-8.89-0.77-13.26c0.61-6.38,1.95-12.71,2.94-19.06c0.47-3.04,1.06-6.08,1.22-9.13c0.12-2.36-0.55-4.76-0.51-7.13
			c0.07-4.6,0.63-9.2,0.56-13.79c-0.13-7.61,0.93-15.02,2.5-22.49c2.55-12.09,10.38-20.31,20.77-27.13
			c6.96-4.57,13.52-9.68,20.59-14.1c2.73-1.71,3.7-4.08,5.15-6.37c1.48-2.35,2.89-4.73,4.42-7.05c2.17-3.29-0.23-8.2-4.13-9.47
			c-4.67-1.51-9.54-3.04-13.52-5.63c-3.79-2.47-5.92-6.55-6.38-11.13c-0.33-3.24-0.98-6.44-1.54-9.66c-0.53-3.12-1.3-6.21-1.64-9.35
			c-0.41-3.87-0.55-7.78-0.68-11.67c-0.08-2.24-0.74-3.87-3.22-4.82c-2.7-1.04-4.81-5.59-3.63-8.08c1.82-3.84,3.84-7.63,6.24-11.17
			c1.4-2.07,2.74-4.2,1.5-6.28c-1.49-2.51-4.73-2.97-7.59-3.05C194.41,258.61,187.99,258.74,181.35,258.74z"/>
		<path class="st2" d="M454.63,509.79c-0.34-0.47-0.63-0.99-0.81-1.56l-10.36-17.05l-264.9,3.17l2.15,16.27l3.02-1.26l262.2,4.53
			l8.71-3.59C454.64,510.14,454.63,509.97,454.63,509.79z"/>
	</g>
</g>
</svg>
