<?xml version="1.0" encoding="utf-8"?>
<!-- Generator: Adobe Illustrator 24.0.2, SVG Export Plug-In . SVG Version: 6.00 Build 0)  -->
<svg version="1.1" id="Layer_1" xmlns="http://www.w3.org/2000/svg" xmlns:xlink="http://www.w3.org/1999/xlink" x="0px" y="0px"
	 viewBox="0 0 595.28 841.89" style="enable-background:new 0 0 595.28 841.89;" xml:space="preserve">
<style type="text/css">
	.st0{fill:#C6C6C6;}
	.st1{fill:#FFFCF1;}
	.st2{fill:#5895A2;}
	.st3{fill:#3C3C3B;}
	.st4{fill:#FFFFFF;}
	.st5{fill:none;}
</style>
<g>
	<rect x="275.64" y="581.29" class="st0" width="4.25" height="7.19"/>
	<path class="st1" d="M513.76,781.67H80.77c-21.07,0-38.14-17.08-38.14-38.14V98.16c0-21.07,17.08-38.14,38.14-38.14h432.99
		c21.07,0,38.14,17.08,38.14,38.14v645.36C551.91,764.59,534.83,781.67,513.76,781.67z"/>
	<rect x="42.63" y="550.95" class="st2" width="509.28" height="54.64"/>
	<rect x="293.69" y="618.12" class="st2" width="7.15" height="142.95"/>
	<rect x="65.73" y="686.01" class="st2" width="463.07" height="7.15"/>
	<circle class="st3" cx="488.62" cy="645.49" r="21.91"/>
	<g>
		<path class="st4" d="M484.83,642.29h2.67c1.52,0,2.55-0.32,3.1-0.95c0.54-0.63,0.82-1.3,0.82-2.02c0-0.8-0.3-1.52-0.9-2.14
			s-1.44-0.94-2.51-0.94c-2.05,0-3.35,1.08-3.88,3.25l-5.25-0.83c0.43-1.95,1.48-3.57,3.14-4.85s3.71-1.92,6.15-1.92
			c2.55,0,4.69,0.61,6.43,1.82s2.61,2.87,2.61,4.98c0,2.76-1.45,4.65-4.34,5.66c3.4,0.9,5.1,2.91,5.1,6.01
			c0,2.23-0.87,4.05-2.61,5.49c-1.74,1.43-4.13,2.15-7.19,2.15c-2.93,0-5.25-0.74-6.97-2.21s-2.74-3.3-3.09-5.49l5.38-0.78
			c0.52,2.61,2.03,3.92,4.53,3.92c1.16,0,2.11-0.31,2.83-0.93s1.09-1.44,1.09-2.48c0-1.1-0.33-1.92-0.99-2.46
			c-0.66-0.54-1.93-0.81-3.79-0.81h-2.32v-4.47H484.83z"/>
	</g>
	<circle class="st3" cx="232.66" cy="643.91" r="21.91"/>
	<g>
		<path class="st4" d="M223.78,640.67v-5.21c4.38-1.29,7.24-3.01,8.57-5.16h4.3v21.08h7.01v4.64h-20.52v-4.64h7.68v-14.49
			C227.81,638.71,225.46,639.97,223.78,640.67z"/>
	</g>
	<g>
		<path d="M361.36,634.86h1.05L370.7,656c0.33,0.85,1.02,1.28,2.05,1.28h0.72v1.17h-9.22v-1.17h0.73c0.96,0,1.63-0.1,2.03-0.31
			c0.27-0.15,0.41-0.37,0.41-0.67c0-0.18-0.04-0.36-0.11-0.56l-1.91-4.91h-9.14l-1.07,2.81c-0.28,0.75-0.42,1.34-0.42,1.78
			c0,0.51,0.24,0.95,0.71,1.31c0.47,0.37,1.16,0.55,2.07,0.55h0.78v1.17h-8.38v-1.17c0.9,0,1.6-0.2,2.13-0.59
			c0.52-0.39,1-1.13,1.44-2.23L361.36,634.86z M360.91,639.31l-4.15,10.3h8.16L360.91,639.31z"/>
		<path d="M378.2,637.84h1.05v5.97h4.73v1.44h-4.73v9.39c0,0.81,0.19,1.44,0.58,1.87c0.38,0.43,0.88,0.65,1.47,0.65
			c0.71,0,1.31-0.33,1.81-0.98s0.79-1.74,0.88-3.25h1.05c-0.06,1.95-0.51,3.39-1.33,4.34c-0.82,0.94-1.89,1.41-3.2,1.41
			c-1.21,0-2.15-0.33-2.84-0.99c-0.68-0.66-1.02-1.53-1.02-2.6v-9.83h-2.55v-1.09c1.16-0.2,2.04-0.68,2.65-1.45
			C377.64,641.55,378.13,639.93,378.2,637.84z"/>
		<path d="M390.65,637.84h1.05v5.97h4.73v1.44h-4.73v9.39c0,0.81,0.19,1.44,0.58,1.87c0.38,0.43,0.88,0.65,1.47,0.65
			c0.71,0,1.31-0.33,1.81-0.98s0.79-1.74,0.88-3.25h1.05c-0.06,1.95-0.51,3.39-1.33,4.34c-0.82,0.94-1.89,1.41-3.2,1.41
			c-1.21,0-2.15-0.33-2.84-0.99c-0.68-0.66-1.02-1.53-1.02-2.6v-9.83h-2.55v-1.09c1.16-0.2,2.04-0.68,2.65-1.45
			C390.09,641.55,390.58,639.93,390.65,637.84z"/>
		<path d="M414.71,656.84l0.56,0.88c-0.76,0.78-1.6,1.17-2.53,1.17c-0.71,0-1.3-0.19-1.79-0.58s-0.91-1.06-1.27-2.03
			c-0.99,1.04-1.86,1.74-2.61,2.09s-1.65,0.52-2.7,0.52c-1.5,0-2.64-0.32-3.42-0.97s-1.17-1.47-1.17-2.48
			c0-1.52,0.89-2.78,2.68-3.79c1.79-1,4.16-1.67,7.13-2.01v-2.22c0-0.79-0.32-1.47-0.95-2.03c-0.64-0.56-1.44-0.84-2.42-0.84
			c-0.91,0-1.69,0.19-2.34,0.56c-0.47,0.28-0.7,0.56-0.7,0.83c0,0.16,0.13,0.4,0.38,0.73c0.3,0.42,0.45,0.79,0.45,1.11
			c0,0.47-0.15,0.85-0.45,1.15c-0.3,0.3-0.7,0.45-1.19,0.45c-0.52,0-0.96-0.18-1.3-0.53c-0.35-0.35-0.52-0.81-0.52-1.36
			c0-1.03,0.58-1.97,1.74-2.83c1.16-0.85,2.68-1.28,4.57-1.28c1.74,0,3.07,0.38,3.98,1.13c0.92,0.76,1.38,1.68,1.38,2.77v8
			c0,0.71,0.11,1.23,0.34,1.56c0.23,0.34,0.53,0.52,0.89,0.52C413.84,657.34,414.27,657.18,414.71,656.84z M409.59,650.67
			c-2.65,0.37-4.52,0.96-5.63,1.78c-0.82,0.63-1.23,1.51-1.23,2.66c0,0.8,0.21,1.43,0.64,1.88c0.43,0.45,0.98,0.68,1.67,0.68
			c1.23,0,2.29-0.47,3.2-1.4c0.9-0.93,1.35-2.1,1.35-3.51L409.59,650.67L409.59,650.67z"/>
		<path d="M428.23,654.11l1.02,0.3c-0.81,2.99-2.6,4.48-5.38,4.48c-2.03,0-3.69-0.67-4.98-2.02c-1.29-1.34-1.94-3.13-1.94-5.36
			c0-2.58,0.71-4.59,2.13-6.01s3.08-2.13,5-2.13c1.44,0,2.63,0.4,3.56,1.19c0.94,0.79,1.41,1.67,1.41,2.64
			c0,0.58-0.17,1.07-0.52,1.45c-0.35,0.38-0.76,0.57-1.24,0.57c-0.47,0-0.87-0.16-1.19-0.48s-0.48-0.71-0.48-1.17
			s0.18-0.89,0.53-1.31c0.17-0.2,0.25-0.35,0.25-0.47c0-0.3-0.2-0.59-0.61-0.88c-0.41-0.29-0.96-0.43-1.66-0.43
			c-1.27,0-2.23,0.46-2.89,1.39c-0.94,1.34-1.41,3.11-1.41,5.31c0,2.09,0.42,3.68,1.25,4.75c0.83,1.08,1.9,1.62,3.19,1.62
			C426.04,657.55,427.36,656.4,428.23,654.11z"/>
		<path d="M431,635.34l5.59-0.27v15.98l4.76-4.15c0.46-0.41,0.69-0.76,0.69-1.06c0-0.26-0.14-0.46-0.41-0.61
			c-0.41-0.21-1.07-0.32-1.98-0.34v-1.09h7.8v1.09c-1.54,0.08-2.72,0.49-3.53,1.22l-3.36,2.98l5.46,7.51
			c0.33,0.45,0.91,0.67,1.73,0.67h0.81v1.17h-8v-1.17h0.8c0.59,0,0.99-0.05,1.19-0.16c0.2-0.1,0.3-0.23,0.3-0.38
			s-0.05-0.29-0.16-0.44l-3.99-5.58l-2.12,1.88v3.7c0,0.3,0.1,0.53,0.3,0.67c0.28,0.2,0.67,0.3,1.17,0.3h1.02v1.17h-7.86v-1.17h1.27
			c0.52,0,0.91-0.11,1.16-0.33s0.38-0.51,0.38-0.88v-18.06c0-0.47-0.15-0.81-0.45-1.03c-0.44-0.31-1.03-0.47-1.77-0.47H431V635.34z"
			/>
	</g>
	<polygon class="st2" points="171.41,60.02 171.41,125.62 128.45,153.17 85.5,125.63 85.5,60.02 	"/>
	<polygon class="st0" points="85.8,125.27 86.36,125.27 86.36,125.63 	"/>
	<g>
		<path class="st4" d="M146.82,103.21v8.41h-6.71v11.07h-11.22v-4.43h0.12v-15.05h0.41V86.97c0-0.63,0.02-1.39,0.07-2.28l0.07-1.97
			l-13.18,20.49h8.26v8.41H107.9v-8.41l19.36-29.25h12.85v29.25C140.11,103.21,146.82,103.21,146.82,103.21z"/>
	</g>
	<rect x="231.41" y="560.74" class="st5" width="153.48" height="33.1"/>
	<g>
		<path class="st4" d="M248.54,569.87l-5.58,1.87c-0.65-1.94-1.95-3.02-3.88-3.27v-5.14C243.93,563.61,247.08,565.79,248.54,569.87z
			"/>
		<path class="st4" d="M249.3,582.82c0,2.53-0.98,4.71-2.92,6.56c-1.71,1.62-4.15,2.53-7.3,2.73v-5.23c1.05-0.1,1.87-0.38,2.45-0.84
			c0.73-0.58,1.1-1.27,1.1-2.08c0-0.82-0.33-1.45-1-1.9c-0.67-0.46-1.96-0.88-3.87-1.28c-3.57-0.74-6.11-1.74-7.62-3.02
			c-1.52-1.28-2.27-3.15-2.27-5.61c0-2.49,0.9-4.59,2.71-6.3c1.62-1.52,3.75-2.37,6.4-2.53v5.18c-1.79,0.23-2.68,1.05-2.68,2.44
			c0,0.67,0.25,1.24,0.73,1.7c0.49,0.47,1.58,0.87,3.29,1.21c2.85,0.58,4.94,1.16,6.26,1.75c1.33,0.59,2.45,1.53,3.35,2.84
			C248.84,579.74,249.3,581.2,249.3,582.82z"/>
		<path class="st4" d="M236.98,586.85v5.28c-2.55-0.1-4.75-0.75-6.59-1.94c-2.01-1.31-3.34-3.25-3.98-5.82l6.07-1.37
			C233.07,585.26,234.57,586.54,236.98,586.85z"/>
		<polygon class="st4" points="267.83,576.17 267.83,588.79 262.82,580.15 262.82,567.48 		"/>
		<path class="st4" d="M260.73,576.54l-2.16-3.73c0.01,0.47,0.02,0.79,0.04,0.94c0.05,0.48,0.08,0.88,0.08,1.21v16.75h-5.11v-27.99
			h7.07l0.08,0.14L260.73,576.54L260.73,576.54z"/>
		<path class="st4" d="M275.12,563.72v27.99h-5.19v-11.9l0.24,0.42c-0.08-0.82-0.12-1.44-0.12-1.87v-14.64L275.12,563.72
			L275.12,563.72z"/>
		<path class="st4" d="M280.73,563.72v27.99h6.55v-27.99H280.73z"/>
		<path class="st4" d="M314.61,572.31c0,1.38-0.27,2.73-0.82,4.04c-0.54,1.32-1.32,2.35-2.31,3.1c-1,0.75-1.97,1.25-2.91,1.5
			c-0.93,0.24-2.4,0.37-4.4,0.37h-4.61v10.39h-6.66v-27.99h6.43v12.51h4.27c1.63,0,2.77-0.37,3.43-1.13
			c0.65-0.75,0.98-1.61,0.98-2.58c0-1.14-0.37-2.04-1.1-2.71c-0.73-0.67-1.84-1-3.33-1h-2.15v-5.09h2.5c2.46,0,4.34,0.26,5.65,0.79
			c1.3,0.53,2.47,1.47,3.5,2.82C314.1,568.68,314.61,570.35,314.61,572.31z"/>
		<rect x="326.98" y="574.8" class="st4" width="8.41" height="5.27"/>
		<rect x="326.98" y="563.72" class="st4" width="11.26" height="5.33"/>
		<rect x="326.98" y="586.18" class="st4" width="11.26" height="5.53"/>
		<rect x="318.24" y="563.72" class="st4" width="6.64" height="27.99"/>
		<path class="st4" d="M365.02,591.71h-7.24l-4.3-11.09h-4.7v11.09h-6.6v-27.99h6.6v12.12h4.02c1.31,0,2.27-0.09,2.86-0.28
			c0.59-0.18,1.12-0.59,1.59-1.23c0.46-0.63,0.7-1.36,0.7-2.18c0-0.78-0.24-1.48-0.7-2.09c-0.47-0.62-0.97-1-1.52-1.14
			s-1.57-0.22-3.07-0.22h-1.78v-4.98h3.6c2.27,0,4.09,0.26,5.47,0.79c1.37,0.53,2.51,1.49,3.41,2.9c0.9,1.41,1.35,2.97,1.35,4.69
			c0,3.36-1.62,5.78-4.86,7.24L365.02,591.71z"/>
	</g>
	<polygon class="st5" points="464.15,446.63 459.8,446.63 459.8,446.63 	"/>
	<g>
		<path d="M127.55,636.05l1.41-2.02h1.14l0.09,8.42h-1.03c-0.65-2.58-1.6-4.47-2.87-5.66s-2.72-1.78-4.37-1.78
			c-1.38,0-2.5,0.41-3.38,1.24c-0.88,0.82-1.31,1.83-1.31,3.02c0,0.74,0.17,1.39,0.5,1.95s0.83,1.01,1.49,1.36
			c0.66,0.35,1.91,0.72,3.74,1.11c2.57,0.56,4.38,1.13,5.42,1.7c1.04,0.57,1.81,1.29,2.32,2.16c0.51,0.87,0.77,1.89,0.77,3.05
			c0,2.08-0.7,3.81-2.1,5.18c-1.4,1.37-3.21,2.05-5.43,2.05c-2.39,0-4.46-0.77-6.22-2.31l-1.77,2.16h-1.13v-8.95h1.13
			c0.44,2.47,1.42,4.42,2.94,5.84c1.52,1.43,3.23,2.14,5.14,2.14c1.54,0,2.8-0.46,3.77-1.37s1.46-2.02,1.46-3.32
			c0-0.74-0.18-1.39-0.55-1.95c-0.37-0.56-0.94-1.03-1.73-1.41c-0.79-0.38-2.35-0.84-4.67-1.38c-2.55-0.6-4.29-1.28-5.22-2.03
			c-1.3-1.06-1.95-2.57-1.95-4.52c0-2.03,0.65-3.7,1.95-4.99s2.96-1.95,4.98-1.95c0.97,0,1.89,0.17,2.77,0.52
			S126.61,635.25,127.55,636.05z"/>
		<path d="M137.82,636.8h1.05v5.97h4.73v1.44h-4.73v9.39c0,0.81,0.19,1.44,0.58,1.87c0.38,0.43,0.88,0.65,1.47,0.65
			c0.71,0,1.31-0.33,1.81-0.98s0.79-1.74,0.88-3.25h1.05c-0.06,1.95-0.51,3.39-1.33,4.34c-0.82,0.94-1.89,1.41-3.2,1.41
			c-1.21,0-2.15-0.33-2.84-0.99c-0.68-0.66-1.02-1.53-1.02-2.6v-9.83h-2.55v-1.09c1.16-0.2,2.04-0.68,2.65-1.45
			C137.26,640.5,137.74,638.88,137.82,636.8z"/>
		<path d="M161.88,655.8l0.56,0.88c-0.76,0.78-1.6,1.17-2.53,1.17c-0.71,0-1.3-0.19-1.79-0.58s-0.91-1.06-1.27-2.03
			c-0.99,1.04-1.86,1.74-2.61,2.09s-1.65,0.52-2.7,0.52c-1.5,0-2.64-0.32-3.42-0.97s-1.17-1.47-1.17-2.48
			c0-1.52,0.89-2.78,2.68-3.79c1.79-1,4.16-1.67,7.13-2.01v-2.22c0-0.79-0.32-1.47-0.95-2.03c-0.64-0.56-1.44-0.84-2.42-0.84
			c-0.91,0-1.69,0.19-2.34,0.56c-0.47,0.28-0.7,0.56-0.7,0.83c0,0.16,0.13,0.4,0.38,0.73c0.3,0.42,0.45,0.79,0.45,1.11
			c0,0.47-0.15,0.85-0.45,1.15c-0.3,0.3-0.7,0.45-1.19,0.45c-0.52,0-0.96-0.18-1.3-0.53c-0.35-0.35-0.52-0.81-0.52-1.36
			c0-1.03,0.58-1.97,1.74-2.83c1.16-0.85,2.68-1.28,4.57-1.28c1.74,0,3.07,0.38,3.98,1.13c0.92,0.76,1.38,1.68,1.38,2.77v8
			c0,0.71,0.11,1.23,0.34,1.56c0.23,0.34,0.53,0.52,0.89,0.52C161,656.3,161.43,656.13,161.88,655.8z M156.75,649.63
			c-2.65,0.37-4.52,0.96-5.63,1.78c-0.82,0.63-1.23,1.51-1.23,2.66c0,0.8,0.21,1.43,0.64,1.88s0.98,0.68,1.67,0.68
			c1.23,0,2.29-0.47,3.2-1.4c0.9-0.93,1.35-2.1,1.35-3.51V649.63z"/>
		<path d="M169.74,634.03v21.22c0,0.29,0.09,0.52,0.27,0.67c0.26,0.21,0.58,0.31,0.95,0.31h1.55v1.17h-8.3v-1.17h1.47
			c0.48,0,0.84-0.11,1.07-0.34c0.23-0.23,0.35-0.55,0.35-0.97v-17.81c0-0.52-0.14-0.9-0.42-1.14c-0.39-0.33-0.86-0.5-1.42-0.5h-1.31
			v-1.17L169.74,634.03z"/>
		<path d="M174.03,634.3l5.59-0.27v15.98l4.76-4.15c0.46-0.41,0.69-0.76,0.69-1.06c0-0.26-0.14-0.46-0.41-0.61
			c-0.41-0.21-1.07-0.32-1.98-0.34v-1.09h7.8v1.09c-1.54,0.08-2.72,0.49-3.53,1.22l-3.36,2.98l5.46,7.51
			c0.33,0.45,0.91,0.67,1.73,0.67h0.81v1.17h-8v-1.17h0.8c0.59,0,0.99-0.05,1.19-0.16c0.2-0.1,0.3-0.23,0.3-0.38
			s-0.05-0.29-0.16-0.44l-3.99-5.58l-2.12,1.88v3.7c0,0.3,0.1,0.53,0.3,0.67c0.28,0.2,0.67,0.3,1.17,0.3h1.02v1.17h-7.86v-1.17h1.27
			c0.52,0,0.91-0.11,1.16-0.33s0.38-0.51,0.38-0.88v-18.06c0-0.47-0.15-0.81-0.45-1.03c-0.44-0.31-1.03-0.47-1.77-0.47h-0.8
			L174.03,634.3L174.03,634.3z"/>
	</g>
	<path class="st2" d="M471.28,209.06c-1.83,5.01-1.77,3.84-6,3.75c-12.03-0.28-24.07-0.53-36.09-0.92
		c-13.87-0.45-27.73-1.04-41.59-1.58c-6.22-0.24-12.43-0.52-18.58-0.78c-0.69,1.5-1.46,2.89-1.98,4.37c-0.49,1.36-1.3,1.7-2.68,1.67
		c-10.79-0.23-21.58-0.38-32.37-0.56c-2.19-0.04-2.96,0.59-3.34,2.74c-0.48,2.76-2.95,4.53-5.65,3.97
		c-3.55-0.73-6.91-0.5-10.42,0.69c-1.46,0.5-3.17,1.75-5.21,0.84c-0.8-0.36-2.19,0.53-3.28,0.92c-1.55,0.55-1.03,1.99-1.11,3.06
		c-0.29,3.88-2.21,6.91-4.7,9.7c-0.66,0.74-1.25,1.58-1.68,2.47c-4.91,10.26-9.75,20.55-14.7,30.8c-1.84,3.81-5.1,5.62-9.28,5.22
		c-3.05-0.29-6.06-1.03-9.07-1.64c-3.42-0.69-6.87-1.32-10.23-2.25c-3.7-1.03-7.31-2.37-10.97-3.56c-0.89-0.29-1.8-0.53-3.03-0.89
		c-0.05,2.22,0.69,3.93,1.7,5.59c0.86,1.42,1.75,2.82,2.49,4.3c0.78,1.56,0.32,2.51-1.42,3.17c-0.4-1.95-0.79-3.9-1.19-5.85
		c-0.26,0-0.52,0-0.79,0c-0.25,1.11-0.75,2.22-0.7,3.31c0.24,4.84,0.68,9.67,0.93,14.51c0.04,0.88-0.21,2.12-0.8,2.63
		c-3.44,2.89-7.05,5.57-10.53,8.41c-0.77,0.63-1.3,1.6-1.81,2.49c-0.28,0.49-0.14,1.25-0.45,1.7c-3.12,4.39-0.55,8.39,1.09,12.23
		c1.26,2.96,2.48,5.85,3.08,9.03c0.29,1.54,0.94,3.05,1.66,4.46c4.31,8.44,8.93,16.73,12.95,25.3c1.89,4.02,2.69,8.55,3.97,12.85
		c0.2,0.68,0.17,1.48,0.52,2.05c1.74,2.76,1.84,5.82,1.78,8.92c-0.05,2.93,0.23,5.81,1.76,8.41c1.76,3.01,2.21,6.34,2.41,9.73
		c0.06,0.94,0.1,1.94,0.43,2.8c1.47,3.88,1.32,7.92,1.28,11.95c0,0.47,0.01,1-0.2,1.39c-2.77,5.28-4.7,11.01-8.5,15.74
		c-0.34,0.42-0.38,1.08-0.54,1.63c-0.79,2.65-1.61,5.3-2.36,7.97c-0.35,1.23-0.72,2.48-0.8,3.74c-0.13,1.95,0.03,3.91-0.03,5.87
		c-0.12,3.44,0.31,6.75,1.98,9.81c0.7,1.28,0.52,2.3-0.56,3.3c-1.13,1.05-2.14,2.21-3.18,3.35c-0.77,0.85-0.74,1.57-0.12,2.67
		c1.1,1.96,1.61,4.24,2.73,6.18c0.98,1.68,2.45,3.08,3.72,4.59c0.34,0.4,0.86,0.71,1.05,1.16c0.57,1.33,1.05,2.65,2.92,1.68
		c0.09-0.04,0.31-0.02,0.33,0.03c0.62,1.67,2.4,1.76,3.64,2.43c2.25,1.22,4.73,2.07,7.2,2.77c1.8,0.51,3.74,0.56,5.63,0.78
		c4.42,0.51,6.65,3.75,8.7,7.12c0.39,0.64,0.35,1.85,0.02,2.58c-2.04,4.54-4.61,8.67-9.41,10.85c-0.86,0.39-1.62,0.99-2.45,1.44
		c-6.73,3.6-13.35,3.43-19.85-0.61c-0.96-0.59-1.97-1.1-2.92-1.69c-2.57-1.6-4.96-0.79-7.34,0.49c-0.65,0.35-1.47,0.85-2.09,0.71
		c-4.06-0.9-8.16-1.7-11.92-3.65c-1.25-0.65-1.77-1.53-1.67-2.83c0.28-3.9,0.59-7.8,0.91-11.7c0.04-0.47,0.11-0.99,0.34-1.37
		c1.79-2.93,1.36-6.17,1.3-9.35c-0.06-3.44-0.16-6.88-0.24-10.32c-0.05-2.06-2.1-3.5-3.89-2.41c-1.89,1.15-3.83,1.14-5.83,1.09
		c-1.87-0.05-3.03,0.59-3.42,2.54c-0.43,2.17-1.82,3.66-3.69,4.78c-1.32,0.79-2.55,1.72-3.86,2.52c-0.49,0.3-1.07,0.52-1.64,0.64
		c-3.92,0.8-7.77,0.81-11.4-1.17c-0.39-0.21-0.81-0.72-0.85-1.13c-0.39-3.52-0.41-7,1.46-10.2c1.89-3.23,1.62-6.87,2.04-10.38
		c0.19-1.53,0.21-3.08,0.44-4.6c0.95-6.1-1.85-11.2-4.39-16.35c-0.39-0.79-1.45-1.33-2.31-1.8c-0.87-0.48-1.9-0.67-2.81-1.09
		c-2.34-1.09-3.03-3.18-1.78-5.44c0.46-0.83,1.07-1.56,1.58-2.36c2-3.15,2.72-6.51,1.73-10.18c-0.15-0.55-0.22-1.19-0.1-1.73
		c0.73-3.17,1.53-6.31,2.29-9.47c0.56-2.3,1.17-4.58,1.61-6.91c0.36-1.9,1.2-3.99-1.24-5.32c-0.18-0.1-0.13-1.21,0.15-1.44
		c1.9-1.59,2.52-3.09,0.73-5.32c-0.68-0.84-0.27-2.48-0.6-3.69c-0.34-1.26-0.88-2.49-1.49-3.65c-0.34-0.66-0.92-1.25-1.5-1.74
		c-1.94-1.65-3.5-3.52-3.87-6.15c-0.01-0.06-0.03-0.12-0.06-0.17c-2.38-3.6-1.25-6.97,0.6-10.34c1.36-2.48,1.12-3.63-1.17-6.04
		c1.5-2.02,1.37-4.33,1.14-6.74c-0.31-3.27-2.37-5-4.92-6.6c-1.72-1.08-3.16-2.6-4.83-4.02c-0.55,0.18-1.39,0.46-2.56,0.86
		c0.53-6.16-0.08-12.01,1.92-17.6c0.95-2.65,1.42-5.34,1.3-8.35c-3.2,1.07-6.24,2.04-9.24,3.1c-0.76,0.27-1.47,0.77-2.1,1.28
		c-1.7,1.36-4.2,1.46-6.14,0.51c-4.02-1.96-7.18-4.75-9.83-8.38c-1.46-1.99-3.82-3.3-5.68-5.04c-1.28-1.2-2.41-2.55-3.53-3.9
		c-0.52-0.63-0.74-1.53-1.29-2.12c-4.59-4.92-6.22-11.35-8.86-17.26c-0.63-1.41-1.21-2.84-1.97-4.18c-0.8-1.41-0.48-2.54,0.62-3.48
		c2.55-2.19,5.55-3.15,8.89-2.81c0.57,0.06,1.1,0.54,1.66,0.83c3.11-0.52,3.33-3.04,3.54-5.62c0.45-5.73,0.69-11.49,1.53-17.17
		c0.8-5.42,3.53-10.01,7.77-13.6c0.83-0.7,1.64-1.07,2.88-0.42c1.28,0.67,2.97,0.32,3.55-1.03c1.19-2.76,3.62-3.72,5.98-4.9
		c0.83-0.42,1.63-0.9,2.41-1.4c1.24-0.79,2.7-0.21,2.99,1.23c0.21,1.08,0.38,2.17,0.57,3.26c0.34-0.05,0.51-0.04,0.53-0.09
		c1.26-3.21,2.39-6.47,3.81-9.61c0.81-1.8,2.01-3.44,3.19-5.05c0.78-1.07,1.83-1.97,1.06-3.44c-0.79-1.52-1.73-2.87-3.73-2.8
		c-0.4,0.02-0.8-0.05-1.21-0.08c-0.43-1.49,0.03-2.4,1.32-3.13c1.84-1.03,3.23-2.46,3.94-4.6c0.41-1.24,1.44-2.28,2.17-3.42
		c0.3-0.47,0.82-1.11,0.68-1.45c-0.16-0.4-0.91-0.61-1.44-0.78c-0.53-0.18-1.11-0.21-2.17-0.39c3.42-2.03,6.46-3.62,10.04-3.82
		c3.46-0.2,4.96-2.26,4.1-5.66c-0.11-0.44-0.08-0.92-0.12-1.37c2.86-0.32,4.31-1.8,4.33-4.57c0.01-1.49,0.56-2.53,1.83-3.18
		c1.01-0.52,1.37-1.27,1.45-2.41c0.47-6.51,2.66-12.5,5.89-18.1c0.75-1.3,2.09-2.5,3.44-3.17c2.69-1.32,5.58-2.22,8.38-3.3
		c2.37,0,4.74,0,7.12,0c0.28,0.1,0.55,0.21,0.83,0.28c6.63,1.74,12.32,4.88,15.82,11.06c1.57,2.78,2.82,5.75,4.37,8.54
		c0.49,0.88,1.38,1.76,2.3,2.15c4.39,1.91,8.85,3.65,13.35,5.48c-0.45,1.64-0.85,3.12-1.27,4.66c2.66,0.34,5.07,0.39,7.34,1
		c5.64,1.51,11.27,2,17.04,0.74c0.99-2.85,0.98-2.78,3.88-2.64c2.74,0.13,1.31,2.42,2.17,3.94c3.49-0.18,7.13-0.37,10.78-0.55
		c1.12-0.06,2.44-0.48,3.32-0.04c2.34,1.16,4.53,0.44,6.72-0.1c4.51-1.11,9.04-1.85,13.72-1.52c1.31,0.09,1.95,0.49,2,1.84
		c0.07,2.01,0.28,4.02,0.34,6.04c0.05,1.78-1.53,3.16-3.32,3.32c-4.92,0.44-9.49-1.01-14.1-2.36c-1.17-0.34-2.44-0.42-3.66-0.49
		c-0.38-0.02-0.99,0.26-1.15,0.57c-1.66,3.28-0.25,5.86,3.34,6.05c5.62,0.3,11.25,0.52,16.88,0.78c13.92,0.64,27.84,1.26,41.75,1.91
		c21.73,1.02,43.47,2.04,65.2,3.09c13.5,0.65,27,1.33,40.5,2.02c0.68,0.03,1.35,0.3,2.03,0.46
		C471.28,207.4,471.28,208.23,471.28,209.06z M265.46,218.66c-0.32,0.99-0.53,1.95-0.92,2.82c-0.99,2.18-1.98,4.36-3.15,6.45
		c-0.5,0.9-1.41,1.23-2.61,0.81c-1.06-0.37-2.28-0.28-3.53-0.41c-0.1,1.42-0.18,2.56-0.24,3.44c-1.12,0.11-2.38-0.13-2.8,0.35
		c-1.66,1.88-3.06,4-4.81,6.37c3.19,2.2,6.28,4.33,9.38,6.46c0.14,0.09,0.34,0.14,0.51,0.14c1.59-0.01,2.61,0.91,3.52,2.07
		c0.81,1.03,1.71,1.72,3.2,1.18c0.58-0.21,1.42,0.01,2.04,0.27c2.83,1.21,2.99,1.19,4.64-1.44c0.34-0.55,0.53-1.21,0.93-1.71
		c0.4-0.48,0.96-1.12,1.48-1.15c1.41-0.1,2.13-0.87,2.64-2.02c0.82-1.83,1.67-3.65,2.49-5.48c1.89-4.26,3.72-8.54,5.66-12.78
		c0.79-1.71,1.28-3.67,3.39-5.04c0.77,1.51,1.44,2.82,2.2,4.3c0.36-0.32,1.02-0.72,1.41-1.31c0.51-0.76,0.72-1.73,1.22-2.5
		c1.04-1.59,2.19-3.1,3.39-4.79c-3.85,0-7.67-0.06-11.5,0.04c-1.15,0.03-2.29,0.51-3.43,0.77c-0.09-0.15-0.44-0.69-1-1.6
		C277.36,221.5,273.47,223.71,265.46,218.66z M215.57,399.72c-2.34,4.28-4.38,8.36-4.47,13.12c-0.01,0.64,0.07,1.51-0.3,1.89
		c-2.39,2.49-1.4,4.88,0.01,7.31c0.09,0.15,0.07,0.36,0.17,0.5c0.97,1.5,0.46,2.58-0.83,3.64c-1.87,1.55-2.34,3.04-1.29,5.16
		c0.68,1.38,0.19,2.23-0.27,3.41c-1.54,3.92-0.64,7.87,0.15,11.8c0.02,0.11,0.14,0.19,0.19,0.29c0.37,0.75,0.74,1.5,1.09,2.26
		c0.14,0.31,0.14,0.78,0.37,0.95c1.42,1.02,2.74,2.3,4.8,1.62c1.97-0.65,3.37-1.66,3.45-3.95c0.02-0.63,0.31-1.26,0.46-1.89
		c1.34-5.64,2.78-11.27,3.96-16.94c0.58-2.8,0.82-5.69-2.19-7.64c-0.47-0.31-0.68-1.65-0.44-2.3c0.87-2.4,1.99-4.72,3.06-7.17
		c1.28,0.57,1.47-0.49,1.61-1.77c0.16-1.46-0.13-2.7-1.31-3.66C221.07,404.17,218.38,401.99,215.57,399.72z M265.3,204.6
		c1.96-0.47,1.26-1.94,1.58-2.94c0.19-0.58,0.47-1.43,0.9-1.57c2.46-0.79,4.99-1.41,7.76-2.17c0.22-2.07,0.47-4.45,0.76-7.24
		c-3.83,0.25-7.41,0.5-10.99,0.71c-2.82,0.16-5.64,0.3-8.47,0.38c-1.71,0.05-2.61-0.83-2.67-2.6c-0.03-0.91-0.25-1.81-0.41-2.95
		c-2.88,2.56-5.89,4.17-9.61,4.12c-1.34-0.02-1.62,0.94-1.82,2.15c-0.41,2.55-1.01,5.07-1.63,7.57c-0.34,1.35-0.88,2.65-1.45,4.31
		c2.78,0.16,5.24,0.28,7.7,0.44c1,0.07,2.18-0.06,2.95,0.42c0.73,0.46,1.02,1.61,1.52,2.48c1.49-2.05,2.86-4.53,5.88-4.71
		c2.62-0.16,5.26-0.03,7.93-0.03C265.25,203.53,265.27,203.98,265.3,204.6z M281.06,196.28c3.87,0.21,7.64,0.44,11.41,0.61
		c3.94,0.18,3.9,0.16,4.27-3.8c0.12-1.23-0.23-1.78-1.48-1.78c-1.77-0.01-3.55-0.14-5.32-0.09c-2.92,0.08-5.85,0.26-8.89,0.4
		C281.06,193.23,281.06,194.63,281.06,196.28z M270.12,218.15c0.02,1.63,0.7,2.44,2.24,2.24c0.95-0.12,1.98-0.51,2.72-1.09
		c1.5-1.18,1.22-2.25-0.6-2.85c-0.56-0.19-1.14-0.33-1.71-0.47C270.73,215.46,270.1,215.98,270.12,218.15z M268.94,219.61
		c0.09-1.13,0.24-2.1,0.19-3.07c-0.02-0.36-0.56-1.03-0.78-0.99c-0.46,0.07-1.17,0.47-1.22,0.81
		C266.93,217.71,267.36,218.87,268.94,219.61z"/>
	<path class="st4" d="M265.46,218.66c8.02,5.05,11.9,2.84,14.12-4.74c0.57,0.91,0.91,1.45,1,1.6c1.13-0.27,2.27-0.74,3.43-0.77
		c3.82-0.1,7.65-0.04,11.5-0.04c-1.2,1.68-2.35,3.2-3.39,4.79c-0.5,0.77-0.71,1.74-1.22,2.5c-0.39,0.58-1.05,0.98-1.41,1.31
		c-0.76-1.48-1.43-2.79-2.2-4.3c-2.11,1.37-2.6,3.32-3.39,5.04c-1.94,4.23-3.77,8.52-5.66,12.78c-0.81,1.83-1.66,3.65-2.49,5.48
		c-0.52,1.15-1.24,1.92-2.64,2.02c-0.53,0.04-1.09,0.67-1.48,1.15c-0.4,0.49-0.58,1.16-0.93,1.71c-1.65,2.63-1.81,2.64-4.64,1.44
		c-0.62-0.26-1.46-0.48-2.04-0.27c-1.49,0.53-2.39-0.15-3.2-1.18c-0.91-1.16-1.93-2.08-3.52-2.07c-0.17,0-0.37-0.04-0.51-0.14
		c-3.1-2.13-6.2-4.26-9.38-6.46c1.75-2.37,3.15-4.48,4.81-6.37c0.43-0.48,1.68-0.23,2.8-0.35c0.06-0.88,0.14-2.02,0.24-3.44
		c1.25,0.12,2.47,0.04,3.53,0.41c1.21,0.42,2.11,0.09,2.61-0.81c1.16-2.09,2.16-4.27,3.15-6.45
		C264.93,220.61,265.14,219.65,265.46,218.66z"/>
	<path class="st4" d="M215.57,399.72c2.81,2.27,5.5,4.45,8.19,6.63c1.18,0.95,1.47,2.19,1.31,3.66c-0.14,1.29-0.33,2.35-1.61,1.77
		c-1.07,2.45-2.18,4.77-3.06,7.17c-0.24,0.66-0.03,2,0.44,2.3c3.02,1.96,2.78,4.84,2.19,7.64c-1.18,5.68-2.62,11.3-3.96,16.94
		c-0.15,0.63-0.44,1.26-0.46,1.89c-0.08,2.29-1.48,3.29-3.45,3.95c-2.06,0.68-3.37-0.6-4.8-1.62c-0.23-0.17-0.22-0.64-0.37-0.95
		c-0.35-0.76-0.72-1.51-1.09-2.26c-0.05-0.1-0.17-0.19-0.19-0.29c-0.78-3.93-1.69-7.88-0.15-11.8c0.47-1.18,0.95-2.04,0.27-3.41
		c-1.05-2.12-0.58-3.61,1.29-5.16c1.29-1.07,1.79-2.14,0.83-3.64c-0.09-0.14-0.08-0.35-0.17-0.5c-1.41-2.43-2.39-4.83-0.01-7.31
		c0.36-0.38,0.29-1.25,0.3-1.89C211.19,408.08,213.23,404,215.57,399.72z"/>
	<path class="st4" d="M265.3,204.6c-0.03-0.62-0.05-1.07-0.07-1.61c-2.67,0-5.31-0.12-7.93,0.03c-3.02,0.18-4.39,2.66-5.88,4.71
		c-0.5-0.88-0.79-2.02-1.52-2.48c-0.77-0.48-1.94-0.35-2.95-0.42c-2.46-0.16-4.92-0.29-7.7-0.44c0.57-1.66,1.11-2.96,1.45-4.31
		c0.62-2.51,1.21-5.03,1.63-7.57c0.2-1.21,0.47-2.17,1.82-2.15c3.72,0.05,6.73-1.55,9.61-4.12c0.17,1.14,0.38,2.04,0.41,2.95
		c0.06,1.77,0.95,2.65,2.67,2.6c2.82-0.08,5.65-0.22,8.47-0.38c3.59-0.21,7.17-0.46,10.99-0.71c-0.29,2.79-0.54,5.17-0.76,7.24
		c-2.77,0.75-5.3,1.37-7.76,2.17c-0.43,0.14-0.71,0.99-0.9,1.57C266.56,202.66,267.26,204.13,265.3,204.6z"/>
	<path class="st4" d="M281.06,196.28c0-1.65,0-3.05,0-4.66c3.04-0.14,5.96-0.32,8.89-0.4c1.77-0.05,3.55,0.08,5.32,0.09
		c1.25,0.01,1.6,0.55,1.48,1.78c-0.38,3.95-0.34,3.98-4.27,3.8C288.7,196.71,284.93,196.49,281.06,196.28z"/>
	<path class="st4" d="M270.12,218.15c-0.02-2.17,0.61-2.69,2.65-2.17c0.57,0.15,1.15,0.29,1.71,0.47c1.82,0.6,2.1,1.67,0.6,2.85
		c-0.74,0.58-1.77,0.97-2.72,1.09C270.82,220.59,270.14,219.78,270.12,218.15z"/>
	<path class="st4" d="M268.94,219.61c-1.59-0.74-2.02-1.89-1.81-3.24c0.05-0.35,0.77-0.74,1.22-0.81c0.21-0.03,0.76,0.63,0.78,0.99
		C269.19,217.5,269.03,218.48,268.94,219.61z"/>
</g>
</svg>
