<?xml version="1.0" encoding="utf-8"?>
<!-- Generator: Adobe Illustrator 25.2.1, SVG Export Plug-In . SVG Version: 6.00 Build 0)  -->
<svg version="1.1" id="Слой_1" xmlns="http://www.w3.org/2000/svg" xmlns:xlink="http://www.w3.org/1999/xlink" x="0px" y="0px"
	 viewBox="0 0 595.3 841.9" style="enable-background:new 0 0 595.3 841.9;" xml:space="preserve">
<style type="text/css">
	.st0{fill:#2C853D;}
	.st1{fill:#3BB252;}
	.st2{fill:#1E602C;}
	.st3{fill:#FFFCF3;}
</style>
<rect x="60" y="118.5" class="st0" width="475.3" height="475.3"/>
<path class="st1" d="M452.4,540.2H142.9c-16.2,0-29.3-13.1-29.3-29.3V201.4c0-16.2,13.1-29.3,29.3-29.3h309.5
	c16.2,0,29.3,13.1,29.3,29.3v309.5C481.7,527.1,468.6,540.2,452.4,540.2z"/>
<path class="st2" d="M123.5,547.5h-2c-6.5,0-11.7-5.2-11.7-11.7V181.3c0-6.5,5.2-11.7,11.7-11.7h2c6.5,0,11.7,5.2,11.7,11.7v354.4
	C135.2,542.2,130,547.5,123.5,547.5z"/>
<path class="st2" d="M109.8,536.1v-2c0-6.5,5.2-11.7,11.7-11.7h354.4c6.5,0,11.7,5.2,11.7,11.7v2c0,6.5-5.2,11.7-11.7,11.7H121.5
	C115,547.8,109.8,542.6,109.8,536.1z"/>
<path class="st3" d="M328.8,514.3c0-1.6-1.2-2.9-2.8-3c-13-1.2-23.6-8.2-27.1-10.7c-0.7-0.5-1.7-0.5-2.5,0
	c-3.5,2.5-14.1,9.5-27.1,10.7c-1.6,0.1-2.7,1.4-2.8,3c-0.1,10.3,1.5,45.1,30.3,52.8c0.5,0.1,1.1,0.1,1.6,0
	C327.3,559.4,328.9,524.6,328.8,514.3z"/>
<path class="st2" d="M475.9,547.5h-2c-6.5,0-11.7-5.2-11.7-11.7V181.3c0-6.5,5.2-11.7,11.7-11.7h2c6.5,0,11.7,5.2,11.7,11.7v354.4
	C487.6,542.2,482.4,547.5,475.9,547.5z"/>
<path class="st2" d="M109.8,180.1v-2c0-6.5,5.2-11.7,11.7-11.7h230.3c6.5,0,11.7,5.2,11.7,11.7v2c0,6.5-5.2,11.7-11.7,11.7H121.5
	C115,191.9,109.8,186.6,109.8,180.1z"/>
<g>
	<path d="M298.7,515.5v6.8c0.9,0.2,1.7,0.6,2.3,1.2c0.2,0.2,0.4,0.4,0.5,0.6v-8.3C300.6,515.6,299.7,515.5,298.7,515.5z"/>
	<path d="M294.3,544.7C294.3,544.8,294.3,544.8,294.3,544.7L294.3,544.7v7.2h-10.4v-7c0.9-0.7,2.3-1.7,4.3-3.1
		c2.3-1.7,4.4-3.2,6.1-4.5V544.7z"/>
	<path d="M294.3,515.8v7.2c-1.6,1-2.6,3-3,6l-7.4-1.7C285.3,520.7,288.7,516.8,294.3,515.8z"/>
	<path d="M310.9,526.8c0,3.2-1.2,6-3.6,8.5c-1.3,1.4-3.3,3-5.8,4.8c-0.9,0.6-1.8,1.2-2.8,1.9v-8.6l0.3-0.3c1.1-1.1,2-2.2,2.5-3.3
		c0.6-1,0.8-2,0.8-3c0-1.1-0.3-2-0.8-2.8v-8.3c2.5,0.5,4.5,1.5,6,3C309.8,521,310.9,523.7,310.9,526.8z"/>
	<polygon points="311.4,544.8 310.8,551.9 298.7,551.9 298.7,544.8 	"/>
</g>
</svg>
