<?xml version="1.0" encoding="utf-8"?>
<!-- Generator: Adobe Illustrator 25.2.1, SVG Export Plug-In . SVG Version: 6.00 Build 0)  -->
<svg version="1.1" id="Слой_1" xmlns="http://www.w3.org/2000/svg" xmlns:xlink="http://www.w3.org/1999/xlink" x="0px" y="0px"
	 viewBox="0 0 595.3 841.9" style="enable-background:new 0 0 595.3 841.9;" xml:space="preserve">
<style type="text/css">
	.st0{fill:#2C853D;}
	.st1{fill:#3BB252;}
	.st2{fill:#1E602C;}
	.st3{fill:#FFFCF3;}
</style>
<rect x="60" y="118.5" class="st0" width="475.3" height="475.3"/>
<path class="st1" d="M452.4,540.2H142.9c-16.2,0-29.3-13.1-29.3-29.3V201.4c0-16.2,13.1-29.3,29.3-29.3h309.5
	c16.2,0,29.3,13.1,29.3,29.3v309.5C481.7,527.1,468.6,540.2,452.4,540.2z"/>
<path class="st2" d="M123.5,547.5h-2c-6.5,0-11.7-5.2-11.7-11.7V181.3c0-6.5,5.2-11.7,11.7-11.7h2c6.5,0,11.7,5.2,11.7,11.7v354.4
	C135.2,542.2,130,547.5,123.5,547.5z"/>
<path class="st2" d="M109.8,536.1v-2c0-6.5,5.2-11.7,11.7-11.7h354.4c6.5,0,11.7,5.2,11.7,11.7v2c0,6.5-5.2,11.7-11.7,11.7H121.5
	C115,547.8,109.8,542.6,109.8,536.1z"/>
<path class="st3" d="M328.8,514.3c0-1.6-1.2-2.9-2.8-3c-13-1.2-23.6-8.2-27.1-10.7c-0.7-0.5-1.7-0.5-2.5,0
	c-3.5,2.5-14.1,9.5-27.1,10.7c-1.6,0.1-2.7,1.4-2.8,3c-0.1,10.3,1.5,45.1,30.3,52.8c0.5,0.1,1.1,0.1,1.6,0
	C327.3,559.4,328.9,524.6,328.8,514.3z"/>
<path class="st2" d="M475.9,547.5h-2c-6.5,0-11.7-5.2-11.7-11.7V181.3c0-6.5,5.2-11.7,11.7-11.7h2c6.5,0,11.7,5.2,11.7,11.7v354.4
	C487.6,542.2,482.4,547.5,475.9,547.5z"/>
<path class="st2" d="M109.8,180.1v-2c0-6.5,5.2-11.7,11.7-11.7h230.3c6.5,0,11.7,5.2,11.7,11.7v2c0,6.5-5.2,11.7-11.7,11.7H121.5
	C115,191.9,109.8,186.6,109.8,180.1z"/>
<g>
	<path d="M298.7,515.5v6.8c0.9,0.2,1.7,0.6,2.3,1.2c0.2,0.2,0.4,0.4,0.5,0.6v-8.3C300.6,515.6,299.7,515.5,298.7,515.5z"/>
	<path d="M294.3,544.7C294.3,544.8,294.3,544.8,294.3,544.7L294.3,544.7v7.2h-10.4v-7c0.9-0.7,2.3-1.7,4.3-3.1
		c2.3-1.7,4.4-3.2,6.1-4.5V544.7z"/>
	<path d="M294.3,515.8v7.2c-1.6,1-2.6,3-3,6l-7.4-1.7C285.3,520.7,288.7,516.8,294.3,515.8z"/>
	<path d="M310.9,526.8c0,3.2-1.2,6-3.6,8.5c-1.3,1.4-3.3,3-5.8,4.8c-0.9,0.6-1.8,1.2-2.8,1.9v-8.6l0.3-0.3c1.1-1.1,2-2.2,2.5-3.3
		c0.6-1,0.8-2,0.8-3c0-1.1-0.3-2-0.8-2.8v-8.3c2.5,0.5,4.5,1.5,6,3C309.8,521,310.9,523.7,310.9,526.8z"/>
	<polygon points="311.4,544.8 310.8,551.9 298.7,551.9 298.7,544.8 	"/>
</g>
<path class="st2" d="M295.4,406.2c2.6,2,5,3.8,7.4,5.6c0,0.1-0.1,0.3-0.1,0.4c-3-0.5-5.9-1-8.9-1.6c-1.4-0.3-2.7-0.7-4-1
	c-0.4-0.1-0.9-0.2-1.3-0.2c-3.3,0.1-6.5-0.1-9.4-2.2c-1.6,2.3-3.8,3.2-6.3,3.8c-0.4,0.1-0.8,0.3-1.2,0.4c-1.1,0.4-1.9,1-1.2,2.4
	c-2-0.7-1.9-2.2,0.2-5.7c-0.6,0.2-1.2,0.3-1.6,0.5c-2.3,1.3-4.7,1.8-7.3,1.8c-2.6,0.1-5.1,0.2-7.7,0.3c-2.3,0.1-4.5,0.6-5.8,2.8
	c-0.1,0.2-0.3,0.3-0.6,0.5c0.7-5.4,4.4-9,9.8-9.7c2.9-0.4,5.9-0.6,8.8-1c0.4-0.1,1-0.2,1.2-0.6c1.4-1.6,2.7-3.3,4-5
	c0.2-0.3,0.3-0.7,0.3-1.1c0.3-5.8,0.8-11.6,0.9-17.4c0.1-2.8-0.5-5.7-0.7-8.5c-0.7-6.6-1.2-13.3-0.2-19.9c0.2-1-0.6-1-1.2-1.1
	c-1.6-0.3-3.3-0.7-4.9-0.8c-3.5-0.3-7.1-0.6-10.7-0.7c-4.4-0.2-8.7-0.4-12.9-1.8c-4.1-1.4-8.2-1.2-12.3-0.3
	c-2.3,0.5-3.6,1.4-5.6,3.4c0.6-2,3.3-3.5,8.7-5c-3.4-1.2-10.6-1.9-13.6-1.4c-2.9,0.5-3.9,1.7-4,4.6c-0.8-3.8,2.1-5.2,6.5-5.8
	c-2.2-0.7-4.4-1.4-6.6-2.1c0,0,0-0.1,0-0.1c3.4,0.7,6.7,1.5,10.1,2.2c3.4,0.6,6.7,1,10.2,1.3c-6.2-5-10.1-11.5-13.1-18.7
	c2,2.8,4,5.6,6.1,8.5c0.1-2.8,0.3-5.3,0.4-7.9c0.1,0,0.3,0,0.4,0c0,0.4-0.1,0.8-0.1,1.2c0.1,2,0.1,4,0.2,6c0.1,1.4,0.9,2.5,2,3.5
	c3.7,3.3,7.7,6.2,12.9,6.9c2.9,0.4,5.9,0.4,8.9,0.6c-0.1-0.4-0.1-0.5-0.1-0.5c-2.6-1.2-4.5-3.3-6.2-5.4c-1-1.2-2.2-1.6-3.6-1.8
	c-1.1-0.1-2.1-0.2-3.3-0.3c1.7,0,3.2,0,5,0c-1.3-1.4-2.5-2.7-3.7-4c0.1-0.1,0.1-0.1,0.2-0.2c1.9,1.7,3.8,3.4,5.7,5.2
	c0.1,0,0.1-0.1,0.2-0.1c-0.4-1.1-0.7-2.1-1.1-3.2c0.1,0,0.1,0,0.2-0.1c0.7,1.4,1.3,2.8,2,4.2c0.3,0.5,0.8,1,1.3,1.3
	c5.1,2.6,10.3,4.9,16.2,4.6c2-0.1,3.9,0.7,5.9,1c0.3,0.1,0.5,0.1,0.8,0.2c0.8-3.3-1.2-7.8-4.4-9.3c-2.4-1.1-5-1.9-7.6-2.7
	c-2.7-0.8-5.4-1.5-8.1-2.3c-0.6-0.2-1.3-0.4-1.8-0.8c-3.8-2.7-8.3-2.5-12.6-3c-0.3,0-0.7,0-1,0c0-0.1,0-0.3,0-0.4
	c3.2,0.1,6.3,0.3,9.3,0.4c-0.5-1.3-1-2.7-1.6-4.1c-0.1-0.3-0.4-0.5-0.6-0.7c-2.9-1.9-5.9-3.5-9.3-4.2c-1.8-0.4-3.7-0.1-5.6-0.1
	c3.1-1.1,4.8-1.1,9.3,0.5c2,0.7,4,1.7,6.1,2.6c0-0.4,0.1-0.9,0-1.3c-0.5-2.3-1.4-4.3-3.7-5.5c-2.6-1.3-5.4-1.7-8.3-1.9
	c-1.3-0.1-2.6,0-3.9-0.1c3.2-0.7,6.4-1.1,9.8-0.8c-0.9-0.5-1.8-1-2.7-1.5c0-0.1,0.1-0.1,0.1-0.2c2.9,1.4,5.9,2.4,8.5,4.1
	c2.1,1.4,3.1,3.9,3.4,6.5c0.1,0.8,0.5,1.6,1,2.2c1.1,1.2,2.5,2.2,3.7,3.3c1.8,1.6,4.2,1.6,6.4,2.1c1,0.2,2.1,0.4,3.1,0.5
	c0.1-0.1,0.3-0.3,0.4-0.4c-0.4-0.2-0.9-0.4-1.2-0.7c-2.9-3.1-5.8-6.2-8.5-9.4c-1-1.2-1.6-2.7-2.5-4c-0.4-0.7-1-1.4-1.7-1.7
	c-2.8-1.3-5.7-2.3-8.5-3.5c-2.2-1-4.4-2.1-6.6-3.2c-1.3-0.6-1.9-1.6-1.7-3.2c0.3-2.1-0.7-3.7-2.7-4.5c-0.8-0.3-1.6-0.6-2.4-0.8
	c1.9-0.4,4.2,1,5.5,3.3c2.4-2.4,3.2-4.3,3.3-8.3c0.1,0,0.2,0,0.3,0c-0.1,1.2-0.2,2.5-0.2,3.7c0,1.6-1.1,2.7-1.9,3.9
	c-1.7,2.5-1.3,4.2,1.3,5.6c0.8,0.4,1.6,0.7,2.4,1c3.8,1.2,7.6,2.5,11.4,3.7c0-1.9-0.3-4,0.1-5.9c0.4-2.5-0.3-4.6-1.6-6.6
	c-0.5-0.7-1.2-1.4-1.9-1.9c-1.8-1.3-2.4-3.1-2.5-5.1c-0.1-1.2,0.1-2.5,0.4-3.8c0,1.3-0.1,2.7,0,4c0.1,1.6,0.8,3,2.1,4
	c1.8,1.3,3.3,2.8,4.1,5c1.1-2.6,2.1-5.2,3.3-7.6c1.3-2.4,2.9-4.6,4.6-6.8c-3.9,6.9-6.3,14.2-5.7,22.3c2.5-1.8,5.1-3.2,7.9-4.1
	c2.3-0.8,3.4-2.6,4.3-4.6c0.4-0.9,0.6-1.8,0.9-2.7c0.2,1.6-0.5,3.4-2.7,6.9c1.1,0.2,2.2,0.4,3.3,0.7c0.2,0.1,0.5,0.2,0.7,0.4
	c-2.5-0.8-5-0.7-7.2,0.7c0.9,0.6,1.7,1.3,2.6,1.9c-0.1,0.1-0.1,0.2-0.2,0.3c-0.4-0.3-0.7-0.7-1.1-0.9c-1-0.7-2.1-0.8-3.2-0.3
	c-1.6,0.9-3,2.1-3.8,3.8c-0.4,0.8-0.4,1.5,0.1,2.3c1.8,3.2,4.4,5.8,7.1,8.3c3.4,3.1,7,6.1,10.3,9.3c1.5,1.5,2.7,3.3,4.1,4.9
	c0.2,0.2,0.3,0.4,0.5,0.6c0,0,0.1,0,0,0c0.6-3.2,1.2-6.3,1.9-9.5c0.2-0.9,0.8-1.8,1-2.8c0.3-1,0.5-2.2,0.5-3.2
	c-0.2-3.4-0.9-4.1-4.1-5.1c-2.2-0.7-3.4-0.7-7.3-0.4c1.5-0.3,3-0.6,4.6-0.9c-1.1-0.7-2.1-1.3-3.2-2c0,0,0-0.1,0.1-0.1
	c2.8,1.2,5.6,2.5,8.4,3.7c0.1-0.1,0.2-0.2,0.2-0.3c-1-2.4-2-4.9-4.3-6.6c-0.5-0.4-1.5-0.3-2.1-0.3c0.9-0.7,2-0.7,2.9,0.2
	c1.3,1.3,2.6,2.7,3.6,4.2c1.1,1.7,1.8,3.6,2.7,5.4c1.5-4.5,2.6-9.1,1.3-13.9c-0.7-2.7-1.7-5.3-2.5-7.9c-0.3-1.1-1-1.4-1.9-0.9
	c-1.4,0.8-2.6,1.7-3.9,2.6c-0.3,0.2-0.5,0.7-0.9,0.9c1.4-2.2,3.3-3.8,5.9-4.5c-1-3.2-3.3-5.4-6.1-6.9c-2.6-1.5-5.5-2.6-8.1-3.8
	c0.1,0,0.2-0.1,0.6-0.1c-2.2-2-3.3-4.5-3.5-7.4c0.1,0.4,0.2,0.8,0.3,1.2c0.9,3.6,3.1,6,6.6,7.3c2.5,1,4.9,2.1,7.4,3.3
	c-2.1-4-4.3-8.1-6.5-12.2c0,0,0.1-0.1,0.1-0.1c1.4,1.9,2.9,3.8,4.6,6.1c-0.2-2.2-1.2-4,0-5.9c-0.5,3.8,0.9,7,2.7,10.1
	c2,3.3,3.9,6.6,5.8,9.9c0.2,0.3,0.3,0.5,0.6,1.1c0.1-0.8,0.2-1.4,0.2-2c0.2-3.3,0.4-6.6,0.6-9.9c0.1-2.3-1-3.7-3-4.6
	c-0.2-0.1-0.3-0.1-0.5-0.2c0-0.1,0.1-0.2,0.1-0.3c1,0.6,2,1.1,3.3,1.8c-0.6-2.1-0.9-4.2-1.6-6.1c-0.7-1.9-1.7-3.8-2.5-5.7
	c1,1.4,2,2.8,2.9,4.2c0.8,1.5,1.5,3,2.3,4.9c0.5-4,0.9-7.8,1.4-11.5c0.1,0,0.1,0,0.2,0c0,4.3,0,8.6,0,12.7c1.6-2,3.2-4.1,4.8-6.2
	c0.1,0,0.1,0.1,0.2,0.1c-0.3,0.5-0.6,1.1-1,1.7c0.4,0,0.8-0.1,1.3-0.1c-4,1.8-4.2,5.4-4.9,8.8c-0.9,4.4,0.1,8.8,0.1,13.2
	c0.8-0.9,1.6-1.8,2.5-2.7c1.6-1.6,3-3.3,4-5.4c1.2-2.6,1.3-4.9-0.5-7.3c0.3,0.3,0.6,0.7,0.9,1c0.3,0.4,0.6,0.8,1.2,1.2
	c0.3-2.6,0.6-5.1,0.9-7.7c0.6,4.5,0.4,9-0.9,13.5c2.4-0.1,3.5,1.3,4.2,3.3c-0.8-0.6-1.4-1.1-2.2-1.6c-0.7-0.5-1.5-0.3-2.1,0.3
	c-0.6,0.6-1.1,1.1-1.6,1.8c-1.5,2-3,4.1-4.5,6.1c-1.6,2.1-2.6,4.4-2.4,7.1c0.5,5.6-0.8,10.9-2.5,16.1c-0.1,0.3-0.2,0.7-0.3,1
	c0,0.1,0,0.1,0.1,0.3c0.2-0.1,0.4-0.1,0.5-0.2c4.9-2.5,9.2-5.8,13-9.8c1.7-1.8,2-3.9,1.1-6c-0.7-1.7-1.8-3.2-2.6-4.6
	c1.5,0.7,3.3,3.9,4.1,7.4c0.8-1.4,1.8-2.7,2.2-4.2c0.7-2.3,1.9-4.5,1.2-7c-0.2-0.6-0.3-1.3-0.7-1.8c-2.1-3-2.3-6.3-1.2-9.6
	c0.8-2.5,1.9-5,3.1-7.4c-1.3,3.5-2.9,6.9-2.8,10.8c2.9-5.7,7.6-9.7,12.4-13.6c-0.1,0.1-0.2,0.3-0.3,0.4c-0.1,0.1-0.3,0.3-0.4,0.4
	c-2.8,3-5.6,6-8.2,9.2c-0.9,1.1-1.5,2.5-2.1,3.8c-0.7,1.7-0.7,3.5,0.6,5c0.4,0.4,0.6,1,0.9,1.5c0.1,0.1,0.3,0.2,0.4,0.2
	c0.9,6.7-2.3,12-6.4,17c7.8-5,12.7-11.8,13.1-21.4c0.1,0,0.2,0.1,0.3,0.1c-0.2,2.1-0.5,4.1-0.7,6.3c0.3-0.2,0.6-0.4,0.9-0.6
	c-0.1,0.2-0.1,0.3-0.2,0.3c-0.5,0.7-1.1,1.3-1.3,2.1c-1.6,5.2-4.9,9.2-8.9,12.6c-4.7,4.1-10,7.2-15.4,10.2c-2.9,1.6-4.7,3.7-4.9,7
	c-0.1,2.1,0.2,4.2,0.3,6.2c0.1,0.8,0.6,0.9,1.3,0.6c2.2-0.8,4.4-1.7,6.7-2.4c3.2-1,5.5-3.3,7.4-5.8c0.5-0.7,0.8-1.6,0.8-2.4
	c0-2,0.8-3.5,2-4.9c0.5-0.6,0.9-1.2,1.4-1.7c0.1,0.1,0.2,0.2,0.3,0.3c-0.5,0.6-0.9,1.1-1.4,1.7c-1,1.4-1.6,2.9-1.4,4.8
	c0.2,1.6-0.7,3-1.6,4.2c-0.3,0.4-0.6,0.8-0.9,1.3c3-1.2,6-2.3,7.9-5.1c0.5-0.7,0.7-1.7,0.9-2.6c0.3-1.5,0.6-3,0.9-4.5
	c0.1-0.6,0-1.1,0-1.7c0.1,0.1,0.3,0.2,0.5,0.4c1.5-3.2,3.6-6,6-8.5c0.6-0.7,0.9-1.7,1.3-2.6c0.5-1.2,1.1-2.4,1.8-3.5
	c-0.5,1.4-1,2.8-1.5,4.2c3.8-3,7.5-5.9,11.6-8.2c-2.6,2.4-5.2,4.8-7.8,7.3c0.1,0.1,0.1,0.2,0.2,0.3c2.1-1,4.3-2.1,6.4-3.1
	c0,0.1,0.1,0.1,0.1,0.2c-0.9,0.6-1.8,1.1-2.7,1.6c1.9,0.3,3.7,0.6,5.7,0.9c-2,0-3.9-0.2-5.7,0.1c-3.3,0.6-6.1,2.3-8.1,5.1
	c-2.3,3.1-4.1,6.5-5.3,10.2c-0.2,0.7,0,1.6,0,2.4c0.8-0.1,1.6,0.1,2.2-0.2c3.4-1.5,6.9-1.8,10.5-2.2c2.8-0.3,5.5-0.9,8.2-1.6
	c1.3-0.3,2.5-1.2,3.9-1.8c-1.5,1.7-3.4,2.4-5.4,3.4c0.7,0.1,1.4,0.1,2.1,0.2c0,0,0,0.1,0,0.1c-3,0.4-6.1,0.8-9.1,1.2
	c0,0.1,0,0.2,0,0.3c2,0.9,4,1.8,6,2.8c0,0.1,0,0.1-0.1,0.2c-2-0.6-4-1.3-6-2c-1.6-0.6-3.1-0.5-4.7,0.1c-3.5,1.2-6.7,2.7-9.8,4.7
	c-3.8,2.4-7.4,5-11.2,7.4c-0.3,0.2-0.6,0.5-0.9,0.7c0,0.1,0,0.3,0.1,0.4c0.7,0,1.3,0,2,0c3.3-0.2,6.6-0.6,9.9-0.5
	c3.1,0.1,6.2,0.1,9.2-0.6c1.1-0.2,2.2-0.6,3.3-1c1.9-0.8,2.4-2.8,1.2-4.5c-0.3-0.4-0.7-0.7-1.1-1.1c1.8,0.4,2.4,2.3,2.3,4.2
	c7.2-1.2,11-6.6,15.1-11.9c0.1,0.1,0.2,0.1,0.3,0.2c-1.7,2.5-3.4,5-5.2,7.7c1.9-0.8,3.7-1.5,5.5-2.3c0,0.1,0.1,0.1,0.1,0.2
	c-2.4,1.4-4.8,2.9-7.3,4.4c1.8,0.1,3.5,0.2,5.2,0.3c0,0.1,0,0.2,0,0.3c-6.6-1.3-11.1,3.1-16,5.6c2.4,1.6,4.9,3.3,7.3,5
	c-0.1,0.1-0.2,0.3-0.2,0.4c-0.4-0.2-0.7-0.4-1.1-0.6c-2.4-1.4-4.6-3-7.4-3.6c-0.4-0.1-0.8-0.2-1.2-0.1c-3.4,0.6-6.8,1.3-10.1,1.9
	c2.5,0.7,5.2,1.4,7.8,2.2c0,0.1,0,0.1,0,0.2c-3.1-0.4-6.2-0.9-9.3-1.3c-3.6-0.5-7.2-1.1-10.9-0.6c-2.7,0.4-5.1,1.3-6.7,3.5
	c-0.3,0.4-0.4,1-0.4,1.5c0.1,4.4,0.4,8.9,0.4,13.3c-0.1,6-0.4,12-0.6,18c-0.2,6.1,0.6,12,1.8,17.9c0.2,0.8,0.4,1.1,1.3,1.2
	c7.6,1,14.6,3.5,20.7,8.2c0.7,0.6,1.4,1.2,2.1,1.9c0.3,0.2,0.5,0.5,0.7,0.9C307.6,408.1,301.6,407.2,295.4,406.2z"/>
</svg>
