<?xml version="1.0" encoding="utf-8"?>
<!-- Generator: Adobe Illustrator 25.2.1, SVG Export Plug-In . SVG Version: 6.00 Build 0)  -->
<svg version="1.1" id="Слой_1" xmlns="http://www.w3.org/2000/svg" xmlns:xlink="http://www.w3.org/1999/xlink" x="0px" y="0px"
	 viewBox="0 0 595.3 841.9" style="enable-background:new 0 0 595.3 841.9;" xml:space="preserve">
<style type="text/css">
	.st0{fill:#2C853D;}
	.st1{fill:#1E602C;}
	.st2{fill:#2FAC66;}
	.st3{fill:#FFFCF3;}
</style>
<rect x="60" y="118.5" class="st0" width="475.3" height="475.3"/>
<path class="st1" d="M452.4,540.2H142.9c-16.2,0-29.3-13.1-29.3-29.3V201.4c0-16.2,13.1-29.3,29.3-29.3h309.5
	c16.2,0,29.3,13.1,29.3,29.3v309.5C481.7,527.1,468.6,540.2,452.4,540.2z"/>
<g>
	<path class="st2" d="M455,509.9H149.4c-2.3,0-4.1-1.9-4.1-4.1v-1.4c0-2.3,1.9-4.1,4.1-4.1H455c2.3,0,4.1,1.9,4.1,4.1v1.4
		C459.2,508,457.3,509.9,455,509.9z"/>
	<path class="st2" d="M455,482.2H149.4c-2.3,0-4.1-1.9-4.1-4.1v-1.4c0-2.3,1.9-4.1,4.1-4.1H455c2.3,0,4.1,1.9,4.1,4.1v1.4
		C459.2,480.3,457.3,482.2,455,482.2z"/>
	<path class="st2" d="M455,454.5H149.4c-2.3,0-4.1-1.9-4.1-4.1V449c0-2.3,1.9-4.1,4.1-4.1H455c2.3,0,4.1,1.9,4.1,4.1v1.4
		C459.2,452.6,457.3,454.5,455,454.5z"/>
	<path class="st2" d="M455,429.1H149.4c-2.3,0-4.1-1.9-4.1-4.1v-1.4c0-2.3,1.9-4.1,4.1-4.1H455c2.3,0,4.1,1.9,4.1,4.1v1.4
		C459.2,427.2,457.3,429.1,455,429.1z"/>
	<path class="st2" d="M455,401.4H149.4c-2.3,0-4.1-1.9-4.1-4.1v-1.4c0-2.3,1.9-4.1,4.1-4.1H455c2.3,0,4.1,1.9,4.1,4.1v1.4
		C459.2,399.5,457.3,401.4,455,401.4z"/>
	<path class="st2" d="M455,373.7H149.4c-2.3,0-4.1-1.9-4.1-4.1v-1.4c0-2.3,1.9-4.1,4.1-4.1H455c2.3,0,4.1,1.9,4.1,4.1v1.4
		C459.2,371.8,457.3,373.7,455,373.7z"/>
	<path class="st2" d="M455,348.3H149.4c-2.3,0-4.1-1.9-4.1-4.1v-1.4c0-2.3,1.9-4.1,4.1-4.1H455c2.3,0,4.1,1.9,4.1,4.1v1.4
		C459.2,346.5,457.3,348.3,455,348.3z"/>
	<path class="st2" d="M455,320.6H149.4c-2.3,0-4.1-1.9-4.1-4.1v-1.4c0-2.3,1.9-4.1,4.1-4.1H455c2.3,0,4.1,1.9,4.1,4.1v1.4
		C459.2,318.7,457.3,320.6,455,320.6z"/>
	<path class="st2" d="M455,292.9H149.4c-2.3,0-4.1-1.9-4.1-4.1v-1.4c0-2.3,1.9-4.1,4.1-4.1H455c2.3,0,4.1,1.9,4.1,4.1v1.4
		C459.2,291,457.3,292.9,455,292.9z"/>
	<path class="st2" d="M455,267.5H149.4c-2.3,0-4.1-1.9-4.1-4.1V262c0-2.3,1.9-4.1,4.1-4.1H455c2.3,0,4.1,1.9,4.1,4.1v1.4
		C459.2,265.7,457.3,267.5,455,267.5z"/>
	<path class="st2" d="M455,239.8H149.4c-2.3,0-4.1-1.9-4.1-4.1v-1.4c0-2.3,1.9-4.1,4.1-4.1H455c2.3,0,4.1,1.9,4.1,4.1v1.4
		C459.2,238,457.3,239.8,455,239.8z"/>
	<path class="st2" d="M455,212.1H149.4c-2.3,0-4.1-1.9-4.1-4.1v-1.4c0-2.3,1.9-4.1,4.1-4.1H455c2.3,0,4.1,1.9,4.1,4.1v1.4
		C459.2,210.2,457.3,212.1,455,212.1z"/>
</g>
<g>
	<path class="st3" d="M328.8,514.3c0-1.6-1.2-2.9-2.8-3c-13-1.2-23.6-8.2-27.1-10.7c-0.7-0.5-1.7-0.5-2.5,0
		c-3.5,2.5-14.1,9.5-27.1,10.7c-1.6,0.1-2.7,1.4-2.8,3c-0.1,10.3,1.5,45.1,30.3,52.8c0.5,0.1,1.1,0.1,1.6,0
		C327.3,559.4,328.9,524.6,328.8,514.3z"/>
	<path d="M293.6,524.3c-0.8,1.8-1.1,4.9-1.1,9.4c0,4.5,0.4,7.6,1.2,9.4c0.5,1,1.1,1.8,2,2.2v6.4c-3.4-0.4-6.1-2.1-8.1-5
		c-2.4-3.4-3.6-7.7-3.6-12.8c0-5.1,1.2-9.3,3.5-12.8c2-2.9,4.7-4.6,8.2-5.1v6.2C294.8,522.5,294.1,523.2,293.6,524.3z"/>
	<path d="M311.3,533.7c0,5.1-1.2,9.4-3.5,12.9c-2,2.9-4.6,4.5-8,5v-6.4c0.8-0.4,1.5-1.1,1.9-2.1c0.8-1.7,1.2-4.8,1.2-9.1
		c0-4.8-0.4-8-1.2-9.8c-0.5-1-1.1-1.8-2-2.2v-6.2c3.4,0.5,6.1,2.1,8.1,5.1C310.1,524.4,311.3,528.7,311.3,533.7z"/>
</g>
</svg>
