<?xml version="1.0" encoding="utf-8"?>
<!-- Generator: Adobe Illustrator 25.2.1, SVG Export Plug-In . SVG Version: 6.00 Build 0)  -->
<svg version="1.1" id="Слой_1" xmlns="http://www.w3.org/2000/svg" xmlns:xlink="http://www.w3.org/1999/xlink" x="0px" y="0px"
	 viewBox="0 0 595.3 841.9" style="enable-background:new 0 0 595.3 841.9;" xml:space="preserve">
<style type="text/css">
	.st0{fill:#2C853D;}
	.st1{fill:#FFFCF3;}
	.st2{fill:#31AD68;}
</style>
<rect x="60" y="118.5" class="st0" width="475.3" height="475.3"/>
<path class="st1" d="M328.8,514.3c0-1.6-1.2-2.9-2.8-3c-13-1.2-23.6-8.2-27.1-10.7c-0.7-0.5-1.7-0.5-2.5,0
	c-3.5,2.5-14.1,9.5-27.1,10.7c-1.6,0.1-2.7,1.4-2.8,3c-0.1,10.3,1.5,45.1,30.3,52.8c0.5,0.1,1.1,0.1,1.6,0
	C327.3,559.4,328.9,524.6,328.8,514.3z"/>
<g>
	<path d="M300.4,545.1v6.8h0L300.4,545.1C300.4,545.1,300.4,545.1,300.4,545.1z M300.4,529.3v7.4c0,0,0,0,0,0L300.4,529.3
		C300.4,529.3,300.4,529.3,300.4,529.3z M300.4,515.5v6.7c0,0,0,0,0,0L300.4,515.5L300.4,515.5z"/>
	<path d="M296.7,515.4v6.2c-0.7,0.1-1.3,0.3-1.8,0.5c-1.3,0.7-2.3,2-2.7,4l-7.4-1.2c0.6-2.8,2.1-5,4.4-6.8c1.6-1.3,3.5-2.1,5.7-2.5
		C295.5,515.5,296.1,515.4,296.7,515.4z"/>
	<path d="M296.7,530v6.3c-0.1,0-0.2,0-0.3,0h-3.3V530H296.7z"/>
	<path d="M296.7,545.6v6.4c-0.6,0-1.2-0.1-1.8-0.2c-2.8-0.4-5-1.4-6.8-2.9c-2.4-2.1-3.9-4.7-4.3-7.7l7.6-1.1c0.5,2.6,1.7,4.3,3.6,5
		C295.4,545.4,296,545.5,296.7,545.6z"/>
	<path d="M311.6,541.3c0,3.1-1.2,5.7-3.7,7.7c-1.9,1.6-4.4,2.6-7.5,2.9v-6.8c0.4-0.2,0.8-0.5,1.2-0.8c1-0.9,1.5-2,1.5-3.5
		c0-1.5-0.5-2.7-1.4-3.5c-0.3-0.3-0.8-0.5-1.3-0.7v-7.4c0.3-0.2,0.6-0.4,0.8-0.6c0.8-0.9,1.2-1.8,1.2-2.9c0-1.1-0.4-2.1-1.3-3
		c-0.2-0.2-0.5-0.4-0.7-0.6v-6.7c2.5,0.3,4.6,1.1,6.5,2.4c2.4,1.7,3.7,4,3.7,7c0,3.9-2,6.5-6.1,8
		C309.2,534.1,311.6,536.9,311.6,541.3z"/>
</g>
<path class="st2" d="M458.9,417.4c0-7.9-5.4-14.4-12.4-15.2c-2-5.8-7-10-13-10c-2.6,0-5,0.8-7.1,2.2c-2.4-4.7-6.9-7.9-12.1-7.9
	c-6.9,0-12.6,5.6-13.7,12.9c-0.6-0.1-1.1-0.1-1.7-0.1c-7.6,0-13.8,6.9-13.8,15.3c0,0.4,0,0.8,0.1,1.2c-3.9,2.7-6.5,7.5-6.5,12.9
	c0,4.8,2,9.1,5.2,11.9c0,0.3,0,0.5,0,0.8c0,8.5,6.2,15.3,13.8,15.3c2.3,0,4.4-0.6,6.4-1.7c2.6,2.1,6.4,4.7,8.2,4.2
	c0,0,0.7,11.7,0.5,14.6c-0.3,5.6-1.8,11.9-2.9,17h16.7c0,0-2.5-11.3-2.6-15.1c-0.1-3.8,1.1-10.7,1.1-10.7l5.8-6.6
	c2.2,1.7,4.9,2.6,7.8,2.6c7.2,0,13-6,13.8-13.7c5.3-2.2,9-7.8,9-14.4c0-3.9-1.3-7.4-3.5-10.1C458.6,421.2,458.9,419.4,458.9,417.4z
	 M407.3,452.6c1.1-1.2,2-2.5,2.8-4.1l2.7,6.3C412.7,454.8,411.2,455.6,407.3,452.6z M417.4,456.5c-1.4,0.3-3.8-4.5-5.5-8.4
	c1.9,1.1,4,1.7,6.3,1.7c0.6,0,1.2-0.1,1.7-0.1C419.5,452.7,418.7,456.2,417.4,456.5z M423.4,459.6c-3.3,1-1.3-6.5-0.4-10.8
	c0.7-0.3,1.3-0.6,1.9-1c0.4,3.1,1.6,6,3.4,8.2C426.8,457.6,425,459.1,423.4,459.6z"/>
<path class="st2" d="M324.8,202c0-7.9-5.4-14.4-12.4-15.2c-2-5.8-7-10-13-10c-2.6,0-5,0.8-7.1,2.2c-2.4-4.7-6.9-7.9-12.1-7.9
	c-6.9,0-12.6,5.6-13.7,12.9c-0.6-0.1-1.1-0.1-1.7-0.1c-7.6,0-13.8,6.9-13.8,15.3c0,0.4,0,0.8,0.1,1.2c-3.9,2.7-6.5,7.5-6.5,12.9
	c0,4.8,2,9.1,5.2,11.9c0,0.3,0,0.5,0,0.8c0,8.5,6.2,15.3,13.8,15.3c2.3,0,4.4-0.6,6.4-1.7c2.6,2.1,6.4,4.7,8.2,4.2
	c0,0,0.7,11.7,0.5,14.6c-0.3,5.6-1.8,11.9-2.9,17h16.7c0,0-2.5-11.3-2.6-15.1c-0.1-3.8,1.1-10.7,1.1-10.7l5.8-6.6
	c2.2,1.7,4.9,2.6,7.8,2.6c7.2,0,13-6,13.8-13.7c5.3-2.2,9-7.8,9-14.4c0-3.9-1.3-7.4-3.5-10.1C324.5,205.8,324.8,203.9,324.8,202z
	 M273.1,237.2c1.1-1.2,2-2.5,2.8-4.1l2.7,6.3C278.6,239.4,277.1,240.1,273.1,237.2z M283.3,241.1c-1.4,0.3-3.8-4.5-5.5-8.4
	c1.9,1.1,4,1.7,6.3,1.7c0.6,0,1.2-0.1,1.7-0.1C285.4,237.3,284.6,240.8,283.3,241.1z M289.3,244.1c-3.3,1-1.3-6.5-0.4-10.8
	c0.7-0.3,1.3-0.6,1.9-1c0.4,3.1,1.6,6,3.4,8.2C292.7,242.2,290.9,243.6,289.3,244.1z"/>
<path class="st2" d="M453.3,211.8c0-7.9-5.4-14.4-12.4-15.2c-2-5.8-7-10-13-10c-2.6,0-5,0.8-7.1,2.2c-2.4-4.7-6.9-7.9-12.1-7.9
	c-6.9,0-12.6,5.6-13.7,12.9c-0.6-0.1-1.1-0.1-1.7-0.1c-7.6,0-13.8,6.9-13.8,15.3c0,0.4,0,0.8,0.1,1.2c-3.9,2.7-6.5,7.5-6.5,12.9
	c0,4.8,2,9.1,5.2,11.9c0,0.3,0,0.5,0,0.8c0,8.5,6.2,15.3,13.8,15.3c2.3,0,4.4-0.6,6.4-1.7c2.6,2.1,6.4,4.7,8.2,4.2
	c0,0,0.7,11.7,0.5,14.6c-0.3,5.6-1.8,11.9-2.9,17h16.7c0,0-2.5-11.3-2.6-15.1c-0.1-3.8,1.1-10.7,1.1-10.7l5.8-6.6
	c2.2,1.7,4.9,2.6,7.8,2.6c7.2,0,13-6,13.8-13.7c5.3-2.2,9-7.8,9-14.4c0-3.9-1.3-7.4-3.5-10.1C452.9,215.6,453.3,213.8,453.3,211.8z
	 M401.6,247c1.1-1.2,2-2.5,2.8-4.1l2.7,6.3C407,249.2,405.6,250,401.6,247z M411.7,250.9c-1.4,0.3-3.8-4.5-5.5-8.4
	c1.9,1.1,4,1.7,6.3,1.7c0.6,0,1.2-0.1,1.7-0.1C413.8,247.1,413,250.6,411.7,250.9z M417.7,253.9c-3.3,1-1.3-6.5-0.4-10.8
	c0.7-0.3,1.3-0.6,1.9-1c0.4,3.1,1.6,6,3.4,8.2C421.2,252,419.3,253.5,417.7,253.9z"/>
<path class="st2" d="M256.8,291.7c0-7.9-5.4-14.4-12.4-15.2c-2-5.8-7-10-13-10c-2.6,0-5,0.8-7.1,2.2c-2.4-4.7-6.9-7.9-12.1-7.9
	c-6.9,0-12.6,5.6-13.7,12.9c-0.6-0.1-1.1-0.1-1.7-0.1c-7.6,0-13.8,6.9-13.8,15.3c0,0.4,0,0.8,0.1,1.2c-3.9,2.7-6.5,7.5-6.5,12.9
	c0,4.8,2,9.1,5.2,11.9c0,0.3,0,0.5,0,0.8c0,8.5,6.2,15.3,13.8,15.3c2.3,0,4.4-0.6,6.4-1.7c2.6,2.1,6.4,4.7,8.2,4.2
	c0,0,0.7,11.7,0.5,14.6c-0.3,5.6-1.8,11.9-2.9,17h16.7c0,0-2.5-11.3-2.6-15.1c-0.1-3.8,1.1-10.7,1.1-10.7l5.8-6.6
	c2.2,1.7,4.9,2.6,7.8,2.6c7.2,0,13-6,13.8-13.7c5.3-2.2,9-7.8,9-14.4c0-3.9-1.3-7.4-3.5-10.1C256.4,295.5,256.8,293.6,256.8,291.7z
	 M205.1,326.9c1.1-1.2,2-2.5,2.8-4.1l2.7,6.3C210.5,329.1,209.1,329.8,205.1,326.9z M215.2,330.8c-1.4,0.3-3.8-4.5-5.5-8.4
	c1.9,1.1,4,1.7,6.3,1.7c0.6,0,1.2-0.1,1.7-0.1C217.3,327,216.5,330.5,215.2,330.8z M221.2,333.8c-3.3,1-1.3-6.5-0.4-10.8
	c0.7-0.3,1.3-0.6,1.9-1c0.4,3.1,1.6,6,3.4,8.2C224.6,331.9,222.8,333.4,221.2,333.8z"/>
<path class="st2" d="M329,361.7c0-7.9-5.4-14.4-12.4-15.2c-2-5.8-7-10-13-10c-2.6,0-5,0.8-7.1,2.2c-2.4-4.7-6.9-7.9-12.1-7.9
	c-6.9,0-12.6,5.6-13.7,12.9c-0.6-0.1-1.1-0.1-1.7-0.1c-7.6,0-13.8,6.9-13.8,15.3c0,0.4,0,0.8,0.1,1.2c-3.9,2.7-6.5,7.5-6.5,12.9
	c0,4.8,2,9.1,5.2,11.9c0,0.3,0,0.5,0,0.8c0,8.5,6.2,15.3,13.8,15.3c2.3,0,4.4-0.6,6.4-1.7c2.6,2.1,6.4,4.7,8.2,4.2
	c0,0,0.7,11.7,0.5,14.6c-0.3,5.6-1.8,11.9-2.9,17h16.7c0,0-2.5-11.3-2.6-15.1c-0.1-3.8,1.1-10.7,1.1-10.7l5.8-6.6
	c2.2,1.7,4.9,2.6,7.8,2.6c7.2,0,13-6,13.8-13.7c5.3-2.2,9-7.8,9-14.4c0-3.9-1.3-7.4-3.5-10.1C328.7,365.5,329,363.6,329,361.7z
	 M277.3,396.9c1.1-1.2,2-2.5,2.8-4.1l2.7,6.3C282.8,399.1,281.3,399.8,277.3,396.9z M287.5,400.7c-1.4,0.3-3.8-4.5-5.5-8.4
	c1.9,1.1,4,1.7,6.3,1.7c0.6,0,1.2-0.1,1.7-0.1C289.6,397,288.8,400.5,287.5,400.7z M293.5,403.8c-3.3,1-1.3-6.5-0.4-10.8
	c0.7-0.3,1.3-0.6,1.9-1c0.4,3.1,1.6,6,3.4,8.2C296.9,401.8,295.1,403.3,293.5,403.8z"/>
<path class="st2" d="M188,190.2c0-7.9-5.4-14.4-12.4-15.2c-2-5.8-7-10-13-10c-2.6,0-5,0.8-7.1,2.2c-2.4-4.7-6.9-7.9-12.1-7.9
	c-6.9,0-12.6,5.6-13.7,12.9c-0.6-0.1-1.1-0.1-1.7-0.1c-7.6,0-13.8,6.9-13.8,15.3c0,0.4,0,0.8,0.1,1.2c-3.9,2.7-6.5,7.5-6.5,12.9
	c0,4.8,2,9.1,5.2,11.9c0,0.3,0,0.5,0,0.8c0,8.5,6.2,15.3,13.8,15.3c2.3,0,4.4-0.6,6.4-1.7c2.6,2.1,6.4,4.7,8.2,4.2
	c0,0,0.7,11.7,0.5,14.6c-0.3,5.6-1.8,11.9-2.9,17h16.7c0,0-2.5-11.3-2.6-15.1c-0.1-3.8,1.1-10.7,1.1-10.7l5.8-6.6
	c2.2,1.7,4.9,2.6,7.8,2.6c7.2,0,13-6,13.8-13.7c5.3-2.2,9-7.8,9-14.4c0-3.9-1.3-7.4-3.5-10.1C187.7,193.9,188,192.1,188,190.2z
	 M136.3,225.3c1.1-1.2,2-2.5,2.8-4.1l2.7,6.3C141.8,227.6,140.3,228.3,136.3,225.3z M146.5,229.2c-1.4,0.3-3.8-4.5-5.5-8.4
	c1.9,1.1,4,1.7,6.3,1.7c0.6,0,1.2-0.1,1.7-0.1C148.6,225.5,147.8,229,146.5,229.2z M152.5,232.3c-3.3,1-1.3-6.5-0.4-10.8
	c0.7-0.3,1.3-0.6,1.9-1c0.4,3.1,1.6,6,3.4,8.2C155.9,230.3,154.1,231.8,152.5,232.3z"/>
<path class="st2" d="M211.2,412.7c0-7.9-5.4-14.4-12.4-15.2c-2-5.8-7-10-13-10c-2.6,0-5,0.8-7.1,2.2c-2.4-4.7-6.9-7.9-12.1-7.9
	c-6.9,0-12.6,5.6-13.7,12.9c-0.6-0.1-1.1-0.1-1.7-0.1c-7.6,0-13.8,6.9-13.8,15.3c0,0.4,0,0.8,0.1,1.2c-3.9,2.7-6.5,7.5-6.5,12.9
	c0,4.8,2,9.1,5.2,11.9c0,0.3,0,0.5,0,0.8c0,8.5,6.2,15.3,13.8,15.3c2.3,0,4.4-0.6,6.4-1.7c2.6,2.1,6.4,4.7,8.2,4.2
	c0,0,0.7,11.7,0.5,14.6c-0.3,5.6-1.8,11.9-2.9,17h16.7c0,0-2.5-11.3-2.6-15.1c-0.1-3.8,1.1-10.7,1.1-10.7l5.8-6.6
	c2.2,1.7,4.9,2.6,7.8,2.6c7.2,0,13-6,13.8-13.7c5.3-2.2,9-7.8,9-14.4c0-3.9-1.3-7.4-3.5-10.1C210.8,416.4,211.2,414.6,211.2,412.7z
	 M159.5,447.8c1.1-1.2,2-2.5,2.8-4.1l2.7,6.3C164.9,450.1,163.5,450.8,159.5,447.8z M169.6,451.7c-1.4,0.3-3.8-4.5-5.5-8.4
	c1.9,1.1,4,1.7,6.3,1.7c0.6,0,1.2-0.1,1.7-0.1C171.7,448,170.9,451.5,169.6,451.7z M175.6,454.8c-3.3,1-1.3-6.5-0.4-10.8
	c0.7-0.3,1.3-0.6,1.9-1c0.4,3.1,1.6,6,3.4,8.2C179.1,452.8,177.2,454.3,175.6,454.8z"/>
<path class="st2" d="M415.9,314.5c0-7.9-5.4-14.4-12.4-15.2c-2-5.8-7-10-13-10c-2.6,0-5,0.8-7.1,2.2c-2.4-4.7-6.9-7.9-12.1-7.9
	c-6.9,0-12.6,5.6-13.7,12.9c-0.6-0.1-1.1-0.1-1.7-0.1c-7.6,0-13.8,6.9-13.8,15.3c0,0.4,0,0.8,0.1,1.2c-3.9,2.7-6.5,7.5-6.5,12.9
	c0,4.8,2,9.1,5.2,11.9c0,0.3,0,0.5,0,0.8c0,8.5,6.2,15.3,13.8,15.3c2.3,0,4.4-0.6,6.4-1.7c2.6,2.1,6.4,4.7,8.2,4.2
	c0,0,0.7,11.7,0.5,14.6c-0.3,5.6-1.8,11.9-2.9,17h16.7c0,0-2.5-11.3-2.6-15.1c-0.1-3.8,1.1-10.7,1.1-10.7l5.8-6.6
	c2.2,1.7,4.9,2.6,7.8,2.6c7.2,0,13-6,13.8-13.7c5.3-2.2,9-7.8,9-14.4c0-3.9-1.3-7.4-3.5-10.1C415.5,318.3,415.9,316.5,415.9,314.5z
	 M364.2,349.7c1.1-1.2,2-2.5,2.8-4.1l2.7,6.3C369.7,351.9,368.2,352.7,364.2,349.7z M374.4,353.6c-1.4,0.3-3.8-4.5-5.5-8.4
	c1.9,1.1,4,1.7,6.3,1.7c0.6,0,1.2-0.1,1.7-0.1C376.4,349.8,375.6,353.3,374.4,353.6z M380.3,356.7c-3.3,1-1.3-6.5-0.4-10.8
	c0.7-0.3,1.3-0.6,1.9-1c0.4,3.1,1.6,6,3.4,8.2C383.8,354.7,381.9,356.2,380.3,356.7z"/>
</svg>
