<?xml version="1.0" encoding="utf-8"?>
<!-- Generator: Adobe Illustrator 25.2.1, SVG Export Plug-In . SVG Version: 6.00 Build 0)  -->
<svg version="1.1" id="Слой_1" xmlns="http://www.w3.org/2000/svg" xmlns:xlink="http://www.w3.org/1999/xlink" x="0px" y="0px"
	 viewBox="0 0 595.3 841.9" style="enable-background:new 0 0 595.3 841.9;" xml:space="preserve">
<style type="text/css">
	.st0{fill:#2C853D;}
	.st1{fill:#FFFCF3;}
	.st2{fill:#8292A2;}
	.st3{fill:#6E7B8B;}
	.st4{fill:#54636A;}
	.st5{fill:#6E7688;}
	.st6{fill:#717E91;}
	.st7{fill:#788990;}
	.st8{fill:#768695;}
</style>
<rect x="60" y="175.2" class="st0" width="475.3" height="475.3"/>
<g>
	<path class="st1" d="M328.8,563.9c0-1.6-1.2-2.9-2.8-3c-13-1.2-23.6-8.2-27.1-10.7c-0.7-0.5-1.7-0.5-2.5,0
		c-3.5,2.5-14.1,9.5-27.1,10.7c-1.6,0.1-2.7,1.4-2.8,3c-0.1,10.3,1.5,45.1,30.3,52.8c0.5,0.1,1.1,0.1,1.6,0
		C327.3,609,328.9,574.2,328.8,563.9z"/>
	<g>
		<path d="M284.5,580v-7.1c6-1.8,9.9-4.1,11.7-7h5.9v28.8h9.6v6.3h-28v-6.3h10.5v-19.8C290,577.3,286.8,579,284.5,580z"/>
	</g>
</g>
<g>
	<path class="st2" d="M435.9,426.4c0,1.4,0,2.7,0,4.1c-4.8,4.6-11.8,2.9-17.1,6.1c-4.4,5.7-10.1,4.5-15.8,2.9
		c-57.8-0.3-115.6,0-173.4-0.1c-4.3,0-8.8,0.6-11.8-3.6c-3.5-12.8-3.1-26.1-5.2-39c-0.5-3.1-0.2-6.4-3.3-8.5
		c-12.2-4-24.8-3.8-37.3-3.8c-3.4,0-8.1,1.8-10-2.2c-1.7-3.7,2.1-6.5,4.3-9.2c9.2-11,18.9-21.7,29.2-31.7
		c4.9-4.7,7.6-11.5,14.2-14.7c2.2-0.6,4,0.3,5.9,1.2c3.1,3.3,2,7.2,1.6,11c-0.9,9.7,1.5,12.6,11.2,12.6c60.7,0.1,121.5,0.1,182.2,0
		c9.7,0,11.6-3.3,9.9-13.1c-2.6-14.6-5.7-29.1-6.4-43.9c4.7-7.9,11.2-14,19.1-18.7c1.2-0.1,2.1,0.3,3,1c0,0.9,0,1.8,0,2.7
		c-1.5,12.9-0.4,25.8-0.6,38.6c-0.1,5.4-0.9,10.8,0.6,16.2c0,2.7,0,5.5,0,8.2c-1.1,5.9-1.1,11.9,0,17.8c0,1.8,0,3.7,0,5.5
		c-1.6,6.5-0.3,13.1-0.7,19.6C435.6,399.2,434.3,412.8,435.9,426.4z"/>
	<path class="st3" d="M416.7,293.5c2.9,18,5.6,35.9,8.8,53.8c1.1,5.9-0.6,7.9-6.5,7.8c-66.4-0.1-132.8-0.1-199.2,0
		c-5.4,0-8.1-1.4-7.1-7.6c1-6,1.1-12.2,1.6-18.4c-2.6-2.3-3-5.3-3.2-8.6c-0.5-7.5,0.7-14.9,1.8-22.2c1-6.8,1-13.5-0.4-20.2
		c-0.1-5.2,5.1-6.2,7.4-9.5c1.8,0,3.7,0,5.5,0c2.4,1.3,4.9,0.7,7.4,0.7c59.9,0.1,119.7,0,179.6,0c4.8,2.1,9.9,2.6,15.1,2.8
		c3.2,0.1,6.3,0.6,8.4,3.3c0,0.5,0,0.9,0,1.4c-0.9,0.1-1.8,0.1-2.7,0.2c-0.8,0.4,0.3,0.1-0.6,0.3
		C423.9,279.5,417.1,283.3,416.7,293.5z"/>
	<path class="st4" d="M435.9,360.6c-2.6-5.9-2-11.9,0-17.8C435.9,348.7,435.9,354.6,435.9,360.6z"/>
	<path class="st5" d="M211.5,383.7c-16,0.1-32.1,0.1-48.1,0.3c-3.2,0-4.3-0.5-3.9-4.1c2.6-23,0.9-46.1,1-69.1
		c0-11.1,1.1-22.3-0.6-33.4c-0.8-5.3,2.3-1.1,3.8-0.7c1.1,2.8,4,3.9,5.8,6c13.8,11.4,24.6,25.7,37.5,38c2.3,2.2,4.3,5,2.1,8.5
		c-7.7,13.2-20.1,22.3-29.7,34c-5,6.1-10.8,11.5-16.6,19.4c10.4,0,19.4-0.2,28.4,0.1C197.9,382.8,204.9,381.3,211.5,383.7z"/>
	<path class="st6" d="M209,329.2c-10.3-13.4-22.5-25.1-34.5-36.9c-2.6-2.6-4.8-5.4-6.9-8.4c-1.4-4.8,2-4.4,4.9-4.6
		c9.4-0.4,18.8-1.2,28.3-0.9c3.2,0.1,6.4,0,9.4-1.1c1.4-0.1,2.8-0.2,4.1-0.3c4.2,5.7,3.2,12.3,2.3,18.4c-1.5,11.3-2.7,22.5-2.4,33.9
		C212.5,329.2,210.8,329.2,209,329.2z"/>
	<path class="st7" d="M405.6,438.7c-30.6,0-61.3,0.1-91.9,0.1c-29.7,0-59.4-0.2-89.1,0c-4.7,0-5.5-1.6-4.6-5.5c2,4.5,6.1,4,10,4
		c55.2,0,110.3,0,165.5,0C399,437.3,402.5,436.8,405.6,438.7z"/>
	<path class="st8" d="M416.7,293.5c-4-16.6-3.9-16.7,13.1-16.4c1.1,0,2.3,0.1,3.4,0.1C427.8,282.8,423.3,289.2,416.7,293.5z"/>
	<path class="st3" d="M210.2,277.2c-3,2.5-6.7,2.4-10.3,2.5c-9.1,0.4-18.1,0.9-27.2,1.4c-2.2,0.1-4,0.6-5.1,2.7
		c-3-1.5-5.4-3.3-4-7.2C179.2,276.8,194.7,277,210.2,277.2z"/>
</g>
</svg>
